<?xml version="1.0" encoding="utf-8"?>
<!-- Generator: Adobe Illustrator 22.0.1, SVG Export Plug-In . SVG Version: 6.00 Build 0)  -->
<svg version="1.1" id="Layer_1" xmlns="http://www.w3.org/2000/svg" xmlns:xlink="http://www.w3.org/1999/xlink" x="0px" y="0px"
	 viewBox="0 0 571 581" style="enable-background:new 0 0 571 581;" xml:space="preserve">
<style type="text/css">
	.st0{fill:#FFFFFF;}
	.st1{fill:none;}
	.st2{fill:none;stroke:#FFFFFF;stroke-width:3;stroke-miterlimit:10;}
</style>
<g id="Layer_1_1_">
	<g>
		<path class="st0" d="M402.3,6.6c-5.9,6.9-10,15.1-13.8,23.3c-8.6,19.8-13.7,40.9-16.9,62.2c-27.1,1.6-53.9,7.2-79.4,16.5
			c-19,6.9-37.3,15.9-54,27.4c-7.2,5-14.7,9.8-22,14.7c-30,20.1-59.5,40.9-88.2,62.8c-19.1,14.7-37.9,29.8-55.7,46
			C61,269.9,50,280.7,40.5,292.7c-5.8,7.5-11.3,15.5-14.2,24.6c-7,21.3-5.3,45.4,5.1,65.3c7.4,14.2,19.3,25.8,33.3,33.4
			c17.6,9.7,37.8,13.6,57.7,14.3c12.6,0.4,25.2-0.2,37.7-2c17.5-6.6,34.4-15,50.6-24.3c16.5-9.7,32.4-20.8,46.3-34.1
			c0.9-1.1,2.4-0.6,3.6-0.7c-1.2,28.9-0.7,58,3.3,86.7c2.4,16.8,6,33.5,12,49.5c4.7,12.3,10.8,24.2,19.2,34.3
			c10.4,12.7,24,22.7,39.4,28.3c19.4,7.1,40.6,7.4,60.7,3.8c19.3-3.5,38.1-10.1,55.5-19.1c4.4-2.1,8-5.5,11.5-9
			c8.6-8.8,15.7-18.9,22-29.4c11-18.5,19.6-38.3,26.9-58.5c15.9-44.3,25.6-90.6,32.8-137c4.2-27.5,7.5-55.1,9.8-82.8
			c2.4-30.3,3.8-60.8,2.5-91.3c-0.8-17.8-2.4-35.7-6.1-53.2c-3.1-14.2-7.4-28.4-15.2-40.7c-2.8-4.2-5.8-8.5-10.1-11.5
			c-15.7-11.3-33.5-19.3-52-24.7C450,7.9,426,5.5,402.3,6.6 M403.6,9.5c24.2-1.1,48.6,1.7,71.7,8.9c15.1,4.7,29.7,11.3,42.9,20.1
			c3.7,2.5,7.5,5,10.2,8.6c9.1,11.5,13.9,25.6,17.4,39.7c4.1,17.1,6,34.7,7,52.2c1.7,32,0.4,64.1-2.1,96c-2.3,28.6-5.8,57-10.1,85.4
			c-7.4,47-17.4,93.8-33.8,138.5c-6.8,18.2-14.6,36-24.5,52.7c-5.2,8.7-10.9,17.2-17.5,24.9c-4.9,5.4-9.9,11.1-16.7,14.2
			c-18.1,9.2-37.6,15.8-57.7,18.9c-19.3,2.9-39.6,2-57.9-5.4c-16.7-6.7-30.8-18.9-40.9-33.7c-6.9-10.2-11.8-21.5-15.7-33.1
			c-5.1-15.7-8.2-32-10.2-48.4c-3-24.9-3.5-50-2.6-75c0.8-20.9,2.5-41.7,5-62.4c24.5,5.2,49.7,5.8,74.6,3.2
			c26.1-2.8,51.9-9.2,76.3-19.1c-4.8,39.2-8.6,78.7-9.5,118.2c-0.3,17.7-0.1,35.4,1.4,53c1.1,12.2,2.8,24.3,5.9,36.2
			c2.1,7.7,4.8,15.3,9.1,22.1c3.1,4.7,7.1,9.2,12.5,11.2c3.8,1.5,8,1,11.8,0c6.6-2.1,11.9-7,16.4-12.1c6.8-7.9,12.1-16.9,16.9-26.1
			c8.7-16.8,15.7-34.5,22.1-52.3c8.4-23.6,15.6-47.6,22.1-71.8c2.4-9.6,5.4-19.1,6.7-28.9c4.6-28.1,8.6-56.4,11.7-84.7
			c3.4-31.6,5.8-63.4,6-95.2c0-16.8-0.6-33.7-2.5-50.4c-1.8-14.9-4.4-29.9-9.7-44c-2.9-7.3-6.3-14.6-12-20c-1.5-1.3-3.2-3.1-5.4-2.7
			c-3.9,0.5-6.4,4-8.3,7.1c-4.4,7.6-6.8,16.1-9.2,24.5c-3.9,14.9-6.7,30.1-9,45.4c-14.3-12.1-31.7-20.2-49.6-25.4
			c-23.3-6.7-47.7-8.8-71.9-7.7c3-19.6,7.6-39,15.1-57.4C393.4,25.8,397.7,17.1,403.6,9.5 M518,54.8c1.3-1.7,2.9-3.6,5.1-3.8
			c1.6,0.5,2.7,1.8,3.8,2.9c5.2,5.6,8.4,12.7,11,19.8c5.3,15,7.8,30.7,9.4,46.5c3,31.7,2.1,63.7,0,95.4
			c-2.9,41.5-8.3,82.7-14.8,123.8c-0.8,4.5-1.4,8.9-2.3,13.4c-6,24.4-12.9,48.5-20.6,72.4c-6.1,18.7-12.8,37.3-20.8,55.3
			c-4.3,9.6-8.9,19-14.4,27.9c-3.9,6.4-8.3,12.6-13.7,17.8c-3.5,3.3-7.4,6.3-12.1,7.6c-2.8,0.6-5.9,1-8.6,0
			c-4.6-1.6-8.2-5.3-10.9-9.2c-4.6-6.8-7.3-14.6-9.5-22.4c-3.3-12.2-4.9-24.8-6-37.4c-1.9-22.9-1.6-45.9-0.7-68.8
			c0-1.8,0.8-3.4,1.4-5c3.6-9.7,6.6-19.6,8.9-29.7c1,0.2,2,0.4,2.9,0.6c5.4-2.5,8.9-7.6,10.9-13c10.8,1.9,21.6,3.5,32.6,4.2
			c3.4,0.1,7,0.1,10.2-1.3c6-2.6,10.1-8.1,13.1-13.6c2.1-4,3.8-8.1,5.1-12.4c-2.8-16.4-4.3-33.2-2.9-49.9c0.6-5.6,1.2-11.3,3-16.6
			c3.7-5.7,7.9-11.2,10.1-17.7c4.8-13.3,8.4-27,12.3-40.6c4.6-16.4,3.5-34.6-4.1-50c-4.3-8.9-10.4-16.8-17.7-23.5
			c1.5-10.9,3.4-21.8,5.7-32.6c2-9.2,4.2-18.4,7.4-27.3C513.4,63.2,515.2,58.7,518,54.8 M381.6,94.7c24.4-0.4,49,2.4,72.1,10.4
			c16.7,5.8,32.8,14.4,45.4,27c10.8,10.7,18.6,24.8,20.5,40c2.3,16.1-2,32.6-9.7,46.8c-8.1,15-19.7,27.9-32.6,38.8
			c-23.7,19.9-51.9,33.9-81.3,43.1c-20.6,6.4-42,10.5-63.5,12c-25,1.7-50.5,0-74.7-6.7c-18.1-5.1-35.8-13-50.2-25.2
			c-11.5-9.8-20.7-22.7-24.4-37.5c-3.7-14.2-2.1-29.3,3.1-42.9c7.1-18.6,20-34.4,34.8-47.5c15-13.3,32.2-24,50.4-32.6
			c31-14.5,64.7-22.9,98.9-25.2c0.3,0.3,0.6,0.6,0.9,0.9c-6,0.1-11.9,0.9-17.9,1.6c-0.1,0.1-0.3,0.4-0.4,0.5l0.1,0.3
			c20.3-2.7,40.9-3,61.1,0c-0.1-0.2-0.2-0.7-0.3-0.9c-1.8,0-3.5-0.3-5.2-0.5c-12.3-1.5-24.7-1.7-37-1.1c0.1-0.3,0.2-0.8,0.2-1
			C375.1,95,378.4,94.7,381.6,94.7 M347.2,99.9v-0.3c1.2-1.3,3.9-0.1,5-1.5l-0.1-0.3c-8.3,1.1-16.6,2.7-24.7,4.6
			c-0.7,0.2-2.2,0.1-1.9,1.3c4.9-1.3,9.8-2.2,14.7-3.3c0,0.2,0.1,0.5,0.2,0.7c-7.3,1.4-14.5,3-21.7,5.1c0-0.5,0.1-1.1,0.1-1.6
			c-6.2,1.8-12.5,3.7-18.6,5.9c-0.5,0.1-0.4,0.6-0.4,0.9c5.7-2.2,11.6-3.9,17.4-5.7c0.4,0.2,0.8,0.4,1.2,0.7
			c-9.1,2.2-17.9,5.5-26.7,8.9c-18.2,7.4-35.6,17-51.1,29.2c-12.2,9.7-23.2,21-31.4,34.2c-6.5,10.5-11,22.3-11.9,34.7
			c-0.8,11,1.6,22.2,6.9,31.8c4.9,8.9,12,16.4,20.1,22.4c15.9,11.6,35,18,54.2,21.3c2.9,0.4,5.9,1.2,8.9,1c0.1,0.2,0.2,0.7,0.3,0.9
			c-5.2-0.6-10.4-1.4-15.5-2.4c-0.8-0.4-1.4,0.2-2.1,0.5c9.9,1.8,19.9,3.2,29.9,3.6c14.2,0.7,28.5-0.2,42.6-2
			c0.2-0.2,0.6-0.6,0.8-0.8c-2.7,0.2-5.5,0.7-8.2,0.8v-0.3c9-0.7,17.8-2.5,26.6-4.2c0.4,0,1.2,0.1,1.6,0.2l-0.2-0.5
			c1.4-0.3,2.9-0.6,4.3-1c0.2-0.1,0.5-0.4,0.6-0.5c0.6,0.1,1.2,0.2,1.8,0.4c-0.5,0-1.5,0-2.1,0c0.1,0.4,0.3,0.8,0.5,1.2
			c1.1-0.5,2.2-0.9,3.4-0.9c0.1-0.2,0.2-0.7,0.3-1c-0.5,0.1-1.6,0.2-2.2,0.2c1.9-0.5,3.7-1.4,5.7-1.2c0.7-0.8,1.9-0.9,2.9-1.3
			c1.1-0.1,2.6-1.1,3.2,0.6l-0.3-1.4c0.8-0.3,1.6-0.6,2.4-0.8c4-1.1,8.1-2.4,12-4.1c2.6-0.7,5-1.8,7.5-2.8c-0.3,0.5-0.7,1-1,1.5
			c17.2-6.8,33.7-15.6,48.6-26.6c5.2-3.7,10-8,14.9-12.1c-0.2-0.3-0.4-0.5-0.6-0.8c-9.2,9-20,16.2-30.8,23.1
			c-0.3,0.1-0.9,0.3-1.2,0.4c3.5-2.5,7.3-4.6,10.8-7.1c12.8-8.8,24.7-19.1,34.4-31.3c9-11.4,16.2-24.7,18.6-39.1
			c1.8-10.6,0.8-21.7-3.2-31.7c-3.8-9.5-10.2-17.8-17.9-24.5c-13.7-11.9-31-19-48.5-23.2c-0.6,0-0.4-0.6-0.4-1
			c8.2,2,16.2,4.4,23.9,7.7c14.2,6.1,27.7,15,36.9,27.7c7.2,9.9,11.3,22,11.2,34.3c0,16.1-6.6,31.4-15.7,44.4
			c-5.1,7.1-10.9,13.9-17.4,19.7c0.3,0.2,0.5,0.4,0.8,0.6c6.6-6.6,13-13.5,18.2-21.3c9-13.2,15.3-28.8,14.9-44.9
			c-0.2-10.1-3.2-20.2-8.5-28.9c-5.2-8.6-12.5-15.8-20.7-21.6c-15.6-10.8-34-16.9-52.5-20.2c0.1,0.7,0.7,1,0.9,1.6
			c-0.7-0.1-2.2-0.2-2.9-0.3c0.4-0.5,0.8-1,1.3-1.6c-0.7-0.1-2.2-0.4-2.9-0.5c0.2,0.7,1.8,1.1,1,1.9C393,95.8,369.9,96.5,347.2,99.9
			 M319.1,104.5c0.4,0.2,0.8,0.4,1.1,0.7c1.7-0.6,3.4-1,5.1-1.3C323.4,102.6,321.2,104.5,319.1,104.5 M292.7,113.4
			c-17.7,7-34.7,16.1-50,27.5c-13.1,9.8-25.1,21.4-34.2,35.1c-7.2,10.9-12.5,23.3-13.6,36.5c-1,10.8,1,21.9,5.9,31.6
			c4.5,9.1,11.4,16.8,19.4,23.1c14.3,11.2,31.7,17.7,49.3,21.6c0.4-0.2,0.7-0.5,1.1-0.7c-3.5-0.4-6.9-1.5-10.3-2.3
			c-11.4-3.2-22.5-7.7-32.5-14.1c-12.5-7.9-23.3-19-28.7-32.9c-4.5-11.5-5-24.3-1.9-36.2c3.3-13,10.1-24.8,18.4-35.1
			c10.6-13.1,23.8-24.1,37.9-33.3c14.4-9.2,29.8-16.8,45.9-22.5c-0.4-0.2-0.8-0.4-1.2-0.6C296.6,112,294.6,112.6,292.7,113.4
			 M395.6,276.5c0.4,0.2,0.8,0.4,1.2,0.6c1.8-0.9,3.7-1.5,5.6-2.2c0-0.1-0.1-0.3-0.1-0.4C400,274.6,397.9,276.1,395.6,276.5
			 M394.7,277.1c0,0.2-0.1,0.6-0.1,0.8C395.7,278.4,395.7,276,394.7,277.1 M392.4,277.8c-2.3,0.9-4.7,1.6-7.1,2.5
			c0,0.2,0.1,0.6,0.1,0.7c2.8-1.1,5.9-1.7,8.6-3.1C393.7,277.3,392.8,277.6,392.4,277.8 M383.9,281.6l0.4-0.2
			c-0.1-0.3-0.2-0.8-0.3-1C383.4,280.8,383.3,281.2,383.9,281.6 M382.1,281.3c0,0.2,0,0.6,0,0.8C383.3,282.9,383,280.2,382.1,281.3
			 M378.2,282c0,0.5-0.1,1-0.1,1.5c0.6-1.4,2.8-0.4,3.2-1.7C380.4,281.3,379.2,282.2,378.2,282 M376.9,283.5c0.2,0,0.6-0.1,0.8-0.2
			c0-0.7-0.3-0.9-1.1-0.8C376.2,283,376.2,283.3,376.9,283.5 M375,284.3l0.5-0.2C376.2,282.6,373.5,283.6,375,284.3 M373,284.5h0.6
			C375,283.5,371.7,283.5,373,284.5 M366.4,286.3c0.3-0.1,0.8-0.2,1.1-0.3c0.4-0.7,0.1-1-0.7-0.9C366.1,285.5,366,285.9,366.4,286.3
			 M363.8,286.3c0.5,0.5,1.2,0.6,1.9,0.2C365.8,285.6,364,285.5,363.8,286.3 M361.6,287.4c0.4-0.2,1.2-0.5,1.5-0.6
			c-0.3-0.1-0.9-0.4-1.2-0.5C361.4,286.6,361.2,287,361.6,287.4 M359.5,287.7c0.3,0,1-0.1,1.4-0.2c-0.1-0.2-0.2-0.5-0.3-0.7
			c-0.3,0-0.9,0.1-1.2,0.1C358.9,287.2,358.9,287.5,359.5,287.7 M356.9,288.3c0.4-0.1,1.2-0.2,1.5-0.3c-0.1-0.8-1.3-0.8-1.9-0.7
			C356.2,287.8,356.3,288.1,356.9,288.3 M354.3,288.8c0.4-0.1,1.1-0.2,1.5-0.2c-0.1-0.8-1.3-0.8-1.9-0.7
			C353.6,288.3,353.7,288.6,354.3,288.8 M351.1,289.3c0.7,0,1.4-0.1,2.1-0.2c-0.1-1-1.7-0.8-2.4-0.6
			C350.5,288.8,350.6,289.1,351.1,289.3 M347.2,289.7c0.9,0.3,1.9-0.1,2.8-0.2c-0.1-0.9-1.6-0.7-2.2-0.5
			C347.6,289.2,347.3,289.5,347.2,289.7 M343.8,290c1.1,0.5,2.3,0,3.5,0.1c-0.4-0.3-0.7-0.5-1.1-0.8
			C345.6,289.7,343.6,288.9,343.8,290 M376.5,98.6c23.4-0.8,47.2,1.9,69.2,10.4c14.8,5.8,29,14.5,38.9,27.2c7.3,9.3,11.7,21,12,32.8
			c0.6,15.3-5.2,30.2-13.6,42.8c-8.2,12.3-18.8,22.9-30.5,32c-14.2,11-30,19.9-46.5,26.9c-20,8.4-41.1,14.2-62.6,17.2
			c-24.3,3.4-49.2,3.3-73.2-2c-16.6-3.7-32.9-10-46.5-20.5c-8-6.2-14.9-14-19.4-23.2c-4.7-9.6-6.5-20.7-5.2-31.3
			c1.4-12.3,6.5-23.9,13.3-34.1c8.6-12.8,19.7-23.8,32-33.1c15.5-11.7,32.7-20.9,50.7-28C321.1,105.5,348.7,99.6,376.5,98.6
			 M355.7,107.1c-5.3,3.9-9.6,9.9-9.9,16.7c-0.4,5,1.7,9.9,4.7,13.9c-5.4,4.9-10.1,11.2-11.1,18.7c-0.8,5.9,1.7,12,6.1,16
			c5.8,5.3,13.6,7.8,21.3,9c11.4,1.6,23,0.2,34-3c9.6-2.9,18.9-7.3,26.6-13.8c5.4-4.6,10.3-10.5,12.1-17.5
			c1.4-5.4,0.2-11.5-3.3-15.8c-4.4-5.7-11.3-8.7-18.1-10.5c-1.2-5-4.3-9.4-8.3-12.6c-6.9-5.7-15.9-8.4-24.7-8.9
			C374.8,98.5,364.1,100.9,355.7,107.1 M285.3,136.3c-8,1.2-16.2,4.6-21.2,11.2c-2.2,3-3.4,7-1.9,10.6c1,2.3,1.3,5,3.1,6.8
			c3.9,4.2,9.9,5.3,15.4,5.3c8.2-0.2,16.6-3,22.7-8.6c3.1-2.9,5.7-7.2,4.8-11.6c-0.6-2-0.4-4.3-1.3-6.2c-1.4-2.9-4.1-4.9-7.1-6.1
			C295.2,135.9,290.1,135.7,285.3,136.3 M302.5,175.2c-7.4,1.5-14.7,4.9-19.8,10.5c-3,3.4-5.1,8-4.2,12.6c0.3,1.8,1.3,3.3,2.1,4.8
			c0.2,1.8,0.1,3.6,0.9,5.3c2,4.8,6.9,7.5,11.7,8.7c8.2,2,16.9,0.7,24.5-2.8c5.2-2.4,10.2-6,13-11.1c2-3.5,2.5-8,0.5-11.6
			c-0.9-1.3-0.3-3-0.5-4.5c-0.4-4.4-3.7-8.1-7.6-10C316.9,174,309.4,173.8,302.5,175.2 M353.7,198.3c-5.1,2.3-10,6.1-11.8,11.5
			c-1.1,3.1-0.6,6.5,0.9,9.5c-0.9,3.9,0.3,8.1,3.1,11c4.6,4.7,11.3,6.7,17.7,7.2c8.7,0.5,17.9-1.4,25-6.8c3.9-3,7.2-7.8,6.4-13
			c-0.1-1.4-1.1-2.7-0.7-4.1c0.9-3.4,0.1-7.1-1.9-9.8c-3-4-7.7-6.4-12.5-7.7C371.2,193.8,361.8,194.6,353.7,198.3 M287.8,225.5
			c-8.3,1.3-16.4,4.2-23.3,9.1c-5.4,3.9-10.1,9.4-11.5,16.1c-1.3,5.5,0.4,11.5,4,15.8c4.5,5.5,11.1,8.8,17.8,10.6
			c11.5,3,23.8,2.1,34.9-2c7.5-2.9,14.8-7.4,19.4-14.1c3.4-4.9,5-11.4,3.2-17.2c-2-6.6-7.5-11.5-13.5-14.4
			C309.3,224.8,298.3,223.9,287.8,225.5 M340.6,100.3c2-0.1,3.9-0.6,5.8-0.8l0.1,0.3c-1.3,0.9-3.2,0.7-4.7,1.2
			C341.4,100.7,341,100.5,340.6,100.3 M419.2,100.2c0.4-0.2,0.8-0.5,1.2-0.7c2.2,0.5,4.4,1,6.6,1.3c-0.4,0.2-0.8,0.5-1.3,0.7
			C423.6,100.9,421.4,100.4,419.2,100.2 M373.9,101.2c9.7-1.6,20-0.5,28.8,4c5.1,2.6,9.8,6.5,12.4,11.7c2,3.9,2.5,8.5,1.3,12.7
			c-1.3,4.6-4.5,8.6-8.3,11.5c-7,4.7-10,13.1-12.4,20.8c-1.6,1.9-4.1,2.4-6.4,2.9c-5.5,1-11.3,0.9-16.6-0.9c-1.3-0.6-3-1.2-3.3-2.7
			c-1.9-7.8-6.5-15-12.9-19.8c-3.4-2.6-6.4-5.9-8-9.9c-1.7-4.1-1.7-8.8-0.1-12.9c1.8-4.6,5.3-8.4,9.3-11.1
			C362.5,104.2,368.2,102.1,373.9,101.2 M375.5,104.4c-5.7,0.7-11.7,2.1-16.3,5.7c-2.5,1.9-4.3,5.2-3.1,8.3c1.6,4,5.8,6.1,9.6,7.6
			c8.6,3,18,3.2,26.8,1.2c4.4-1.1,9.1-2.8,12.2-6.4c1.9-2.1,2.3-5.5,0.8-7.9c-2.1-3.3-5.8-5.2-9.4-6.5
			C389.4,104.2,382.3,103.7,375.5,104.4 M376.2,105c6.8-0.6,13.7,0,20.2,2.3c3.5,1.4,7.2,3.3,8.8,6.9c1.2,2.8-0.5,5.8-2.7,7.6
			c-4.5,3.6-10.4,4.9-16,5.6c-7.8,0.7-16,0.1-23.2-3.3c-3-1.5-6.2-3.7-6.8-7.2c-0.4-2.9,1.7-5.3,3.9-6.9
			C365,106.9,370.7,105.6,376.2,105 M418.5,123.8c5.7,1.6,11.5,4.3,15.3,9.1c3,3.8,4.1,9,2.8,13.6c-1.6,6.2-6,11.4-10.8,15.5
			c-3.9,3.4-8.4,6.1-13,8.5c2.6-2.8,4.4-6.8,2.8-10.5c-2.3-5.5-8-8.4-13.3-10.4c1.5-2.6,3.3-5.1,5.9-6.7
			C414.4,138.5,418.9,131.4,418.5,123.8 M284.7,137.9c5.4-0.8,11.3-0.6,16.2,2c2.8,1.5,5.3,4.2,5.4,7.5c0.2,4.1-2.4,7.7-5.4,10.2
			c-6,5.1-14,7.6-21.8,7.6c-4.8-0.1-10.1-1.1-13.7-4.6c-2.5-2.3-3.2-6.2-1.8-9.3c1.8-4.3,5.7-7.5,9.7-9.7
			C276.9,139.7,280.7,138.5,284.7,137.9 M273.9,156.5c1,0,2,0,3,0c2.7-4.4,5.1-8.9,7.8-13.2c-1,0-2,0-3-0.1
			C279.2,147.7,276.5,152.1,273.9,156.5 M287.1,143.3c-2.6,4.4-5.3,8.8-7.9,13.2c1,0,2.1,0,3.1,0c2.6-4.4,5.2-8.8,7.8-13.2
			C289.1,143.3,288.1,143.3,287.1,143.3 M284.9,156.5c1,0,2.1,0,3.1,0c2.6-4.4,5.2-8.8,7.8-13.2c-1,0-2,0-2.9,0
			C290.1,147.7,287.5,152.1,284.9,156.5 M342.3,156.8c0.8-6.8,5.3-12.5,10.1-17c3.3,3,7.1,5.5,9.7,9.3c-5.4,1.9-11.1,4.5-14,9.7
			c-2,3.5-1,7.9,1.7,10.8c4.6,5,11.4,7.3,17.9,8.8c-0.2-0.3-0.5-0.8-0.6-1.1c-2.3-0.1-4.5-1.1-6.7-1.8c-4.5-1.8-9.1-4.3-11.5-8.6
			c-1.6-2.9-1.1-6.6,0.9-9.1c3.2-4.1,8.1-6.3,12.9-8c1.8,2.6,3.2,5.3,4.4,8.3c-2.3,1.6-4.6,4-4,7c0.8,3.6,4.3,5.6,7.5,6.9
			c7.6,2.8,16.2,2.9,24,0.5c3.5-1.2,7.5-3.1,8.8-6.9c1-3.4-1.8-6.3-4.5-7.9c0.9-2.6,2-5.1,3.4-7.5c4.6,1.9,9.5,4.2,12.2,8.6
			c1.7,2.7,1.5,6.4-0.4,9c-2.7,3.9-7.1,6.2-11.5,7.9c-9.2,3.3-19.3,4-29,2.9c-1.7-0.1-3.4-0.7-5.1-0.7c-0.8,0.1,0.1,0.7,0.4,0.9
			c-7.1-1.3-14.6-3-20.2-7.8C344.2,167.6,341.6,162.2,342.3,156.8 M282,144.4c0.3-0.1,1-0.4,1.4-0.6c-2.1,4-4.5,8-6.9,11.9
			c-0.3,0.1-1,0.2-1.3,0.2C277.4,152.1,279.6,148.2,282,144.4 M287.6,144.2c0.3-0.1,0.9-0.2,1.2-0.2c-2.3,3.9-4.5,8-7,11.7
			c-0.3,0.1-1,0.2-1.3,0.2C282.8,152,285.1,148,287.6,144.2 M292.1,145.7c0.5-0.8,1-1.9,2.2-1.9c-2.2,4-4.5,8-6.9,11.8
			c-0.3,0.1-1,0.2-1.3,0.2C288.1,152.5,290.2,149.2,292.1,145.7 M303,157.7c2.1-1.9,3.3-4.4,4.6-6.8c0.5,3.9-1.8,7.5-4.5,10.1
			c-4.8,4.6-11.3,7.2-17.8,8.2c-5,0.7-10.3,0.5-15-1.5c-2.9-1.2-5.5-3.4-6.4-6.4c4.3,4.5,10.8,5.6,16.8,5.4
			C288.9,166.2,297.1,163.4,303,157.7 M165.7,189.2c15.7-11.2,31.4-22.3,47.5-32.9c-3.4,3.3-6.5,6.9-9.8,10.3
			c-37.6,28.7-75.2,57.3-112.8,86C79.9,260.7,69.3,269,58.4,277c14.2-14.7,29.8-28,45.6-41C124,219.8,144.7,204.3,165.7,189.2
			 M398.4,158.3c2.2,1.4,4.6,3.5,4.2,6.4c-0.7,3.4-4,5.3-6.9,6.5c-7.4,2.8-15.7,2.9-23.2,0.7c-3.4-1.1-7.4-2.9-8.7-6.6
			c-0.8-2.8,1.4-5.1,3.5-6.6c0.5,1.4,0.6,2.9,1.4,4.2c1.6,1.9,4.1,2.6,6.4,3.2c5.1,1.1,10.5,1.1,15.6,0c2.2-0.6,4.7-1.3,6.2-3.1
			C397.7,161.5,397.8,159.8,398.4,158.3 M55.7,280.2c48.6-37.1,97.2-74.2,145.9-111.2c-8.6,10.8-15.9,22.8-19.9,36.1
			c-3.6,11.8-4.5,24.5-1.8,36.6c2.4,11.3,7.8,21.9,15.2,30.7c-6.2-2.1-12.8-3.5-19.3-2.5c-7.8,1.1-15.1,6.1-18.4,13.4
			c-3,5.6-3.5,12.3-1.9,18.4c-0.8,7.5-1.9,15-2.6,22.5c-0.7,11.1,5,22,13.8,28.6c7.5,4.5,15.8,7.6,24.2,10
			c13.3,3.8,27.2,5.6,41.1,5.9c7.1,0.3,14.2,0.5,21.3,0.6c-20.1,18.8-43.9,33.1-68.4,45.1c-8.5,4-17.1,8-26,11.2
			c-22,2.8-44.6,3-66.3-2.1c-17.2-4.1-33.8-12.1-46.1-25c-12.4-12.7-19.8-29.9-21.2-47.6c-1.1-13,0.8-26.3,5.9-38.3
			c4.9-10.5,12.4-19.5,20.1-28.1C52.7,283,54,281.4,55.7,280.2 M305.2,176.2c6-0.8,12.3-0.4,17.7,2.5c3.3,1.7,6.1,4.8,6.5,8.6
			c0.6,4.5-2,8.6-5,11.7c-5.6,5.5-13.2,8.5-20.8,9.5c-5.8,0.7-12,0.2-17.2-2.6c-3.2-1.7-6-4.7-6.5-8.5c-0.6-4.3,1.8-8.4,4.7-11.4
			C290,180.4,297.6,177.3,305.2,176.2 M295.1,180.3c-0.4,0.9-0.8,1.8-1.1,2.7c2.6,1.3,5.1,2.7,7.4,4.5c-4.1,1.4-8.3,2.8-12,5.2
			c-1.9,1.1-1.9,3.5-2.4,5.4c0.2-0.1,0.7-0.4,0.9-0.5c4.7-3.9,10.7-5.9,16.5-7.7c3.9,3,7.2,6.7,10.4,10.4c0.4-1.3,0.9-2.7,1.3-4
			c-2.7-2.6-5.4-5.1-8.1-7.5c4.2-1.3,8.6-2.2,12.9-3.4c0.9-1,1.5-2.3,2.2-3.4c-6.1,1.1-12,2.9-18,4.3
			C301.6,184.2,298.6,181.9,295.1,180.3 M295.4,181.4c3.3,1.7,6.3,3.8,9.4,5.9c5.4-1.6,10.9-3,16.5-4.2c-0.5,1-1.1,1.8-2.3,1.9
			c-4.3,1-8.6,2.1-12.9,3.4c3,2.7,6,5.4,8.9,8.2c-0.2,0.7-0.5,1.3-0.7,2c-3.1-3.4-6.3-6.7-9.8-9.7c-5.7,1.8-11.5,3.7-16.4,7.3
			c0.1-0.5,0.4-1.5,0.5-2c4.2-3.3,9.4-4.7,14.4-6.4c-2.5-2-5.3-3.6-8-5.2C295.2,182.2,295.3,181.7,295.4,181.4 M330.6,191.8
			c2.1,3.4,1.6,7.9-0.4,11.2c-2.9,5.1-8,8.6-13.3,11c-7.3,3.1-15.5,4.3-23.3,2.4c-4.1-1-8.3-3.1-10.6-6.8c-1.1-1.7-1.4-3.7-1.6-5.6
			c5,4.7,12,6.3,18.7,6.1c8.3-0.3,16.6-3,23.1-8.2C326.6,199.3,329.2,195.8,330.6,191.8 M364.4,196.7c7.3-1,15.1-0.3,21.6,3.4
			c3.6,2.1,6.9,5.5,7.2,9.8c0.4,4.6-2.6,8.7-6.1,11.4c-6.5,4.9-14.9,6.9-22.9,6.6c-5.7-0.2-11.5-1.6-16.1-5c-3-2.2-5.4-5.5-5.3-9.3
			c0-4,2.5-7.6,5.5-10.1C352.8,199.6,358.6,197.5,364.4,196.7 M372.3,204.3c-3.5,0.7-7,1.3-10.4,2.3c-3.7,1.5-7.8,0.6-11.7,0.8
			c-0.4,0.9-0.9,1.8-1.3,2.7c3.6,0.1,7.3-0.2,10.9,0.1c5.2,3.3,10.3,6.7,15.5,10c0.3-0.9,0.6-1.8,0.9-2.6c-3.8-3.4-8.1-6.2-12.6-8.6
			c0.3-0.6,1-0.6,1.5-0.8c5.4-1.5,11-2.1,16.6-2.7c0-0.9,0-1.7,0-2.6c-2.8,0.4-5.7,1-8.6,1.2 M386.6,223.4c3-2,5.4-4.7,7.1-7.9
			c1.5,4.1,0.2,8.7-2.7,11.8c-5,5.7-12.6,8.4-20,9.2c-7.9,0.8-16.6-0.3-23-5.3c-3.4-2.6-5.4-6.8-4.8-11.1c4.4,5.8,11.8,8.4,18.8,9
			C370.5,229.9,379.4,228.1,386.6,223.4 M491.7,248.3c7.5-7.8,14.2-16.4,19.6-25.8c-2.3,7.2-4.3,14.4-7.3,21.4
			c-2.5,5.2-5.8,9.9-9.1,14.5c-8.9,12.4-18.5,24.4-29,35.5c-5.4,5.8-11.5,10.9-17.2,16.3c-6,5.7-12,11.6-16.9,18.4
			c-2.4,3.4-4.7,7.2-5.2,11.4c-0.4,2.9,0.9,5.9,3.2,7.6c1.2,0.7,2.5,1.1,3.8,1.6c-1.8,3.9-4.3,7.6-8.2,9.7
			c-3.4-0.6-6.8-1.2-10.2-1.8c1.7-20.9,4-41.8,6.6-62.6C447.8,283.4,472.2,268.4,491.7,248.3 M291,226.5c9.4-0.9,19.2,0.2,27.8,4.5
			c5.3,2.7,10.2,7,12.1,12.9c1.8,5.1,0.6,10.9-2.3,15.4c-4.3,6.7-11.2,11.2-18.4,14.1c-10.5,4.1-22.3,5.2-33.3,2.7
			c-6.9-1.6-13.8-4.8-18.5-10.3c-3.4-4-5-9.4-3.9-14.6c1.2-6,5.3-11,10.1-14.7C272.1,230.7,281.5,227.5,291,226.5 M432.9,258.6
			c0.2,0.1,0.4,0.3,0.7,0.4c-1,0.3-1.8,0.8-2.6,1.4c-0.3,0.1-0.9,0.3-1.2,0.4C430.8,260.1,431.9,259.4,432.9,258.6 M429.3,260.7
			c0.2,0.1,0.4,0.3,0.7,0.4c-6.5,3.1-12.8,6.9-19.5,9.4c0.3-0.5,1-0.6,1.5-0.9c4.7-2.1,9.2-4.3,13.7-6.7
			C426.8,262.3,428.1,261.7,429.3,260.7 M479.6,293.8c4.2-8.8,8.7-17.4,13.5-25.9c-2.5,16.9-1.5,34.1,0.9,51c0.3,2.3,0.9,4.6,1,6.9
			c-2.3,7-5.4,14.1-10.7,19.5c-3.6,3.7-9,6-14.2,4.7c-1.9-0.6-4.5-1-5.2-3.2c-1.9-5-0.7-10.4,0.3-15.4
			C468.3,318.2,473.9,305.9,479.6,293.8 M403.8,273.4c1.8-1.1,3.8-1.9,5.9-2.5C407.9,272,405.8,272.7,403.8,273.4 M160.7,280.3
			c4.3-5.9,11.6-9.2,18.8-9.4c6.1-0.1,12.2,1.4,17.7,4c2.5,2.4,4.8,5,7.4,7.3c-7.5-3.9-16.1-6.5-24.6-5.7
			c-7.6,0.7-14.8,4.4-19.8,10.1c-1.1,1.3-2.4,2.7-2.9,4.5c-0.5,2-0.8,4-1.2,6C155.4,291.2,157.4,285.2,160.7,280.3 M460.9,303
			c8.7-8,16.3-17.1,23.9-26.1c-6.8,13.2-13.3,26.5-18.4,40.4c-2.3,6.5-4.4,13.1-5.2,20c-0.4,4.2-0.4,8.7,1.9,12.4
			c-10.5-1.1-21-2.7-31.3-4.8c-1-0.2-1.4-1.2-1.8-2c-1-2.8,0.3-5.6,1.5-8.1c3.3-6,8-11.1,12.8-16C449.6,313.3,455.2,308.1,460.9,303
			 M160.9,290.4c4.6-6.3,11.9-10.5,19.6-11.1c8.7-0.8,17.3,2.3,24.8,6.5c8.6,4.6,16.4,10.6,23.5,17.3c6.5,6.1,13.1,12.5,21.4,15.9
			c4.3,2,9.1,2.7,13.5,4.2c0,0.4-0.1,1.1-0.1,1.4c-14.7-3.5-29.3-7.6-43.5-12.7c-6.6-2.4-12.9-5.6-19.7-7.6
			c-9.1-2.7-18.9-4.4-28.4-2.6c-5.8,1.1-11.2,4-14.8,8.7c0.7-5.6,1.4-11.2,2.4-16.7C160,292.6,160.1,291.4,160.9,290.4 M288.2,290.4
			c12.8,1.4,25.7,1.6,38.5,0.7c0.6,0,1.1,0,1.6,0.3c-12.9,1.2-26,0.9-38.9-0.2C289,290.9,288.6,290.6,288.2,290.4 M226.6,297
			c1.7,0.8,3.5,1.6,5,2.9c3.4,2.9,6.8,5.8,10.2,8.7c6,5.6,13.9,8.7,21.7,11c0.4,0.2,0.7,0.4,1.1,0.7c-5.1-1.3-10.2-2.4-14.9-4.7
			C240.6,311.2,233.9,303.6,226.6,297 M235.6,301.3c9.5,4.1,19.5,7.3,29.6,9.6c-0.3,2.4-0.6,4.9-0.8,7.3c-6.9-1.8-13.6-4.5-19.3-8.7
			C241.9,306.8,238.7,304.1,235.6,301.3 M161.5,310.3c4.4-4.4,10.9-6,17-6.3c7.9-0.3,15.7,1.4,23.2,3.8c5.7,1.8,11,4.6,16.7,6.6
			c14.7,5.4,29.8,9.6,45,13.3c-1.3,12.9-2.2,25.7-2.9,38.7c-11.8,0.1-23.6-0.4-35.3-0.9c-17.1-1.1-34.2-4.4-49.8-11.5
			c-3.3-1.6-6.8-3-9.5-5.7c-6-5.7-10.2-13.6-10.1-22C155.8,320.6,157.2,314.5,161.5,310.3 M415.2,360c1.7,0.3,3.4,0.6,5,0.9
			c-1.7,8-4.2,15.9-6.6,23.7C413.9,376.3,414.6,368.2,415.2,360L415.2,360z"/>
		<path class="st0" d="M402.3,6.6c23.7-1.1,47.7,1.3,70.5,7.9c18.4,5.4,36.3,13.4,51.8,24.8c4.3,2.9,7.3,7.2,10.1,11.5
			c7.8,12.3,12.2,26.5,15.2,40.7c3.7,17.5,5.3,35.4,6.1,53.2c1.3,30.4,0,60.9-2.5,91.3c-2.3,27.7-5.6,55.3-9.8,82.8
			c-7.2,46.4-16.9,92.7-32.8,137c-7.3,20.2-15.9,40-26.9,58.5c-6.3,10.5-13.4,20.6-22,29.4c-3.5,3.4-7.1,6.8-11.5,9
			c-17.4,9-36.2,15.6-55.5,19.1c-20.1,3.6-41.4,3.3-60.7-3.8c-15.4-5.6-29.1-15.6-39.4-28.3c-8.4-10.2-14.6-22-19.2-34.3
			c-6-15.9-9.6-32.7-12-49.5c-4-28.7-4.5-57.8-3.3-86.7c-1.2,0.1-2.7-0.4-3.6,0.7c-13.8,13.3-29.7,24.4-46.3,34.1
			c-16.2,9.4-33.1,17.7-50.6,24.3c-12.4,1.8-25.1,2.4-37.7,2c-19.9-0.8-40.1-4.7-57.7-14.3c-14-7.6-25.9-19.2-33.3-33.4
			c-10.4-19.9-12.1-44-5.1-65.3c2.9-9.1,8.4-17.1,14.2-24.6c9.6-12,20.6-22.8,31.8-33.2c17.8-16.3,36.6-31.4,55.7-46
			c28.7-21.9,58.2-42.7,88.2-62.8c7.3-4.9,14.8-9.7,22-14.7c16.7-11.4,35-20.4,54-27.4c25.5-9.2,52.3-14.8,79.4-16.5
			c3.2-21.3,8.3-42.4,16.9-62.2C392.2,21.7,396.4,13.5,402.3,6.6 M403.6,9.5c-5.9,7.6-10.2,16.3-13.9,25.1
			C382.2,53,377.6,72.4,374.6,92c24.2-1.1,48.6,1,71.9,7.7c17.9,5.2,35.2,13.3,49.6,25.4c2.3-15.3,5-30.5,9-45.4
			c2.3-8.4,4.8-16.9,9.2-24.5c1.9-3.1,4.4-6.6,8.3-7.1c2.2-0.4,3.8,1.4,5.4,2.7c5.7,5.5,9.2,12.8,12,20c5.3,14.1,7.9,29.1,9.7,44
			c1.9,16.7,2.5,33.6,2.5,50.4c-0.1,31.8-2.5,63.6-6,95.2c-3.1,28.3-7.1,56.6-11.7,84.7c-1.4,9.8-4.3,19.3-6.7,28.9
			c-6.5,24.2-13.7,48.2-22.1,71.8c-6.4,17.8-13.4,35.5-22.1,52.3c-4.8,9.2-10.1,18.2-16.9,26.1c-4.5,5.1-9.8,10-16.4,12.1
			c-3.8,1-8,1.5-11.8,0c-5.4-2.1-9.5-6.5-12.5-11.2c-4.3-6.8-7-14.4-9.1-22.1c-3.2-11.8-4.8-24-5.9-36.2c-1.6-17.6-1.7-35.3-1.4-53
			c0.9-39.5,4.7-79,9.5-118.2c-24.4,9.9-50.1,16.3-76.3,19.1c-24.8,2.6-50.1,1.9-74.6-3.2c-2.5,20.7-4.3,41.6-5,62.4
			c-0.9,25-0.4,50.1,2.6,75c2,16.4,5.1,32.7,10.2,48.4c3.8,11.6,8.8,23,15.7,33.1c10,14.8,24.2,27,40.9,33.7
			c18.2,7.4,38.5,8.3,57.9,5.4c20.1-3.1,39.6-9.7,57.7-18.9c6.8-3.1,11.8-8.8,16.7-14.2c6.6-7.7,12.4-16.2,17.5-24.9
			c9.9-16.7,17.7-34.5,24.5-52.7c16.5-44.7,26.4-91.5,33.8-138.5c4.4-28.3,7.8-56.8,10.1-85.4c2.5-31.9,3.9-64,2.1-96
			c-1-17.6-2.9-35.1-7-52.2c-3.5-14-8.3-28.2-17.4-39.7c-2.7-3.6-6.5-6.1-10.2-8.6c-13.2-8.8-27.8-15.4-42.9-20.1
			C452.2,11.2,427.8,8.4,403.6,9.5 M518,54.8c-2.8,3.9-4.5,8.4-6.2,12.9c-3.2,8.9-5.4,18.1-7.4,27.3c-2.3,10.8-4.2,21.6-5.7,32.6
			c7.2,6.7,13.4,14.6,17.7,23.5c7.6,15.4,8.7,33.5,4.1,50c-3.8,13.6-7.4,27.3-12.3,40.6c-2.3,6.5-6.4,12-10.1,17.7
			c-1.8,5.4-2.5,11-3,16.6c-1.4,16.7,0.1,33.4,2.9,49.9c-1.2,4.3-3,8.4-5.1,12.4c-3,5.6-7.1,11-13.1,13.6c-3.2,1.5-6.8,1.5-10.2,1.3
			c-10.9-0.8-21.8-2.4-32.6-4.2c-2,5.4-5.6,10.5-10.9,13c-1-0.2-2-0.4-2.9-0.6c-2.3,10.1-5.3,20-8.9,29.7c-0.6,1.6-1.4,3.2-1.4,5
			c-0.9,22.9-1.2,45.9,0.7,68.8c1.1,12.6,2.7,25.2,6,37.4c2.1,7.8,4.9,15.6,9.5,22.4c2.7,3.9,6.2,7.6,10.9,9.2c2.8,1,5.8,0.5,8.6,0
			c4.7-1.2,8.7-4.3,12.1-7.6c5.4-5.2,9.7-11.5,13.7-17.8c5.5-8.9,10.1-18.4,14.4-27.9c8-18,14.7-36.6,20.8-55.3
			c7.8-23.9,14.6-48,20.6-72.4c0.9-4.4,1.5-8.9,2.3-13.4c6.6-41,11.9-82.3,14.8-123.8c2.1-31.8,3-63.7,0-95.4
			c-1.6-15.7-4.1-31.5-9.4-46.5c-2.6-7.1-5.8-14.2-11-19.8c-1.1-1.1-2.3-2.4-3.8-2.9C520.8,51.2,519.2,53.1,518,54.8 M381.6,94.7
			c-3.2,0-6.4,0.4-9.6,0.2c-0.1,0.3-0.2,0.8-0.2,1c12.3-0.7,24.8-0.4,37,1.1c1.7,0.2,3.5,0.5,5.2,0.5c0.1,0.2,0.2,0.7,0.3,0.9
			c-20.2-3-40.9-2.7-61.1,0l-0.1-0.3c0.1-0.1,0.3-0.4,0.4-0.5c6-0.7,11.9-1.4,17.9-1.6c-0.3-0.3-0.6-0.6-0.9-0.9
			c-34.1,2.3-67.9,10.7-98.9,25.2c-18.1,8.5-35.3,19.3-50.4,32.6c-14.8,13.1-27.7,28.9-34.8,47.5c-5.2,13.6-6.8,28.8-3.1,42.9
			c3.7,14.8,12.8,27.7,24.4,37.5c14.4,12.3,32.1,20.2,50.2,25.2c24.3,6.7,49.7,8.4,74.7,6.7c21.6-1.5,42.9-5.6,63.5-12
			c29.4-9.2,57.6-23.2,81.3-43.1c12.9-11,24.5-23.8,32.6-38.8c7.7-14.2,11.9-30.6,9.7-46.8c-2-15.2-9.7-29.3-20.5-40
			c-12.6-12.6-28.7-21.2-45.4-27C430.6,97.1,406,94.2,381.6,94.7 M165.7,189.2c-21,15.1-41.6,30.6-61.7,46.9
			c-15.8,13-31.4,26.3-45.6,41c10.8-8,21.4-16.3,32.2-24.4c37.6-28.7,75.2-57.3,112.8-86c3.3-3.4,6.4-7,9.8-10.3
			C197.1,167,181.3,178,165.7,189.2 M55.7,280.2c-1.7,1.3-3,2.9-4.5,4.4c-7.7,8.6-15.2,17.6-20.1,28.1c-5.2,12-7,25.3-5.9,38.3
			c1.4,17.6,8.8,34.9,21.2,47.6c12.3,12.9,28.9,20.9,46.1,25c21.7,5.1,44.3,4.9,66.3,2.1c8.9-3.2,17.4-7.1,26-11.2
			c24.6-12,48.4-26.4,68.4-45.1c-7.1-0.1-14.2-0.3-21.3-0.6c-13.9-0.3-27.7-2.1-41.1-5.9c-8.4-2.4-16.7-5.5-24.2-10
			c-8.8-6.6-14.5-17.5-13.8-28.6c0.7-7.5,1.8-15,2.6-22.5c-1.6-6.1-1-12.8,1.9-18.4c3.3-7.3,10.6-12.2,18.4-13.4
			c6.5-1.1,13.2,0.3,19.3,2.5c-7.4-8.8-12.8-19.4-15.2-30.7c-2.7-12.1-1.8-24.8,1.8-36.6c4-13.3,11.3-25.4,19.9-36.1
			C152.9,206,104.4,243.1,55.7,280.2 M491.7,248.3c-19.6,20.2-43.9,35.2-69.7,46.2c-2.6,20.8-4.9,41.7-6.6,62.6
			c3.4,0.6,6.8,1.1,10.2,1.8c3.8-2.1,6.4-5.8,8.2-9.7c-1.3-0.5-2.7-0.9-3.8-1.6c-2.3-1.7-3.6-4.7-3.2-7.6c0.5-4.2,2.7-8,5.2-11.4
			c4.9-6.7,10.9-12.6,16.9-18.4c5.7-5.5,11.8-10.6,17.2-16.3c10.5-11.1,20.1-23,29-35.5c3.3-4.7,6.6-9.4,9.1-14.5
			c3-6.9,5-14.2,7.3-21.4C505.9,231.9,499.2,240.5,491.7,248.3 M479.6,293.8c-5.7,12.1-11.2,24.4-14.4,37.4c-1,5-2.2,10.5-0.3,15.4
			c0.7,2.2,3.3,2.6,5.2,3.2c5.2,1.3,10.6-1,14.2-4.7c5.3-5.4,8.4-12.4,10.7-19.5c-0.1-2.3-0.8-4.6-1-6.9c-2.4-16.9-3.4-34.1-0.9-51
			C488.3,276.4,483.8,285,479.6,293.8 M160.7,280.3c-3.3,4.9-5.3,10.9-4.6,16.8c0.5-2,0.7-4.1,1.2-6c0.4-1.8,1.7-3.1,2.9-4.5
			c5-5.7,12.2-9.5,19.8-10.1c8.6-0.8,17.1,1.8,24.6,5.7c-2.6-2.3-5-4.8-7.4-7.3c-5.5-2.6-11.6-4.1-17.7-4
			C172.3,271.1,165,274.4,160.7,280.3 M460.9,303c-5.6,5.2-11.3,10.3-16.7,15.8c-4.7,4.9-9.5,10-12.8,16c-1.2,2.4-2.5,5.3-1.5,8.1
			c0.4,0.8,0.8,1.8,1.8,2c10.4,2.1,20.8,3.7,31.3,4.8c-2.3-3.7-2.4-8.2-1.9-12.4c0.8-6.9,2.9-13.5,5.2-20
			c5.1-13.9,11.6-27.2,18.4-40.4C477.2,285.9,469.6,295,460.9,303 M160.9,290.4c-0.7,1-0.9,2.2-1.1,3.4c-1,5.5-1.7,11.2-2.4,16.7
			c3.6-4.7,9.1-7.6,14.8-8.7c9.5-1.8,19.3-0.2,28.4,2.6c6.8,2,13,5.2,19.7,7.6c14.2,5.2,28.8,9.3,43.5,12.7c0-0.4,0.1-1.1,0.1-1.4
			c-4.5-1.5-9.2-2.2-13.5-4.2c-8.4-3.4-15-9.8-21.4-15.9c-7.1-6.8-14.9-12.7-23.5-17.3c-7.5-4.2-16.1-7.3-24.8-6.5
			C172.8,279.9,165.4,284.1,160.9,290.4 M226.6,297c7.3,6.6,14,14.2,23,18.5c4.7,2.4,9.9,3.5,14.9,4.7c-0.3-0.3-0.7-0.5-1.1-0.7
			c-7.8-2.3-15.7-5.4-21.7-11c-3.4-2.9-6.8-5.8-10.2-8.7C230.1,298.6,228.3,297.9,226.6,297 M235.6,301.3c3.1,2.8,6.3,5.5,9.5,8.2
			c5.7,4.3,12.5,6.9,19.3,8.7c0.2-2.4,0.6-4.9,0.8-7.3C255.1,308.6,245.1,305.5,235.6,301.3 M161.5,310.3c-4.2,4.1-5.6,10.3-5.7,16
			c-0.1,8.4,4.1,16.4,10.1,22c2.6,2.7,6.2,4.1,9.5,5.7c15.7,7,32.8,10.4,49.8,11.5c11.8,0.5,23.5,0.9,35.3,0.9
			c0.6-12.9,1.6-25.8,2.9-38.7c-15.2-3.7-30.3-7.8-45-13.3c-5.6-2-11-4.8-16.7-6.6c-7.5-2.5-15.3-4.1-23.2-3.8
			C172.4,304.3,165.9,305.9,161.5,310.3 M415.2,360c-0.6,8.2-1.3,16.3-1.6,24.5c2.4-7.8,4.9-15.7,6.6-23.7
			C418.6,360.6,416.9,360.3,415.2,360 M347.2,99.9c22.6-3.5,45.8-4.1,68.4-0.5c0.8-0.8-0.9-1.1-1-1.9c0.7,0.1,2.2,0.4,2.9,0.5
			c-0.4,0.5-0.8,1.1-1.3,1.6c0.7,0.1,2.2,0.2,2.9,0.3c-0.1-0.6-0.8-0.9-0.9-1.6c18.5,3.2,36.9,9.3,52.5,20.2
			c8.2,5.8,15.5,13,20.7,21.6c5.3,8.7,8.3,18.7,8.5,28.9c0.4,16.2-5.9,31.8-14.9,44.9c-5.2,7.8-11.6,14.7-18.2,21.3
			c-0.3-0.2-0.5-0.4-0.8-0.6c6.6-5.8,12.3-12.6,17.4-19.7c9.2-12.9,15.7-28.3,15.7-44.4c0.1-12.2-4-24.4-11.2-34.3
			c-9.2-12.6-22.7-21.6-36.9-27.7c-7.7-3.3-15.8-5.8-23.9-7.7c0,0.4-0.2,0.9,0.4,1C445,106,462.3,113.1,476,125
			c7.7,6.7,14.1,15,17.9,24.5c4.1,10,5.1,21.1,3.2,31.7c-2.5,14.5-9.6,27.7-18.6,39.1c-9.7,12.2-21.5,22.5-34.4,31.3
			c-3.5,2.5-7.3,4.6-10.8,7.1c0.3-0.1,0.9-0.3,1.2-0.4c10.8-6.9,21.6-14.1,30.8-23.1c0.2,0.3,0.4,0.5,0.6,0.8
			c-4.9,4.1-9.7,8.4-14.9,12.1c-14.9,11-31.4,19.8-48.6,26.6c0.3-0.5,0.6-1,1-1.5c-2.5,0.9-4.9,2.1-7.5,2.8c-3.9,1.7-7.9,2.9-12,4.1
			c-0.8,0.3-1.6,0.6-2.4,0.8l0.3,1.4c-0.6-1.7-2.1-0.8-3.2-0.6c-1,0.3-2.2,0.5-2.9,1.3c-2-0.1-3.8,0.7-5.7,1.2
			c0.5-0.1,1.6-0.2,2.2-0.2c-0.1,0.2-0.2,0.7-0.3,1c-1.2,0-2.4,0.4-3.4,0.9c-0.2-0.4-0.4-0.8-0.5-1.2c0.5,0,1.5,0,2.1,0
			c-0.6-0.2-1.2-0.3-1.8-0.4c-0.2,0.1-0.5,0.4-0.6,0.5c-1.4,0.4-2.9,0.7-4.3,1l0.2,0.5c-0.4,0-1.2-0.1-1.6-0.2
			c-8.8,1.7-17.7,3.5-26.6,4.2v0.3c2.8-0.1,5.5-0.6,8.2-0.8c-0.2,0.2-0.6,0.6-0.8,0.8c-14.1,1.8-28.4,2.7-42.6,2
			c-10.1-0.4-20-1.8-29.9-3.6c0.7-0.3,1.3-0.9,2.1-0.5c5.1,1.1,10.3,1.8,15.5,2.4c-0.1-0.2-0.2-0.7-0.3-0.9c-3,0.2-5.9-0.6-8.9-1
			c-19.2-3.3-38.4-9.6-54.2-21.3c-8.1-6-15.2-13.5-20.1-22.4c-5.3-9.6-7.8-20.8-6.9-31.8c0.9-12.3,5.4-24.2,11.9-34.7
			c8.2-13.3,19.2-24.6,31.4-34.2c15.5-12.2,32.9-21.8,51.1-29.2c8.7-3.4,17.5-6.8,26.7-8.9c-0.4-0.2-0.8-0.4-1.2-0.7
			c-5.8,1.8-11.7,3.5-17.4,5.7c0-0.4-0.1-0.8,0.4-0.9c6.1-2.3,12.4-4.1,18.6-5.9c0,0.5-0.1,1.1-0.1,1.6c7.1-2.1,14.4-3.7,21.7-5.1
			c0-0.2-0.1-0.5-0.2-0.7c-4.9,1-9.9,2-14.7,3.3c-0.4-1.2,1.1-1,1.9-1.3c8.2-1.9,16.4-3.5,24.7-4.6l0.1,0.3c-1.1,1.3-3.8,0.2-5,1.5
			L347.2,99.9 M376.5,98.6c-27.8,1-55.4,6.9-81.3,17c-18,7.1-35.3,16.3-50.7,28c-12.2,9.3-23.4,20.2-32,33.1
			c-6.8,10.2-11.9,21.8-13.3,34.1c-1.3,10.7,0.5,21.7,5.2,31.3c4.4,9.2,11.4,17,19.4,23.2c13.6,10.5,29.9,16.8,46.5,20.5
			c24,5.3,48.9,5.4,73.2,2c21.5-3,42.6-8.8,62.6-17.2c16.5-7,32.3-15.9,46.5-26.9c11.7-9.1,22.3-19.7,30.5-32
			c8.4-12.6,14.1-27.5,13.6-42.8c-0.4-11.9-4.7-23.5-12-32.8c-9.9-12.7-24-21.4-38.9-27.2C423.7,100.5,399.9,97.9,376.5,98.6
			 M340.6,100.3c0.4,0.2,0.8,0.5,1.2,0.7c1.5-0.5,3.3-0.2,4.7-1.2l-0.1-0.3C344.4,99.6,342.5,100.2,340.6,100.3 M419.2,100.2
			c2.2,0.2,4.4,0.7,6.6,1.3c0.4-0.2,0.8-0.5,1.3-0.7c-2.2-0.4-4.4-0.8-6.6-1.3C420,99.7,419.6,99.9,419.2,100.2 M432.9,258.6
			c-1,0.8-2.1,1.5-3.2,2.2c0.3-0.1,0.9-0.3,1.2-0.4c0.8-0.6,1.6-1.1,2.6-1.4C433.4,258.9,433.1,258.8,432.9,258.6 M429.3,260.7
			c-1.1,0.9-2.4,1.5-3.7,2.2c-4.5,2.4-9,4.7-13.7,6.7c-0.5,0.3-1.1,0.4-1.5,0.9c6.8-2.5,13-6.3,19.5-9.4
			C429.7,261,429.5,260.9,429.3,260.7 M403.8,273.4c2-0.7,4.2-1.3,5.9-2.5C407.6,271.5,405.6,272.3,403.8,273.4 M288.2,290.4
			c0.4,0.3,0.8,0.5,1.3,0.8c12.9,1,26,1.4,38.9,0.2c-0.5-0.3-1.1-0.3-1.6-0.3C313.9,292,301,291.7,288.2,290.4 M329.5,290.8v0.2
			c1.8,0.3,3.9,0.4,5.5-0.6C333.2,290.5,331.3,290.6,329.5,290.8 M355.7,107.1c8.4-6.2,19.1-8.5,29.3-8c8.8,0.5,17.8,3.3,24.7,8.9
			c4,3.2,7,7.6,8.3,12.6c6.8,1.7,13.7,4.8,18.1,10.5c3.5,4.4,4.7,10.4,3.3,15.8c-1.8,7.1-6.6,12.9-12.1,17.5
			c-7.7,6.5-17,10.9-26.6,13.8c-11,3.2-22.6,4.6-34,3c-7.7-1.1-15.5-3.6-21.3-9c-4.4-4-6.9-10.1-6.1-16c0.9-7.4,5.7-13.8,11.1-18.7
			c-3-4-5-8.8-4.7-13.9C346.2,117,350.4,111,355.7,107.1 M373.9,101.2c-5.7,1-11.3,3-16.1,6.3c-4,2.7-7.5,6.5-9.3,11.1
			c-1.6,4.1-1.6,8.8,0.1,12.9c1.6,4,4.6,7.4,8,9.9c6.5,4.8,11,12,12.9,19.8c0.3,1.6,2,2.2,3.3,2.7c5.3,1.8,11.1,1.9,16.6,0.9
			c2.3-0.5,4.9-1,6.4-2.9c2.4-7.7,5.3-16.2,12.4-20.8c3.8-2.9,6.9-6.8,8.3-11.5c1.2-4.2,0.7-8.9-1.3-12.7
			c-2.6-5.2-7.3-9.1-12.4-11.7C393.9,100.7,383.6,99.6,373.9,101.2 M418.5,123.8c0.4,7.7-4.2,14.7-10.3,19c-2.6,1.6-4.4,4.1-5.9,6.7
			c5.2,2,11,4.9,13.3,10.4c1.5,3.7-0.3,7.8-2.8,10.5c4.6-2.3,9.1-5.1,13-8.5c4.8-4.1,9.1-9.3,10.8-15.5c1.3-4.7,0.2-9.9-2.8-13.6
			C430,128,424.2,125.4,418.5,123.8 M342.3,156.8c-0.7,5.4,1.9,10.8,6.1,14.1c5.7,4.8,13.1,6.5,20.2,7.8c-0.2-0.2-1.2-0.8-0.4-0.9
			c1.7,0,3.4,0.5,5.1,0.7c9.7,1.1,19.8,0.4,29-2.9c4.3-1.7,8.8-3.9,11.5-7.9c1.9-2.6,2.1-6.3,0.4-9c-2.7-4.4-7.6-6.8-12.2-8.6
			c-1.4,2.4-2.5,4.9-3.4,7.5c2.7,1.6,5.5,4.5,4.5,7.9c-1.3,3.8-5.3,5.6-8.8,6.9c-7.7,2.4-16.3,2.3-24-0.5c-3.2-1.3-6.7-3.3-7.5-6.9
			c-0.6-3,1.8-5.4,4-7c-1.1-2.9-2.6-5.7-4.4-8.3c-4.8,1.7-9.7,3.9-12.9,8c-2,2.5-2.5,6.2-0.9,9.1c2.4,4.4,7.1,6.8,11.5,8.6
			c2.2,0.7,4.4,1.7,6.7,1.8c0.2,0.3,0.5,0.8,0.6,1.1c-6.5-1.5-13.2-3.8-17.9-8.8c-2.7-2.8-3.6-7.3-1.7-10.8c2.9-5.2,8.6-7.8,14-9.7
			c-2.6-3.8-6.4-6.3-9.7-9.3C347.6,144.3,343.1,150,342.3,156.8 M398.4,158.3c-0.5,1.5-0.7,3.2-1.5,4.6c-1.5,1.8-4,2.5-6.2,3.1
			c-5.1,1.1-10.4,1.1-15.6,0c-2.3-0.6-4.8-1.3-6.4-3.2c-0.8-1.3-0.9-2.8-1.4-4.2c-2.1,1.5-4.3,3.8-3.5,6.6c1.3,3.7,5.2,5.4,8.7,6.6
			c7.5,2.2,15.8,2.1,23.2-0.7c2.9-1.2,6.3-3.1,6.9-6.5C403,161.8,400.6,159.7,398.4,158.3 M319.1,104.5c2.1,0,4.3-1.9,6.3-0.7
			c-1.7,0.3-3.5,0.8-5.1,1.3C319.8,104.9,319.5,104.7,319.1,104.5 M375.5,104.4c6.8-0.7,13.9-0.2,20.4,2c3.6,1.3,7.3,3.1,9.4,6.5
			c1.6,2.4,1.1,5.8-0.8,7.9c-3.1,3.6-7.7,5.3-12.2,6.4c-8.8,2-18.2,1.8-26.8-1.2c-3.8-1.5-8-3.6-9.6-7.6c-1.2-3.1,0.6-6.4,3.1-8.3
			C363.8,106.4,369.7,105,375.5,104.4 M376.2,105c-5.5,0.6-11.2,1.8-15.9,5.1c-2.2,1.6-4.3,4-3.9,6.9c0.6,3.5,3.8,5.7,6.8,7.2
			c7.2,3.4,15.4,4,23.2,3.3c5.6-0.7,11.5-2,16-5.6c2.2-1.7,3.9-4.7,2.7-7.6c-1.6-3.6-5.3-5.5-8.8-6.9C390,105,383,104.4,376.2,105
			 M292.7,113.4c1.9-0.8,3.8-1.4,5.6-2.3c0.4,0.2,0.8,0.4,1.2,0.6c-16.1,5.6-31.5,13.3-45.9,22.5c-14.2,9.2-27.3,20.1-37.9,33.3
			c-8.3,10.3-15.2,22.1-18.4,35.1c-3.1,11.9-2.6,24.7,1.9,36.2c5.4,13.9,16.2,25.1,28.7,32.9c10,6.4,21.1,10.9,32.5,14.1
			c3.4,0.9,6.8,2,10.3,2.3c-0.4,0.2-0.8,0.5-1.1,0.7c-17.6-3.9-35-10.4-49.3-21.6c-8-6.2-14.9-14-19.4-23.1
			c-4.9-9.7-7-20.8-5.9-31.6c1.2-13.1,6.5-25.5,13.6-36.5c9.1-13.7,21-25.3,34.2-35.1C258,129.5,275,120.4,292.7,113.4 M285.3,136.3
			c4.9-0.6,9.9-0.4,14.5,1.4c2.9,1.2,5.7,3.2,7.1,6.1c1,1.9,0.8,4.2,1.3,6.2c0.9,4.4-1.7,8.7-4.8,11.6c-6.1,5.6-14.5,8.4-22.7,8.6
			c-5.5,0-11.5-1.1-15.4-5.3c-1.8-1.9-2.1-4.5-3.1-6.8c-1.5-3.6-0.3-7.6,1.9-10.6C269,140.9,277.2,137.5,285.3,136.3 M284.7,137.9
			c-3.9,0.6-7.8,1.9-11.3,3.7c-4,2.2-7.9,5.3-9.7,9.7c-1.4,3.1-0.7,7,1.8,9.3c3.6,3.5,8.8,4.5,13.7,4.6c7.8,0,15.8-2.5,21.8-7.6
			c2.9-2.6,5.6-6.1,5.4-10.2c-0.2-3.3-2.6-6-5.4-7.5C295.9,137.3,290.1,137.1,284.7,137.9 M303,157.7c-5.9,5.7-14.2,8.6-22.3,9
			c-5.9,0.2-12.5-1-16.8-5.4c1,3,3.6,5.2,6.4,6.4c4.7,2,10,2.3,15,1.5c6.5-1,13-3.6,17.8-8.2c2.7-2.6,4.9-6.2,4.5-10.1
			C306.3,153.3,305.1,155.8,303,157.7 M273.9,156.5c2.6-4.4,5.3-8.8,7.9-13.2c1,0,2,0,3,0.1c-2.7,4.3-5.2,8.8-7.8,13.2
			C275.9,156.5,274.9,156.5,273.9,156.5 M287.6,144.2c-2.5,3.8-4.8,7.8-7.1,11.8c0.3-0.1,1-0.2,1.3-0.2c2.5-3.8,4.7-7.8,7-11.7
			C288.5,144,287.9,144.1,287.6,144.2 M284.9,156.5c2.6-4.4,5.3-8.8,7.9-13.2c1,0,2,0,2.9,0c-2.6,4.4-5.2,8.8-7.8,13.2
			C286.9,156.5,285.9,156.5,284.9,156.5 M302.5,175.2c6.9-1.3,14.4-1.2,20.8,2.1c3.9,1.9,7.2,5.6,7.6,10c0.2,1.5-0.4,3.1,0.5,4.5
			c2,3.6,1.5,8.1-0.5,11.6c-2.9,5.1-7.8,8.7-13,11.1c-7.6,3.4-16.4,4.7-24.5,2.8c-4.8-1.2-9.7-3.9-11.7-8.7
			c-0.8-1.7-0.6-3.5-0.9-5.3c-0.8-1.6-1.9-3.1-2.1-4.8c-1-4.6,1.2-9.3,4.2-12.6C287.8,180,295.1,176.7,302.5,175.2 M305.2,176.2
			c-7.6,1.1-15.2,4.2-20.6,9.7c-2.9,3-5.3,7.1-4.7,11.4c0.4,3.7,3.2,6.8,6.5,8.5c5.2,2.8,11.4,3.3,17.2,2.6c7.7-1,15.3-4,20.8-9.5
			c3.1-3,5.6-7.2,5-11.7c-0.4-3.8-3.2-6.8-6.5-8.6C317.5,175.8,311.1,175.4,305.2,176.2 M330.6,191.8c-1.4,4-4,7.5-7.3,10.1
			c-6.5,5.2-14.8,7.9-23.1,8.2c-6.7,0.2-13.7-1.4-18.7-6.1c0.2,1.9,0.5,3.9,1.6,5.6c2.3,3.7,6.5,5.8,10.6,6.8
			c7.8,1.8,16,0.7,23.3-2.4c5.3-2.3,10.4-5.9,13.3-11C332.1,199.7,332.7,195.3,330.6,191.8 M353.7,198.3c8.1-3.6,17.5-4.5,26.2-2.3
			c4.7,1.3,9.5,3.6,12.5,7.7c2.1,2.8,2.9,6.5,1.9,9.8c-0.4,1.4,0.6,2.7,0.7,4.1c0.8,5.2-2.5,10-6.4,13c-7.1,5.4-16.3,7.3-25,6.8
			c-6.4-0.5-13.1-2.4-17.7-7.2c-2.8-2.8-4.1-7.1-3.1-11c-1.5-2.9-2-6.3-0.9-9.5C343.7,204.4,348.6,200.6,353.7,198.3 M364.4,196.7
			c-5.8,0.9-11.6,2.9-16.2,6.7c-3,2.5-5.5,6-5.5,10.1c0,3.8,2.3,7.2,5.3,9.3c4.6,3.4,10.4,4.8,16.1,5c8,0.2,16.4-1.7,22.9-6.6
			c3.5-2.7,6.5-6.7,6.1-11.4c-0.3-4.3-3.6-7.8-7.2-9.8C379.5,196.4,371.7,195.7,364.4,196.7 M386.6,223.4
			c-7.2,4.8-16.1,6.5-24.6,5.8c-7-0.6-14.4-3.2-18.8-9c-0.6,4.3,1.4,8.5,4.8,11.1c6.5,5,15.1,6.1,23,5.3c7.4-0.9,14.9-3.6,20-9.2
			c2.9-3.1,4.2-7.7,2.7-11.8C392,218.7,389.6,221.4,386.6,223.4 M287.8,225.5c10.4-1.6,21.5-0.6,31,4c6,2.9,11.5,7.8,13.5,14.4
			c1.9,5.8,0.3,12.3-3.2,17.2c-4.7,6.7-11.9,11.3-19.4,14.1c-11.1,4.1-23.5,5-34.9,2c-6.7-1.8-13.4-5.1-17.8-10.6
			c-3.6-4.3-5.2-10.3-4-15.8c1.4-6.7,6.1-12.2,11.5-16.1C271.4,229.6,279.5,226.7,287.8,225.5 M291,226.5c-9.5,1-18.9,4.1-26.5,10
			c-4.8,3.7-8.9,8.7-10.1,14.7c-1.1,5.1,0.6,10.6,3.9,14.6c4.7,5.5,11.5,8.7,18.5,10.3c11,2.5,22.8,1.4,33.3-2.7
			c7.2-2.9,14.2-7.4,18.4-14.1c2.9-4.5,4-10.2,2.3-15.4c-1.9-5.8-6.8-10.1-12.1-12.9C310.2,226.8,300.4,225.6,291,226.5
			 M395.6,276.5c2.3-0.4,4.4-1.9,6.7-2.1c0,0.1,0.1,0.3,0.1,0.4c-1.9,0.8-3.8,1.3-5.6,2.2C396.4,276.9,396,276.7,395.6,276.5
			 M394.7,277.1c1-1.1,1,1.4-0.1,0.8C394.6,277.6,394.7,277.2,394.7,277.1 M392.4,277.8c0.5-0.2,1.3-0.5,1.6,0.1
			c-2.7,1.4-5.8,1.9-8.6,3.1c0-0.2-0.1-0.6-0.1-0.7C387.6,279.4,390,278.7,392.4,277.8 M383.9,281.6c-0.6-0.4-0.5-0.8,0.2-1.2
			c0.1,0.2,0.2,0.7,0.3,1L383.9,281.6 M382.1,281.3c0.9-1.1,1.2,1.6,0,0.8C382.1,281.8,382.1,281.4,382.1,281.3 M378.2,282
			c1,0.2,2.2-0.8,3.1-0.2c-0.4,1.4-2.7,0.3-3.2,1.7C378.1,283.1,378.2,282.5,378.2,282 M376.9,283.5c-0.6-0.2-0.7-0.6-0.2-1
			c0.7-0.2,1.1,0.1,1.1,0.8C377.5,283.4,377.1,283.5,376.9,283.5 M375,284.3c-1.5-0.6,1.2-1.7,0.5-0.2L375,284.3 M366.4,286.3
			c-0.4-0.4-0.3-0.8,0.4-1.2c0.8-0.1,1.1,0.2,0.7,0.9C367.2,286.1,366.7,286.3,366.4,286.3 M363.8,286.3c0.2-0.8,2-0.7,1.9,0.2
			C364.9,286.8,364.3,286.8,363.8,286.3 M361.6,287.4c-0.4-0.4-0.2-0.8,0.4-1.1c0.3,0.1,0.9,0.4,1.2,0.5
			C362.7,286.9,362,287.3,361.6,287.4 M359.5,287.7c-0.6-0.2-0.6-0.5-0.2-0.8c0.3,0,0.9-0.1,1.2-0.1c0.1,0.2,0.2,0.5,0.3,0.7
			C360.5,287.5,359.8,287.6,359.5,287.7 M356.9,288.3c-0.6-0.2-0.7-0.5-0.3-0.9c0.6-0.2,1.8-0.1,1.9,0.7
			C358.1,288.1,357.3,288.2,356.9,288.3 M354.3,288.8c-0.6-0.2-0.8-0.5-0.4-0.9c0.6-0.2,1.8-0.1,1.9,0.7
			C355.5,288.6,354.7,288.7,354.3,288.8 M351.1,289.3c-0.5-0.2-0.6-0.5-0.3-0.8c0.7-0.2,2.2-0.4,2.4,0.6
			C352.5,289.2,351.8,289.3,351.1,289.3 M347.2,289.7c0.1-0.2,0.4-0.5,0.5-0.7c0.6-0.1,2.1-0.3,2.2,0.5
			C349.1,289.6,348.1,290,347.2,289.7 M343.8,290c-0.2-1.1,1.8-0.3,2.4-0.7c0.4,0.3,0.7,0.5,1.1,0.8
			C346.1,290,344.8,290.6,343.8,290L343.8,290z"/>
		<path class="st0" d="M295.1,180.3c3.5,1.6,6.6,4,9.8,6c6-1.4,11.9-3.2,18-4.3c-0.7,1.2-1.3,2.4-2.2,3.4c-4.3,1.2-8.6,2.1-12.9,3.4
			c2.8,2.4,5.5,5,8.1,7.5c-0.4,1.3-0.8,2.7-1.3,4c-3.2-3.7-6.5-7.4-10.4-10.4c-5.8,1.7-11.7,3.8-16.5,7.7c-0.2,0.1-0.7,0.4-0.9,0.5
			c0.5-1.9,0.5-4.4,2.4-5.4c3.7-2.4,7.9-3.8,12-5.2c-2.3-1.7-4.8-3.2-7.4-4.5C294.3,182.1,294.7,181.2,295.1,180.3"/>
		<path class="st0" d="M373,284.5c-1.3-1,2-1,0.6,0H373L373,284.5z"/>
		<path class="st0" d="M329.5,290.8c1.8-0.3,3.7-0.3,5.5-0.4c-1.6,1-3.7,0.9-5.5,0.6V290.8L329.5,290.8z"/>
	</g>
	<line class="st1" x1="373.1" y1="204.1" x2="372.3" y2="204.3"/>
	<g>
		<path class="st2" d="M373.5,101.2c9.7-1.6,20-0.5,28.8,4c5.1,2.6,9.8,6.5,12.4,11.7c2,3.9,2.5,8.5,1.3,12.7
			c-1.3,4.6-4.5,8.6-8.3,11.5c-7,4.7-10,13.1-12.4,20.8c-1.6,1.9-4.1,2.4-6.4,2.9c-5.5,1-11.3,0.9-16.6-0.9c-1.3-0.6-3-1.2-3.3-2.7
			c-1.9-7.8-6.5-15-12.9-19.8c-3.4-2.6-6.4-5.9-8-9.9c-1.7-4.1-1.7-8.8-0.1-12.9c1.8-4.6,5.3-8.4,9.3-11.1
			C362.1,104.2,367.8,102.1,373.5,101.2"/>
	</g>
</g>
</svg>
