<?xml version="1.0" encoding="utf-8"?>
<!-- Generator: Adobe Illustrator 22.0.1, SVG Export Plug-In . SVG Version: 6.00 Build 0)  -->
<svg version="1.1" xmlns="http://www.w3.org/2000/svg" xmlns:xlink="http://www.w3.org/1999/xlink" x="0px" y="0px"
	 viewBox="0 0 571 581" style="enable-background:new 0 0 571 581;" xml:space="preserve">
<style type="text/css">
	.st0{fill:none;stroke:#FFFFFF;stroke-width:0;stroke-miterlimit:10;}
	.st1{fill:#FFFFFF;stroke:#FFFFFF;stroke-width:0;stroke-miterlimit:10;}
	.st2{fill:none;}
</style>
<g id="Layer_2">
	<rect class="st0" width="571" height="581"/>
</g>
<g id="Layer_1">
	<g>
		<path class="st1" d="M137.7,8.5c13.9-2,28-2.5,42.1-1.9c5.9,7,10.1,15.2,13.9,23.6c8.6,19.7,13.6,40.7,16.8,61.9
			c25.9,1.6,51.7,6.8,76.2,15.3c18.9,6.7,37.3,15.3,54,26.4c14.3,9.7,28.8,19.1,43,28.9c32.3,22.2,64.2,45.2,94.7,69.9
			c18.3,15,36.3,30.5,52.5,47.8c7.3,7.9,14.3,16.1,19.7,25.4c4.3,7.2,6.8,15.4,8.3,23.7c3.6,21-0.8,43.5-12.9,61.1
			c-9.2,13.6-22.9,23.8-38,30.1c-20,8.3-42,10.5-63.4,9.7c-7.5-0.3-15-0.8-22.4-2c-10.9-4.1-21.5-9-31.9-14.2
			c-23.5-12-46.1-26.2-65.2-44.5c-0.9-0.8-2.2-0.3-3.3-0.5c0.8,20.3,0.8,40.6-0.6,60.9c-1.2,16.4-3.2,32.7-6.9,48.8
			c-3.3,14.4-7.8,28.6-14.6,41.8c-8,15.6-19.8,29.4-34.7,38.8c-16.2,10.4-35.7,14.9-54.9,14.5c-14.7-0.2-29.4-2.9-43.5-7.1
			c-12.9-3.9-25.6-9-37.4-15.5c-5.6-3.6-10.1-8.5-14.4-13.5c-10.4-12.3-18.7-26.2-25.9-40.5c-10.1-20-18-41.1-24.7-62.5
			C49.7,388.8,41,341.1,34.6,293.3c-5-38.8-8.5-77.8-9.1-116.9c-0.2-24.6,0.6-49.2,4.5-73.5c2.3-14,5.6-27.9,11.3-40.8
			c3.3-7.2,7.4-14.2,12.9-20c3.4-3,7.2-5.5,11-7.9C87.1,20.4,112.2,12.1,137.7,8.5 M78.4,29.9c-7.6,4-15.1,8.4-21.8,13.9
			C52.3,48,49,53.2,46.2,58.6c-6.3,12.4-9.9,26-12.4,39.6c-4.7,25.8-5.6,52-5.4,78.2c0.5,38.4,3.9,76.7,8.8,114.8
			c6.1,46.3,14.4,92.4,27.8,137.2c6.5,21.7,14.3,43,24.1,63.4c7.3,15.1,15.8,29.8,26.4,42.8c4.4,5.2,9,10.3,14.7,14.2
			c6.6,3.7,13.6,6.8,20.6,9.7c21.4,8.4,44.4,13.8,67.5,12.5c13.1-0.7,26.1-3.8,37.7-9.8c14.5-7.4,26.7-19,35.5-32.6
			c7-10.9,11.9-22.9,15.7-35.2c4.3-14.3,7.1-29,8.9-43.8c2.7-22.2,3.4-44.7,2.9-67.1c-0.6-23.7-2.3-47.3-5.3-70.8
			c-28.3,5.8-57.5,5.9-86,1.7c-22.2-3.3-44-9.2-64.8-17.6c3,24.5,5.6,49,7.4,73.6c1.9,26.9,2.9,53.8,1.8,80.8
			c-0.9,19.1-2.6,38.3-8.1,56.7c-2.7,8.5-6.1,17.2-12.2,23.8c-3.9,4.2-9.4,7.5-15.3,6.7c-5.4-0.3-10.3-2.9-14.4-6.2
			c-5.8-4.7-10.3-10.7-14.5-16.9c-5.4-8.2-10-16.9-14.2-25.7c-8.3-17.7-15.2-36.1-21.5-54.6c-8-23.6-14.9-47.6-21.1-71.8
			c-0.9-3.9-2.1-7.7-2.7-11.6c-8.7-53.3-15.8-106.9-18-160.9c-0.9-24.9-0.8-49.8,2-74.6c1.7-14.3,4.2-28.6,9-42.2
			c2.6-7.1,5.9-14.2,10.9-20c1.6-1.8,3.4-3.6,5.7-4.5c2.7-0.4,5.2,1.2,7,3.1c3,3.4,4.9,7.6,6.7,11.7c3.3,8.4,5.6,17.2,7.7,26
			c2.7,11.9,4.9,24,6.7,36.2c14.3-12.1,31.7-20.2,49.6-25.4c23.3-6.7,47.7-8.8,71.9-7.7c-3-19.4-7.5-38.7-15-57
			c-3.7-9-8.1-17.8-14.1-25.5C144.1,8,109.1,14.2,78.4,29.9 M54.6,54.4c-5.3,6-8.5,13.5-11.1,21C39,88.8,36.6,102.9,35,117
			c-1.8,17.1-2.4,34.3-2.3,51.4c0.3,35,3.3,69.9,7.4,104.7c3.2,26.4,7,52.7,11.4,78.9c4.5,18.8,9.7,37.5,15.4,56
			c6.6,21.6,13.9,43,22.5,63.9c5.8,13.8,12.2,27.5,20.4,40.1c4.5,6.8,9.5,13.5,16.2,18.3c4,2.9,9.1,4.6,14.1,4
			c5-0.9,8.9-4.5,11.8-8.4c4.6-6.3,7.5-13.7,9.7-21.2c3.2-11.1,5-22.6,6.1-34.1c2.4-24.8,2.2-49.7,1.2-74.5c0-2-1-3.8-1.6-5.7
			c-3.5-9.5-6.4-19.1-8.6-29c-1.3,0.1-2.7,0.8-3.9,0c-4.9-2.6-8.1-7.5-10-12.5c-8.8,1.6-17.6,2.9-26.5,3.8
			c-4.1,0.4-8.3,0.9-12.4,0.3c-5.4-0.9-9.9-4.5-13.1-8.7c-4.1-5.5-6.9-11.9-8.9-18.4c1.9-10.9,3.2-22,3.4-33.1
			c0.2-10-0.3-20.1-2.5-29.9c-0.4-1.5-0.6-3.2-1.6-4.5c-2.9-4.2-5.8-8.4-8-13.1c-1.8-4.1-3.2-8.3-4.6-12.5
			c-3.2-9.8-5.9-19.8-8.7-29.7c-3.7-12.2-4.5-25.3-1.5-37.8c3.3-14.6,11.8-27.7,22.7-37.7c-2.7-18.5-6-36.9-11.4-54.8
			c-1.9-6-4-12-7.4-17.3c-1.4-1.9-3-4.1-5.5-4.4C57.2,51.6,55.9,53.1,54.6,54.4 M153.8,98.4c-18.4,3.5-36.6,9.5-52.7,19.4
			c-12.7,7.8-24.2,18.4-31.4,31.6c-6.7,12.3-9.4,26.7-7.4,40.6c2.2,16.5,10,31.7,20.1,44.7c10.8,14,24.3,25.7,38.9,35.6
			c17.6,11.9,36.9,21.1,57,28c20.9,7.1,42.6,11.8,64.5,13.9c25.3,2.3,51,1.3,75.8-4.7c18-4.4,35.5-11.4,50.5-22.5
			c11.8-8.7,21.9-20.4,27.2-34.2c4.7-12.1,5.6-25.6,2.9-38.3c-3.4-15.8-11.6-30.2-21.8-42.5c-11-13.2-24.3-24.4-38.6-33.8
			c-18.1-11.9-37.9-21-58.5-27.7c-22.6-7.4-46.1-11.9-69.8-13.3l0.1,0.9c8.5,0.4,16.9,1.5,25.2,2.7c0.2,0.2,0.6,0.6,0.9,0.9
			c-2.3-0.2-4.6-0.6-6.8-0.9c-17.8-2.4-35.8-3-53.7-1.1c0.1-0.2,0.2-0.7,0.2-0.9c1.8,0.1,3.5-0.2,5.3-0.3c9.6-0.7,19.3-0.8,28.9-0.2
			l-0.1-0.9C191.6,94,172.5,94.9,153.8,98.4 M368.9,156.3c3,3.1,6,6.3,8.9,9.5c2.9,2.6,6.1,4.7,9.2,7.1
			c36.5,27.8,73,55.7,109.5,83.5c9.1,6.8,18,13.9,27.2,20.6c-17.9-18.3-37.6-34.7-57.6-50.6C434.7,201.8,402.1,178.6,368.9,156.3
			 M380.6,169.2c10.8,13.3,19.2,28.9,22.1,45.9c1.8,10.7,1.2,21.9-2.1,32.2c-2.8,9.1-7.6,17.6-13.7,24.9c6.6-2.3,13.9-3.7,20.8-2.2
			c7.2,1.5,13.8,6.3,16.9,13c3,5.6,3.6,12.3,1.9,18.5c0.5,4.9,1.3,9.8,1.8,14.7c0.3,3.5,1.1,6.9,0.8,10.5c-0.1,5.7-1.9,11.2-4.8,16
			c-3.2,5-7.3,9.6-12.7,12.1c-16.6,8.3-35.1,12.2-53.5,13.4c-9.8,0.5-19.6,0.7-29.3,1c17.7,16.7,38.5,29.8,60,40.9
			c10.9,5.6,22.1,10.8,33.6,15.2c3.7,0.8,7.6,0.9,11.4,1.4c23,1.9,46.8,0.8,68.7-7.2c15.6-5.7,29.9-15.4,39.6-29
			c12.2-16.6,16.9-38.2,14-58.5c-1.3-8.7-3.7-17.3-8.2-24.9c-5.1-8.7-11.7-16.5-18.5-24c-2.6-3-6-5-9-7.4
			c-46.6-35.6-93.2-71.1-139.8-106.7L380.6,169.2 M70.7,222.5c2,6.1,3.8,12.3,6.1,18.4c2,5.5,5.4,10.3,8.6,15.1
			c8.9,12.8,18.6,24.9,29.2,36.3c7.2,7.8,15.5,14.5,23,22.1c5.7,5.7,11.4,11.6,15.4,18.7c2.1,3.8,3.6,8.8,0.9,12.6
			c-1.2,2-3.6,2.7-5.6,3.5c1.6,3.3,3.6,6.6,6.6,8.7c0.7,0.4,1.4,1.1,2.3,0.8c3.2-0.5,6.3-1.1,9.5-1.6c-1.7-20.9-4-41.8-6.6-62.7
			c-17.1-7.3-33.5-16.3-48.5-27.5C95.4,254.8,80.9,240.1,70.7,222.5 M89,268c2.7,19,1.3,38.4-1.9,57.3c-0.1,0.7,0.3,1.4,0.5,2.1
			c1.9,5.2,4.1,10.3,7.4,14.7c2.3,3,5.1,5.7,8.6,7.1c4,1.7,8.8,1.3,12.4-1c2-2.2,2-5.5,2-8.3c-0.4-7.6-2.8-14.9-5.3-22
			C106.4,300.6,98,284.1,89,268 M385.8,274.4c-1.1,0.4-1.8,1.3-2.6,2.1c-1.8,2-3.8,3.8-5.8,5.6c8.2-4.2,17.5-7,26.8-5.4
			c7.9,1.3,15.2,5.9,19.7,12.5c1.3,2.4,1.3,5.3,2,7.8c0.5-4.9-0.7-9.9-3-14.2c-3.1-6.1-9.4-10.3-16.1-11.5
			C399.7,270.1,392.4,271.7,385.8,274.4 M97.3,276.9c5.2,10.2,10.3,20.4,14.7,31c3.6,8.7,6.9,17.6,8.5,26.9c0.8,5,1.1,10.5-1.6,14.9
			c10.6-1.2,21.1-2.7,31.6-4.8c2.7-1.7,2.1-5.6,1-8.2c-3.4-7.6-9.5-13.6-15.2-19.5c-7.5-7.7-16-14.4-23.3-22.3
			C107.5,289.1,102.4,282.9,97.3,276.9 M370.1,289.7c-7.7,4.8-14.4,11-21,17.3c-5.7,5.4-12.1,10.3-19.5,13c-3.7,1.5-7.6,2-11.3,3.3
			c0,0.4,0.1,1.1,0.1,1.4c14.6-3.4,29.1-7.5,43.2-12.6c6.2-2.2,12.1-5.2,18.3-7.2c9.3-3,19.2-4.8,28.9-3.3c6.1,0.9,12,3.9,15.9,8.8
			c-0.9-6.4-1.4-12.9-3-19.1c-5-7.9-14.6-12.6-23.9-12.1C387.7,279.6,378.5,284.4,370.1,289.7 M350.7,299.7
			c-4.4,3.7-8.6,7.4-12.9,11.1c-5.5,4.1-12.1,6.8-18.7,8.6c-0.6,0.1-1.1,0.4-1.6,0.9c5.1-1.3,10.2-2.4,14.9-4.7
			c9-4.3,15.7-11.9,23-18.5C353.8,297.8,352.1,298.5,350.7,299.7 M316.8,310.9c0.3,2.4,0.6,4.9,0.8,7.3c6.8-1.8,13.4-4.4,19.1-8.5
			c3.3-2.8,6.5-5.6,9.7-8.4C336.9,305.4,327,308.6,316.8,310.9 M374.7,309.9c-18,7.9-37,13.1-56,17.8c1.3,12.9,2.2,25.8,2.9,38.7
			c6.2,0,12.4-0.1,18.6-0.3c10-0.3,20-0.5,29.9-1.9c14.2-2,28.4-5.7,41.2-12.4c3.6-1.7,6.3-4.6,8.7-7.7c4.4-5.6,6.9-12.8,6.3-19.9
			c-0.4-5.2-2-10.5-5.9-14.2c-4.7-4.5-11.4-5.9-17.7-6.1C393,303.9,383.6,306.4,374.7,309.9 M161.8,360.9c1.7,8,4.1,15.8,6.6,23.6
			c-0.3-8.2-1-16.3-1.6-24.5C165.2,360.3,163.5,360.6,161.8,360.9 M161.8,98.6c4.7-0.4,9.3-1.5,14.1-1.8c-0.4,0.3-0.8,0.6-1.3,0.9
			c-3,0.1-6,0.8-9.1,1c0.4,0.3,0.7,0.5,1.1,0.8c30.8-4.9,62.6-2.1,92.7,5.7c20.9,5.5,41.1,13.5,59.7,24.4
			c14.3,8.4,27.8,18.5,39.2,30.6c11.2,12,20.6,26.3,24.6,42.3c3.2,12.5,2.4,26-2.8,37.9c-6,14.1-17.6,25.1-30.7,32.7
			c-17.8,10.4-38.2,15.5-58.5,17.5c-15.4,1.5-30.9,1.2-46.2-0.6c-6.9-0.7-13.7-2.1-20.6-3.1c-1.7-0.5-3.5-1.1-5.3-0.9
			c-0.3-0.9-1.4-0.5-2.1-0.6c-0.9-0.6-2-0.9-2.8,0.2c0.9-2-1.1-1-1.9-1c-0.1-1.4-1.4-0.8-2.2-0.6c0.5,0,1.4,0,1.8,0
			c0.1,0.5,0.2,1,0.3,1.5c-1.1-0.9-2.5-0.9-3.8-1.4c0.3-0.5,0.8-0.7,1.4-0.6v-0.1c-1.1-0.2-2.2-0.5-3.3-0.5
			c-0.6-0.6-1.4-0.6-2.2-0.3c-0.4-1.4-2.9-1.4-3.8-0.6c0.3-1.3-0.2-1.6-1.4-1c-0.2-0.6-0.7-0.9-1.4-0.8c-1.3-0.8-2.7-0.9-4.1-1.4
			c-1.8-0.6-3.5-1.4-5.4-1.6c-0.6-0.4-1.2-0.7-1.8-1.1c-2.3-0.5-4.3-1.8-6.6-2.2c1.9,1.1,4.1,1.6,6.1,2.6c1.1,0.3-0.9,1.6-1,0.3
			c-18.1-6.8-35.5-15.6-51.2-26.9c-16.7-12-32-26.8-41.9-45.1c-7.4-13.6-11.3-29.6-8.4-45c2.5-14.1,10.8-26.8,21.6-36
			c14.4-12.4,32.6-19.6,50.9-23.7c1.8-0.5,3.8-0.5,5.5-1.5c-0.3,0.7-0.7,1.3-0.7,2c1.8-0.4,3.7-0.8,5.6-0.9
			c-0.4-0.3-0.8-0.5-1.2-0.8c-1.1,0.2-2.2,0.4-3.3,0.6C161.5,99.3,161.7,98.8,161.8,98.6 M202.9,98.5c-22.1-0.5-44.5,2.2-65.3,9.9
			c-15.2,5.7-29.8,14.4-39.9,27.3c-8.4,10.6-13,24.3-12.3,37.8c0.7,14.6,6.7,28.5,15,40.4c11.1,15.8,26,28.7,42.2,39.1
			c17,11,35.6,19.3,54.8,25.4c20.7,6.5,42.2,10.5,63.9,11.4c23.4,0.9,47.3-1.5,69.4-9.7c15.1-5.6,29.6-14.2,39.7-26.9
			c6.4-8,10.8-17.7,12.2-27.9c1.3-9.3,0.2-18.9-2.7-27.8c-3.5-10.6-9.3-20.3-16.2-28.9c-9.2-11.5-20.3-21.2-32.3-29.6
			c-16.1-11.2-33.8-19.9-52.3-26.4C254.8,104.2,228.9,99.2,202.9,98.5 M156.8,100.5c-18.6,4.1-37.1,11.3-51.7,23.8
			c-10.9,9.3-19.2,22-21.6,36.3c-2.7,15,1.1,30.5,8.3,43.7c4.7,8.8,10.9,16.7,17.5,24.2c0.2-0.2,0.4-0.4,0.5-0.6
			c-1.3-1-2.3-2.3-3.4-3.6c-6.8-7.9-12.6-16.7-16.8-26.3c-5.6-12.8-7.7-27.4-4.1-41c3.4-13.8,12.3-25.8,23.4-34.4
			c14.6-11.4,32.4-18.1,50.5-21.7c0.1-0.1,0.2-0.4,0.2-0.5C158.8,99.8,157.8,100.3,156.8,100.5 M109.5,228.5
			c8.1,8.3,16.9,15.8,26.4,22.4c5.3,3.6,10.6,7.1,16.3,10c-0.3-0.2-0.9-0.7-1.3-0.9c-14.7-8.5-28.7-18.7-40.3-31.2
			C110.4,228.7,109.8,228.5,109.5,228.5 M152.1,260.7c1.3,1.2,3,1.9,4.5,2.7c2.2,1.1,4.2,2.4,6.5,3.2c-1.4-1.1-3.1-1.7-4.6-2.6
			C156.4,263,154.3,261.7,152.1,260.7 M163.1,266.5c2.7,1.8,5.8,3.1,8.9,4.2C169.2,269.1,166.1,267.8,163.1,266.5 M171.9,270.7
			c2.4,1.4,5,2.4,7.7,3.2C177.1,272.6,174.5,271.5,171.9,270.7 M176.2,105.2c9.3-5.6,20.6-7.2,31.2-5.6c8.1,1.2,16.1,4.4,22,10.2
			c3.8,3.7,6.5,8.7,6.8,14.1c0.3,4.6-1.3,9.1-4,12.8c-0.2,0.4-1,1.1-0.3,1.4c4.9,4.6,9.3,10.4,10.5,17.2c1.1,5.5-0.7,11.4-4.4,15.5
			c-4.9,5.5-12.2,8.4-19.3,9.9c-12.5,2.5-25.6,1.1-37.7-2.5c-10.1-3.1-19.8-7.8-27.6-14.9c-5.1-4.6-9.6-10.5-11-17.4
			c-1.1-5.4,0.5-11.2,4.1-15.4c4.4-5.3,11-8.2,17.6-9.8C165.6,114,170.5,108.6,176.2,105.2 M191.4,101.2c-7.5,1.3-14.9,4.4-20.4,9.9
			c-3.7,3.8-6.3,8.9-6.1,14.3c0.1,5.4,3,10.4,6.9,14c2,1.9,4.5,3.2,6.2,5.4c4,4.9,6.3,10.9,8,16.8c0.5,1.3,2,1.8,3.1,2.3
			c5.3,1.8,11.1,1.9,16.6,0.9c2.3-0.5,4.9-1,6.4-2.9c2-7.9,6.3-15.4,12.9-20.3c3.5-2.6,6.6-6,8.3-10.1c1.8-4.3,1.7-9.4-0.2-13.7
			c-2.4-5.5-7.2-9.7-12.5-12.5C211.8,100.7,201.3,99.5,191.4,101.2 M149.2,131.7c-2.9,3.1-4.6,7.3-4.2,11.5c0.3,5,2.9,9.6,6,13.4
			c4.9,5.9,11.4,10.3,18.2,13.7c-2.4-2.8-4.2-6.7-2.7-10.4c2.3-5.5,8-8.4,13.3-10.4c-0.8-1.3-1.6-2.6-2.6-3.7
			c-1.8-2.3-4.5-3.5-6.5-5.6c-4.5-4.2-7.4-10.2-7.1-16.4C158.3,125.3,153,127.6,149.2,131.7 M219.9,149.1c5.3,1.9,11.1,4.5,14,9.7
			c2,3.5,1,8-1.7,10.8c-4.4,4.8-10.8,7.1-17.1,8.6c0-0.2,0.1-0.7,0.1-0.9c5.8-1.2,11.6-3.5,15.9-7.7c2.7-2.6,4-6.8,2.1-10.3
			c-2.8-5.2-8.6-7.8-13.9-9.6c-1.8,2.6-3.2,5.3-4.4,8.3c1.9,1.4,3.9,3.2,4.1,5.8c0.2,2.7-1.7,4.9-3.8,6.3c-4,2.6-8.9,3.7-13.6,4
			c-6,0.3-12.3-0.3-17.7-3.1c-2.5-1.4-5.2-3.5-5.3-6.6c-0.1-3,2.3-5.2,4.7-6.6c-0.9-2.6-2-5.1-3.4-7.5c-4.5,1.8-9.3,4.1-12,8.3
			c-1.8,2.6-1.8,6.3-0.1,8.9c2.7,4.2,7.3,6.5,11.7,8.2c10.7,3.9,22.5,4.2,33.7,2.2c1.1-0.2,0.7,0.7,0.1,1c0.6-0.1,1.2-0.2,1.8-0.5
			c6.9-1,14-3.3,19.2-8c3.9-3.5,6.1-8.8,5.2-14c-1-6.6-5.3-12.1-10.1-16.5C226.2,142.8,222.4,145.3,219.9,149.1 M179.6,165.3
			c1.1,3.4,4.8,5.2,7.9,6.3c7.4,2.4,15.6,2.4,23-0.1c3.1-1.2,6.6-2.9,7.7-6.2c0.8-2.8-1.3-5.2-3.5-6.6c-0.5,1.4-0.6,2.9-1.4,4.2
			c-1.6,1.8-4,2.5-6.2,3.1c-5.1,1.1-10.4,1.1-15.5,0.1c-2.3-0.6-4.9-1.3-6.5-3.2c-0.8-1.4-1-3.1-1.5-4.6
			C181.3,159.8,178.7,162.2,179.6,165.3 M236.9,99.3c2.7-0.4,5.5,0.9,8.3,1c-0.4,0.2-0.8,0.5-1.2,0.7c-2.3-0.6-4.7-0.9-7.1-1.3
			C236.9,99.6,236.9,99.4,236.9,99.3 M244.8,101.3c0.4-0.3,0.7-0.5,1.1-0.8c1.5,0.4,3,0.7,4.5,0.8c-0.4,0.2-0.8,0.5-1.1,0.7
			C247.8,101.7,246.3,101.3,244.8,101.3 M249.9,102.3c0.4-0.2,0.8-0.5,1.2-0.7c3.8,0.9,7.5,2,11.3,2.7c0.1,0.3,0.4,0.8,0.5,1
			C258.6,104.3,254.3,103,249.9,102.3 M195.7,104.3c6.8-0.7,13.8-0.2,20.3,2.1c3.7,1.4,7.7,3.3,9.7,7c1.5,2.7,0.5,6.1-1.7,8.1
			c-3.7,3.6-8.8,5.2-13.7,6.2c-8.1,1.4-16.6,1.1-24.4-1.6c-3.7-1.4-7.7-3.4-9.6-7.1c-1.4-2.9-0.1-6.3,2.2-8.3
			C183.2,106.5,189.6,105.1,195.7,104.3 M195.9,105.1c-5.6,0.6-11.5,2-16.1,5.4c-2.3,1.7-4.2,4.7-3.1,7.6c1.6,3.8,5.6,5.8,9.2,7.2
			c8.5,2.9,17.9,3.1,26.6,1c4.1-1.1,8.4-2.7,11.3-5.9c1.7-1.8,2.3-4.6,1.1-6.8c-1.8-3.2-5.3-5-8.6-6.3
			C209.9,105,202.8,104.4,195.9,105.1 M265,106.1c0-0.4-0.1-0.8-0.1-1.2c1.5,0.8,3.3,1.2,5,1.7c19.4,5.9,38.1,14.1,55.4,24.7
			c14.3,8.8,27.6,19.4,38.6,32.1c10.8,12.5,19.6,27.3,22.5,43.8c2.4,13.1,0.3,26.9-6.2,38.6c-7,12.9-18.7,22.8-31.5,29.8
			c-11.7,6.4-24.4,10.6-37.4,13.3c0.1-0.3,0.4-0.8,0.5-1c2.8-0.2,5.6-1.2,8.3-1.8c17.6-4.8,34.9-12.6,48-25.6
			c7.5-7.4,13.4-16.6,16.3-26.8c3.4-11.7,2.7-24.4-1.2-35.9c-5.3-16.1-15.6-30-27.5-41.8c-19.5-19.1-43.7-32.9-69-42.7
			C279.6,110.5,272.4,107.9,265,106.1 M287.5,136.4c8.5-1.2,17.4,0.9,24.6,5.6c4.2,2.8,8.1,7,8.5,12.3c0.3,2.5-1.2,4.7-1.8,7.1
			c-1.1,3.9-4.8,6.4-8.5,7.6c-7.1,2.3-15,1.4-21.9-1.3c-5.8-2.3-11.6-6.1-14-12.1c-1.5-3.3-0.1-6.9,0.3-10.3
			C276.3,139.8,282.2,137.1,287.5,136.4 M287.4,137.9c-4.3,0.7-9.2,2.7-11.1,7c-1.7,3.9,0.3,8.2,3,11c5.3,5.6,12.9,8.5,20.4,9.2
			c5.5,0.4,11.5-0.2,16-3.7c2.7-2,4-5.7,3-9c-1.3-4.4-5-7.7-8.8-10C303.3,138.4,295.1,136.7,287.4,137.9 M274.4,150.8
			c-0.3,2.5,0.5,4.9,1.8,6.9c2.8,4.3,7.3,7.2,11.9,9.1c6.6,2.6,14,3.6,20.9,1.7c3.8-1.1,7.7-3.4,9-7.4c-4.1,4.4-10.5,5.6-16.3,5.5
			c-8.3-0.3-16.7-3.2-22.8-9C277,155.8,275.7,153.3,274.4,150.8 M264.9,175.1c7.7-1.6,15.8-0.4,22.9,2.6c5.3,2.3,10.3,5.7,13.5,10.6
			c2.2,3.4,3.2,7.8,1.7,11.7c-0.5,1.6-2,2.9-1.8,4.6c0.1,4.3-2.9,8.1-6.5,10.1c-5.5,3.2-12.1,3.8-18.3,3.1c-7.8-1-15.5-4-21.3-9.5
			c-3.4-3.3-6.2-7.9-5.7-12.8c0.1-1.8,1.1-3.4,1.7-5.1c-0.1-2.4-0.1-4.9,1.1-7.1C254.7,178.7,259.9,176.2,264.9,175.1 M267,176.2
			c-4.6,0.7-9.5,2.5-12.4,6.3c-2.3,2.9-2.6,7.1-1.1,10.5c2,4.7,6.1,8.2,10.5,10.7c7,3.9,15.4,5.7,23.4,4.7c4.7-0.6,9.6-2.4,12.7-6.1
			c2.4-2.9,2.8-7,1.4-10.4c-2-4.8-6.1-8.4-10.5-11C283.7,176.9,275.2,175.1,267,176.2 M253.4,205.3c5.5,6.9,14.2,10.6,22.8,11.7
			c6.5,0.8,13.6,0.2,19.2-3.6c3.1-2.1,5.1-5.6,5.2-9.4c-2.6,2.3-5.6,4.1-9,4.9c-8.4,2.3-17.6,0.9-25.5-2.6
			c-6.4-2.9-12.4-7.7-14.7-14.6C248.8,196.1,250.4,201.7,253.4,205.3 M205.8,195.3c8.5-1.2,17.5,0.1,25,4.3
			c4.4,2.5,8.4,6.3,9.6,11.3c0.8,2.8,0.1,5.8-1.2,8.4c0.8,3.7-0.1,7.6-2.7,10.4c-4.2,4.8-10.6,6.9-16.7,7.6
			c-8.9,0.9-18.3-0.9-25.6-6c-4-2.9-7.5-7.3-7.3-12.5c-0.1-2,1.4-3.7,0.7-5.7c-1-3.9,0.5-8,3.2-10.8
			C194.8,198.2,200.3,196.1,205.8,195.3 M206.7,196.6c-4.8,0.7-9.7,2.3-13.4,5.4c-2.6,2.2-4.5,5.4-4.4,8.9c0.1,4.2,2.9,7.8,6.2,10.3
			c5.8,4.4,13.1,6.4,20.3,6.6c6.4,0.2,13.1-1.1,18.4-4.8c3.3-2.3,5.9-6,5.6-10.1c-0.3-4.7-3.7-8.4-7.3-10.9
			C224.6,197.1,215.4,195.5,206.7,196.6 M191.3,227.6c5.3,5.7,13.2,8.4,20.8,9.1c7.7,0.6,16.1-0.7,22.2-5.7
			c3.2-2.5,5.1-6.7,4.5-10.8c-2.3,2.7-5.1,5-8.4,6.4c-8.1,3.5-17.3,3.5-25.7,1.1c-6.7-1.9-13.2-5.8-16.4-12.2
			C186.8,219.7,188.3,224.4,191.3,227.6 M275.9,225.5c11.2-1.8,22.9-0.3,33.3,4.3c7,3.2,13.5,7.9,17.4,14.6c2.9,4.9,3.8,11,1.7,16.4
			c-2.4,6.5-8.2,11.2-14.4,14c-10.2,4.5-21.9,5.1-32.7,2.9c-8.9-1.8-17.6-5.6-24.2-11.9c-4.4-4.2-7.8-9.9-8-16.1
			c-0.2-5.7,2.5-11.1,6.6-14.9C261,229.6,268.5,226.8,275.9,225.5 M279.1,226.6c-7.8,0.9-15.7,3.4-21.8,8.5c-4.1,3.5-7,8.6-7,14.1
			c0,6,3.3,11.5,7.6,15.6c6.6,6.2,15.2,9.9,24,11.6c9.9,1.9,20.5,1.4,29.9-2.4c5.6-2.3,10.9-5.9,13.9-11.3c2.6-4.5,2.8-10.2,0.7-15
			c-2.7-6.4-8.1-11.1-13.9-14.5C302.5,227.5,290.6,225.4,279.1,226.6 M186.7,277.8c0.1-0.3,0.2-0.8,0.2-1c0.7,0.4,0.7,0.7,0.2,1.2
			L186.7,277.8 M188,278.1c0-0.2-0.1-0.6-0.2-0.8c3,0.7,5.8,2.2,8.9,2.6c0.2,0.3,0.5,0.9,0.6,1.2C194.2,280.2,191.2,279,188,278.1
			 M198.3,281.7c-0.8-0.3-0.9-0.7-0.3-1.2C198.7,280.8,198.8,281.2,198.3,281.7 M199.2,281.2c0.9-1,1.3,1.7,0.1,0.7
			C199.3,281.8,199.2,281.4,199.2,281.2 M200.7,281.9c0.9-0.5,2,0.3,2.9,0.2c0.1,0.5,0.2,1,0.4,1.5
			C203.3,282.3,201.1,283.2,200.7,281.9 M204.4,283.4c0-0.7,0.3-0.9,1-0.8c0.5,0.4,0.4,0.7-0.2,1C205,283.5,204.6,283.4,204.4,283.4
			 M206.5,283.3c0.6-0.9,1.5,1,0.5,0.9C206.9,284,206.7,283.6,206.5,283.3 M212.2,285.6c-0.1-0.6,0.2-0.9,1-0.9
			C214.5,285.3,212.9,286.4,212.2,285.6 M214.3,285.8c0.2-1.4,2.5,0,1.1,0.7C215.2,286.3,214.6,285.9,214.3,285.8 M216.4,286.5
			c-0.1-0.7,1.1-0.7,1.6-0.6c0.4,0.3,0.4,0.6-0.2,0.8C217.5,286.6,216.8,286.5,216.4,286.5 M219.1,287.1c-0.2-0.6,0.1-0.9,0.9-0.8
			c0.7,0.4,0.7,0.7,0.2,1.1C220,287.3,219.4,287.2,219.1,287.1 M221.4,287.5c0-0.2,0-0.5,0.1-0.7c0.3,0,0.9,0.1,1.2,0.1
			c0.6,0.3,0.7,0.6,0.4,1C222.6,287.8,221.8,287.6,221.4,287.5 M223.9,288c-0.4-0.7,1.1-0.8,1.5-0.6c0.6,0.3,0.7,0.6,0.3,1
			C225.2,288.3,224.3,288.1,223.9,288 M226.2,288.6c0-0.8,1.2-0.9,1.8-0.7c0.4,0.4,0.3,0.7-0.3,0.9
			C227.4,288.7,226.6,288.6,226.2,288.6 M229,289.1c-0.1-1,1.6-0.8,2.2-0.6c0.3,0.4,0.3,0.6-0.2,0.8
			C230.3,289.3,229.7,289.2,229,289.1 M232.1,289.6c0-1,1.6-0.8,2.3-0.6c0.3,0.4,0.2,0.6-0.3,0.8
			C233.5,289.8,232.8,289.8,232.1,289.6 M253.2,291.4c18.6,1.5,37.4,0.9,55.8-2.7c-0.1,0.2-0.3,0.7-0.4,1c-1.7,0-3.4,0.5-5.1,0.7
			c-14.9,2.4-30.1,2.9-45.2,2.1c-2.1-0.1-4.1-0.4-6.2-0.3C252.5,291.9,252.8,291.6,253.2,291.4 M234.8,290.1
			c0.4-0.3,0.8-0.5,1.1-0.8c0.7,0.1,2.2,0.2,2.9,0.3c-0.4,0.3-0.7,0.5-1,0.8C236.8,290.2,235.7,290.1,234.8,290.1 M238.4,290.6
			c1-0.8,2.4-0.9,3.5-0.2c0.1,0.1,0.4,0.4,0.5,0.5C241,290.8,239.7,290.7,238.4,290.6 M243.2,290.8c0.9-0.6,2-0.2,2.9-0.2
			c0,0.1,0,0.4,0,0.5c-0.9,0.6-2.1,0-3.1-0.1L243.2,290.8 M247.2,291.2l0.1-0.3c1.7,0,3.4,0.2,5.1,0.2c-0.4,0.3-0.7,0.5-1.1,0.8
			c-1.4-0.1-2.7-0.2-4.1-0.5V291.2L247.2,291.2z"/>
		<path class="st1" d="M263.2,105.4c0.1-0.2,0.2-0.5,0.3-0.6C265,104.6,264.2,106.3,263.2,105.4L263.2,105.4z"/>
		<path class="st1" d="M309.6,289.2c-1.1-1,2.4-1,1.3-0.1C310.5,289.1,309.9,289.2,309.6,289.2L309.6,289.2z"/>
	</g>
	<g>
		<path class="st2" d="M191.4,101.2c-7.5,1.3-14.9,4.4-20.4,9.9c-3.7,3.8-6.3,8.9-6.1,14.3c0.1,5.4,3,10.4,6.9,14
			c2,1.9,4.5,3.2,6.2,5.4c4,4.9,6.3,10.9,8,16.8c0.5,1.3,2,1.8,3.1,2.3c5.3,1.8,11.1,1.9,16.6,0.9c2.3-0.5,4.9-1,6.4-2.9
			c2-7.9,6.3-15.4,12.9-20.3c3.5-2.6,6.6-6,8.3-10.1c1.8-4.3,1.7-9.4-0.2-13.7c-2.4-5.5-7.2-9.7-12.5-12.5
			C211.8,100.7,201.3,99.5,191.4,101.2"/>
	</g>
	<path class="st1" d="M226.4,208.1c-1.3-3-3.4-6.1-6.8-6.8c-3.1-0.6-6,0.9-8.5,2.5c-3.1-1.2-6.4-2.5-9.7-2.1c-2,0.3-3.4,2.1-3.5,4.1
		c-0.3,4.1,1.4,8,2.9,11.7c9.2-1.7,18.9-2.3,28,0.1C228.4,214.4,227.7,211.1,226.4,208.1z M202.8,214.4c-1.4-2.4-2.2-5-2.6-7.7
		c0.1-1.7,1.8-3.1,3.6-2.9c2.6,0.1,5,1.3,7.1,2.7c1.1,2.2,1.5,4.7,2.4,7C209.8,213.6,206.3,213.7,202.8,214.4z M215.4,213.4
		c-0.6-2.3-1.4-4.5-2.2-6.9c1.6-0.9,2.8-2.6,4.6-2.9c1.7-0.3,3.3,0.7,4.2,2c1.9,2.5,2.9,5.7,3.6,8.7
		C222.2,213.9,218.8,213.6,215.4,213.4z"/>
	<path class="st1" d="M283.7,194.9c-1.7-2.9-2.9-6-4.3-9c2.2-0.4,4.5-0.7,6.8-0.9c-0.8-0.8-1.7-1.7-2.6-2.6c-6,1.3-12,2.6-17.7,4.7
		c-1.9,0.8-3.9,1.5-5.4,2.8c-0.1,1.1,0.5,2.2,0.7,3.3c10.5,1.1,20.5,4.4,30.4,7.9c0-1.2,0-2.3,0-3.5
		C289,196.5,286.3,195.7,283.7,194.9z M265.9,190.6c3.4-1.7,7-3,10.6-4c1,2.3,2,4.7,3,7C275,192.3,270.5,191.2,265.9,190.6z"/>
	<path class="st1" d="M304.4,149.1c-1.2-1.7-2.4-3.5-3.7-5.2c-1.7-2.2-4.7-3-7.4-2.7c-2.2,0.2-4.8,2.1-4.2,4.5
		c1.5,2.9,3,5.7,4.6,8.5c1.9,2.7,5.6,3.8,8.8,3.2c1.7-0.3,3.5-1.4,3.8-3.3C306.5,152.2,305.4,150.6,304.4,149.1z M298.4,152.3
		c-2-0.4-2.7-2.5-3.5-4c-0.5-0.9-1.3-2.1-0.1-2.7c1.2-0.7,3.1-0.3,4.1,0.9c0.9,1.3,2,2.6,2.5,4.2
		C301.5,152.2,299.5,152.6,298.4,152.3z"/>
</g>
</svg>
