<?xml version="1.0" encoding="utf-8"?>
<!-- Generator: Adobe Illustrator 22.0.1, SVG Export Plug-In . SVG Version: 6.00 Build 0)  -->
<!DOCTYPE svg PUBLIC "-//W3C//DTD SVG 1.1//EN" "http://www.w3.org/Graphics/SVG/1.1/DTD/svg11.dtd">
<svg version="1.1" id="Layer_1" xmlns="http://www.w3.org/2000/svg" xmlns:xlink="http://www.w3.org/1999/xlink" x="0px" y="0px"
	 viewBox="0 0 612 504" style="enable-background:new 0 0 612 504;" xml:space="preserve">
<style type="text/css">
	.st0{fill:none;stroke:#FFFFFF;stroke-width:1.25;stroke-linecap:round;stroke-linejoin:round;stroke-miterlimit:10;}
	.st1{fill:none;stroke:#FFFFFF;stroke-width:1.3692;stroke-linecap:round;stroke-linejoin:round;stroke-miterlimit:10;}
	.st2{fill:none;stroke:#FFFFFF;stroke-linecap:round;stroke-linejoin:round;stroke-miterlimit:10;}
	.st3{display:none;fill:none;stroke:#EC1C24;stroke-width:0.5;stroke-miterlimit:10;}
</style>
<path class="st0" d="M350.3,273.3c0,0,141-24.3,207-41.3c8,27,8,98.7,7.7,118c-9.7,2-17.7,14-17.3,34c-0.2,4-6.7,11-6.7,11
	c-3-10.3-2.4-15.5-9.7-13c-15.3,5.3-66.7,20.3-93,26.7c-5.3,1.3-8,4-16,13.3s-9.7,12.3-9.7,13.7l-6.3,1c1.3-3,9-20.7,3-31
	c-6.1-10.6-18-8-20.7-7.3c-2.7,0.7-5.3,4-14-3.7c-8.7-7.7-31.9-24.9-37.4-29.9s-9.5-11.2-8.5-25.2s2.2-35.8,3-45.5
	S333.2,276.2,350.3,273.3z"/>
<path class="st1" d="M564.8,351.7c-5.3,0.8-12.3,8.9-14,18.8c-1.3,8-2,17.5,3.8,23c3.3,3.2,12.5-1.7,16.3-11.5
	C573.9,374.6,577.3,358.7,564.8,351.7z"/>
<path class="st1" d="M571.2,375c-1.6,9.7-7.2,17-11.8,16.2c-3.8-0.7-6.4-9.3-4.8-19c1.6-9.7,6.7-17,11.3-16.2
	C570.4,356.7,572.8,365.3,571.2,375z"/>
<path class="st1" d="M565,373.1c-1.1,6.2-4.3,10.9-6.9,10.5c-2.1-0.3-3.5-5.6-2.4-11.8s4-10.8,6.6-10.5
	C564.9,361.7,566.1,367,565,373.1z"/>
<path class="st0" d="M412.7,435.7c-0.5,2.5,2.8,1.8,13-0.7c10.2-2.5,81.3-22.8,105.2-31.8"/>
<path class="st0" d="M408.5,422.1c-1.8,10.9-8.5,19.5-16.9,19.3c-7.4-0.1-11.9-9.3-10.1-20.3s9.3-19.6,16.7-19.4
	C405.5,402.1,410.3,411.2,408.5,422.1z"/>
<path class="st0" d="M398.9,422.2c-1.3,7-6.3,12.3-9.7,11.9c-4-0.4-6.2-6.6-4.9-13.6c1.3-7,5.6-12.4,9.6-11.9
	C397.8,409,400.2,415.1,398.9,422.2z"/>
<path class="st0" d="M409.6,423.9c-2.6,13.4-13.5,21.9-22,20.1c-8.9-1.9-14-11.1-11.1-25.5c2.5-12.4,12.3-20.9,21.3-19.4
	S412.4,409.6,409.6,423.9z"/>
<path class="st0" d="M357.2,449.8c0,0-50.1-28.2-60.8-36.2c-11.4-8.5-27.7-24.5-24.8-67c1.4-20.3,4.1-45.5,6.2-62.3
	c4.5-35.8,38.2-43.7,50.7-45.8c11.8-2,42.3-5.3,45-5.7c2.7-0.3,4.2-0.7,5.8-3c1.7-2.3,8.2-13,9.2-14.7c1.3-2.3,2.2-3.1,6.7-3.7
	c10-1.2,65.8-10.4,68.3-10.8c3.5-0.7,3.5-1.5,6.2,1.9s11.3,13.6,20,16.6"/>
<path class="st0" d="M544.2,208.8c-16,1-47.7,1.8-64.7,1.8c-0.8,0-0.9,0-1.6,0.5"/>
<path class="st0" d="M302.9,417.9c-18.8-3-64.5-14.9-84.1-45.4c-19-29.5-15.2-61.8-15.2-61.8"/>
<path class="st0" d="M227.8,257c26.2-26.8,60.5-30,88.8-32.2s42.8-3.2,70.3-6.6"/>
<path class="st0" d="M298.4,417.1c-21,0.8-39.9-3.9-59.4-15.9c-19.1-11.8-38.4-31.5-47.8-56c-9.1-23.6-5.4-43.7-5.4-43.7"/>
<path class="st0" d="M301.7,417.8c-16.2,1.6-32-0.4-48.5-7.2c-16.2-6.7-30.3-18.3-37.1-25.6c-8.5-9.1-15.2-17.9-19.9-28.9"/>
<path class="st0" d="M209,247.7c6.1-7.4,21.8-20.6,39.8-26.4c18.5-6,31-9.2,61.2-9.5c27-0.2,54.8-3,79.5-5.8"/>
<path class="st0" d="M389.2,197.8c-13.5,4.2-47.2,8.5-63.5,9.5s-40.2,0.5-61.5,5.5c-24.5,5.8-44.8,19.5-57,34"/>
<path class="st2" d="M219.2,273c-3,3.1-5.4,6.8-6.5,10"/>
<polyline class="st2" points="219,275.8 219.5,272.7 216.9,272.8 "/>
<ellipse class="st2" cx="211.6" cy="286.8" rx="1.1" ry="1.4"/>
<path class="st2" d="M210.8,291.2c-0.1,3.7,0,7.1,1.5,11.4"/>
<line class="st2" x1="210.7" y1="301.8" x2="212.3" y2="303.6"/>
<ellipse transform="matrix(0.9966 -8.275396e-02 8.275396e-02 0.9966 -24.2808 19.7715)" class="st2" cx="226.4" cy="302.8" rx="13.9" ry="19.5"/>
<path class="st2" d="M231.4,322.6c3.6,3.1,7.8,3.9,7.8,3.9c11.2,2.3,22.7-8.4,21.6-26c-0.9-15.7-12.8-29.1-24.6-28
	c-4.2,0.4-7.4,2.5-10.6,5.2c-1.5,1.3-4,4.2-7.5,7.6"/>
<path class="st2" d="M374.7,454.2c-9.5-0.5-15.6-3.2-21.3-10.3c-4.2-5.4-6.5-9.8-7.6-20s-0.4-11.8-3.1-18.5s-11.6-9.5-17.4-18.4
	c-6.1-9.4-6.9-14.6-6.1-47.9c0.3-14.7,3-45,5.8-61.1c3-17.6,2.8-23.3,22.2-27.9c4.8-1.1,53.1-10.1,63.4-12
	c16.4-3,66.6-12.4,72.1-13.4c5.4-1.1,59.5-12.1,63.1-12.7c7.8-1.2,8.1-1.9,13.3,19.4c7.7,25.8,8.4,88.1,6.9,118.6
	c3.2-7.5,4.7-14,4.8-36.2c0.1-29.6-2.7-68.9-7.6-83.8c-4.6-14-6.4-22.2-15.5-21.5c-3.1,0.2-6.6,0.9-10.5,1.6c-10,2-78.7,15-85,16.2
	c-6.3,1.2-74.7,14-100.3,18.8c-25.7,4.8-29.3,16.2-31.5,29.7c-1.9,11.8-6.5,53.5-7.2,80.2c-0.5,21.8,3.3,29.2,14.7,38.8
	c12.5,10.7,15,10.3,16.2,24.5c1.2,15.1,4,21.7,11,29.2c10.5,11.3,26.8,7,56.5-0.8c30-7.9,97.3-28.7,114.2-34.8
	c17.8-6.5,24.3-11.2,31.5-17"/>
<path class="st0" d="M454.8,202c-10.3,1.7-27.5,4.5-41,6.6c-3-7.1-7.6-12.3-12.3-19c-6.8-9.6-10.6-22.2-17.2-34.9
	c-8.6-16.4-23-37.4-37.5-50.1c-12.6-11.1-31-25.1-40.9-32.5c-9.6-7.2-18.8-13.4-33.2-19.6c-3.6-1.6-5-7.6,2.2-8.6s20.2-2.2,23.4-2.2
	s6.1-1.2,17.2,3.8c19.2,8.6,38.7,22.6,57.1,36.9c28.1,21.9,42.9,43,55.2,68.5c7.4,15.2,10.5,27.4,17.8,36.1
	C451.3,193.8,453.5,197.9,454.8,202z"/>
<path class="st0" d="M417.7,208.1c-3-7.1-7.6-12.3-12.3-19c-6.8-9.6-10.6-22.2-17.2-34.9c-8.6-16.4-23-37.4-37.5-50.1
	c-12.6-11.1-31-25.1-40.9-32.5c-9.6-7.2-18.8-13.4-33.2-19.6c-3.6-1.6-5-7.6,2.2-8.6"/>
<path class="st0" d="M392.7,211.9c-0.1-20.6,0.6-28.4-2.8-38c-4.5-12.8-7.1-17.8-14.5-28.5c-7.6-11-12.9-18.5-22.2-27.9
	S339.5,104,329,95c-13.4-11.5-26.8-23.6-43.5-33c-16.3-9.1-30.6-17.6-51.2-19.2c-13.2-1-27.2-1.5-43.7,1.2
	c-15.7,2.5-39.5,12.5-53.8,23.9c-14.2,11.4-36.1,33.7-40.1,46.4c-0.8,2.4-2.2,6.4,1.5,6.5c0.5-2.4,1.9-6.1,5-5.9s5.9,1.2,14.1,0.8
	c7.4-0.4,14-2.2,21.7-1.3c2.6-1.5-0.6-5.5,8.4-16.1c10.6-12.5,35.5-29.1,53.4-35.9c10.5-4,30.2-11,34.4-12.1s8.8-2.4,13.5-1.6"/>
<path class="st0" d="M390.1,212.9c-0.5-4.6-1.2-15.9-0.8-21.9s-1.5-15.5-5-23.9c-4.2-10-13.2-23-20.5-32
	c-9.6-11.9-24.4-27.1-35.5-36.5s-29.8-26.5-46.4-35s-26.6-14.5-41.8-16.8c-11-1.6-36.3-2.3-50.4,0.3c-13.5,2.5-30.1,9.5-45.2,18.6
	c-13.2,8-24.1,19.1-33.2,29.4c-9.9,11.1-17.1,24-12.9,24.5"/>
<path class="st0" d="M291.8,42.2c-5.7-2.8-15.3-4.2-24.3-3.7s-22.3,1.8-31.8,2s-22.8,1.5-29.2,1.8"/>
<g>
	<path d="M494.2,403.4l0.5,3.3l1.5-3.9l0.3-0.1l-1.8,4.5l-0.3,0.1l-0.6-3.8L494.2,403.4z"/>
	<path d="M498.6,405l-1.6,0.5l-0.5,1.2l-0.3,0.1l1.9-4.5l0.3-0.1l0.7,3.8l-0.4,0.1L498.6,405z M498.5,404.6l-0.3-1.9l-1,2.3
		L498.5,404.6z"/>
	<path d="M500.8,401.3l-0.5,3.7l1.3-0.4l-0.1,0.4l-1.6,0.5l0.6-4.2L500.8,401.3z"/>
	<path d="M502.7,400.7l0.5,3.3l1.5-3.9l0.3-0.1l-1.8,4.5l-0.3,0.1l-0.6-3.8L502.7,400.7z"/>
	<path d="M507.8,399.2l-0.1,0.4l-1.6,0.5l-0.2,1.4l1.4-0.4l-0.1,0.4l-1.4,0.4l-0.2,1.4l1.7-0.5l-0.1,0.4l-2,0.6l0.6-4.2L507.8,399.2
		z"/>
	<path d="M511.3,398.1l-0.6,4.2l-1,0.3l0.6-4.2L511.3,398.1z"/>
	<path d="M513,397.6l0.8,1.8l0.3-2.1l0.9-0.3l-0.6,4.2l-0.8,0.2l-0.8-1.8l-0.3,2.1l-0.9,0.3l0.6-4.2L513,397.6z"/>
	<path d="M518.4,397.9c-0.2,1.3-0.9,2.3-1.9,2.6l-1.2,0.4l0.6-4.2l1.3-0.4C518.1,396,518.6,396.6,518.4,397.9z M517.4,398.2
		c0.1-0.6-0.1-0.9-0.5-0.8l-0.3,0.1l-0.3,2l0.4-0.1C517.1,399.3,517.3,398.8,517.4,398.2z"/>
	<path d="M521.8,394.8l-0.2,1l-1.5,0.5l-0.1,0.5l1.3-0.4l-0.2,1l-1.3,0.4l-0.1,0.5l1.5-0.5l-0.2,1l-2.5,0.8l0.6-4.2L521.8,394.8z"/>
	<path d="M523.6,394.3l0.3,0.9l0.6-1.1l1.1-0.3l-1.2,2.3l0.7,1.9l-1.1,0.4l-0.3-0.9l-0.6,1.2l-1.1,0.3l1.3-2.4l-0.6-1.8L523.6,394.3
		z"/>
</g>
<path class="st2" d="M167.8,227.2l79.2,39.4c10.8,5.5,21,12.6,22.7,31.5c1.5,17-6.8,30.3-17.7,32.5c-10.8,2.2-19.8-3.3-24.8-8.4"/>
<path class="st2" d="M227.8,322.3"/>
<path class="st2" d="M166.6,230c0,0,76,37.5,82.4,40.5c9.3,4.3,14.5,10.8,16.5,23s1,23.3-6.3,31.2c-7.3,7.8-18,4.8-20.4,4.2
	s-7.6-3.5-10.9-6.5"/>
<line class="st2" x1="216.7" y1="316.8" x2="144.9" y2="280.4"/>
<path class="st2" d="M148.2,272.9c3.5,0.7,7.1-3,8.6-7.3s2.5-8,0.6-13.9"/>
<path class="st2" d="M88.1,292.3c3.8,12.3,10.8,16.7,17.3,16.7c5.1,0,9.8-1.1,12.2-2.1c5-2.2,15.7-10.7,17.8-12.4
	c5.3-4.3,6.9-7.9,8.5-11.8c0.3-0.7,0.6-1.4,0.9-2.2c1.6-3.7,15.1-34.7,21.5-49.7c3.4-8,3.7-16.4,0.8-23.5c-2.3-5.7-7.5-10-12.2-10.9
	c-3.1-0.6-8.2-0.4-11.7,2.5"/>
<path class="st2" d="M153.5,199c9.3,3.8,14.7,16.5,8.8,30.2c-6.5,15.1-19.9,46-21.5,49.7c-2.2,4.8-2.8,8-8.2,12.3
	c-4.3,3.5-13,10.2-16.8,11.8c-3.8,1.7-16,3.5-21.8-1.5c-6.7-5.7-8.2-14.7-3.5-19.2s15.3-11.4,18-14.3c2.5-2.7,4.2-3.8,12.7-24.3
	c7.5-18,15.1-36.5,17.1-39.8C140.4,200.2,146.1,195.2,153.5,199z"/>
<path class="st2" d="M113.4,260.8c-1.8-1.5-1.8-6.8-1.8-15s2.5-16,4.6-22.5s3.5-9.9,5.8-12.6c1.1-1.4,3.1-2.8,5.5-3l7.1,3.5"/>
<line class="st2" x1="133.8" y1="213.5" x2="124.1" y2="208.9"/>
<path class="st2" d="M59.6,306.2c-3.1,0.1-2.9-3.4-2.9-5.4c0.4-11.2,3.9-21.5,7-28.1c2.4-5.1,8.1-14.2,18.8-17
	c12.2-3.2,23.4,3.1,25.2,4.1s2.7,1.7,2.4-0.4c-1.4-7.6-1.1-18.7,1.6-29.6c2.2-8.6,6.6-17.4,7.5-19c1.2-2.2,1.2-3.9-2.5-5.6
	c-9.1-4.2-31.5-17-39.8-22.8s-30.1-21.5-24.2-33c-3.8,5.4-7.9,24.6-9.5,34.9c-1.8,11-2.4,21.6-2.1,25.8s0.3,5.6,2.8,10.9
	c2.1,4.6,3.4,12.8,3.1,19.5c-0.5,10.6-3.4,16.4-0.2,29c2.4,9.5,5,21.9,8.8,33.1c1,2.9,0.2,4.6,4.1,4.6c0.5-7.1,2.9-22.6,5.9-29.5
	c3.2-7.5,9.1-17.8,17.9-20c4.2-1.1,11.9-2.7,25.5,3.5c3.2,1.5,3.9-0.5,3.9-0.5"/>
<path class="st2" d="M122.8,209.7c1.7-2.3,1.4-4.1-1.9-5.5c-3.3-1.4-18.1-8.9-24-12.5c-14.1-8.7-24.8-15.5-31.6-22.8
	c-4-4.2-6.8-9.9-6.6-13.7c0.2-3.2,1.5-7.6,8.3-11.2c6.8-3.7,19.4-7.2,24.1-13.3c4.7-6.1,5.7-8.2,7.2-9.8"/>
<path class="st0" d="M95.9,117.1c-2.8,0.8-5.1,5.3-8.2,9.6c-2.6,3.6-7.1,7.6-12.9,9.6c-6.3,2.2-18,5.6-22,13"/>
<path class="st0" d="M139.1,114.4c5.4,0.1,11.9,9.9,13.5,12s3.5,3.4,8,3.4c9.5,0,34.5,3.3,45.9,4.8c18.9,2.4,48.9,7.6,75.9,16
	c21,6.5,57.5,18.7,62.6,21.1c6.5,3.1,8.9,4.4,7.4,11.5s-3.9,17.5-3.6,21.8"/>
<path class="st0" d="M113.3,193.2l6.1-0.6c8.7-0.7,14.9-1.2,31.2-1.1c9.1,0.1,16.5,0.4,23.7,0.6c5.7,0.2,11.2,0.4,16.7,0.5l2.1,0
	c12.6,0.1,28.2,0.2,37.5,5.1c4.1,2.1,6.2,4.4,7.1,6.8c1,2.6,0.3,8.9-8.5,14.2"/>
<path class="st0" d="M119.1,196.9c9-0.8,15-1.3,31.5-1.2s28,1,40.4,1.1s28.8,0,37.6,4.6c9.7,5,7.4,12.1,1.6,16.5
	s-12.6,8.2-22.4,11.6c-9.2,3.2-18.6,5.9-22.1,6.6"/>
<path class="st0" d="M120.8,305.5c0.8,3.8-4.8,8.2-11.8,8.7s-13.8-4.7-12.2-7.8"/>
<path class="st0" d="M121.7,304.8c10,8.8,16.9,21.4,18.3,35.5c3.1,32.1-19.7,50.4-41.7,44.4c-17.7-4.8-27.1-14.1-34-23.8
	c-7.6-10.6-8.5-32.7-1.9-47.1c3.2-7.1,9.6-16,18.5-19.9c3.4-1.4,6-1.9,7.1-2"/>
<path class="st0" d="M80.9,377.2c9.6,7.7,23.1,12.1,33.5,11.3c13.2-1,22.9-8,28.7-15.7c6.2-8.3,10.7-20.3,8.8-36.3
	c-2-17.1-13.3-34-19.8-39.3"/>
<path class="st0" d="M88.6,284.9c-3.6,0-11,3.9-16.4,9.4s-13.5,18.6-13.6,32.4"/>
<path class="st0" d="M62.7,308.9c-0.5-0.2-1.9-0.7-3-1.8"/>
<path class="st0" d="M58,337.4c3.1-11.7,13.2-20.3,25.3-20.3c14.9,0,27.3,12.8,27.7,28.7c0.4,15.8-11.4,28.7-26.3,28.7
	c-3.5,0-6.9-0.7-10.1-2"/>
<path class="st0" d="M82,378.2c-7.2,12.6-29.6,52.6-27.9,101.4"/>
<path class="st0" d="M91,383.6c-7.5,14.5-28,49.9-26.8,96"/>
<path class="st0" d="M136.4,293.6c5.1,0.2,10.8-0.8,21.5-1c3.5-0.1,9.9-0.6,9.9-0.6"/>
<path class="st0" d="M161.2,292.5c-4.2,3.4-15.5,14.3-18.7,18.1"/>
<path class="st0" d="M145.3,293.3c-2.2,1.6-7.5,7.5-8.7,8.7"/>
<path class="st0" d="M331.4,166.8c6.4-2.5,17.7-4.1,32.3-0.8"/>
<path class="st0" d="M350.4,174.6c2.5-0.4,4.6-0.1,8.3,0.7"/>
<path class="st0" d="M359.6,169.2c0.5-2.8,0.2-2.9,4.4-1.4s15.7,5.8,17.2,6.4c2.2,0.9,2.2,0.9,1.9,3.4s-0.6,5.4-0.9,7.2
	s-0.6,2.1-2.8,1.4s-17.6-6.9-19.1-7.5s-1.9-1.1-1.8-2.5S359.6,169.2,359.6,169.2z"/>
<path class="st0" d="M360.6,166.9c0,0,3.2-1,4.6-1.4s1.9-0.8,4.8,0.1s15.9,5.7,15.9,5.7"/>
<line class="st0" x1="383.1" y1="175.3" x2="386.6" y2="173.5"/>
<path class="st0" d="M381.7,186.5c0,0,3.5-2.2,4.1-2.6c0.6-0.3,0.8-0.4,0.9-1.9c0.2-1.5,0.7-6.2,0.7-6.2"/>
<line class="st0" x1="389" y1="185.1" x2="385.8" y2="183.9"/>
<line class="st0" x1="389.4" y1="190.1" x2="380.8" y2="186.6"/>
<path class="st0" d="M358.6,177.2c-1.4-0.4-4.8-1.1-6.8-1"/>
<path class="st0" d="M128.2,208.2c0.7-4.2-3.3-8-17.2-16.5s-41.2-25.8-32.8-35.3c6.5-7.4,18.7-13,52.2-17.3
	c29.8-3.8,88.9,1.1,114.5,5.7c29.7,5.3,74.3,19.9,99.5,29.4c4.6,1.7,8,3.5,8.3,7.1"/>
<path class="st3" d="M112.2,147.6c22.5-2,55.3-3.3,88.2-1.3s42,9.7,38.7,17.4c-1.6,3.7-5.9,7.5-8.9,9.7"/>
<path class="st0" d="M229.3,322.1l9.3,2.1c9.8,2,19.4-9.2,18.6-23.6c-0.7-13.7-10.8-25.5-21.1-24.5c-3.7,0.4-7,1.9-9.8,4.2l-7.6,4.5
	c-2.5,1.8-5.8,6.4-6.1,13.1"/>
</svg>
