<svg xmlns="http://www.w3.org/2000/svg" viewBox="0 0 64 61.67"><defs><style>.cls-1{fill:#f8f8f8;}</style></defs><title>icon_controllerBinding</title><g id="Layer_2" data-name="Layer 2"><g id="Layer_1-2" data-name="Layer 1"><path class="cls-1" d="M38.16,24.14a17.65,17.65,0,0,1,5.25-3.61v-1c0-1.74-1-2.05-1.49-2.09H40.1A2.06,2.06,0,0,1,38,16.32c0-.07-.05-.13-.07-.2a.1.1,0,0,1,0,0h0a17.68,17.68,0,0,0-.72-1.74s0,0,0,0a2.2,2.2,0,0,1,.43-2.47l.07-.08h0l1.11-1.1A1.6,1.6,0,0,0,39,8.25L35.23,4.54A1.52,1.52,0,0,0,33,4.44l-.09.09h0L31.2,6.19h0a1.56,1.56,0,0,1-1.74.21h0a14.71,14.71,0,0,0-1.78-.77.59.59,0,0,0-.19-.08A1.87,1.87,0,0,1,26,3.87V2.17A2.16,2.16,0,0,0,23.69,0h-4a2.16,2.16,0,0,0-2.28,2.17v2c-.05.34-.29.9-1.24,1.26h0a17.92,17.92,0,0,0-1.87.77l-.06,0a2.15,2.15,0,0,1-2.4-.42L10.73,4.7h0a1.64,1.64,0,0,0-2.43-.27L4.5,8.22a1.49,1.49,0,0,0-.14,2.17h0L6,12H6a2.1,2.1,0,0,1,.25,2.29h0a16.53,16.53,0,0,0-.76,1.84,0,0,0,0,1,0,0,2,2,0,0,1-1.84,1.28H1.27c-.49,0-1.27.22-1.27,1.12v6.11C0,25.12.29,26,1.67,26H3.6a1.91,1.91,0,0,1,1.82,1.11h0a15.7,15.7,0,0,0,.89,2.17h0l0,0a1.51,1.51,0,0,0,.09.18,2,2,0,0,1-.66,2.17h0l-1.6,1.6a1.12,1.12,0,0,0,0,1.63h0l4.38,4.38h0s.87.75,2-.33l1.53-1.53a2,2,0,0,1,2.34-.16l.24.1c.45.2.9.38,1.36.54h0l.35.13a1.77,1.77,0,0,1,1.06,1.76v2.28a1.35,1.35,0,0,0,1.09,1.36H21.3A218.41,218.41,0,0,1,38.16,24.14ZM12.08,21.71a9.63,9.63,0,1,1,9.62,9.62A9.64,9.64,0,0,1,12.08,21.71Z"/><path class="cls-1" d="M60.1,27.28a13.28,13.28,0,0,0-18.8,0A228.49,228.49,0,0,0,19.88,52.67a5.48,5.48,0,0,0,7.49,7.9L43.88,48.09A13.29,13.29,0,0,0,60.1,27.28ZM57,43A8.87,8.87,0,0,1,42.9,32.47a9.11,9.11,0,0,1,1.53-2.06A8.87,8.87,0,1,1,57,43Z"/><circle class="cls-1" cx="50.7" cy="36.68" r="5.3"/></g></g></svg>