<?xml version="1.0" encoding="utf-8"?>
<!-- Generator: Adobe Illustrator 24.0.2, SVG Export Plug-In . SVG Version: 6.00 Build 0)  -->
<svg version="1.1" id="Layer_1" xmlns="http://www.w3.org/2000/svg" xmlns:xlink="http://www.w3.org/1999/xlink" x="0px" y="0px"
	 viewBox="0 0 1024 1024" style="enable-background:new 0 0 1024 1024;" xml:space="preserve">
<path d="M510.5,31.5c-18.7,0.3-33.8,15.5-33.8,34.3c0,0.2,0,0.3,0,0.5v0v137c0,0.2,0,0.3,0,0.5c0,18.9,15.3,34.3,34.3,34.3
	c18.9,0,34.3-15.3,34.3-34.3c0-0.2,0-0.3,0-0.5v0v-137c0-0.2,0-0.3,0-0.4c0-18.9-15.3-34.3-34.3-34.3
	C510.8,31.5,510.6,31.5,510.5,31.5L510.5,31.5L510.5,31.5z M195.8,162c-18.9,0-34.3,15.3-34.3,34.3c0,9.6,4,18.3,10.4,24.6h0
	l96.9,96.9c6.2,6.5,15,10.5,24.7,10.5c18.9,0,34.3-15.3,34.3-34.3c0-9.7-4-18.5-10.5-24.7l-96.9-96.9
	C214.2,166,205.5,162.1,195.8,162C195.8,162.1,195.8,162.1,195.8,162L195.8,162z M825.2,162.1c-9.2,0.3-17.5,4.2-23.5,10.3l0,0
	l-96.9,96.9c-6.5,6.2-10.5,15-10.5,24.7c0,18.9,15.3,34.3,34.3,34.3c9.7,0,18.5-4.1,24.7-10.5l96.9-96.9
	c6.4-6.2,10.4-14.9,10.4-24.6c0-18.9-15.3-34.3-34.3-34.3C825.8,162,825.5,162,825.2,162.1L825.2,162.1z M511,306
	c-113.1,0-205.5,92.4-205.5,205.5S397.9,717,511,717s205.5-92.4,205.5-205.5S624.1,306,511,306z M65.7,477.2c-0.2,0-0.3,0-0.5,0
	c-18.9,0-34.3,15.3-34.3,34.3s15.3,34.3,34.3,34.3c0.2,0,0.3,0,0.5,0h137c0.1,0,0.3,0,0.5,0c18.9,0,34.3-15.3,34.3-34.3
	s-15.3-34.3-34.3-34.3c-0.2,0-0.3,0-0.5,0H65.7z M819.3,477.2c-0.1,0-0.3,0-0.5,0c-18.9,0-34.3,15.3-34.3,34.3s15.3,34.3,34.3,34.3
	c0.2,0,0.3,0,0.5,0h137c0.2,0,0.3,0,0.5,0c18.9,0,34.3-15.3,34.3-34.3s-15.3-34.3-34.3-34.3c-0.2,0-0.3,0-0.5,0H819.3z M292.3,694.9
	c-9.3,0.3-17.6,4.2-23.5,10.3l-96.9,96.9c-6.2,6.2-10,14.7-10,24.2c0,18.9,15.3,34.3,34.3,34.3c9.4,0,18-3.8,24.1-10l96.9-96.9
	c6.4-6.2,10.4-14.9,10.4-24.6c0-18.9-15.3-34.3-34.3-34.3C293,694.8,292.7,694.8,292.3,694.9L292.3,694.9L292.3,694.9z M728.6,694.9
	c-18.9,0-34.2,15.4-34.2,34.3c0,9.6,4,18.3,10.3,24.5l96.9,96.9c6.2,6.1,14.7,10,24.2,10c18.9,0,34.3-15.4,34.3-34.3
	c0-9.5-3.8-18-10-24.2l-96.9-96.9C746.9,698.9,738.2,694.9,728.6,694.9C728.6,694.9,728.6,694.9,728.6,694.9L728.6,694.9z
	 M510.5,785c-18.7,0.3-33.8,15.5-33.8,34.3c0,0.2,0,0.3,0,0.5v0v137c0,0.1,0,0.3,0,0.5c0,18.9,15.3,34.3,34.3,34.3
	c18.9,0,34.3-15.3,34.3-34.3c0-0.2,0-0.3,0-0.5v0v-137c0-0.2,0-0.3,0-0.5c0-18.9-15.3-34.3-34.3-34.3C510.8,785,510.6,785,510.5,785
	L510.5,785L510.5,785z"/>
</svg>
