<?xml version="1.0" encoding="utf-8"?>
<!-- Generator: Adobe Illustrator 24.0.2, SVG Export Plug-In . SVG Version: 6.00 Build 0)  -->
<svg version="1.1" id="Layer_1" xmlns="http://www.w3.org/2000/svg" xmlns:xlink="http://www.w3.org/1999/xlink" x="0px" y="0px"
	 viewBox="0 0 1024 1024" style="enable-background:new 0 0 1024 1024;" xml:space="preserve">
<g>
	<path d="M511,31.5c-265.1,0-480,214.9-480,480c0,265.1,214.9,480,480,480s480-214.9,480-480C991,246.4,776.1,31.5,511,31.5z
		 M511,903.8c-216.7,0-392.3-175.6-392.3-392.3c0-216.7,175.6-392.3,392.3-392.3c216.7,0,392.3,175.6,392.3,392.3
		C903.3,728.2,727.7,903.8,511,903.8z"/>
	<path d="M519,433.6c-5.3-0.6-10.8-0.6-16,0c-40.1,4.1-70.3,37.6-70.3,77.9c0,37,26.3,69.3,62.6,76.7c5.1,1.1,10.5,1.6,15.8,1.6
		c5.3,0,10.6-0.5,15.8-1.6c36.3-7.5,62.6-39.7,62.6-76.7C589.3,471.2,559.1,437.7,519,433.6z"/>
	<path d="M302,433.6c-5.3-0.6-10.8-0.6-16,0c-40.1,4.1-70.3,37.6-70.3,77.9c0,37,26.3,69.3,62.6,76.7c5.2,1.1,10.5,1.6,15.8,1.6
		c5.3,0,10.6-0.5,15.8-1.6c36.3-7.5,62.6-39.7,62.6-76.7C372.3,471.2,342.1,437.7,302,433.6z"/>
	<path d="M736.1,433.6c-5.2-0.6-10.8-0.5-16,0c-40.1,4.1-70.3,37.6-70.3,77.9c0,37,26.3,69.3,62.6,76.7c5.1,1.1,10.5,1.6,15.8,1.6
		c5.3,0,10.6-0.5,15.8-1.6c36.3-7.5,62.6-39.7,62.6-76.7C806.4,471.2,776.1,437.7,736.1,433.6z"/>
</g>
</svg>
