<?xml version="1.0" encoding="utf-8"?>
<!-- Generator: Adobe Illustrator 28.1.0, SVG Export Plug-In . SVG Version: 6.00 Build 0)  -->
<svg version="1.1" id="Layer_1" xmlns="http://www.w3.org/2000/svg" xmlns:xlink="http://www.w3.org/1999/xlink" x="0px" y="0px"
	 viewBox="0 0 1024 1024" style="enable-background:new 0 0 1024 1024;" xml:space="preserve">
<path d="M448,604.4c0-12.7,3.8-25,10.8-35.6c7-10.5,17-18.7,28.7-23.6c11.7-4.8,24.6-6.1,37-3.6c12.4,2.5,23.8,8.6,32.8,17.5
	c9,9,15,20.4,17.5,32.8c2.5,12.4,1.2,25.3-3.6,37c-4.8,11.7-13,21.7-23.6,28.7c-10.5,7-22.9,10.8-35.6,10.8
	c-8.4,0-16.7-1.6-24.5-4.8c-7.8-3.2-14.8-7.9-20.8-13.9c-5.9-5.9-10.7-13-13.9-20.8C449.6,621.2,448,612.9,448,604.4z M512,711.1
	c-30.2,0-59.1,12-80.5,33.3c-21.3,21.3-33.3,50.3-33.3,80.5v56.9h45.5l11.4,113.8h113.8l11.4-113.8h45.5v-56.9
	c0-30.2-12-59.1-33.3-80.5C571.1,723.1,542.2,711.1,512,711.1z"/>
<path d="M664.8,748.8c34.7,4.8,69.1,11.2,103.2,19.2V399.4c-83.7-19.7-169.7-29.6-256-29.6c-86.3,0-172.3,9.9-256,29.6V768
	c34.1-8,68.5-14.4,103.2-19.2c8.1-16.4,18.9-31.5,32.1-44.6c8.5-8.5,17.8-16,27.7-22.4c-7.8-9.3-14.1-19.8-18.8-31.1
	c-6.1-14.7-9.2-30.4-9.1-46.3c0-23.9,7.1-47.2,20.4-67.1c13.3-19.9,32.2-35.4,54.3-44.5c22.1-9.1,46.4-11.5,69.8-6.9
	c23.5,4.7,45,16.2,61.9,33.1c16.9,16.9,28.4,38.4,33.1,61.9c4.7,23.5,2.3,47.8-6.9,69.8c-4.7,11.3-11,21.7-18.7,31
	c9.9,6.4,19.2,14,27.7,22.5C645.8,717.4,656.6,732.5,664.8,748.8z"/>
<path d="M512,56.9c-153.5,0-306.4,19.1-455.1,56.9v597.3c18.9-4.8,37.9-9.3,56.9-13.5c28.3-6.3,56.8-11.8,85.3-16.7v-57.7
	c-28.6,4.8-57,10.2-85.3,16.2V158.6C244.4,128.8,378,113.8,512,113.8c134,0,267.6,15,398.2,44.8v480.8
	c-28.3-6.1-56.8-11.5-85.3-16.2v57.7c28.6,4.9,57,10.5,85.3,16.7c19,4.2,38,8.7,56.9,13.5V113.8C818.4,76,665.5,56.9,512,56.9z"/>
</svg>
