<?xml version="1.0" encoding="utf-8"?>
<!-- Generator: Adobe Illustrator 24.0.2, SVG Export Plug-In . SVG Version: 6.00 Build 0)  -->
<svg version="1.1" id="Layer_1" xmlns="http://www.w3.org/2000/svg" xmlns:xlink="http://www.w3.org/1999/xlink" x="0px" y="0px"
	 viewBox="0 0 1024 1024" style="enable-background:new 0 0 1024 1024;" xml:space="preserve">
<g>
	<path d="M915.2,284.1H106.8c-41.9,0-75.8-33.9-75.8-75.8s33.9-75.8,75.8-75.8h808.4c41.9,0,75.8,33.9,75.8,75.8
		S957.1,284.1,915.2,284.1z"/>
	<path d="M915.2,587.3H106.8c-41.9,0-75.8-33.9-75.8-75.8s33.9-75.8,75.8-75.8h808.4c41.9,0,75.8,33.9,75.8,75.8
		S957.1,587.3,915.2,587.3z"/>
	<path d="M915.2,890.4H106.8c-41.9,0-75.8-33.9-75.8-75.8c0-41.9,33.9-75.8,75.8-75.8h808.4c41.9,0,75.8,33.9,75.8,75.8
		C991,856.5,957.1,890.4,915.2,890.4z"/>
</g>
</svg>
