<?xml version="1.0" encoding="utf-8"?>
<!-- Generator: Adobe Illustrator 24.0.2, SVG Export Plug-In . SVG Version: 6.00 Build 0)  -->
<svg version="1.1" id="Layer_1" xmlns="http://www.w3.org/2000/svg" xmlns:xlink="http://www.w3.org/1999/xlink" x="0px" y="0px"
	 viewBox="0 0 1024 1024" style="enable-background:new 0 0 1024 1024;" xml:space="preserve">
<g>
	<path d="M455.9,363.3l-19.6-8.8c-5.4-1.8-7.1-7.1-5.4-12.5l17.8-83.5l40.9-191.9c1.8-10.7-12.5-17.8-19.6-8.9L340.3,207
		L194.6,377.5c-5.4,5.4-3.6,14.2,3.6,16l94.2,46.2l19.6,8.9c5.4,1.8,7.1,7.1,5.4,12.5l-17.8,83.5l-40.9,191.9
		c-1.8,10.7,12.5,17.8,19.6,8.9l127.9-149.3l145.7-170.6c5.4-5.4,3.6-14.2-3.6-16L455.9,363.3z"/>
	<g id="Layer_2_1_">
		<g id="Layer_1-2">
			<path d="M937.7,456c-78.5-78.7-205.9-78.8-284.6-0.3c-0.1,0.1-0.2,0.2-0.3,0.3C535.5,576.3,427,704.8,328.3,840.8
				c-29.4,35.2-24.7,87.6,10.5,117c29.5,24.7,72.2,25.8,103,2.7l250.2-189.1c95.4,57.3,219.1,26.4,276.3-69
				C1015.9,623,1003.3,521.4,937.7,456z M890.8,694.3c-51.6,53.4-136.7,54.9-190.1,3.3C656.6,655,646.9,588,677.1,534.7
				c6.2-11.4,14-22,23.2-31.2c52.7-52.6,138-52.5,190.6,0.2C943.5,556.3,943.4,641.7,890.8,694.3L890.8,694.3z"/>
			<circle cx="795.3" cy="598.5" r="80.3"/>
		</g>
	</g>
</g>
</svg>
