<svg width="1024" height="1024" viewBox="0 0 1024 1024" fill="none" xmlns="http://www.w3.org/2000/svg">
<path fill-rule="evenodd" clip-rule="evenodd" d="M85.333 166.319V732.042C202.206 825.73 350.554 881.775 512 881.775C673.445 881.775 821.794 825.73 938.666 732.042V166.319C821.794 260.008 673.445 316.053 512 316.053C350.554 316.053 202.206 260.008 85.333 166.319ZM143.222 536.569L282.569 675.917L300.236 609.986C367.152 630.833 438.291 642.069 512 642.069C583.764 642.069 653.097 631.431 718.458 611.625L735.68 675.917L875.028 536.569L684.68 485.556L703.722 556.639C643.111 575.194 578.736 585.181 512 585.181C443.305 585.181 377.125 574.597 314.972 554.986L333.569 485.556L143.222 536.569Z" fill="white"/>
</svg>
