<?xml version="1.0" encoding="utf-8"?>
<!-- Generator: Adobe Illustrator 24.0.2, SVG Export Plug-In . SVG Version: 6.00 Build 0)  -->
<svg version="1.1" id="Layer_1" xmlns="http://www.w3.org/2000/svg" xmlns:xlink="http://www.w3.org/1999/xlink" x="0px" y="0px"
	 viewBox="0 0 1024 1024" style="enable-background:new 0 0 1024 1024;" xml:space="preserve">
<path d="M953,320.7c-24.1-56.8-59.1-107.3-103.8-150.3C760.4,85,638.3,35.7,505.6,31.6h-0.2h-0.2c-13.3,0-25.2,5.2-33.3,14.6
	c-7.1,8.2-11,19-11,30.5s3.9,22.3,11,30.5c8.1,9.4,20,14.6,33.3,14.6c222.4,0,396.6,171.2,396.6,389.7
	c0,215.5-175.3,390.8-390.8,390.8c-214.4,0-389.7-174.3-390.9-388.5c0-17.6-7.1-28.5-13.1-34.6c-8-8.1-18.7-12.6-30.3-12.6
	C54,466.6,31,484.4,31,518.5v0.1c0.6,64.1,13.8,126.2,39.2,184.7c24.5,56.3,59.3,106.8,103.4,150.2c44,43.3,95.2,77.3,152.1,101
	c58.8,24.6,121.2,37,185.3,37c65,0,127.9-12.7,187.1-37.5c57.2-24.1,108.5-58.7,152.5-102.7s78.6-95.3,102.7-152.5
	c24.9-59.2,37.6-122.1,37.6-187.1C990.9,444,978.1,379.8,953,320.7z"/>
<g>
	<path d="M316.8,256l-128-127.2h162.8c0.5,0,0.9,0,1.4,0c29.8,0,45.4-22.4,45.4-44.6c0-21.6-15.5-44.6-44.3-44.6c-0.4,0-0.9,0-1.3,0
		H82.6c-26.6,0-45.8,18.8-45.8,44.6v270.2c-0.4,17.1,6.6,28,12.5,34.1c8.1,8.4,19.7,13.2,31.8,13.2c12,0,23.5-4.7,31.5-13
		c5.8-5.9,12.6-16.5,12.2-33.1V191.3l128.8,128c3.1,3.1,8.2,3.1,11.3,0l51.9-51.9C319.9,264.2,319.9,259.2,316.8,256z"/>
</g>
<g>
	<g id="Layer_2_1_">
		<g id="Layer_1-2">
			<path d="M733.2,316.2c-61-61.1-160-61.2-221.1-0.2c-0.1,0.1-0.2,0.2-0.2,0.2c-91.1,93.5-175.4,193.3-252.1,299
				c-22.8,27.3-19.2,68.1,8.2,90.9c22.9,19.2,56.1,20,80,2.1l194.4-146.9c74.1,44.5,170.2,20.5,214.7-53.6
				C793.9,445.9,784.1,367,733.2,316.2z M696.7,501.3c-40.1,41.5-106.2,42.7-147.7,2.6c-34.3-33.1-41.8-85.1-18.3-126.6
				c4.8-8.9,10.9-17.1,18-24.2c40.9-40.9,107.2-40.8,148.1,0.2C737.7,394.1,737.6,460.5,696.7,501.3L696.7,501.3z"/>
			<circle cx="622.5" cy="426.9" r="62.4"/>
		</g>
	</g>
</g>
</svg>
