<?xml version="1.0" encoding="utf-8"?>
<!-- Generator: Adobe Illustrator 24.0.2, SVG Export Plug-In . SVG Version: 6.00 Build 0)  -->
<svg version="1.1" id="Layer_1" xmlns="http://www.w3.org/2000/svg" xmlns:xlink="http://www.w3.org/1999/xlink" x="0px" y="0px"
	 viewBox="0 0 1024 1024" style="enable-background:new 0 0 1024 1024;" xml:space="preserve">
<style type="text/css">
	.st0{fill-rule:evenodd;clip-rule:evenodd;}
</style>
<g>
	<path d="M302.8,537.7c-107.1,0-193.8-86.8-193.8-193.9c0-65.6,33.2-126.7,88.1-162.5c12.5-8.1,16.1-24.8,7.9-37.3
		c-8.1-12.5-24.8-16.1-37.3-7.9c-0.1,0-0.1,0.1-0.1,0.1C52.9,210.9,20.5,364.3,95.1,479s228.2,147,342.8,72.4S585,323.3,510.4,208.7
		c-18.9-28.9-43.5-53.6-72.5-72.5c-12.5-8.1-29.1-4.7-37.3,7.8c-8.1,12.5-4.7,29.1,7.8,37.3c0.1,0,0.1,0.1,0.1,0.1
		c89.8,58.4,115.1,178.5,56.7,268.3C429.5,504.5,368.4,537.7,302.8,537.7z"/>
	<path d="M302.8,52.7c-14.9,0-26.9,12.1-26.9,26.9v221.6c0,14.9,12.1,26.9,26.9,26.9c14.9,0,26.9-12.1,26.9-26.9V79.6
		C329.8,64.7,317.7,52.7,302.8,52.7z"/>
</g>
<g transform="translate(0,-952.36218)">
	<path class="st0" d="M725.8,1415.2c-4.8,0.2-9,3.4-10.5,8.1l-58.7,176H468.6c-6.5,0-11.7,5.3-11.6,11.7c0,3.7,1.8,7.2,4.7,9.4
		L614.4,1732l-58.7,182.2c-2,6.1,1.4,12.7,7.5,14.7c3.6,1.2,7.5,0.5,10.5-1.7l152.6-111.6L879,1927.2c5.2,3.8,12.5,2.7,16.3-2.5
		c2.2-3,2.8-6.9,1.7-10.5L838.3,1732L991,1620.4c5.2-3.8,6.3-11.2,2.5-16.3c-2.2-3-5.7-4.7-9.4-4.7H796.1l-58.7-176
		C735.8,1418.2,731,1414.9,725.8,1415.2z"/>
</g>
</svg>
