<?xml version="1.0" encoding="utf-8"?>
<!-- Generator: Adobe Illustrator 24.0.2, SVG Export Plug-In . SVG Version: 6.00 Build 0)  -->
<svg version="1.1" id="Layer_1" xmlns="http://www.w3.org/2000/svg" xmlns:xlink="http://www.w3.org/1999/xlink" x="0px" y="0px"
	 viewBox="0 0 1024 1024" style="enable-background:new 0 0 1024 1024;" xml:space="preserve">
<g>
	<path d="M240.5,398.6H68.2c-19.5,0-37.1,17.7-37.2,37.1v151.6c0,19.5,17.7,37.2,37.2,37.2h172.4c19.5,0,37.2-17.7,37.2-37.2V435.7
		C277.7,416.3,260,398.6,240.5,398.6z"/>
	<path d="M240.5,734.4H68.2c-19.5,0-37.1,17.7-37.2,37.2v151.6c0,19.5,17.7,37.2,37.2,37.2h172.4c19.5,0,37.2-17.7,37.2-37.2V771.6
		C277.7,752.1,260,734.4,240.5,734.4z"/>
	<path d="M240.5,62.7H68.2C48.7,62.7,31,80.4,31,99.9v151.6c0,19.5,17.7,37.1,37.2,37.1h172.4c19.5,0,37.2-17.7,37.2-37.1V99.9
		C277.7,80.4,260,62.7,240.5,62.7z"/>
	<path d="M597.2,734.4H424.8c-19.5,0-37.1,17.7-37.2,37.2v151.6c0,19.5,17.7,37.2,37.2,37.2h172.4c19.5,0,37.2-17.7,37.2-37.2V771.6
		C634.3,752.1,616.6,734.4,597.2,734.4z"/>
	<path d="M597.2,398.6H424.8c-19.5,0-37.1,17.7-37.2,37.1v151.6c0,19.5,17.7,37.2,37.2,37.2h172.4c19.5,0,37.2-17.7,37.2-37.2V435.7
		C634.3,416.3,616.6,398.6,597.2,398.6z"/>
	<path d="M597.2,62.7H424.8c-19.5,0-37.1,17.7-37.2,37.2v151.6c0,19.5,17.7,37.1,37.2,37.1h172.4c19.5,0,37.2-17.7,37.2-37.1V99.9
		C634.3,80.4,616.6,62.7,597.2,62.7z"/>
	<path d="M953.8,62.7H781.5c-19.5,0-37.1,17.7-37.2,37.2v151.6c0,19.5,17.7,37.1,37.2,37.1h172.4c19.5,0,37.2-17.7,37.2-37.1V99.9
		C991,80.4,973.3,62.7,953.8,62.7z"/>
	<path d="M953.8,398.6H781.5c-19.5,0-37.1,17.7-37.2,37.1v151.6c0,19.5,17.7,37.2,37.2,37.2h172.4c19.5,0,37.2-17.7,37.2-37.2V435.7
		C991,416.3,973.3,398.6,953.8,398.6z"/>
	<path d="M953.8,734.4H781.5c-19.5,0-37.1,17.7-37.2,37.2v151.6c0,19.5,17.7,37.2,37.2,37.2h172.4c19.5,0,37.2-17.7,37.2-37.2V771.6
		C991,752.1,973.3,734.4,953.8,734.4z"/>
</g>
</svg>
