<?xml version="1.0" encoding="utf-8"?>
<!-- Generator: Adobe Illustrator 24.0.2, SVG Export Plug-In . SVG Version: 6.00 Build 0)  -->
<svg version="1.1" id="Layer_1" xmlns="http://www.w3.org/2000/svg" xmlns:xlink="http://www.w3.org/1999/xlink" x="0px" y="0px"
	 viewBox="0 0 1024 1024" style="enable-background:new 0 0 1024 1024;" xml:space="preserve">
<style type="text/css">
	.st0{fill-rule:evenodd;clip-rule:evenodd;}
</style>
<g>
	<path class="st0" d="M507.5,553.6c-8.5,0-21.2-2.6-33.2-15L124.8,191.3v194.3c0.4,16.6-6.4,27.2-12.2,33.1c-8,8.3-19.5,13-31.5,13
		c-12.1,0-23.7-4.8-31.8-13.2c-5.9-6.1-12.9-17-12.5-34.1V84.2c0-25.8,19.2-44.6,45.8-44.6h300.2c0.4,0,0.9,0,1.3,0
		c28.8,0,44.3,23,44.3,44.6c0,22.2-15.6,44.6-45.4,44.6c0,0,0,0,0,0c-0.5,0-0.9,0-1.4,0H188.8L538.1,476
		c13.9,13.4,18.2,31.6,11.3,48.6C542.5,542,525.6,553.6,507.5,553.6z"/>
	<path class="st0" d="M511,991.5c-64.1,0-126.5-12.4-185.3-37c-56.9-23.7-108.1-57.7-152.1-101c-44.1-43.4-78.9-93.9-103.4-150.2
		C44.8,644.8,31.6,582.7,31,518.6l0-0.1c0-34.1,23-51.9,45.7-51.9c11.6,0,22.3,4.5,30.3,12.6c6,6.1,13.1,17,13.1,34.6
		C121.3,728,296.6,902.3,511,902.3c215.5,0,390.8-175.3,390.8-390.8c0-218.5-174.2-389.7-396.6-389.7c-13.3,0-25.2-5.2-33.3-14.6
		c-7.1-8.2-11-19-11-30.5s3.9-22.3,11-30.5c8.1-9.4,20-14.6,33.3-14.6h0.2l0.2,0c132.7,4.1,254.8,53.4,343.6,138.8
		c44.7,43,79.7,93.5,103.8,150.3c25.1,59.1,37.9,123.3,37.9,191c0,65-12.7,127.9-37.6,187.1c-24.1,57.2-58.7,108.5-102.7,152.5
		s-95.3,78.6-152.5,102.7C638.9,978.8,576,991.5,511,991.5z"/>
</g>
</svg>
