<?xml version="1.0" encoding="utf-8"?>
<!-- Generator: Adobe Illustrator 24.0.2, SVG Export Plug-In . SVG Version: 6.00 Build 0)  -->
<svg version="1.1" id="Layer_1" xmlns="http://www.w3.org/2000/svg" xmlns:xlink="http://www.w3.org/1999/xlink" x="0px" y="0px"
	 viewBox="0 0 1024 1024" style="enable-background:new 0 0 1024 1024;" xml:space="preserve">
<path d="M185.1,908.9H42.3c-6.6,0-12-5.4-12-12V98.1c0-6.6,5.4-12,12-12h142.8c6.6,0,12,5.4,12,12v798.8
	C197.1,903.5,191.7,908.9,185.1,908.9z"/>
<path d="M411.1,908.9H268.4c-6.6,0-12-5.4-12-12V98.1c0-6.6,5.4-12,12-12h142.8c6.6,0,12,5.4,12,12v798.8
	C423.1,903.5,417.7,908.9,411.1,908.9z"/>
<path d="M987,846.6l-128.2,62.8c-5.9,2.9-13.2,0.4-16.1-5.5L477.1,157.6c-2.9-5.9-0.4-13.2,5.5-16.1l128.2-62.8
	c5.9-2.9,13.2-0.4,16.1,5.5l365.6,746.3C995.4,836.5,992.9,843.7,987,846.6z"/>
</svg>
