<?xml version="1.0" encoding="utf-8"?>
<!-- Generator: Adobe Illustrator 24.0.2, SVG Export Plug-In . SVG Version: 6.00 Build 0)  -->
<svg version="1.1" id="Layer_1" xmlns="http://www.w3.org/2000/svg" xmlns:xlink="http://www.w3.org/1999/xlink" x="0px" y="0px"
	 viewBox="0 0 1024 1024" style="enable-background:new 0 0 1024 1024;" xml:space="preserve">
<g>
	<path d="M240.5,230.6H68.2c-19.5,0-37.1,17.7-37.2,37.1v151.6c0,19.5,17.7,37.2,37.2,37.2h172.4c19.5,0,37.2-17.7,37.2-37.2V267.8
		C277.7,248.3,260,230.6,240.5,230.6z"/>
	<path d="M240.5,566.5H68.2c-19.5,0-37.1,17.7-37.2,37.2v151.6c0,19.5,17.7,37.2,37.2,37.2h172.4c19.5,0,37.2-17.7,37.2-37.2V603.6
		C277.7,584.2,260,566.5,240.5,566.5z"/>
	<path d="M597.2,566.5H424.8c-19.5,0-37.1,17.7-37.2,37.2v151.6c0,19.5,17.7,37.2,37.2,37.2h172.4c19.5,0,37.2-17.7,37.2-37.2V603.6
		C634.3,584.2,616.6,566.5,597.2,566.5z"/>
	<path d="M597.2,230.6H424.8c-19.5,0-37.1,17.7-37.2,37.1v151.6c0,19.5,17.7,37.2,37.2,37.2h172.4c19.5,0,37.2-17.7,37.2-37.2V267.8
		C634.3,248.3,616.6,230.6,597.2,230.6z"/>
	<path d="M953.8,230.6H781.5c-19.5,0-37.1,17.7-37.2,37.1v151.6c0,19.5,17.7,37.2,37.2,37.2h172.4c19.5,0,37.2-17.7,37.2-37.2V267.8
		C991,248.3,973.3,230.6,953.8,230.6z"/>
	<path d="M953.8,566.5H781.5c-19.5,0-37.1,17.7-37.2,37.2v151.6c0,19.5,17.7,37.2,37.2,37.2h172.4c19.5,0,37.2-17.7,37.2-37.2V603.6
		C991,584.2,973.3,566.5,953.8,566.5z"/>
</g>
</svg>
