<?xml version="1.0" encoding="utf-8"?>
<!-- Generator: Adobe Illustrator 24.0.2, SVG Export Plug-In . SVG Version: 6.00 Build 0)  -->
<svg version="1.1" id="Layer_1" xmlns="http://www.w3.org/2000/svg" xmlns:xlink="http://www.w3.org/1999/xlink" x="0px" y="0px"
	 viewBox="0 0 1024 1024" style="enable-background:new 0 0 1024 1024;" xml:space="preserve">
<path d="M949.3,779.5c-4.5-3.8-10.2-6.1-16.6-6.1H460.9c-30.1,0-57-19.2-66.9-47.6c0,0,0,0,0,0l-17.6-51.2h460.1
	c67.2,0,121.8-54.6,121.8-121.7V288.2c0-14.1-11.4-25.5-25.5-25.5H234l-18.7-54.2c-23.6-68.4-96.3-105.1-165.3-83.6
	c-13.4,4.2-21,18.5-16.8,32c4.2,13.4,18.4,20.9,31.9,16.8c42.6-13.2,87.4,9.4,102,51.5l178.8,517.2c0,0.1,0,0.1,0,0.1
	c11,31.7,34.2,56.6,63.2,70.4c-4,8.4-6.2,17.8-6.2,27.7c0,35.8,29,64.8,64.8,64.8c35.8,0,64.8-29,64.8-64.8c0-5.5-0.7-10.9-2-16.1
	h333.9c-1.3,5.1-2,10.5-2,16.1c0,35.8,29,64.8,64.8,64.8c35.8,0,64.8-29,64.8-64.8C992,812.4,974.2,788.5,949.3,779.5z"/>
</svg>
