<?xml version="1.0" encoding="utf-8"?>
<!-- Generator: Adobe Illustrator 24.0.2, SVG Export Plug-In . SVG Version: 6.00 Build 0)  -->
<svg version="1.1" id="Layer_1" xmlns="http://www.w3.org/2000/svg" xmlns:xlink="http://www.w3.org/1999/xlink" x="0px" y="0px"
	 viewBox="0 0 1024 1024" style="enable-background:new 0 0 1024 1024;" xml:space="preserve">
<g>
	<path d="M302.8,537.7c-107.1,0-193.8-86.8-193.8-193.9c0-65.6,33.2-126.7,88.1-162.5c12.5-8.1,16.1-24.8,7.9-37.3
		c-8.1-12.5-24.8-16.1-37.3-7.9c-0.1,0-0.1,0.1-0.1,0.1C52.9,210.9,20.5,364.3,95.1,479S323.3,626,437.9,551.4
		S585,323.3,510.4,208.7c-18.9-28.9-43.5-53.6-72.5-72.5c-12.5-8.1-29.1-4.7-37.3,7.8c-8.1,12.5-4.7,29.1,7.8,37.3
		c0.1,0,0.1,0.1,0.1,0.1c89.8,58.4,115.1,178.5,56.7,268.3C429.5,504.5,368.4,537.7,302.8,537.7z"/>
	<path d="M302.8,52.7c-14.9,0-26.9,12.1-26.9,26.9v221.6c0,14.9,12.1,26.9,26.9,26.9c14.9,0,26.9-12.1,26.9-26.9V79.6
		C329.8,64.7,317.7,52.7,302.8,52.7z"/>
</g>
<path d="M738.7,463c-135,0-245.6,104.1-256.1,236.4l137.8,57c11.7-8,25.8-12.6,40.9-12.6c1.4,0,2.7,0,4.1,0.1l61.3-88.8
	c0-0.4,0-0.8,0-1.3c0-53.4,43.5-96.9,96.9-96.9c53.5,0,96.9,43.5,96.9,96.9c0,53.5-43.5,96.9-96.9,96.9c-0.7,0-1.5,0-2.2,0
	L733.9,813c0,1.1,0.1,2.3,0.1,3.4c0,40.1-32.6,72.8-72.8,72.8c-35.2,0-64.7-25.1-71.3-58.4l-98.5-40.7
	c30.5,107.9,129.6,187,247.3,187c142,0,257-115.1,257-257C995.7,578.1,880.6,463,738.7,463"/>
<path d="M643.6,853L612,840c5.6,11.7,15.3,21.4,28.1,26.8c27.8,11.6,59.8-1.6,71.4-29.4c5.6-13.5,5.6-28.3,0.1-41.8
	c-5.6-13.5-16-24-29.5-29.6c-13.4-5.6-27.7-5.4-40.2-0.6l32.6,13.5c20.5,8.5,30.2,32.1,21.6,52.6C687.6,851.9,664.1,861.6,643.6,853
	"/>
<path d="M888.1,653.8c0-35.6-29-64.6-64.6-64.6c-35.6,0-64.6,29-64.6,64.6c0,35.6,29,64.6,64.6,64.6
	C859.1,718.4,888.1,689.4,888.1,653.8 M775.1,653.7c0-26.8,21.7-48.5,48.5-48.5c26.8,0,48.5,21.7,48.5,48.5
	c0,26.8-21.7,48.5-48.5,48.5C796.8,702.2,775.1,680.5,775.1,653.7"/>
</svg>
