<?xml version="1.0" encoding="utf-8"?>
<!-- Generator: Adobe Illustrator 22.0.0, SVG Export Plug-In . SVG Version: 6.00 Build 0)  -->
<svg version="1.1" id="Layer_1" xmlns="http://www.w3.org/2000/svg" xmlns:xlink="http://www.w3.org/1999/xlink" x="0px" y="0px"
	 viewBox="0 0 1024 1024" style="enable-background:new 0 0 1024 1024;" xml:space="preserve">
<g>
	<g>
		<circle cx="509.9" cy="512" r="126.9"/>
	</g>
	<path d="M965,443.9c-85.4-91.1-256.1-241.5-452.9-241.5c-196.8,0-367.6,150.4-453.1,241.5c-36,38.4-36,97.8,0,136.2
		c85.5,91.2,256.2,241.5,453,241.5c196.8,0,367.6-150.4,453-241.5C1001,541.7,1001,482.3,965,443.9z M510.1,747.3
		c-129.9,0-235.3-105.3-235.3-235.3s105.3-235.3,235.3-235.3S745.4,382.1,745.4,512S640.1,747.3,510.1,747.3z"/>
</g>
</svg>
