<?xml version="1.0" encoding="utf-8"?>
<!-- Generator: Adobe Illustrator 24.0.2, SVG Export Plug-In . SVG Version: 6.00 Build 0)  -->
<svg version="1.1" id="Layer_1" xmlns="http://www.w3.org/2000/svg" xmlns:xlink="http://www.w3.org/1999/xlink" x="0px" y="0px"
	 viewBox="0 0 1024 1024" style="enable-background:new 0 0 1024 1024;" xml:space="preserve">
<g>
	<path d="M912.2,166.1H111.1c-44.3,0-79.8,35.5-79.8,79.8v532.1c0,44.3,35.5,79.8,79.8,79.8h801.1c44.3,0,79.8-35.5,79.8-79.8V245.9
		C993.5,201.6,956.5,166.1,912.2,166.1z M111.1,225.2h801.1c11.8,0,20.7,8.9,20.7,20.7v107.9H90.4V245.9
		C90.4,234.1,99.2,225.2,111.1,225.2z M912.2,798.8H111.1c-11.8,0-20.7-8.9-20.7-20.7V414.4h844v363.6
		C934.4,789.9,924,798.8,912.2,798.8z"/>
	<circle cx="755.5" cy="287.3" r="35.5"/>
	<circle cx="851.6" cy="287.3" r="35.5"/>
</g>
</svg>
