<?xml version="1.0" encoding="utf-8"?>
<!-- Generator: Adobe Illustrator 24.0.2, SVG Export Plug-In . SVG Version: 6.00 Build 0)  -->
<svg version="1.1" id="Layer_1" xmlns="http://www.w3.org/2000/svg" xmlns:xlink="http://www.w3.org/1999/xlink" x="0px" y="0px"
	 viewBox="0 0 1024 1024" style="enable-background:new 0 0 1024 1024;" xml:space="preserve">
<g>
	<path d="M867.9,512.2c0,66.6,26.7,130.3,74.1,177.7c5.9,5.9,13.3,8.9,20.7,8.9s14.8-3,20.7-8.9c11.8-11.9,11.8-29.7,0-41.5
		c-35.6-37.1-56.3-84.5-56.3-136.3c0-51.9,19.3-99.3,56.3-136.3c11.8-11.9,11.8-29.7,0-41.5c-11.9-11.8-29.7-11.8-41.5,0
		C894.5,381.7,867.9,445.6,867.9,512.2z"/>
	<path d="M712.1,512c0,107.4,42.9,210,119.3,286.4c9.5,9.5,21.5,14.3,33.4,14.3s23.9-4.8,33.4-14.3c19.1-19.1,19.1-47.7,0-66.8
		c-57.2-59.7-90.6-136-90.6-219.5s31-159.9,90.6-219.5c19.1-19.1,19.1-47.7,0-66.8s-47.7-19.1-66.8,0
		C755,302.1,712.1,404.6,712.1,512z"/>
</g>
<g transform="translate(0,-952.36218)">
	<path d="M331.5,1089.4c-84.3,0-152.8,68.5-152.8,152.8v224.1c0,84.3,68.5,152.8,152.8,152.8s152.8-68.5,152.8-152.8v-224.1
		C484.3,1157.9,415.8,1089.4,331.5,1089.4z M107.8,1344c-10.9-0.2-20.9,9.8-20.7,20.7v101.8c0,128.2,98.5,233.2,224.1,243.5v92.3
		h-81.5c-11.2,0-20.4,9.1-20.4,20.4c0,11.3,9.1,20.4,20.4,20.4h203.7c11.2,0,20.4-9.1,20.4-20.4c0-11.3-9.1-20.4-20.4-20.4h-81.5
		V1710c125.6-10.3,224.1-115.2,224.1-243.5v-101.8c0.2-10.8-9.6-20.7-20.4-20.7c-10.8,0-20.5,9.9-20.4,20.7v101.8
		c0,113.2-90.5,203.7-203.7,203.7c-113.2,0-203.7-90.5-203.7-203.7v-101.8C128,1354,118.4,1344.2,107.8,1344z"/>
</g>
</svg>
