<?xml version="1.0" encoding="utf-8"?>
<!-- Generator: Adobe Illustrator 24.0.2, SVG Export Plug-In . SVG Version: 6.00 Build 0)  -->
<svg version="1.1" id="Layer_1" xmlns="http://www.w3.org/2000/svg" xmlns:xlink="http://www.w3.org/1999/xlink" x="0px" y="0px"
	 viewBox="0 0 1024 1024" style="enable-background:new 0 0 1024 1024;" xml:space="preserve">
<path d="M166.8,332.1c-24.1,0-43.8-19.6-43.8-43.8s19.6-43.8,43.8-43.8h688.4c24.1,0,43.8,19.6,43.8,43.8s-19.6,43.8-43.8,43.8
	H166.8z"/>
<path d="M166.8,555.3c-24.1,0-43.8-19.6-43.8-43.8s19.6-43.8,43.8-43.8h688.4c24.1,0,43.8,19.6,43.8,43.8s-19.6,43.8-43.8,43.8
	H166.8z"/>
<path d="M166.8,778.4c-24.1,0-43.8-19.6-43.8-43.8s19.6-43.8,43.8-43.8h688.4c24.1,0,43.8,19.6,43.8,43.8s-19.6,43.8-43.8,43.8
	H166.8z"/>
</svg>
