<?xml version="1.0" encoding="utf-8"?>
<!-- Generator: Adobe Illustrator 22.0.0, SVG Export Plug-In . SVG Version: 6.00 Build 0)  -->
<svg version="1.1" id="Layer_1" xmlns="http://www.w3.org/2000/svg" xmlns:xlink="http://www.w3.org/1999/xlink" x="0px" y="0px"
	 viewBox="0 0 1024 1024" style="enable-background:new 0 0 1024 1024;" xml:space="preserve">
<g>
	<path d="M574.3,106.2L258.8,358c-4.4,3-11.8,5.9-19.3,5.9H58.9c-16.3,0-26.7,13.3-26.7,29.6v237c0,16.3,8.9,29.6,26.7,29.6h180.7
		c7.4,0,13.3,3,17.8,5.9l315.5,251.8c19.3,14.8,50.4,1.5,50.4-23.7V129.9C624.7,104.7,593.6,91.4,574.3,106.2z"/>
</g>
<g>
	<path d="M992,618.5l-33.3,33.3L852,545.1L745.4,651.8l-33.3-33.3l106.7-106.7L712.1,405.1l33.3-33.3L852,478.5l106.7-106.7
		l33.3,33.3L885.3,511.8L992,618.5z"/>
</g>
</svg>
