<?xml version="1.0" encoding="utf-8"?>
<!-- Generator: Adobe Illustrator 24.0.2, SVG Export Plug-In . SVG Version: 6.00 Build 0)  -->
<svg version="1.1" id="Layer_1" xmlns="http://www.w3.org/2000/svg" xmlns:xlink="http://www.w3.org/1999/xlink" x="0px" y="0px"
	 viewBox="0 0 1024 1024" style="enable-background:new 0 0 1024 1024;" xml:space="preserve">
<path d="M511,31.5c-265.1,0-480,214.9-480,480s214.9,480,480,480s480-214.9,480-480S776.1,31.5,511,31.5z M309.7,588.2
	c-5.1,1.1-10.5,1.6-15.8,1.6c-5.3,0-10.6-0.5-15.8-1.6c-36.3-7.4-62.6-39.7-62.6-76.7c0-40.3,30.2-73.8,70.3-77.9
	c5.2-0.6,10.7-0.6,16,0c40.1,4.1,70.3,37.6,70.3,77.9C372.3,548.5,346,580.8,309.7,588.2z M526.8,588.2c-5.1,1.1-10.5,1.6-15.8,1.6
	s-10.6-0.5-15.8-1.6c-36.3-7.4-62.6-39.7-62.6-76.7c0-40.3,30.2-73.8,70.3-77.9c5.2-0.6,10.7-0.6,16,0c40.1,4.1,70.3,37.6,70.3,77.9
	C589.3,548.5,563,580.8,526.8,588.2z M743.8,588.2c-5.2,1.1-10.5,1.6-15.8,1.6c-5.3,0-10.6-0.5-15.8-1.6
	c-36.3-7.4-62.6-39.7-62.6-76.7c0-40.3,30.3-73.8,70.3-77.9c5.2-0.5,10.8-0.6,16,0c40.1,4.1,70.3,37.6,70.3,77.9
	C806.4,548.5,780.1,580.8,743.8,588.2z"/>
</svg>
