<svg width="1024" height="1024" viewBox="0 0 1024 1024" fill="none" xmlns="http://www.w3.org/2000/svg">
<path d="M113.777 469.333L113.777 384L213.333 384C236.897 384 256 403.103 256 426.667C256 450.231 236.897 469.333 213.333 469.333L113.777 469.333Z" fill="white"/>
<path d="M810.666 469.333C787.102 469.333 768 450.231 768 426.667C768 403.103 787.102 384 810.666 384H910.222V469.333L810.666 469.333Z" fill="white"/>
<path d="M260.582 738.424L200.243 678.084L270.639 607.688C287.301 591.026 314.316 591.026 330.979 607.688C347.641 624.35 347.641 651.365 330.979 668.028L260.582 738.424Z" fill="white"/>
<path d="M753.357 245.649C736.695 262.312 709.68 262.312 693.017 245.649C676.355 228.987 676.355 201.972 693.017 185.31L763.414 114.913L823.754 175.253L753.357 245.649Z" fill="white"/>
<path d="M554.666 128C554.666 151.564 535.564 170.667 512 170.667C488.435 170.667 469.333 151.564 469.333 128V28.4445L554.666 28.4445V128Z" fill="white"/>
<path d="M823.754 678.084L763.414 738.424L693.017 668.028C676.355 651.365 676.355 624.35 693.017 607.688C709.68 591.026 736.695 591.026 753.357 607.688L823.754 678.084Z" fill="white"/>
<path d="M330.979 185.31C347.641 201.972 347.641 228.987 330.979 245.649C314.316 262.312 287.301 262.312 270.639 245.649L200.243 175.253L260.582 114.913L330.979 185.31Z" fill="white"/>
<path d="M398.222 810.667C398.222 802.812 404.589 796.444 412.444 796.444H611.555C619.41 796.444 625.777 802.812 625.777 810.667V839.111C625.777 846.966 619.41 853.333 611.555 853.333H412.444C404.589 853.333 398.222 846.966 398.222 839.111V810.667Z" fill="white"/>
<path d="M455.111 924.444C455.111 916.59 461.478 910.222 469.333 910.222H554.666C562.521 910.222 568.888 916.59 568.888 924.444V952.889C568.888 960.744 562.521 967.111 554.666 967.111H469.333C461.478 967.111 455.111 960.744 455.111 952.889V924.444Z" fill="white"/>
<path d="M648.777 571.365C635.263 584.142 625.777 601.17 625.777 619.767V725.333C625.777 733.187 619.409 739.556 611.555 739.556H412.444C404.59 739.556 398.222 733.187 398.222 725.333V619.767C398.222 601.17 388.736 584.142 375.222 571.365C336.84 535.069 312.888 483.667 312.888 426.667C312.888 316.701 402.034 227.556 512 227.556C621.965 227.556 711.111 316.701 711.111 426.667C711.111 483.667 687.159 535.069 648.777 571.365Z" fill="white"/>
</svg>
