<?xml version="1.0" encoding="utf-8"?>
<!-- Generator: Adobe Illustrator 24.0.2, SVG Export Plug-In . SVG Version: 6.00 Build 0)  -->
<svg version="1.1" id="Layer_1" xmlns="http://www.w3.org/2000/svg" xmlns:xlink="http://www.w3.org/1999/xlink" x="0px" y="0px"
	 viewBox="0 0 1024 1024" style="enable-background:new 0 0 1024 1024;" xml:space="preserve">
<style type="text/css">
	.st0{fill-rule:evenodd;clip-rule:evenodd;}
</style>
<g>
	<path class="st0" d="M900.7,593.9v71.3h-71.3v-71.3H900.7z M781.9,593.9v71.3h-69.7v-71.3H781.9z M664.7,547.9h-71.3v-71.3h71.3
		V547.9z M547.4,476.6v71.3h-71.3v-71.3H547.4z M311.4,359.4v69.7h-71.3v-69.7H311.4z M192.6,359.4v69.7h-69.7v-69.7H192.6z
		 M664.7,593.9v71.3h-236h-69.7v-71.3h69.7H664.7z M311.4,593.9v71.3h-71.3v-71.3H311.4z M192.6,593.9v71.3h-69.7v-71.3H192.6z
		 M428.6,476.6v71.3h-69.7v-71.3H428.6z M311.4,476.6v71.3h-71.3v-71.3H311.4z M192.6,476.6v71.3h-69.7v-71.3H192.6z M900.7,547.9
		H781.9h-69.7v-71.3h69.7h118.8V547.9z M900.7,429.1h-71.3v-69.7h71.3V429.1z M781.9,359.4v69.7h-69.7v-69.7H781.9z M664.7,359.4
		v69.7h-71.3v-69.7H664.7z M547.4,359.4v69.7h-71.3v-69.7H547.4z M428.6,359.4v69.7h-69.7v-69.7H428.6z M957,289.7H65
		c-18.8,0-34,15.2-34,34v375.6c0,18.8,15.2,34,34,34h892c18.8,0,34-15.2,34-34V323.7C991,304.9,975.8,289.7,957,289.7z"/>
</g>
</svg>
