<svg width="1024" height="1024" viewBox="0 0 1024 1024" fill="none" xmlns="http://www.w3.org/2000/svg">
<path d="M398.223 810.667C398.223 802.812 404.59 796.444 412.445 796.444H611.556C619.411 796.444 625.778 802.812 625.778 810.667V839.111C625.778 846.966 619.411 853.333 611.556 853.333H412.445C404.59 853.333 398.223 846.966 398.223 839.111V810.667Z" fill="white"/>
<path d="M455.112 924.444C455.112 916.59 461.479 910.222 469.334 910.222H554.667C562.522 910.222 568.889 916.59 568.889 924.444V952.889C568.889 960.744 562.522 967.111 554.667 967.111H469.334C461.479 967.111 455.112 960.744 455.112 952.889V924.444Z" fill="white"/>
<path d="M337.685 522.968L129.848 730.806L190.187 791.145L833.812 147.521L773.472 87.1813L608.302 252.352C579.762 236.551 546.932 227.556 512 227.556C402.035 227.556 312.889 316.701 312.889 426.667C312.889 461.599 321.885 494.429 337.685 522.968Z" fill="white"/>
<path d="M398.223 725.333V703.791L708.383 393.63C710.178 404.375 711.112 415.412 711.112 426.667C711.112 483.667 687.16 535.069 648.778 571.365C635.264 584.142 625.778 601.17 625.778 619.767V725.333C625.778 733.187 619.41 739.556 611.556 739.556H412.445C404.591 739.556 398.223 733.187 398.223 725.333Z" fill="white"/>
</svg>
