<svg width="1024" height="1024" viewBox="0 0 1024 1024" fill="none" xmlns="http://www.w3.org/2000/svg">
<path fill-rule="evenodd" clip-rule="evenodd" d="M134.486 767.986L29.2778 873.194L89.6112 933.528L934.375 88.7778L874.028 28.4445L590.931 311.542C565.028 314.528 538.695 316.056 512 316.056C350.556 316.056 202.208 260.014 85.3334 166.319V732.042C101.153 744.722 117.556 756.722 134.486 767.986ZM254.556 647.917L340.111 562.361C331.667 560.069 323.278 557.611 314.972 554.986L333.57 485.556L143.222 536.569L254.556 647.917Z" fill="white"/>
<path d="M512 881.778C436.764 881.778 364.375 869.597 296.695 847.125L501.833 642L506.945 642.056L512 642.069C583.764 642.069 653.097 631.431 718.458 611.625L735.681 675.917L875.028 536.569L684.681 485.556L703.722 556.639C657.903 570.667 609.917 579.792 560.403 583.417L938.667 205.167V732.042C821.792 825.736 673.445 881.778 512 881.778Z" fill="white"/>
</svg>
