<?xml version="1.0" encoding="utf-8"?>
<!-- Generator: Adobe Illustrator 22.0.0, SVG Export Plug-In . SVG Version: 6.00 Build 0)  -->
<svg version="1.1" id="Layer_1" xmlns="http://www.w3.org/2000/svg" xmlns:xlink="http://www.w3.org/1999/xlink" x="0px" y="0px"
	 viewBox="0 0 1024 1024" style="enable-background:new 0 0 1024 1024;" xml:space="preserve">
<g>
	<path d="M512,895.8c-190.7,0-345.3-154.7-345.3-345.4c0-116.8,59.1-225.7,156.9-289.4c22.2-14.4,28.6-44.2,14.1-66.4
		c-14.4-22.2-44.2-28.6-66.4-14.1c-0.1,0-0.1,0.1-0.2,0.1c-204.3,133-262,406.4-129.1,610.6s406.4,262,610.6,129.1
		s262-406.4,129.1-610.6c-33.6-51.5-77.5-95.5-129.1-129.1c-22.2-14.5-51.9-8.3-66.4,13.9c-14.5,22.2-8.3,51.9,13.9,66.4
		c0.1,0,0.1,0.1,0.2,0.1c159.9,104.1,205.1,318,101,477.9C737.7,836.7,628.8,895.8,512,895.8z"/>
	<path d="M512,31.8c-26.5,0-48,21.5-48,48v394.7c0,26.5,21.5,48,48,48c26.5,0,48-21.5,48-48V79.8C560,53.3,538.5,31.8,512,31.8z"/>
</g>
</svg>
