<?xml version="1.0" encoding="utf-8"?>
<!-- Generator: Adobe Illustrator 24.0.2, SVG Export Plug-In . SVG Version: 6.00 Build 0)  -->
<svg version="1.1" id="Layer_1" xmlns="http://www.w3.org/2000/svg" xmlns:xlink="http://www.w3.org/1999/xlink" x="0px" y="0px"
	 viewBox="0 0 1024 1024" style="enable-background:new 0 0 1024 1024;" xml:space="preserve">
<path d="M992,840.4c0,55-44.6,99.6-99.6,99.6H131.6c-55,0-99.6-44.6-99.6-99.6v-5.2c0-55,44.6-99.6,99.6-99.6h760.8
	c55,0,99.6,44.6,99.6,99.6V840.4z M992,515.9c0,55-44.6,99.6-99.6,99.6H131.6c-55,0-99.6-44.6-99.6-99.6v-5.2
	c0-55,44.6-99.6,99.6-99.6h760.8c55,0,99.6,44.6,99.6,99.6V515.9z M992,191.5c0,55-44.6,99.6-99.6,99.6H131.6
	c-55,0-99.6-44.6-99.6-99.6v-5.2c0-55,44.6-99.6,99.6-99.6h760.8c55,0,99.6,44.6,99.6,99.6V191.5z"/>
</svg>
