<?xml version="1.0" encoding="utf-8"?>
<!-- Generator: Adobe Illustrator 22.0.0, SVG Export Plug-In . SVG Version: 6.00 Build 0)  -->
<svg version="1.1" id="Layer_1" xmlns="http://www.w3.org/2000/svg" xmlns:xlink="http://www.w3.org/1999/xlink" x="0px" y="0px"
	 viewBox="0 0 1024 1024" style="enable-background:new 0 0 1024 1024;" xml:space="preserve">
<path d="M626,459.2L599,447c-7.4-2.5-9.8-9.8-7.4-17.2l24.5-115.2l56.4-264.8c2.5-14.7-17.2-24.5-27-12.3l-179,206L265.5,478.8
	c-7.4,7.4-4.9,19.6,4.9,22.1l130,63.7l27,12.3c7.4,2.5,9.8,9.8,7.4,17.2l-24.5,115.2l-56.4,264.8c-2.5,14.7,17.2,24.5,27,12.3
	l176.5-206L758.4,545c7.4-7.4,4.9-19.6-4.9-22.1L626,459.2z"/>
</svg>
