<?xml version="1.0" encoding="utf-8"?>
<!-- Generator: Adobe Illustrator 24.0.2, SVG Export Plug-In . SVG Version: 6.00 Build 0)  -->
<svg version="1.1" id="Layer_1" xmlns="http://www.w3.org/2000/svg" xmlns:xlink="http://www.w3.org/1999/xlink" x="0px" y="0px"
	 viewBox="0 0 1024 1024" style="enable-background:new 0 0 1024 1024;" xml:space="preserve">
<style type="text/css">
	.st0{fill:#FFFFFF;}
</style>
<path class="st0" d="M902.5,166.1h-781c-49.2,0-89.5,40.3-89.5,89.5v512.7c0,49.2,40.3,89.5,89.5,89.5h781
	c49.2,0,89.5-40.3,89.5-89.5V255.6C992,206.4,951.7,166.1,902.5,166.1z M121.5,222h781c18.2,0,33.6,15.4,33.6,33.6v435.1H87.9V255.6
	C87.9,237.4,103.3,222,121.5,222z M902.5,801.9h-781c-18.2,0-33.6-15.4-33.6-33.6v-21.7H936v21.7
	C936.1,786.6,920.7,801.9,902.5,801.9z"/>
</svg>
