<?xml version="1.0" encoding="utf-8"?>
<!-- Generator: Adobe Illustrator 24.0.2, SVG Export Plug-In . SVG Version: 6.00 Build 0)  -->
<svg version="1.1" id="Layer_1" xmlns="http://www.w3.org/2000/svg" xmlns:xlink="http://www.w3.org/1999/xlink" x="0px" y="0px"
	 viewBox="0 0 1024 1024" style="enable-background:new 0 0 1024 1024;" xml:space="preserve">
<g>
	<path d="M302.8,537.7c-107.1,0-193.8-86.8-193.8-193.9c0-65.6,33.2-126.7,88.1-162.5c12.5-8.1,16.1-24.8,7.9-37.3
		c-8.1-12.5-24.8-16.1-37.3-7.9c-0.1,0-0.1,0.1-0.1,0.1C52.9,210.9,20.5,364.3,95.1,479S323.3,626,437.9,551.4
		S585,323.3,510.4,208.7c-18.9-28.9-43.5-53.6-72.5-72.5c-12.5-8.1-29.1-4.7-37.3,7.8c-8.1,12.5-4.7,29.1,7.8,37.3
		c0.1,0,0.1,0.1,0.1,0.1c89.8,58.4,115.1,178.5,56.7,268.3C429.5,504.5,368.4,537.7,302.8,537.7z"/>
	<path d="M302.8,52.7c-14.9,0-26.9,12.1-26.9,26.9v221.6c0,14.9,12.1,26.9,26.9,26.9c14.9,0,26.9-12.1,26.9-26.9V79.6
		C329.8,64.7,317.7,52.7,302.8,52.7z"/>
</g>
<g>
	<path d="M693.7,413.9L413.4,697.5c-7.9,8.6-2,22.4,9.9,22.4h48c7.2,0,13.2,5.9,13.2,13.2v230.9c0,7.2,5.9,13.2,13.2,13.2h125.7
		c7.2,0,13.2-5.9,13.2-13.2V829.1c0-7.2,5.9-13.2,13.2-13.2h107.2c7.2,0,13.2,5.9,13.2,13.2v134.9c0,7.2,5.9,13.2,13.2,13.2h125
		c7.2,0,13.2-5.9,13.2-13.2V733c0-7.2,5.9-13.2,13.2-13.2h48c11.8,0,17.8-13.8,9.2-22.4L712.1,413.9
		C706.8,408.7,698.9,408.7,693.7,413.9z"/>
</g>
</svg>
