<?xml version="1.0" encoding="utf-8"?>
<!-- Generator: Adobe Illustrator 24.0.2, SVG Export Plug-In . SVG Version: 6.00 Build 0)  -->
<svg version="1.1" id="Layer_1" xmlns="http://www.w3.org/2000/svg" xmlns:xlink="http://www.w3.org/1999/xlink" x="0px" y="0px"
	 viewBox="0 0 1024 1024" style="enable-background:new 0 0 1024 1024;" xml:space="preserve">
<style type="text/css">
	.st0{fill-rule:evenodd;clip-rule:evenodd;}
</style>
<g>
	<path class="st0" d="M55,247.5H967c13.1,0,24,11,24,24v480c0,13.1-11,24-24,24H55c-13.1,0-24-11-24-24v-480
		C31,258.4,42,247.5,55,247.5z M329.8,475.7h72.1v71.6h-72.1V475.7z M470.8,475.7h72.1v71.6h-72.1V475.7z M719.4,607.3v72.1H293.7
		v-72.1H719.4z M611.8,475.7h71.6v71.6h-71.6V475.7z M789.9,607.3h105v72.1h-105V607.3z M822.8,343.6h72.1v72.1h-72.1
		C822.8,415.7,822.8,343.6,822.8,343.6z M682.3,343.6h71.6v72.1h-71.6C682.3,415.7,682.3,343.6,682.3,343.6z M541.3,343.6h72.1v72.1
		h-72.1C541.3,415.7,541.3,343.6,541.3,343.6z M400.3,343.6h72.1v72.1h-72.1C400.3,415.7,400.3,343.6,400.3,343.6z M259.2,343.6
		h72.1v72.1h-72.1C259.2,415.7,259.2,343.6,259.2,343.6z M118.2,607.3h105v72.1h-105V607.3z M118.2,475.7h144.2v71.6H118.2V475.7z
		 M118.2,343.6h72.1v72.1h-72.1C118.2,415.7,118.2,343.6,118.2,343.6z M752.3,475.7h142.6v71.6H752.3V475.7z"/>
</g>
</svg>
