<?xml version="1.0" encoding="utf-8"?>
<!-- Generator: Adobe Illustrator 24.0.2, SVG Export Plug-In . SVG Version: 6.00 Build 0)  -->
<svg version="1.1" id="Layer_1" xmlns="http://www.w3.org/2000/svg" xmlns:xlink="http://www.w3.org/1999/xlink" x="0px" y="0px"
	 viewBox="0 0 1024 1024" style="enable-background:new 0 0 1024 1024;" xml:space="preserve">
<g transform="translate(0,-1028.3622)">
	<path d="M113.6,1059.9h794.7c20.8,0,39.7,18.9,39.7,39.7v162.1c0,20.8-18.9,39.7-39.7,39.7H113.6c-20.8,0-39.7-18.9-39.7-39.7
		v-162.1C73.9,1078.8,92.8,1059.9,113.6,1059.9z M113.6,1419.1h794.7c20.8,0,39.7,18.9,39.7,39.7v162.1c0,20.8-18.9,39.7-39.7,39.7
		H113.6c-20.8,0-39.7-18.9-39.7-39.7v-162.1C73.9,1438,92.8,1419.1,113.6,1419.1z M113.6,1778.3h794.7c20.8,0,39.7,18.9,39.7,39.7
		v162.1c0,20.8-18.9,39.7-39.7,39.7H113.6c-20.8,0-39.7-18.9-39.7-39.7V1818C73.9,1797.2,92.8,1778.3,113.6,1778.3z"/>
</g>
</svg>
