<?xml version="1.0" encoding="utf-8"?>
<!-- Generator: Adobe Illustrator 24.0.2, SVG Export Plug-In . SVG Version: 6.00 Build 0)  -->
<svg version="1.1" id="Layer_1" xmlns="http://www.w3.org/2000/svg" xmlns:xlink="http://www.w3.org/1999/xlink" x="0px" y="0px"
	 viewBox="0 0 1024 1024" style="enable-background:new 0 0 1024 1024;" xml:space="preserve">
<g>
	<path d="M879.4,527.6c30.2-22.9,50-58.8,50-99.5c0-69.1-56.2-125.2-125.2-125.2c-33.6,0-64,13.5-86.5,35.1
		c4.5,17.2,7.7,35,7.7,53.6c0,37-10.2,71.3-27,101.5c8.3,13.2,18.3,25.2,30.8,34.6c-10.6,4.7-20.6,10.6-30.3,17.1
		c55.1,43.2,94.6,104.8,109.8,175.6h162.6c11.5,0,20.9-9.3,20.9-20.9C992,622.7,945.6,556.7,879.4,527.6z"/>
	<path d="M325.3,544.9c-9.7-6.5-19.7-12.5-30.4-17.1c12.4-9.4,22.5-21.4,30.8-34.6c-16.8-30.2-27-64.5-27-101.5
		c0-18.6,3.2-36.4,7.7-53.6c-22.5-21.6-52.9-35.1-86.5-35.1c-69,0-125.2,56.1-125.2,125.2c0,40.7,19.8,76.6,50,99.5
		C78.4,556.7,32,622.7,32,699.5c0,11.5,9.3,20.9,20.9,20.9h162.6C230.6,649.6,270.2,588.1,325.3,544.9z"/>
	<path d="M774,777.5c-2.6-110.5-73.9-204-172.7-240c49.2-30.2,82.3-84.1,82.3-145.8c0-94.6-77-171.6-171.6-171.6
		s-171.6,77-171.6,171.6c0,61.8,33.2,115.6,82.3,145.8C322.1,574.1,250,670.5,250,783.6c0,11.6,9.3,20.9,20.9,20.3
		c0,0,482.9,0,483.1,0c11.5,0,20.9-8.8,20.9-20.3C774.8,781.4,774.5,779.4,774,777.5z"/>
</g>
</svg>
