<?xml version="1.0" encoding="UTF-8" standalone="no"?>
<svg
   xmlns:dc="http://purl.org/dc/elements/1.1/"
   xmlns:cc="http://creativecommons.org/ns#"
   xmlns:rdf="http://www.w3.org/1999/02/22-rdf-syntax-ns#"
   xmlns:svg="http://www.w3.org/2000/svg"
   xmlns="http://www.w3.org/2000/svg"
   xmlns:sodipodi="http://sodipodi.sourceforge.net/DTD/sodipodi-0.dtd"
   xmlns:inkscape="http://www.inkscape.org/namespaces/inkscape"
   id="Layer_1"
   viewBox="0 0 1074.67 1109.49"
   version="1.1"
   sodipodi:docname="svr_recenter.svg"
   inkscape:version="0.92.4 (5da689c313, 2019-01-14)">
  <metadata
     id="metadata841">
    <rdf:RDF>
      <cc:Work
         rdf:about="">
        <dc:format>image/svg+xml</dc:format>
        <dc:type
           rdf:resource="http://purl.org/dc/dcmitype/StillImage" />
      </cc:Work>
    </rdf:RDF>
  </metadata>
  <sodipodi:namedview
     pagecolor="#ffffff"
     bordercolor="#666666"
     borderopacity="1"
     objecttolerance="10"
     gridtolerance="10"
     guidetolerance="10"
     inkscape:pageopacity="0"
     inkscape:pageshadow="2"
     inkscape:window-width="2560"
     inkscape:window-height="1537"
     id="namedview839"
     showgrid="false"
     inkscape:zoom="0.85274214"
     inkscape:cx="537.33502"
     inkscape:cy="471.62085"
     inkscape:window-x="-8"
     inkscape:window-y="-8"
     inkscape:window-maximized="1"
     inkscape:current-layer="Layer_1" />
  <defs
     id="defs831">
    <style
       id="style829">.cls-1{fill:#fff;}</style>
  </defs>
  <ellipse
     id="circle852"
     class="cls-1"
     cx="535.9032"
     cy="591.17291"
     rx="119.44242"
     ry="124.5945"
     style="fill:#000000;fill-opacity:1;stroke-width:1" />
  <path
     class="cls-1"
     d="m 723.00961,875.16707 c -1.55994,-71.08441 -40.32935,-132.63747 -96.6874,-164.53744 -24.93034,20.59402 -56.22924,32.90177 -90.41902,32.90177 -34.18979,0 -63.57096,-11.67805 -88.14353,-31.02698 -55.87146,33.03056 -93.68201,95.58542 -93.68201,167.17073 v 41.93221 c 52.10758,36.23631 115.40662,57.50295 183.68601,57.50295 68.27939,0 133.33873,-21.8391 185.84702,-58.99133 v -40.44383 c 0,-1.7603 -0.24329,-3.13419 -0.60107,-4.52239 v 0 z"
     id="path834"
     style="fill:#000000;fill-opacity:1;stroke-width:1"
     inkscape:connector-curvature="0" />
  <path
     class="cls-1"
     d="M 948.37023,449.54791 C 920.23414,393.46178 862.13011,305.71897 787.89721,229.18194 700.76979,139.34968 621.55654,63.585464 575.03038,24.672939 c -29.96794,-25.05915115 -43.62095,-25.05915115 -75.40643,0 C 452.01013,62.225887 373.88454,139.34968 286.75712,229.18194 212.52422,305.71897 154.42019,393.47609 126.2841,449.54791 102.85644,496.23149 81.203388,576.57534 81.203388,647.50233 c 0,251.90815 204.208472,456.11657 456.116622,456.11657 v 0 c 251.90815,0 456.11662,-204.20842 456.11662,-456.11657 0,-70.9413 -21.66736,-151.28515 -45.08071,-197.95442 z M 537.33432,1006.1158 c -196.07963,0 -355.39343,-157.36745 -358.55624,-352.70289 -3.26298,-201.86141 162.60541,-367.7155 364.45251,-364.45251 195.32113,3.14849 352.68859,162.47661 352.68859,358.55624 0,196.07962 -160.54458,358.59916 -358.59917,358.59916 z"
     id="path836"
     style="fill:#000000;fill-opacity:1;stroke-width:1"
     inkscape:connector-curvature="0" />
</svg>
