<?xml version="1.0" encoding="utf-8"?>
<!-- Generator: Adobe Illustrator 24.0.2, SVG Export Plug-In . SVG Version: 6.00 Build 0)  -->
<svg version="1.1"
	 id="svg8" xmlns:cc="http://creativecommons.org/ns#" xmlns:dc="http://purl.org/dc/elements/1.1/" xmlns:inkscape="http://www.inkscape.org/namespaces/inkscape" xmlns:rdf="http://www.w3.org/1999/02/22-rdf-syntax-ns#" xmlns:sodipodi="http://sodipodi.sourceforge.net/DTD/sodipodi-0.dtd" xmlns:svg="http://www.w3.org/2000/svg"
	 xmlns="http://www.w3.org/2000/svg" xmlns:xlink="http://www.w3.org/1999/xlink" x="0px" y="0px" viewBox="0 0 1024 1024"
	 style="enable-background:new 0 0 1024 1024;" xml:space="preserve">
<sodipodi:namedview  bordercolor="#666666" borderopacity="1.0" id="base" inkscape:current-layer="layer1" inkscape:cx="-51.867584" inkscape:cy="382.6472" inkscape:document-units="mm" inkscape:pagecheckerboard="true" inkscape:pageopacity="0.0" inkscape:pageshadow="2" inkscape:snap-object-midpoints="true" inkscape:window-height="1257" inkscape:window-maximized="0" inkscape:window-width="1289" inkscape:window-x="248" inkscape:window-y="495" inkscape:zoom="0.35" pagecolor="#ffffff" showgrid="false" units="px">
	</sodipodi:namedview>
<g>
	<path d="M664.9,669.7c-1.3-56.6-33.5-105.6-80.3-131c-20.7,16.4-46.7,26.2-75.1,26.2c-27.5,0-52.8-9.3-73.2-24.7
		c-46.4,26.3-77.8,76.1-77.8,133.1c0,6.8,5.4,12.2,12.2,11.9c0,0,282.4,0,282.5,0c6.7,0,12.2-5.2,12.2-11.9
		C665.4,671.9,665.2,670.8,664.9,669.7z"/>
	<circle cx="509.5" cy="443.6" r="99.2"/>
</g>
<path d="M963.3,344.8l-60.3-225l-54.3,54.3c-189-185.9-492.9-183.5-678.8,5.5C81.5,269.4,32,390.2,32,516.2
	c1.6,265.1,217.8,478.7,482.9,477.1c262.8-1.6,475.4-214.2,477.1-477h-79.2c0.1,221.4-179.3,400.9-400.7,401
	c-221.4,0.1-400.9-179.3-401-400.7c-0.1-221.4,179.3-400.9,400.7-401c105,0,205.8,41.1,280.8,114.7l-54.3,54.3L963.3,344.8z"/>
</svg>
