<svg width="1024" height="1024" viewBox="0 0 1024 1024" fill="none" xmlns="http://www.w3.org/2000/svg">
<path d="M400 140.444C400 118.293 406.568 96.6388 418.875 78.2205C431.182 59.8022 448.674 45.4469 469.139 36.9699C489.605 28.4929 512.124 26.2749 533.85 30.5964C555.576 34.918 575.532 45.5849 591.196 61.2484C606.859 76.9119 617.526 96.8684 621.848 118.594C626.169 140.32 623.951 162.84 615.474 183.305C606.997 203.77 592.642 221.262 574.224 233.569C555.805 245.876 534.151 252.444 512 252.444C497.283 252.477 482.704 249.603 469.1 243.986C455.497 238.369 443.137 230.12 432.731 219.714C422.324 209.307 414.075 196.947 408.458 183.344C402.842 169.74 399.967 155.162 400 140.444ZM512 327.111C459.192 327.111 408.548 348.089 371.207 385.429C333.866 422.77 312.889 473.415 312.889 526.222V625.778H392.533L412.444 824.889H611.555L631.466 625.778H711.111V526.222C711.111 473.415 690.133 422.77 652.793 385.429C615.452 348.089 564.807 327.111 512 327.111Z" fill="black"/>
<path fill-rule="evenodd" clip-rule="evenodd" d="M851.749 830.97L929.601 865.912C935.543 852.673 938.667 838.95 938.667 824.887C938.667 810.824 935.543 797.102 929.601 783.863L851.749 818.805C853.155 821.937 853.334 823.8 853.334 824.887C853.334 825.975 853.155 827.838 851.749 830.97ZM823.705 788.393L875.086 720.263C854.684 704.876 829.915 690.883 801.588 678.66L767.78 757.01C791.176 767.105 809.766 777.881 823.705 788.393ZM256.22 757.01L222.413 678.66C194.085 690.883 169.317 704.876 148.914 720.263L200.296 788.393C214.235 777.881 232.824 767.105 256.22 757.01ZM172.251 818.805L94.3996 783.863C88.4576 797.102 85.3335 810.824 85.3335 824.887C85.3335 838.95 88.4576 852.673 94.3996 865.912L172.251 830.97C170.845 827.838 170.667 825.975 170.667 824.887C170.667 823.8 170.845 821.937 172.251 818.805ZM200.296 861.382L148.914 929.512C169.317 944.899 194.085 958.892 222.413 971.115L256.22 892.765C232.824 882.669 214.235 871.894 200.296 861.382ZM324.212 915.858L302.461 998.373C328.54 1005.25 356.324 1010.88 385.443 1015.09L397.667 930.64C371.572 926.863 346.978 921.86 324.212 915.858ZM473.598 937.788L469.681 1023.03C483.602 1023.67 497.719 1024 512 1024C526.281 1024 540.398 1023.67 554.319 1023.03L550.402 937.788C537.789 938.368 524.978 938.665 512 938.665C499.023 938.665 486.211 938.368 473.598 937.788ZM626.333 930.64L638.557 1015.09C667.676 1010.88 695.46 1005.25 721.54 998.373L699.789 915.858C677.023 921.86 652.429 926.863 626.333 930.64ZM767.78 892.765L801.588 971.115C829.915 958.892 854.684 944.899 875.086 929.512L823.705 861.382C809.766 871.894 791.176 882.669 767.78 892.765Z" fill="black"/>
</svg>
