<?xml version="1.0" encoding="utf-8"?>
<!-- Generator: Adobe Illustrator 24.0.2, SVG Export Plug-In . SVG Version: 6.00 Build 0)  -->
<svg version="1.1" id="Layer_1" xmlns="http://www.w3.org/2000/svg" xmlns:xlink="http://www.w3.org/1999/xlink" x="0px" y="0px"
	 viewBox="0 0 1024 1024" style="enable-background:new 0 0 1024 1024;" xml:space="preserve">
<g>
	<path d="M762.4,334.3c-11.8-11.8-29.6-11.8-41.5,0c-11.8,11.8-11.8,29.6,0,41.5c37,37,56.3,84.4,56.3,136.3
		c0,51.8-20.7,99.2-56.3,136.3c-11.8,11.8-11.8,29.6,0,41.5c5.9,5.9,13.3,8.9,20.7,8.9s14.8-3,20.7-8.9
		c47.4-47.4,74.1-111.1,74.1-177.7S809.8,381.7,762.4,334.3z"/>
	<path d="M872.9,225.8c-19.1-19.1-47.7-19.1-66.8,0s-19.1,47.7,0,66.8c59.6,59.6,90.6,136,90.6,219.5s-33.4,159.8-90.6,219.5
		c-19.1,19.1-19.1,47.7,0,66.8c9.5,9.5,21.5,14.3,33.4,14.3s23.9-4.8,33.4-14.3c76.4-76.4,119.3-179,119.3-286.4
		S949.3,302.1,872.9,225.8z"/>
</g>
<g>
	<path d="M110.8,137c-43.3,0-78.6,35.4-78.6,78.6v596.4c0,43.3,35.4,78.6,78.6,78.6h433.9c43.3,0,78.6-35.4,78.6-78.6V215.7
		c0-43.3-35.4-78.6-78.6-78.6H110.8z M328.4,226.1c53.7,0,98.3,44.6,98.3,98.3s-44.6,98.3-98.3,98.3c-53.7,0-98.3-44.6-98.3-98.3
		S274.7,226.1,328.4,226.1z M328.4,805.5c-82.6,0-150.7-66.8-150.7-150.7S245.9,504,328.4,504s150.7,66.8,150.7,150.7
		C479.2,737.3,411,805.5,328.4,805.5z"/>
	<circle cx="328.4" cy="654.8" r="65.5"/>
</g>
</svg>
