<?xml version="1.0" encoding="utf-8"?>
<!-- Generator: Adobe Illustrator 24.0.2, SVG Export Plug-In . SVG Version: 6.00 Build 0)  -->
<svg version="1.1" id="Layer_1" xmlns="http://www.w3.org/2000/svg" xmlns:xlink="http://www.w3.org/1999/xlink" x="0px" y="0px"
	 viewBox="0 0 1024 1024" style="enable-background:new 0 0 1024 1024;" xml:space="preserve">
<g>
	<path d="M992,618.5l-33.3,33.3L852,545.1L745.4,651.8l-33.3-33.3l106.7-106.7L712.1,405.1l33.3-33.3L852,478.5l106.7-106.7
		l33.3,33.3L885.3,511.8L992,618.5z"/>
</g>
<g>
	<path d="M110.8,137c-43.3,0-78.6,35.4-78.6,78.6v596.4c0,43.3,35.4,78.6,78.6,78.6h433.9c43.3,0,78.6-35.4,78.6-78.6V215.7
		c0-43.3-35.4-78.6-78.6-78.6H110.8z M328.4,226.1c53.7,0,98.3,44.6,98.3,98.3s-44.6,98.3-98.3,98.3c-53.7,0-98.3-44.6-98.3-98.3
		S274.7,226.1,328.4,226.1z M328.4,805.5c-82.6,0-150.7-66.8-150.7-150.7S245.9,504,328.4,504s150.7,66.8,150.7,150.7
		C479.2,737.3,411,805.5,328.4,805.5z"/>
	<circle cx="328.4" cy="654.8" r="65.5"/>
</g>
</svg>
