<?xml version="1.0" encoding="utf-8"?>
<!-- Generator: Adobe Illustrator 24.0.2, SVG Export Plug-In . SVG Version: 6.00 Build 0)  -->
<svg version="1.1" id="Layer_1" xmlns="http://www.w3.org/2000/svg" xmlns:xlink="http://www.w3.org/1999/xlink" x="0px" y="0px"
	 viewBox="0 0 1024 1024" style="enable-background:new 0 0 1024 1024;" xml:space="preserve">
<g id="Layer_2_1_">
	<g id="Layer_1-2">
		<path d="M937.7,456c-78.5-78.7-205.9-78.8-284.6-0.3c-0.1,0.1-0.2,0.2-0.3,0.3C535.5,576.3,427,704.8,328.3,840.8
			c-29.4,35.2-24.7,87.6,10.5,117c29.5,24.7,72.2,25.8,103,2.7l250.2-189.1c95.4,57.3,219.1,26.4,276.3-69
			C1015.9,623,1003.3,521.4,937.7,456z M890.8,694.3c-51.6,53.4-136.7,54.9-190.1,3.3C656.6,655,646.9,588,677.1,534.7
			c6.2-11.4,14-22,23.2-31.2c52.7-52.6,138-52.5,190.6,0.2C943.5,556.3,943.4,641.7,890.8,694.3L890.8,694.3z"/>
		<circle cx="795.3" cy="598.5" r="80.3"/>
	</g>
</g>
<g>
	<path d="M302.8,537.7c-107.1,0-193.8-86.8-193.8-193.9c0-65.6,33.2-126.7,88.1-162.5c12.5-8.1,16.1-24.8,7.9-37.3
		c-8.1-12.5-24.8-16.1-37.3-7.9c-0.1,0-0.1,0.1-0.1,0.1C52.9,210.9,20.5,364.3,95.1,479S323.3,626,437.9,551.4
		S585,323.3,510.4,208.7c-18.9-28.9-43.5-53.6-72.5-72.5c-12.5-8.1-29.1-4.7-37.3,7.8c-8.1,12.5-4.7,29.1,7.8,37.3
		c0.1,0,0.1,0.1,0.1,0.1c89.8,58.4,115.1,178.5,56.7,268.3C429.5,504.5,368.4,537.7,302.8,537.7z"/>
	<path d="M302.8,52.7c-14.9,0-26.9,12.1-26.9,26.9v221.6c0,14.9,12.1,26.9,26.9,26.9c14.9,0,26.9-12.1,26.9-26.9V79.6
		C329.8,64.7,317.7,52.7,302.8,52.7z"/>
</g>
</svg>
