<?xml version="1.0" encoding="utf-8"?>
<!-- Generator: Adobe Illustrator 22.0.0, SVG Export Plug-In . SVG Version: 6.00 Build 0)  -->
<svg version="1.1" id="Layer_1" xmlns="http://www.w3.org/2000/svg" xmlns:xlink="http://www.w3.org/1999/xlink" x="0px" y="0px"
	 viewBox="0 0 1024 1024" style="enable-background:new 0 0 1024 1024;" xml:space="preserve">
<g>
	<path d="M574.3,106.2L258.8,358c-4.4,3-11.8,5.9-19.3,5.9H58.9c-16.3,0-26.7,13.3-26.7,29.6v237c0,16.3,8.9,29.6,26.7,29.6h180.7
		c7.4,0,13.3,3,17.8,5.9l315.5,251.8c19.3,14.8,50.4,1.5,50.4-23.7V129.9C624.7,104.7,593.6,91.4,574.3,106.2z"/>
	<path d="M762.4,334.3c-11.8-11.8-29.6-11.8-41.5,0c-11.8,11.8-11.8,29.6,0,41.5c37,37,56.3,84.4,56.3,136.3
		c0,51.8-20.7,99.2-56.3,136.3c-11.8,11.8-11.8,29.6,0,41.5c5.9,5.9,13.3,8.9,20.7,8.9c7.4,0,14.8-3,20.7-8.9
		c47.4-47.4,74.1-111.1,74.1-177.7S809.8,381.7,762.4,334.3z"/>
	<path d="M872.9,225.8c-19.1-19.1-47.7-19.1-66.8,0s-19.1,47.7,0,66.8c59.6,59.6,90.6,136,90.6,219.5s-33.4,159.8-90.6,219.5
		c-19.1,19.1-19.1,47.7,0,66.8c9.5,9.5,21.5,14.3,33.4,14.3s23.9-4.8,33.4-14.3C949.3,722,992.2,619.4,992.2,512
		S949.3,302.1,872.9,225.8z"/>
</g>
</svg>
