<?xml version="1.0" encoding="utf-8"?>
<!-- Generator: Adobe Illustrator 24.0.2, SVG Export Plug-In . SVG Version: 6.00 Build 0)  -->
<svg version="1.1" id="Layer_1" xmlns="http://www.w3.org/2000/svg" xmlns:xlink="http://www.w3.org/1999/xlink" x="0px" y="0px"
	 viewBox="0 0 1024 1024" style="enable-background:new 0 0 1024 1024;" xml:space="preserve">
<g>
	<path d="M474.3,129L46,312.3c-11.7,5-17.1,18.5-12.1,30.2c2.3,5.4,6.7,9.8,12.1,12.1l428.4,183.3c24,10.3,51.3,10.3,75.3,0
		L978,354.6c11.7-5,17.1-18.5,12.1-30.2c-2.3-5.4-6.7-9.8-12.1-12.1L549.7,129C525.6,118.7,498.4,118.7,474.3,129z"/>
	<path d="M978,533.1L549.7,716.5c-24.1,10.2-51.2,10.2-75.3,0L46,533.1c-11.7-4.9-17.1-18.4-12.2-30.1c2.3-5.5,6.7-9.9,12.2-12.2
		l98.2-42l311.2,133.2c36.1,15.4,76.9,15.4,113.1,0l311.2-133.2l98.2,42c11.7,4.9,17.1,18.4,12.2,30.1
		C987.9,526.4,983.5,530.8,978,533.1z"/>
	<path d="M978,711.7L549.7,895c-24.1,10.2-51.2,10.2-75.3,0L46,711.7c-11.7-5-17.1-18.5-12.2-30.2c2.3-5.5,6.7-9.8,12.2-12.2
		l98.1-42l311.3,133.3c36.1,15.4,76.9,15.4,113.1,0l311.3-133.3l98.1,42c11.7,5,17.1,18.5,12.2,30.2
		C987.8,705,983.5,709.4,978,711.7z"/>
</g>
</svg>
