<?xml version="1.0" encoding="UTF-8" standalone="no"?>
<svg
   xmlns:dc="http://purl.org/dc/elements/1.1/"
   xmlns:cc="http://creativecommons.org/ns#"
   xmlns:rdf="http://www.w3.org/1999/02/22-rdf-syntax-ns#"
   xmlns:svg="http://www.w3.org/2000/svg"
   xmlns="http://www.w3.org/2000/svg"
   xmlns:sodipodi="http://sodipodi.sourceforge.net/DTD/sodipodi-0.dtd"
   xmlns:inkscape="http://www.inkscape.org/namespaces/inkscape"
   id="Layer_1"
   viewBox="0 0 1074.67 1109.49"
   version="1.1"
   sodipodi:docname="svr_people_v1.svg"
   inkscape:version="0.92.4 (5da689c313, 2019-01-14)">
  <metadata
     id="metadata841">
    <rdf:RDF>
      <cc:Work
         rdf:about="">
        <dc:format>image/svg+xml</dc:format>
        <dc:type
           rdf:resource="http://purl.org/dc/dcmitype/StillImage" />
        <dc:title></dc:title>
      </cc:Work>
    </rdf:RDF>
  </metadata>
  <sodipodi:namedview
     pagecolor="#ffffff"
     bordercolor="#666666"
     borderopacity="1"
     objecttolerance="10"
     gridtolerance="10"
     guidetolerance="10"
     inkscape:pageopacity="0"
     inkscape:pageshadow="2"
     inkscape:window-width="2560"
     inkscape:window-height="1537"
     id="namedview839"
     showgrid="false"
     inkscape:zoom="0.85274214"
     inkscape:cx="537.33502"
     inkscape:cy="471.62085"
     inkscape:window-x="-8"
     inkscape:window-y="-8"
     inkscape:window-maximized="1"
     inkscape:current-layer="Layer_1" />
  <defs
     id="defs831">
    <style
       id="style829">.cls-1{fill:#fff;}</style>
  </defs>
  <path
     d="m 227.54577,634.991 c -14.05093,37.04026 -21.22221,76.33035 -21.16206,115.94555 V 929.77208 H 34.403442 V 792.0684 c 0,-21.08441 4.157039,-41.96098 12.235087,-61.43286 8.077278,-19.47562 19.914951,-37.16813 34.83764,-52.06189 14.921938,-14.89453 32.634251,-26.70021 52.124371,-34.73945 19.48935,-8.04148 40.37351,-12.16046 61.45716,-12.12164 10.91106,0.0296 21.79247,1.12683 32.48807,3.28147 z M 191.48081,333.65225 c -20.63216,0 -40.80217,6.12135 -57.95715,17.58137 -17.15579,11.46307 -30.52684,27.75622 -38.422908,46.81767 -7.895336,19.06222 -9.96166,40.03776 -5.938625,60.27401 4.027588,20.23624 13.961093,38.82489 28.550303,53.41487 14.59,14.58998 33.17788,24.52423 53.41412,28.55107 20.23625,4.02761 41.21177,1.95671 60.274,-5.93862 19.06223,-7.89531 35.35537,-21.26635 46.81843,-38.42288 11.46233,-17.15502 17.58062,-37.32502 17.58062,-57.95794 0,-27.66715 -10.99103,-54.20138 -30.55498,-73.76533 -19.56397,-19.56473 -46.09819,-30.55574 -73.76609,-30.55574 z m 208.64139,-14.9029 c 0,-26.52739 7.86639,-52.45939 22.60484,-74.51681 14.7392,-22.05741 35.68734,-39.24821 60.1933,-49.40021 24.50975,-10.152 51.47797,-12.80763 77.49598,-7.63265 26.01729,5.17724 49.91872,17.94986 68.67564,36.70755 18.75691,18.75843 31.53182,42.6576 36.70603,68.67561 5.17726,26.01804 2.5201,52.98625 -7.62962,77.49525 -10.152,24.50826 -27.34432,45.45561 -49.40098,60.19405 -22.05665,14.73769 -47.99017,22.60408 -74.51755,22.60408 -17.62476,0.0396 -35.08509,-3.40328 -51.37367,-10.12993 -16.29238,-6.72282 -31.09403,-16.60453 -43.55601,-29.06728 -12.46197,-12.46197 -22.34216,-27.26361 -29.06653,-43.55447 -6.73042,-16.29088 -10.1695,-33.75043 -10.13143,-51.37519 z m 342.76902,432.1872 V 929.77208 H 325.60768 V 750.93655 c 0,-55.33505 21.98205,-108.40426 61.11075,-147.53067 39.12639,-39.12943 92.19637,-61.11148 147.53141,-61.11148 55.33428,0 108.40426,21.98205 147.53371,61.11148 39.1264,39.12641 61.10767,92.19562 61.10767,147.53067 z M 1040.9516,792.0684 V 929.77208 H 862.11521 V 750.93655 c 0.0761,-38.98335 -6.85227,-77.66276 -20.56592,-114.15713 12.7452,-3.34998 25.8688,-5.05542 39.04571,-5.07067 42.53044,0 83.31663,16.89387 113.38823,46.96845 30.07457,30.07075 46.96837,70.85775 46.96837,113.38745 z M 877.01885,542.2944 c -20.63214,0 -40.80214,-6.12136 -57.9579,-17.58291 -17.15653,-11.46001 -30.52758,-27.75468 -38.42291,-46.81616 -7.8961,-19.06221 -9.96165,-40.03774 -5.93101,-60.27398 4.02761,-20.23625 13.96109,-38.82415 28.54803,-53.41412 14.58999,-14.58921 33.18015,-24.525 53.41488,-28.55033 20.23548,-4.02758 41.2133,-1.95669 60.27398,5.93864 19.0607,7.89608 35.35611,21.26712 46.81926,38.42289 11.46074,17.15501 17.57983,37.32427 17.57983,57.95718 0,27.6679 -10.98942,54.20214 -30.55434,73.76685 -19.56463,19.56471 -46.09809,30.55422 -73.76676,30.55422 z"
     id="path4528"
     style="fill:#000000;fill-opacity:1;stroke-width:1.00000012"
     inkscape:connector-curvature="0" />
</svg>
