<?xml version="1.0" encoding="utf-8"?>
<!-- Generator: Adobe Illustrator 24.0.2, SVG Export Plug-In . SVG Version: 6.00 Build 0)  -->
<svg version="1.1" id="Layer_1" xmlns="http://www.w3.org/2000/svg" xmlns:xlink="http://www.w3.org/1999/xlink" x="0px" y="0px"
	 viewBox="0 0 1024 1024" style="enable-background:new 0 0 1024 1024;" xml:space="preserve">
<path d="M977,451.8c-7.7-4.9-68.3-41.1-92.3-52.1l-29.8-72c8.8-23.8,25.8-90.5,28.8-102.1c2.4-10.7-0.8-22-8.6-29.8l-46.9-46.7
	c-7.8-7.8-19-11.1-29.8-8.6c-8.8,2-76.8,19.2-102.1,28.8l-72-29.8c-10.5-23-45.7-82.1-52.1-92.3C566.4,37.8,556.1,32,545,32h-66
	c-11,0-21.3,5.7-27.2,15c-4.9,7.7-41.1,68.3-52.1,92.3l-72,29.8c-23.8-8.8-90.5-25.8-102.1-28.8c-10.7-2.4-22,0.8-29.8,8.6
	l-46.7,46.9c-7.8,7.8-11.1,19-8.6,29.8c2,8.8,19.2,76.8,28.8,102.1l-29.8,72c-23,10.5-82.1,45.7-92.3,52.1
	C37.8,457.6,32,467.9,32,479v66c0,11,5.7,21.3,15,27.2c7.7,4.9,68.3,41.1,92.3,52.1l29.8,72c-8.8,23.8-25.8,90.5-28.8,102.1
	c-2.4,10.7,0.8,22,8.6,29.8l46.7,46.7c7.8,7.8,19,11.1,29.8,8.6c8.8-2,76.8-19.2,102.1-28.8l72,29.8c10.5,23,45.7,82.1,52.1,92.3
	c5.8,9.6,16.2,15.4,27.5,15.4h66c11,0,21.3-5.7,27.2-15c4.9-7.7,41.1-68.3,52.1-92.3l72-29.8c23.8,8.8,90.5,25.8,102.1,28.8
	c10.7,2.4,22-0.8,29.8-8.6l46.7-46.7c7.8-7.8,11.1-19,8.6-29.8c-2-8.8-19.2-76.8-28.8-102.1l29.8-72c23-10.5,82.1-45.7,92.3-52.1
	c9.6-5.8,15.4-16.2,15.4-27.5v-66C992.1,467.9,986.4,457.6,977,451.8z M512,721c-115.5-0.1-209.1-93.8-209-209.4
	c0.1-115.5,93.8-209.1,209.4-209c115.5,0.1,209.1,93.8,209,209.4C721.1,627.5,627.5,720.9,512,721z"/>
</svg>
