<?xml version="1.0" encoding="utf-8"?>
<!-- Generator: Adobe Illustrator 27.1.1, SVG Export Plug-In . SVG Version: 6.00 Build 0)  -->
<svg version="1.1"
	 id="Layer_1" xmlns:cc="http://creativecommons.org/ns#" xmlns:dc="http://purl.org/dc/elements/1.1/" xmlns:sodipodi="http://sodipodi.sourceforge.net/DTD/sodipodi-0.dtd" xmlns:inkscape="http://www.inkscape.org/namespaces/inkscape" xmlns:svg="http://www.w3.org/2000/svg" xmlns:rdf="http://www.w3.org/1999/02/22-rdf-syntax-ns#" inkscape:version="0.92.4 (5da689c313, 2019-01-14)" sodipodi:docname="svr_people_v1.svg"
	 xmlns="http://www.w3.org/2000/svg" xmlns:xlink="http://www.w3.org/1999/xlink" x="0px" y="0px" viewBox="0 0 1074.7 1109.5"
	 style="enable-background:new 0 0 1074.7 1109.5;" xml:space="preserve">
<sodipodi:namedview  bordercolor="#666666" borderopacity="1" gridtolerance="10" guidetolerance="10" id="namedview839" inkscape:current-layer="Layer_1" inkscape:cx="537.33502" inkscape:cy="471.62085" inkscape:pageopacity="0" inkscape:pageshadow="2" inkscape:window-height="1537" inkscape:window-maximized="1" inkscape:window-width="2560" inkscape:window-x="-8" inkscape:window-y="-8" inkscape:zoom="0.85274214" objecttolerance="10" pagecolor="#ffffff" showgrid="false">
	</sodipodi:namedview>
<g>
	<path d="M117.7,511.7c14.6,14.6,33.2,24.5,53.4,28.6c20.2,4,41.2,2,60.3-5.9c19.1-7.9,35.4-21.3,46.8-38.4
		c11.5-17.2,17.6-37.3,17.6-58c0-27.7-11-54.2-30.6-73.8c-19.6-19.6-46.1-30.6-73.8-30.6l0,0c-20.6,0-40.8,6.1-58,17.6
		c-17.2,11.5-30.5,27.8-38.4,46.8c-7.9,19.1-10,40-5.9,60.3C93.2,478.6,103.1,497.2,117.7,511.7z"/>
	<path d="M410.3,370.1c6.7,16.3,16.6,31.1,29.1,43.6c12.5,12.5,27.3,22.3,43.6,29.1c16.3,6.7,33.7,10.2,51.4,10.1
		c26.5,0,52.5-7.9,74.5-22.6c22.1-14.7,39.2-35.7,49.4-60.2c10.1-24.5,12.8-51.5,7.6-77.5c-5.2-26-17.9-49.9-36.7-68.7
		c-18.8-18.8-42.7-31.5-68.7-36.7c-26-5.2-53-2.5-77.5,7.6c-24.5,10.2-45.5,27.3-60.2,49.4c-14.7,22.1-22.6,48-22.6,74.5h0
		C400.1,336.4,403.5,353.8,410.3,370.1z"/>
	<path d="M851.6,336.8L851.6,336.8l141.7-141.7l-67.9-67.9L508.8,543.9c-45.9,5.7-89,26.5-122.1,59.5
		c-33.1,33.1-53.9,76.1-59.5,122.1L206.4,846.2v-95.3c-0.1-39.6,7.1-78.9,21.2-115.9c-10.7-2.2-21.6-3.3-32.5-3.3
		c-21.1,0-42,4.1-61.5,12.1c-19.5,8-37.2,19.8-52.1,34.7c-14.9,14.9-26.8,32.6-34.8,52.1c-8.1,19.5-12.2,40.3-12.2,61.4v137.7h88.5
		L11,1041.6l67.9,67.9l246.7-246.7v0l299.6-299.6l0,0l150.7-150.7l0,0L851.6,336.8z"/>
	<path d="M994,678.7c-30.1-30.1-70.9-47-113.4-47c-13.2,0-26.3,1.7-39,5.1c13.7,36.5,20.6,75.2,20.6,114.2v178.8H1041V792.1v0
		C1041,749.5,1024.1,708.7,994,678.7z"/>
	<path d="M877,542.3c27.7,0,54.2-11,73.8-30.6c19.6-19.6,30.6-46.1,30.6-73.8c0-20.6-6.1-40.8-17.6-58c-2.6-3.9-5.5-7.6-8.5-11.1
		L808,516.2c3.5,3.1,7.2,5.9,11.1,8.5C836.2,536.2,856.4,542.3,877,542.3L877,542.3z"/>
	<path d="M700,624.2L394.4,929.8h348.5V750.9h0C742.9,704.9,727.6,660.4,700,624.2z"/>
	<polygon points="227.5,635 227.5,635 227.5,635 	"/>
</g>
</svg>
