<?xml version="1.0" encoding="utf-8"?>
<!-- Generator: Adobe Illustrator 22.0.0, SVG Export Plug-In . SVG Version: 6.00 Build 0)  -->
<svg version="1.1" id="Layer_1" xmlns="http://www.w3.org/2000/svg" xmlns:xlink="http://www.w3.org/1999/xlink" x="0px" y="0px"
	 viewBox="0 0 1024 1024" style="enable-background:new 0 0 1024 1024;" xml:space="preserve">
<g>
	<path d="M32,348v327.8c0,26.8,24.3,51.1,51.1,51.1h158.6V297H83C56.3,297,32,321.3,32,348"/>
	<path d="M940.9,297H774.5v430h166.3c26.8,0,51.1-24.3,51.1-51.1V348C992,321.3,967.6,297,940.9,297"/>
	<path d="M676.8,194H339.4c-26.8,0-51.1,24.3-51.1,51.1V297v430v51.9c0,26.8,24.3,51.1,51.1,51.1h337.3c26.8,0,51.1-24.3,51.1-51.1
		v-52.1V297.2v-52.1C727.9,218.3,703.5,194,676.8,194 M458.3,642.8V381.1L589.1,512L458.3,642.8z"/>
</g>
</svg>
