<?xml version="1.0" encoding="utf-8"?>
<!-- Generator: Adobe Illustrator 24.0.2, SVG Export Plug-In . SVG Version: 6.00 Build 0)  -->
<svg version="1.1"
	 id="svg8" xmlns:cc="http://creativecommons.org/ns#" xmlns:dc="http://purl.org/dc/elements/1.1/" xmlns:inkscape="http://www.inkscape.org/namespaces/inkscape" xmlns:rdf="http://www.w3.org/1999/02/22-rdf-syntax-ns#" xmlns:sodipodi="http://sodipodi.sourceforge.net/DTD/sodipodi-0.dtd" xmlns:svg="http://www.w3.org/2000/svg"
	 xmlns="http://www.w3.org/2000/svg" xmlns:xlink="http://www.w3.org/1999/xlink" x="0px" y="0px" viewBox="0 0 1024 1024"
	 style="enable-background:new 0 0 1024 1024;" xml:space="preserve">
<path d="M512,84.3C275.8,84.3,84.3,275.8,84.3,512S275.8,939.7,512,939.7S939.7,748.2,939.7,512S748.2,84.3,512,84.3z M512,912
	c-220.9,0-400-179.1-400-400s179.1-400,400-400s400,179.1,400,400S732.9,912,512,912z"/>
<sodipodi:namedview  bordercolor="#666666" borderopacity="1.0" id="base" inkscape:current-layer="layer1" inkscape:cx="-51.867584" inkscape:cy="382.6472" inkscape:document-units="mm" inkscape:pagecheckerboard="true" inkscape:pageopacity="0.0" inkscape:pageshadow="2" inkscape:snap-object-midpoints="true" inkscape:window-height="1257" inkscape:window-maximized="0" inkscape:window-width="1289" inkscape:window-x="248" inkscape:window-y="495" inkscape:zoom="0.35" pagecolor="#ffffff" showgrid="false" units="px">
	</sodipodi:namedview>
<g id="layer1" transform="translate(0,-26.06665)" inkscape:groupmode="layer" inkscape:label="Layer 1">
	<path d="M512,1019.7c-43.3,0-78.6-35.3-78.6-78.6c0-13.8,3.7-27.4,10.7-39.4l7.7-13.2l-6.1-14c-7.9-17.9-14-34.9-18.7-52.1
		c-7.4-27.1-11.4-55.1-11.7-83.4c-0.2-18.8,1.3-37.7,4.3-56.3c4.6-27.6,13-54.9,24.9-81.1l22.4-49.3l-53.6,7.1
		c-59.3,7.8-110.4,34.2-156.2,80.5c-7.8,7.9-15.2,16.4-23.5,26.7l-12.7,16l10.2,17.7c21.5,37.5,8.6,85.6-28.8,107.2
		c-11.9,6.9-25.5,10.5-39.2,10.5c-28.1,0-54.2-15.1-68.2-39.3c-21.7-37.5-8.7-85.7,28.8-107.4c11.9-6.8,25.4-10.4,39.2-10.4
		l15.5,0.1l9-12.3c11.5-15.6,23.2-29.4,35.8-42.2c19.7-20,42.1-37.4,66.4-51.8c16.2-9.6,33.4-17.8,50.9-24.4
		c26.2-9.8,54-16.2,82.8-19l53.9-5.2l-33-42.9c-36.5-47.5-84.8-78.5-147.9-95c-10.6-2.8-21.7-5-34.8-6.9l-20.2-3L231,376
		c-14,24.2-40.1,39.2-68.1,39.2c-13.7,0-27.3-3.6-39.2-10.6C86.1,383,73.2,334.8,94.9,297.3l0,0c14-24.2,40.1-39.3,68.2-39.3
		c13.7,0,27.3,3.6,39.2,10.6c11.9,6.9,21.9,16.9,28.7,28.9l7.6,13.2l15.2,1.7c19.3,2.1,37.1,5.4,54.4,9.9
		c33.5,8.7,65.4,22.7,94.6,41.6c34.3,22.1,63.9,50.4,87.9,84l31.5,44l20.7-50c22.9-55.3,25.6-112.7,8.3-175.5
		c-2.9-10.5-6.5-21.2-11.4-33.6l-7.5-19l-20.4,0c-43.3-0.1-78.5-35.3-78.5-78.6c0-43.3,35.3-78.6,78.6-78.6c21,0,40.8,8.2,55.6,23
		c14.8,14.8,23,34.6,23,55.6c0,13.8-3.7,27.4-10.7,39.3l-7.7,13.2l6.1,14c7.8,17.8,13.9,34.8,18.7,52.1
		c11.7,42.4,24.9,127.5-17.6,220.8l-22.4,49.3l53.6-7.1c59.3-7.9,110.4-34.2,156.2-80.6c7.6-7.7,15.1-16.2,23.4-26.7l12.7-16
		l-10.2-17.7c-21.6-37.5-8.6-85.6,28.8-107.2c12-6.9,25.5-10.6,39.2-10.6c28,0,54,15,68,39.1l0.1,0.2c10.5,18.2,13.3,39.4,7.8,59.6
		s-18.4,37.2-36.6,47.7c-11.8,6.8-25.4,10.4-39.1,10.4l-15.5-0.1l-9,12.3c-11.5,15.7-23.2,29.5-35.8,42.2
		c-24.3,24.7-52.4,45.2-83.3,61.1c-36.3,18.6-75.6,30.1-116.7,34.1l-53.8,5.2l33,42.9c36.4,47.4,84.8,78.5,147.8,94.9
		c10.7,2.8,21.7,5,34.9,7l20.2,3l10.2-17.6c14-24.2,40.1-39.2,68.1-39.2c13.6,0,27,3.6,38.9,10.4l0.2,0.1l0.3,0.2
		c37.4,21.7,50.2,69.8,28.6,107.3c-14,24.2-40.1,39.3-68.2,39.3c-13.7,0-27.3-3.6-39.2-10.6c-11.9-6.9-21.9-16.9-28.7-28.9
		l-7.6-13.2l-15.2-1.7c-19.3-2.1-37.1-5.4-54.4-9.9c-27.2-7.1-53.4-17.7-78-31.6c-16.4-9.2-32-19.9-46.6-31.9
		c-21.6-17.8-41.1-38.7-57.8-62.1l-31.5-44l-20.7,50c-22.9,55.3-25.6,112.7-8.3,175.5c2.9,10.6,6.5,21.3,11.4,33.6l7.5,19l20.4,0
		c43.2,0.1,78.4,35.4,78.4,78.6C590.6,984.4,555.3,1019.7,512,1019.7L512,1019.7z"/>
</g>
</svg>
