<?xml version="1.0" encoding="utf-8"?>
<!-- Generator: Adobe Illustrator 22.0.1, SVG Export Plug-In . SVG Version: 6.00 Build 0)  -->
<svg version="1.1" id="Layer_1" xmlns="http://www.w3.org/2000/svg" xmlns:xlink="http://www.w3.org/1999/xlink" x="0px" y="0px"
	 viewBox="0 0 11.1 13.3" style="enable-background:new 0 0 11.1 13.3;" xml:space="preserve">
<style type="text/css">
	.st0{fill:#FFFFFF;}
</style>
<g>
	<path class="st0" d="M0.6,2.8L0.6,2.8l1,9c0.1,0.8,0.8,1.5,1.7,1.5H8c0.8,0,1.5-0.6,1.7-1.5l0.9-9h0.1c0.3,0,0.6-0.2,0.6-0.6
		c0-0.3-0.2-0.6-0.6-0.6H10H8.9l0,0C8.9,0.8,8.1,0,7.2,0H3.9C3,0,2.3,0.8,2.3,1.7H1.2H0.6C0.3,1.7,0,1.9,0,2.3
		C0.1,2.5,0.3,2.8,0.6,2.8z M3.4,1.7c0-0.3,0.2-0.5,0.6-0.5h3.3c0.3,0,0.6,0.2,0.6,0.6L3.4,1.7L3.4,1.7z M9.4,2.8l-0.9,8.9
		c0,0.3-0.3,0.5-0.6,0.5H3.2c-0.3,0-0.5-0.2-0.6-0.5L1.8,2.8H9.4z"/>
	<path class="st0" d="M4.5,11.1c0.3,0,0.6-0.2,0.6-0.6V4.4c0-0.3-0.2-0.6-0.6-0.6S3.9,4.1,3.9,4.4v6.1C3.9,10.8,4.2,11.1,4.5,11.1z"
		/>
	<path class="st0" d="M6.7,11.1c0.3,0,0.6-0.2,0.6-0.6V4.4c0-0.3-0.2-0.6-0.6-0.6S6.1,4.1,6.1,4.4v6.1C6.1,10.8,6.4,11.1,6.7,11.1z"
		/>
</g>
</svg>
