<?xml version="1.0" encoding="utf-8"?>
<!-- Generator: Adobe Illustrator 22.0.1, SVG Export Plug-In . SVG Version: 6.00 Build 0)  -->
<svg version="1.1" id="Layer_1" xmlns="http://www.w3.org/2000/svg" xmlns:xlink="http://www.w3.org/1999/xlink" x="0px" y="0px"
	 viewBox="0 0 13.5 13.3" style="enable-background:new 0 0 13.5 13.3;" xml:space="preserve">
<style type="text/css">
	.st0{fill:#FFFFFF;}
</style>
<g>
	<path class="st0" d="m6.75,0.88077c-3.18461,0 -5.76923,2.58461 -5.76923,5.76923s2.58461,5.76923 5.76923,5.76923s5.76923,-2.58461 5.76923,-5.76923s-2.58461,-5.76923 -5.76923,-5.76923zm0,0.88757c2.69467,0 4.88165,2.18698 4.88165,4.88165s-2.18698,4.88165 -4.88165,4.88165s-4.88165,-2.18698 -4.88165,-4.88165s2.18698,-4.88165 4.88165,-4.88165z" id="svg_2"/>
	<path class="st0" d="m7.63744,4.09829a0.9985,0.99853 0 1 1 -1.99702,0a0.9985,0.99853 0 1 1 1.99702,0z" id="svg_3"/>
	<path class="st0" d="m7.6966,9.39793c-0.00612,0.24231 0.10749,0.31065 0.38405,0.33905l0.4445,0.00888l0,0.45444l-3.46802,0l0,-0.45444l0.48843,-0.00888c0.2921,-0.00888 0.36231,-0.12249 0.38405,-0.33905l0,-2.73488c0.00311,-0.43305 -0.55882,-0.36506 -0.95476,-0.35219l0,-0.45035l2.72174,-0.09808" id="svg_4"/>
</g>
</svg>
