<?xml version="1.0" encoding="utf-8"?>
<!-- Generator: Adobe Illustrator 22.0.1, SVG Export Plug-In . SVG Version: 6.00 Build 0)  -->
<svg version="1.1" id="Layer_1" xmlns="http://www.w3.org/2000/svg" xmlns:xlink="http://www.w3.org/1999/xlink" x="0px" y="0px"
	 viewBox="0 0 13.5 13.3" style="enable-background:new 0 0 13.5 13.3;" xml:space="preserve">
<style type="text/css">
	.st0{fill:#FFFFFF;}
</style>
<g>
	<path class="st0" d="M13.4,1.4c0-0.8-0.6-1.4-1.4-1.4H1.5C0.7,0,0.1,0.6,0.1,1.4V12c0,0.8,0.6,1.4,1.4,1.4h10.6
		c0.8,0,1.4-0.6,1.4-1.4V1.4z M12.1,12C12.1,12,12.1,12,12.1,12L1.5,12c0,0,0,0,0,0V1.4c0,0,0,0,0,0h10.6c0,0,0,0,0,0V12z"/>
</g>
<path class="st0" d="M6.3,2.6C6.3,2.7,6.2,2.8,6.2,3l0,3.2L3,6.2c-0.1,0-0.3,0.1-0.4,0.2c-0.2,0.2-0.2,0.5,0,0.8
	C2.7,7.2,2.9,7.3,3,7.3l3.2,0l0,3.2c0,0.3,0.2,0.5,0.5,0.5c0.3,0,0.5-0.2,0.5-0.5c0,0,0,0,0,0l0-3.2l3.2,0C10.8,7.3,11,7,11,6.7
	c0-0.3-0.2-0.5-0.5-0.5c0,0,0,0,0,0l-3.2,0l0-3.2c0-0.3-0.2-0.5-0.5-0.5C6.6,2.4,6.5,2.5,6.3,2.6z"/>
</svg>
