<?xml version="1.0" encoding="utf-8"?>
<!-- Generator: Adobe Illustrator 22.0.1, SVG Export Plug-In . SVG Version: 6.00 Build 0)  -->
<svg version="1.1" id="Layer_1" xmlns="http://www.w3.org/2000/svg" xmlns:xlink="http://www.w3.org/1999/xlink" x="0px" y="0px"
	 viewBox="0 0 14.7 14.7" style="enable-background:new 0 0 14.7 14.7;" xml:space="preserve">
<style type="text/css">
	.st0{fill:#FFFFFF;}
</style>
<g>
	<g>
		<path class="st0" d="M14.4,2.4l-2.1-2.1c-0.4-0.4-0.9-0.4-1.3,0L9.2,2.1c0,0,0,0,0,0h0L1.8,9.5C1.7,9.6,1.7,9.7,1.6,9.8L0,13.4
			c-0.1,0.3-0.1,0.7,0.2,1c0.2,0.2,0.4,0.3,0.6,0.3c0.1,0,0.2,0,0.4-0.1l3.7-1.6c0.1,0,0.2-0.1,0.3-0.2l9.2-9.2
			C14.8,3.3,14.8,2.7,14.4,2.4z M4,11.5l-1.4,0.6l0.6-1.4l6.4-6.4l0.8,0.8L4,11.5z M11.4,4.1l-0.8-0.8l1.1-1.1L12.5,3L11.4,4.1z"/>
	</g>
</g>
</svg>
