<?xml version="1.0" encoding="utf-8"?>
<!-- Generator: Adobe Illustrator 22.0.1, SVG Export Plug-In . SVG Version: 6.00 Build 0)  -->
<svg version="1.1" id="Layer_1" xmlns="http://www.w3.org/2000/svg" xmlns:xlink="http://www.w3.org/1999/xlink" x="0px" y="0px"
	 viewBox="0 0 13.3 13.2" style="enable-background:new 0 0 13.3 13.2;" xml:space="preserve">
<style type="text/css">
	.st0{fill:#FFFFFF;}
</style>
<g>
	<g>
		<path class="st0" d="M6.8,13.2H6.4c-0.6,0-1.2-0.5-1.3-1.1c0-0.1-0.1-0.2-0.2-0.3c-0.2-0.1-0.5-0.2-0.7-0.3c-0.1-0.1-0.2,0-0.3,0
			c-0.6,0.4-1.3,0.3-1.7-0.2l-0.3-0.3C1.4,10.7,1.3,10,1.6,9.4c0.1-0.1,0.1-0.2,0-0.3C1.5,8.9,1.4,8.6,1.3,8.4
			c0-0.1-0.1-0.2-0.2-0.2C0.5,8,0,7.4,0,6.8V6.4c0-0.6,0.5-1.2,1.1-1.3C1.2,5,1.3,5,1.3,4.8c0.1-0.3,0.2-0.5,0.3-0.7
			c0.1-0.1,0-0.2,0-0.3l0,0C1.3,3.2,1.4,2.5,1.8,2.1l0.3-0.3c0.3-0.3,0.6-0.4,1-0.4c0.3,0,0.5,0.1,0.8,0.2c0.1,0.1,0.2,0.1,0.3,0
			c0.2-0.1,0.5-0.2,0.7-0.3c0.1,0,0.2-0.1,0.2-0.2C5.2,0.4,5.8,0,6.4,0h0.4C7.5,0,8,0.4,8.2,1.1c0,0.1,0.1,0.2,0.2,0.2
			c0.2,0.1,0.5,0.2,0.7,0.3c0.1,0.1,0.2,0,0.3,0c0.6-0.4,1.3-0.3,1.7,0.2l0.3,0.3c0.5,0.5,0.5,1.2,0.2,1.7l0,0
			c-0.1,0.1-0.1,0.2,0,0.3c0.1,0.2,0.2,0.5,0.3,0.7C11.9,5,12,5,12.1,5.1l0,0c0.6,0.1,1.1,0.7,1.1,1.3v0.4c0,0.6-0.5,1.2-1.1,1.3
			l0,0c-0.1,0-0.2,0.1-0.2,0.2c-0.1,0.2-0.2,0.5-0.3,0.7c-0.1,0.1,0,0.2,0,0.3l0,0c0.4,0.5,0.3,1.3-0.2,1.7l-0.3,0.3
			c-0.3,0.3-0.6,0.4-1,0.4l0,0c-0.3,0-0.5-0.1-0.8-0.2l0,0c-0.1-0.1-0.2-0.1-0.3,0c-0.2,0.1-0.5,0.2-0.7,0.3c-0.1,0-0.2,0.1-0.2,0.2
			l0,0C8,12.8,7.5,13.2,6.8,13.2z M4,10.5c0.2,0,0.4,0.1,0.6,0.1c0.2,0.1,0.4,0.2,0.6,0.2c0.5,0.2,0.8,0.5,0.9,1
			c0,0.2,0.2,0.3,0.3,0.3h0.4c0.1,0,0.3-0.1,0.3-0.2l0,0c0.1-0.5,0.4-0.9,0.9-1c0.2-0.1,0.4-0.1,0.6-0.2c0.4-0.2,1-0.2,1.4,0.1l0,0
			c0.1,0.1,0.3,0.1,0.4,0l0.3-0.3c0.1-0.1,0.1-0.3,0-0.4l0,0c-0.3-0.4-0.3-0.9-0.1-1.4c0.1-0.2,0.2-0.4,0.2-0.6
			c0.2-0.5,0.5-0.8,1-0.9l0,0c0.1,0,0.2-0.2,0.2-0.3V6.4c0-0.1-0.1-0.3-0.2-0.3l0,0c-0.5-0.1-0.9-0.5-1-0.9
			c-0.1-0.2-0.1-0.4-0.2-0.6c-0.2-0.4-0.2-1,0.1-1.4l0,0c0.1-0.1,0.1-0.3,0-0.4l-0.3-0.3c-0.1-0.1-0.3-0.1-0.4,0
			c-0.4,0.3-1,0.3-1.4,0.1C8.5,2.5,8.3,2.4,8.1,2.3c-0.5-0.2-0.8-0.5-0.9-1C7.1,1.1,7,1,6.8,1H6.4C6.3,1,6.2,1.1,6.1,1.3
			C6,1.8,5.7,2.2,5.2,2.3C5,2.4,4.8,2.5,4.6,2.6c-0.4,0.2-1,0.2-1.4-0.1c-0.1-0.1-0.3-0.1-0.4,0L2.6,2.8c-0.1,0.1-0.1,0.3,0,0.4l0,0
			c0.3,0.4,0.3,0.9,0.1,1.4C2.5,4.8,2.4,5,2.3,5.2C2.2,5.6,1.8,6,1.3,6.1c-0.1,0-0.2,0.2-0.2,0.3v0.4c0,0.1,0.1,0.3,0.2,0.3
			c0.5,0.1,0.9,0.5,1,0.9c0.1,0.2,0.2,0.4,0.2,0.6c0.2,0.4,0.2,1-0.1,1.4c-0.1,0.1-0.1,0.3,0,0.4l0.3,0.3c0.1,0.1,0.3,0.1,0.4,0
			C3.5,10.6,3.7,10.5,4,10.5z"/>
	</g>
	<g>
		<path class="st0" d="M6.6,9C5.3,9,4.2,7.9,4.2,6.6c0-1.3,1.1-2.4,2.4-2.4C7.9,4.2,9,5.3,9,6.6C9,7.9,7.9,9,6.6,9z M6.6,5.3
			c-0.7,0-1.3,0.6-1.3,1.3s0.6,1.3,1.3,1.3S8,7.3,8,6.6S7.4,5.3,6.6,5.3z"/>
	</g>
</g>
</svg>
