<svg id="Layer_1" data-name="Layer 1" xmlns="http://www.w3.org/2000/svg" xmlns:xlink="http://www.w3.org/1999/xlink" viewBox="0 0 75 75"><defs><style>.cls-1,.cls-3,.cls-6{fill:none;}.cls-2,.cls-4{fill:#fff;}.cls-2{opacity:0.2;}.cls-3,.cls-6{stroke:#f1f2f2;}.cls-3{stroke-miterlimit:10;stroke-width:3px;}.cls-4{opacity:0.4;}.cls-5{fill:#51c1e9;}.cls-6{stroke-linecap:round;stroke-linejoin:round;stroke-width:2px;}.cls-7{clip-path:url(#clip-path);}.cls-8{clip-path:url(#clip-path-2);}</style><clipPath id="clip-path"><path class="cls-1" d="M-143.29,131.5h0a6.82,6.82,0,0,1,6.65-7h14.32a6.82,6.82,0,0,1,6.65,7h0a6.81,6.81,0,0,1-6.65,7h-14.32A6.82,6.82,0,0,1-143.29,131.5Z"/></clipPath><clipPath id="clip-path-2"><path class="cls-1" d="M-155.66-179.5h0a8.34,8.34,0,0,1,8.34-8.34h34.41a8.34,8.34,0,0,1,8.34,8.34,8.34,8.34,0,0,1-8.34,8.34h-34.41a8.34,8.34,0,0,1-8.34-8.34Z"/></clipPath></defs><title>controller_bindings_1.2</title><path class="cls-2" d="M37.5,66.5h0A17.1,17.1,0,0,1,20.4,49.4V25.6a17.1,17.1,0,1,1,34.2,0h0V49.4A17.1,17.1,0,0,1,37.5,66.5Z"/><path class="cls-3" d="M37.5,66.5h0A17.1,17.1,0,0,1,20.4,49.4V25.6a17.1,17.1,0,0,1,34.2,0h0V49.4A17.1,17.1,0,0,1,37.5,66.5Z"/><path class="cls-4" d="M41.81,33.19V18.8a4.31,4.31,0,1,0-8.61,0V33.19H28.31a4.31,4.31,0,0,0,0,8.61h4.89V56.2a4.31,4.31,0,0,0,4.31,4.31h0a4.31,4.31,0,0,0,4.31-4.31V41.81h4.89a4.31,4.31,0,0,0,0-8.61Z"/><circle class="cls-5" cx="37.5" cy="37.39" r="6.43"/><circle class="cls-6" cx="37.5" cy="37.39" r="6.43"/></svg>