<svg id="Layer_1" data-name="Layer 1" xmlns="http://www.w3.org/2000/svg" xmlns:xlink="http://www.w3.org/1999/xlink" viewBox="0 0 75 75"><defs><style>.cls-1,.cls-3,.cls-5{fill:none;}.cls-2{fill:#fff;opacity:0.2;}.cls-3,.cls-5{stroke:#f1f2f2;}.cls-3{stroke-miterlimit:10;stroke-width:3px;}.cls-4{fill:#51c1e9;}.cls-5{stroke-linecap:round;stroke-linejoin:round;stroke-width:2px;}.cls-6{clip-path:url(#clip-path);}.cls-7{clip-path:url(#clip-path-2);}</style><clipPath id="clip-path"><path class="cls-1" d="M37.5,253.05h0a7,7,0,0,1-7-7V208.92a7,7,0,0,1,13.94,0h0v37.16a7,7,0,0,1-7,7Z"/></clipPath><clipPath id="clip-path-2"><path class="cls-1" d="M-61.17,40.81v4.9m7.25-12.15v-4.9m-7.25,0v4.9h-1.37l-10,3.62,10,3.63h1.37v7.84l3.63,10,3.62-10V45.71m0,0v-4.9h1.37l10-3.63-10-3.62h-1.37V25.71l-3.62-10-3.63,10v7.85m7.25,12.15v-4.9"/></clipPath></defs><title>icon</title><path class="cls-2" d="M37.5,8.5h0A17.11,17.11,0,0,1,54.6,25.6V49.4a17.1,17.1,0,1,1-34.2,0h0V25.6A17.11,17.11,0,0,1,37.5,8.5Z"/><path class="cls-3" d="M37.5,8.5h0A17.11,17.11,0,0,1,54.6,25.6V49.4a17.1,17.1,0,1,1-34.2,0h0V25.6A17.11,17.11,0,0,1,37.5,8.5Z"/><path class="cls-4" d="M47.94,37.73A10.44,10.44,0,1,1,37.5,27.29,10.44,10.44,0,0,1,47.94,37.73Z"/><path class="cls-5" d="M47.94,37.73A10.44,10.44,0,1,1,37.5,27.29,10.44,10.44,0,0,1,47.94,37.73Z"/></svg>