<svg id="Layer_1" data-name="Layer 1" xmlns="http://www.w3.org/2000/svg" xmlns:xlink="http://www.w3.org/1999/xlink" viewBox="0 0 75 75"><defs><style>.cls-1,.cls-4{fill:none;}.cls-2{clip-path:url(#clip-path);}.cls-3{fill:#fff;opacity:0.2;}.cls-4{stroke:#f1f2f2;stroke-miterlimit:10;stroke-width:3px;}</style><clipPath id="clip-path"><path class="cls-1" d="M37.5-108.85h0a8.34,8.34,0,0,1,8.34,8.34v34.42a8.34,8.34,0,0,1-8.34,8.34,8.34,8.34,0,0,1-8.34-8.34h0v-34.42a8.34,8.34,0,0,1,8.34-8.34Z"/></clipPath></defs><title>icon</title><path class="cls-3" d="M38.45,9.18h0a17.11,17.11,0,0,1,17.1,17.1v23.8a17.1,17.1,0,1,1-34.2,0h0V26.28a17.11,17.11,0,0,1,17.1-17.1Z"/><path class="cls-4" d="M38.45,9.18h0a17.11,17.11,0,0,1,17.1,17.1v23.8a17.1,17.1,0,1,1-34.2,0h0V26.28a17.11,17.11,0,0,1,17.1-17.1Z"/><rect class="cls-1" x="17.4" y="5.5" width="40.2" height="64"/></svg>