<svg id="Layer_1" data-name="Layer 1" xmlns="http://www.w3.org/2000/svg" viewBox="0 0 75 75"><defs><style>.cls-1{fill:#fff;opacity:0.2;}.cls-2{fill:none;stroke:#f1f2f2;stroke-miterlimit:10;stroke-width:3px;}</style></defs><title>icon</title><path class="cls-1" d="M57.64,19s-3.2,9.6-3.2,17.59S57.64,56,57.64,56A9,9,0,0,1,45.9,64.54L25.42,58c-3.73-1.19-8.06-11-8.06-21.36S21.69,18.21,25.42,17L45.9,10.46a9,9,0,0,1,11.31,5.83A8.77,8.77,0,0,1,57.64,19Z"/><path class="cls-2" d="M57.64,19s-3.2,9.6-3.2,17.59S57.64,56,57.64,56A9,9,0,0,1,45.9,64.54L25.42,58c-3.73-1.19-8.06-11-8.06-21.36S21.69,18.21,25.42,17L45.9,10.46a9,9,0,0,1,11.31,5.83A8.77,8.77,0,0,1,57.64,19Z"/></svg>