<svg id="Layer_1" data-name="Layer 1" xmlns="http://www.w3.org/2000/svg" xmlns:xlink="http://www.w3.org/1999/xlink" viewBox="0 0 75 75"><defs><style>.cls-1,.cls-3,.cls-6{fill:none;}.cls-2,.cls-4{fill:#fff;}.cls-2{opacity:0.2;}.cls-3,.cls-6{stroke:#f1f2f2;}.cls-3{stroke-miterlimit:10;stroke-width:3px;}.cls-4{opacity:0.4;}.cls-5{fill:#51c1e9;}.cls-6{stroke-linecap:round;stroke-linejoin:round;stroke-width:2px;}.cls-7{clip-path:url(#clip-path);}.cls-8{clip-path:url(#clip-path-2);}.cls-9{clip-path:url(#clip-path-3);}.cls-10{clip-path:url(#clip-path-4);}</style><clipPath id="clip-path"><path class="cls-1" d="M-55.5,157.05h0a7,7,0,0,1-7-7V112.92a7,7,0,0,1,7-7,7,7,0,0,1,7,7h0v37.16a7,7,0,0,1-7,7Z"/></clipPath><clipPath id="clip-path-2"><path class="cls-1" d="M24.53,131.5h0a6.82,6.82,0,0,1,6.65-7H45.51a6.82,6.82,0,0,1,6.65,7h0a6.82,6.82,0,0,1-6.65,7H31.18A6.82,6.82,0,0,1,24.53,131.5Z"/></clipPath><clipPath id="clip-path-3"><path class="cls-1" d="M-154.17-55.19v4.9m7.25-12.15v-4.9m-7.25,0v4.9h-1.37l-10,3.62,10,3.63h1.37v7.84l3.63,10,3.62-10v-2.94m0,0v-4.9h1.37l10-3.63-10-3.62h-1.37v-7.85l-3.62-10-3.63,10v7.85m7.25,12.15v-4.9"/></clipPath><clipPath id="clip-path-4"><path class="cls-1" d="M12.15-179.5h0a8.34,8.34,0,0,1,8.34-8.34H54.91a8.34,8.34,0,0,1,8.34,8.34,8.34,8.34,0,0,1-8.34,8.34H20.49a8.34,8.34,0,0,1-8.34-8.34Z"/></clipPath></defs><title>icon</title><path class="cls-2" d="M37.5,66.5h0A17.11,17.11,0,0,1,20.4,49.4V25.6a17.1,17.1,0,0,1,34.2,0h0V49.4A17.11,17.11,0,0,1,37.5,66.5Z"/><path class="cls-3" d="M37.5,66.5h0A17.11,17.11,0,0,1,20.4,49.4V25.6a17.1,17.1,0,0,1,34.2,0h0V49.4A17.11,17.11,0,0,1,37.5,66.5Z"/><path class="cls-4" d="M41.81,33.19V18.8a4.31,4.31,0,1,0-8.62,0V33.19H28.31a4.31,4.31,0,1,0,0,8.62h4.88V56.2a4.31,4.31,0,0,0,4.31,4.31h0a4.31,4.31,0,0,0,4.31-4.31V41.81h4.88a4.31,4.31,0,0,0,0-8.62Z"/><path class="cls-5" d="M22.45,37.39a6.43,6.43,0,1,1,6.43,6.44A6.43,6.43,0,0,1,22.45,37.39Z"/><path class="cls-6" d="M22.45,37.39a6.43,6.43,0,1,1,6.43,6.44A6.43,6.43,0,0,1,22.45,37.39Z"/></svg>