<svg id="Layer_1" data-name="Layer 1" xmlns="http://www.w3.org/2000/svg" viewBox="0 0 75 75"><defs><style>.cls-1{fill:none;stroke:#f1f2f2;stroke-miterlimit:10;stroke-width:3px;}.cls-2{fill:#f1f2f2;}</style></defs><title>icon</title><path class="cls-1" d="M58,17a29,29,0,1,1-41,0,29,29,0,0,1,41,0"/><path class="cls-2" d="M36.8,26.08h1.58c.56,0,1.13,0,1.68.1a11.72,11.72,0,0,1,1.55.24,4,4,0,0,1,1.23.48,5.9,5.9,0,0,1,1.91,1.85,5.19,5.19,0,0,1,.78,2.92,5.57,5.57,0,0,1-.88,3.15,5.2,5.2,0,0,1-2.51,2v.06a5.27,5.27,0,0,1,3.23,1.92,5.73,5.73,0,0,1,1.12,3.58A6.81,6.81,0,0,1,46,44.8a6,6,0,0,1-1.32,2.09,6.65,6.65,0,0,1-2.18,1.47,7.35,7.35,0,0,1-3,.56h-11V26.08Zm.83,9.82A6,6,0,0,0,41.36,35a3.32,3.32,0,0,0,1.13-2.74,4.11,4.11,0,0,0-.38-1.92,2.78,2.78,0,0,0-1.06-1.09,4.15,4.15,0,0,0-1.55-.49,13.94,13.94,0,0,0-1.87-.11H31.55V35.9Zm1.53,10.46a4.4,4.4,0,0,0,3.16-1.08,4,4,0,0,0,1.13-3A3.82,3.82,0,0,0,43,40.41a3.28,3.28,0,0,0-1.11-1.17,4.68,4.68,0,0,0-1.58-.6,9.46,9.46,0,0,0-1.86-.18H31.55v7.9Z"/></svg>