<svg id="Layer_1" data-name="Layer 1" xmlns="http://www.w3.org/2000/svg" xmlns:xlink="http://www.w3.org/1999/xlink" viewBox="0 0 75 75"><defs><style>.cls-1,.cls-3,.cls-5{fill:none;}.cls-2{fill:#fff;opacity:0.2;}.cls-3,.cls-5{stroke:#f1f2f2;}.cls-3{stroke-miterlimit:10;stroke-width:3px;}.cls-4{fill:#51c1e9;}.cls-5{stroke-linecap:round;stroke-linejoin:round;stroke-width:2px;}.cls-6{clip-path:url(#clip-path);}.cls-7{clip-path:url(#clip-path-2);}</style><clipPath id="clip-path"><path class="cls-1" d="M37.5,251.85h0a8.34,8.34,0,0,1-8.34-8.34V209.09a8.34,8.34,0,0,1,16.68,0h0v34.42a8.34,8.34,0,0,1-8.34,8.34Z"/></clipPath><clipPath id="clip-path-2"><path class="cls-1" d="M-61.06,41.39v5.25m7.78-13V28.36m-7.78,0v5.25h-8.41l-10.7,3.89,10.7,3.89h8.41V49.8l3.89,10.71,3.89-10.71V46.64m0,0V41.39h8.41l10.71-3.89-10.71-3.89h-8.41V25.2l-3.89-10.71L-61.06,25.2v8.41m7.78,13V41.39"/></clipPath></defs><title>icon</title><path class="cls-2" d="M58,17a29,29,0,1,1-41,0,29,29,0,0,1,41,0"/><path class="cls-3" d="M58,17a29,29,0,1,1-41,0,29,29,0,0,1,41,0"/><circle class="cls-4" cx="37.5" cy="37.5" r="13.5"/><circle class="cls-5" cx="37.5" cy="37.5" r="13.5"/></svg>