<svg id="Layer_1" data-name="Layer 1" xmlns="http://www.w3.org/2000/svg" xmlns:xlink="http://www.w3.org/1999/xlink" viewBox="0 0 75 75"><defs><style>.cls-1,.cls-3,.cls-6{fill:none;}.cls-2,.cls-4{fill:#fff;}.cls-2{opacity:0.2;}.cls-3,.cls-6{stroke:#f1f2f2;}.cls-3{stroke-miterlimit:10;stroke-width:3px;}.cls-4{opacity:0.4;}.cls-5{fill:#51c1e9;}.cls-6{stroke-linecap:round;stroke-linejoin:round;stroke-width:2px;}.cls-7{clip-path:url(#clip-path);}.cls-8{clip-path:url(#clip-path-2);}</style><clipPath id="clip-path"><path class="cls-1" d="M62.85,130.5h0a8.34,8.34,0,0,1-8.34,8.34H20.09a8.34,8.34,0,1,1,0-16.68H54.51a8.34,8.34,0,0,1,8.34,8.34Z"/></clipPath><clipPath id="clip-path-2"><path class="cls-1" d="M33.61-54.61v5.25m7.78-13v-5.25m-7.78,0v5.25H25.2L14.49-58.5,25.2-54.61h8.41v8.41L37.5-35.49,41.39-46.2v-3.16m0,0v-5.25H49.8L60.51-58.5,49.8-62.39H41.39V-70.8L37.5-81.51,33.61-70.8v8.41m7.78,13v-5.25"/></clipPath></defs><title>icon</title><path class="cls-2" d="M17,17a29,29,0,1,1,0,41,29,29,0,0,1,0-41"/><path class="cls-3" d="M17,17a29,29,0,1,1,0,41,29,29,0,0,1,0-41"/><path class="cls-4" d="M41.73,33.19V18.8a4.31,4.31,0,1,0-8.61,0V33.19H18.73a4.31,4.31,0,0,0-4.31,4.31h0a4.31,4.31,0,0,0,4.31,4.31H33.12V56.2a4.31,4.31,0,1,0,8.61,0V41.81h14.4a4.31,4.31,0,0,0,0-8.62Z"/><circle class="cls-5" cx="54.11" cy="37.5" r="8.34"/><path class="cls-6" d="M54.11,29.16a8.34,8.34,0,1,1-8.34,8.34A8.34,8.34,0,0,1,54.11,29.16Z"/></svg>