<svg id="Layer_1" data-name="Layer 1" xmlns="http://www.w3.org/2000/svg" xmlns:xlink="http://www.w3.org/1999/xlink" viewBox="0 0 75 75"><defs><style>.cls-1,.cls-3,.cls-6{fill:none;}.cls-2,.cls-4{fill:#fff;}.cls-2{opacity:0.2;}.cls-3,.cls-6{stroke:#f1f2f2;}.cls-3{stroke-miterlimit:10;stroke-width:3px;}.cls-4{opacity:0.4;}.cls-5{fill:#51c1e9;}.cls-6{stroke-linecap:round;stroke-linejoin:round;stroke-width:2px;}.cls-7{clip-path:url(#clip-path);}</style><clipPath id="clip-path"><path class="cls-1" d="M-223.32,155.85h0a8.34,8.34,0,0,1-8.34-8.34V113.09a8.34,8.34,0,0,1,8.34-8.34,8.34,8.34,0,0,1,8.34,8.34h0v34.41a8.34,8.34,0,0,1-8.34,8.34Z"/></clipPath></defs><title>controller_bindings_1.2</title><path class="cls-2" d="M58,58a29,29,0,1,1,0-41,29,29,0,0,1,0,41"/><path class="cls-3" d="M58,58a29,29,0,1,1,0-41,29,29,0,0,1,0,41"/><path class="cls-4" d="M33.19,41.81V56.2a4.31,4.31,0,1,0,8.61,0V41.81H56.2a4.31,4.31,0,0,0,4.31-4.31h0a4.31,4.31,0,0,0-4.31-4.31H41.81V18.8a4.31,4.31,0,1,0-8.61,0V33.19H18.8a4.31,4.31,0,0,0,0,8.61Z"/><circle class="cls-5" cx="37.5" cy="37.5" r="8.34"/><circle class="cls-6" cx="37.5" cy="37.5" r="8.34"/></svg>