<svg id="Layer_1" data-name="Layer 1" xmlns="http://www.w3.org/2000/svg" xmlns:xlink="http://www.w3.org/1999/xlink" viewBox="0 0 75 75"><defs><style>.cls-1,.cls-3,.cls-6{fill:none;}.cls-2,.cls-4{fill:#fff;}.cls-2{opacity:0.2;}.cls-3,.cls-6{stroke:#f1f2f2;}.cls-3{stroke-miterlimit:10;stroke-width:3px;}.cls-4{opacity:0.4;}.cls-5{fill:#51c1e9;}.cls-6{stroke-linecap:round;stroke-linejoin:round;stroke-width:2px;}.cls-7{clip-path:url(#clip-path);}.cls-8{clip-path:url(#clip-path-2);}</style><clipPath id="clip-path"><path class="cls-1" d="M37.5,155.85h0a8.34,8.34,0,0,1-8.34-8.34V113.09a8.34,8.34,0,0,1,16.68,0h0v34.42a8.34,8.34,0,0,1-8.34,8.34Z"/></clipPath><clipPath id="clip-path-2"><path class="cls-1" d="M-61.06-54.61v5.25m7.78-13v-5.25m-7.78,0v5.25h-8.41l-10.7,3.89,10.7,3.89h8.41v8.41l3.89,10.71,3.89-10.71v-3.16m0,0v-5.25h8.41l10.71-3.89-10.71-3.89h-8.41V-70.8l-3.89-10.71L-61.06-70.8v8.41m7.78,13v-5.25"/></clipPath></defs><title>icon</title><path class="cls-2" d="M58,17a29,29,0,1,1-41,0,29,29,0,0,1,41,0"/><path class="cls-3" d="M58,17a29,29,0,1,1-41,0,29,29,0,0,1,41,0"/><path class="cls-4" d="M41.81,41.73H56.2a4.31,4.31,0,1,0,0-8.61H41.81V18.73a4.31,4.31,0,0,0-4.31-4.31h0a4.31,4.31,0,0,0-4.31,4.31V33.12H18.8a4.31,4.31,0,1,0,0,8.61H33.19v14.4a4.31,4.31,0,0,0,8.62,0Z"/><circle class="cls-5" cx="37.5" cy="54.11" r="8.34"/><path class="cls-6" d="M45.84,54.11a8.34,8.34,0,1,1-8.34-8.34A8.34,8.34,0,0,1,45.84,54.11Z"/></svg>