<svg id="Layer_1" data-name="Layer 1" xmlns="http://www.w3.org/2000/svg" viewBox="0 0 75 75"><defs><style>.cls-1{fill:#f5f5f5;opacity:0.2;}.cls-2{fill:none;stroke:#f1f2f2;stroke-linecap:round;stroke-linejoin:round;stroke-width:3px;}</style></defs><title>icon</title><path class="cls-1" d="M12.82,30.52S8.94,21.2,17.59,16.91c3.89-1.65,9.78-3.74,20.76-3.74a45.15,45.15,0,0,1,20.23,4.42c6.42,3.38,4,13,4,13-3,11.18-10.14,22.29-13.73,25.79-4,4-7.8,5.48-11,5.46s-7.66-1.4-12.56-6.24C16.38,45.66,12.82,30.52,12.82,30.52Z"/><path class="cls-2" d="M12.82,30.52S8.94,21.2,17.59,16.91c3.89-1.65,9.78-3.74,20.76-3.74a45.15,45.15,0,0,1,20.23,4.42c6.42,3.38,4,13,4,13-3,11.18-10.14,22.29-13.73,25.79-4,4-7.8,5.48-11,5.46s-7.66-1.4-12.56-6.24C16.38,45.66,12.82,30.52,12.82,30.52Z"/></svg>