<svg width="16" height="16" viewBox="0 0 16 16" fill="none" xmlns="http://www.w3.org/2000/svg">
<path d="M13.5895 2.27615L12.6467 1.33334L8.59272 5.38734L6.85953 3.65415L7.80234 2.71134L6.54526 1.45426L1.51694 6.48258L2.77402 7.73965L3.71683 6.79685L5.45002 8.53004L1.33301 12.6471L2.27582 13.5899L13.5895 2.27615Z" fill="white"/>
<path d="M14.0877 14.025L11.3724 9.82641L13.7735 7.42538C13.2218 6.87484 12.535 6.47905 11.7821 6.27771C11.6993 6.25558 11.6161 6.23589 11.5325 6.21863L6.28131 11.4698C6.29857 11.5534 6.31826 11.6367 6.34039 11.7194C6.54173 12.4723 6.93752 13.1591 7.48807 13.7108L9.88909 11.3098L14.0877 14.025Z" fill="white"/>
</svg>
