<?xml version="1.0" encoding="utf-8"?>
<!-- Generator: Adobe Illustrator 23.0.1, SVG Export Plug-In . SVG Version: 6.00 Build 0)  -->
<svg version="1.1" id="Layer_1" xmlns="http://www.w3.org/2000/svg" xmlns:xlink="http://www.w3.org/1999/xlink" x="0px" y="0px"
	 viewBox="0 0 158.9 198.9" style="enable-background:new 0 0 158.9 198.9;" xml:space="preserve">
<style type="text/css">
	.st0{fill:#31B890;}
	.st1{fill:none;stroke:#5380F2;stroke-width:0.425;stroke-linecap:round;stroke-linejoin:round;}
	.st2{fill:none;stroke:#5380F2;stroke-width:0.75;stroke-linecap:round;stroke-linejoin:round;}
	.st3{fill:none;stroke:#5380F2;stroke-linecap:round;stroke-linejoin:round;}
</style>
<ellipse transform="matrix(0.2654 -0.9641 0.9641 0.2654 -28.3693 97.6447)" class="st0" cx="49.9" cy="67.4" rx="2.1" ry="2.9"/>
<ellipse transform="matrix(0.2121 -0.9773 0.9773 0.2121 -39.1422 73.8828)" class="st0" cx="26.2" cy="61.2" rx="2.5" ry="4.5"/>
<ellipse transform="matrix(0.2121 -0.9773 0.9773 0.2121 -40.9959 75.2781)" class="st0" cx="26.2" cy="63.1" rx="2.5" ry="4.5"/>
<g id="Group_356" transform="matrix(0.985, -0.174, 0.174, 0.985, -1527.873, 93.429)">
	<g id="LINE" transform="translate(1607.682 346.316)">
		<line id="Line_797" class="st1" x1="3.2" y1="0" x2="0" y2="0.6"/>
	</g>
	<g id="LINE-2" transform="translate(1609.449 356.379)">
		<line id="Line_798" class="st1" x1="0" y1="0.6" x2="3.2" y2="0"/>
	</g>
	<g id="SPLINE" transform="translate(1610.892 346.3)">
		<path id="Path_702" class="st1" d="M3.6,4.4c-0.1-0.5-0.2-1-0.4-1.4C3.1,2.6,3,2.2,2.8,1.9C2.7,1.6,2.5,1.4,2.4,1.1
			C2.3,1,2.1,0.8,2,0.7C1.9,0.6,1.8,0.5,1.7,0.4C1.6,0.3,1.5,0.3,1.3,0.2C1.1,0.1,1,0,0.8,0C0.5,0,0.2,0,0,0"/>
	</g>
	<g id="SPLINE-2" transform="translate(1612.623 350.644)">
		<path id="Path_703" class="st1" d="M0,5.7c0.3-0.1,0.5-0.1,0.8-0.3c0.2-0.1,0.3-0.2,0.5-0.4C1.4,5,1.5,4.8,1.5,4.7
			c0.1-0.1,0.1-0.2,0.2-0.4c0.1-0.2,0.1-0.4,0.2-0.6C2,3.4,2,3.1,2,2.8c0-0.4,0-0.8,0-1.3C2,1.3,2,1.1,2,0.8c0-0.3-0.1-0.6-0.1-0.8"
			/>
	</g>
	<g id="SPLINE-3" transform="translate(1601.514 383.755)">
		<path id="Path_704" class="st1" d="M0,1.1C0.3,1,0.5,1,0.8,0.9c0.5-0.1,1-0.3,1.5-0.4C2.9,0.4,3.5,0.2,4.1,0"/>
	</g>
	<g id="SPLINE-4" transform="translate(1609.377 198.038)">
		<path id="Path_705" class="st1" d="M13.8,17.1c-0.1-0.1-0.2-0.3-0.3-0.4c-0.9-1.4-1.9-2.7-2.9-4c-1-1.3-2-2.6-3-3.9
			c-1-1.3-2.1-2.6-3.2-3.8S2.3,2.4,1.1,1.2C0.8,0.8,0.4,0.4,0,0"/>
	</g>
	<g id="SPLINE-5" transform="translate(1639.386 326.082)">
		<path id="Path_706" class="st1" d="M0,21.2c0-0.1,0-0.1,0.1-0.2c0.6-1.4,1-2.9,1.6-4.4c0.5-1.5,1-2.9,1.4-4.4s0.9-3,1.3-4.5
			c0.4-1.5,0.8-3,1.1-4.5C5.7,2.2,5.9,1.1,6.1,0"/>
	</g>
	<g id="LINE-3" transform="translate(1597.546 370.158)">
		<line id="Line_799" class="st1" x1="0.2" y1="0" x2="0" y2="0.1"/>
	</g>
	<g id="SPLINE-6" transform="translate(1609.413 352.881)">
		<path id="Path_707" class="st1" d="M0,29.6c0.6-0.3,1.3-0.5,1.9-0.8c0.6-0.3,1.1-0.5,1.7-0.8c0.5-0.3,1-0.5,1.4-0.8
			c0.4-0.3,0.8-0.5,1.2-0.7l1-0.6c0.3-0.2,0.5-0.4,0.8-0.6c0.4-0.3,0.9-0.6,1.3-0.9s0.9-0.7,1.3-1l1.3-1.1c0.4-0.4,0.8-0.7,1.2-1.1
			c0.4-0.4,0.7-0.7,1.1-1l1.2-1.2c0.5-0.5,0.9-1,1.3-1.5s0.9-1,1.3-1.6c0.6-0.7,1.2-1.5,1.7-2.2l1.6-2.3c0.5-0.8,1-1.6,1.6-2.4
			c0.5-0.8,1-1.7,1.5-2.5c0.5-0.9,1-1.8,1.4-2.7c0.5-0.9,1-1.9,1.4-2.9L27.7,0"/>
	</g>
	<g id="SPLINE-7" transform="translate(1605.914 194.54)">
		<path id="Path_708" class="st1" d="M3.4,3.4C2.8,2.8,2.3,2.2,1.7,1.7S0.6,0.5,0,0"/>
	</g>
	<g id="SPLINE-8" transform="translate(1601.658 224.008)">
		<path id="Path_709" class="st1" d="M0,0c1,1.7,2.1,3.3,3.1,5c1.2,2,2.3,4,3.3,6.2s2.1,4.3,3.1,6.5c1,2.2,1.9,4.5,2.8,6.7
			c0.9,2.3,1.7,4.6,2.5,7s1.5,4.8,2.2,7.2c0.6,2.4,1.3,4.8,1.8,7.3s1,4.9,1.5,7.4s0.8,4.9,1.1,7.4s0.6,5,0.8,7.4
			c0.2,2.5,0.3,4.9,0.4,7.4s0.1,4.9,0,7.3c0,2.4-0.1,4.8-0.3,7.1s-0.4,4.7-0.7,7c-0.3,2.3-0.6,4.5-1,6.7c-0.3,1.3-0.6,2.6-0.9,3.9"
			/>
	</g>
	<g id="SPLINE-9" transform="translate(1584.526 344.044)">
		<path id="Path_710" class="st1" d="M0,0c0.5,1.2,0.9,2.3,1.4,3.4l2.9,7.1c1,2.5,2,4.9,3,7.4c1,2.6,2.1,5.1,3.1,7.6
			c0.2,0.5,0.4,0.9,0.6,1.4"/>
	</g>
	<g id="SPLINE-10" transform="translate(1540.666 273.999)">
		<path id="Path_711" class="st1" d="M0,0l0.8,0.3c0.7,0.3,1.3,0.6,2,0.9c0.3,0.1,0.6,0.3,0.9,0.5"/>
	</g>
	<g id="SPLINE-11" transform="translate(1574.607 249.76)">
		<path id="Path_712" class="st1" d="M39.2,97.6c-0.3-1.5-0.5-3-0.8-4.4c-0.5-2.5-0.9-4.9-1.4-7.4c-0.5-2.3-0.9-4.6-1.4-6.9
			c-0.5-2.1-0.9-4.1-1.4-6.2c-0.4-1.9-0.9-3.8-1.4-5.7c-0.4-1.7-0.9-3.5-1.3-5.2c-0.4-1.6-0.8-3.2-1.3-4.8c-0.5-1.8-1-3.5-1.5-5.2
			c-0.5-1.6-0.9-3.2-1.4-4.8c-0.5-1.5-0.9-3-1.4-4.4c-0.5-1.4-0.9-2.7-1.4-4c-0.5-1.3-0.9-2.5-1.4-3.8c-0.5-1.2-0.9-2.3-1.4-3.5
			c-0.8-1.9-1.7-3.8-2.6-5.6c-0.9-1.8-1.8-3.5-2.8-5.2c-1-1.7-2-3.3-3.1-4.9c-1-1.6-2.2-3.1-3.3-4.6c-0.5-0.7-1.1-1.4-1.7-2.2
			c-0.5-0.6-1-1.3-1.6-1.9C5.9,6.4,5.5,5.9,5,5.4C4.7,5,4.3,4.6,4,4.1C3.8,4,3.7,3.9,3.6,3.8C3.5,3.6,3.3,3.4,3.2,3.3
			C2.9,3.1,2.7,2.8,2.5,2.6C2.1,2.2,1.7,1.7,1.3,1.3C0.9,0.8,0.4,0.4,0,0"/>
	</g>
	<g id="SPLINE-12" transform="translate(1615.184 354.973)">
		<path id="Path_713" class="st1" d="M1.6,9C1.3,7.4,1,5.8,0.7,4.1C0.5,2.7,0.3,1.4,0,0"/>
	</g>
	<g id="SPLINE-13" transform="translate(1544.778 275.982)">
		<path id="Path_714" class="st1" d="M0,0c0.3,0.1,0.6,0.3,0.9,0.5c0.6,0.3,1.2,0.6,1.8,1c0.5,0.3,1,0.6,1.5,0.9
			C4.6,2.7,5,3,5.4,3.3C5.9,3.6,6.3,4,6.8,4.4C7.1,4.7,7.5,5,7.9,5.3c0.3,0.3,0.5,0.5,0.8,0.8c0.3,0.3,0.5,0.5,0.8,0.8
			c0.3,0.3,0.6,0.6,0.8,0.9c0.3,0.4,0.6,0.7,1,1.1c0.4,0.4,0.8,0.9,1.1,1.4c0.6,0.7,1.1,1.5,1.7,2.3c0.6,0.9,1.2,1.8,1.8,2.7
			c0.5,0.9,1,1.7,1.6,2.6c0.5,0.8,0.9,1.6,1.3,2.4c0.4,0.7,0.8,1.4,1.1,2.1c0.3,0.6,0.6,1.2,0.9,1.8c0.2,0.4,0.4,0.9,0.6,1.3
			c0.2,0.3,0.3,0.7,0.5,1c0.1,0.3,0.3,0.5,0.4,0.8c0.2,0.4,0.4,0.7,0.5,1.1c0.3,0.5,0.5,1,0.7,1.6c0.3,0.7,0.6,1.3,0.9,2
			c0.4,0.8,0.8,1.7,1.1,2.5c0.4,0.9,0.8,1.8,1.2,2.6c0.4,1,0.9,2.1,1.3,3.1l1.5,3.6c0.6,1.4,1.2,2.7,1.7,4.1
			c0.6,1.6,1.3,3.1,1.9,4.6l2.2,5.2c0.8,1.9,1.6,3.9,2.4,5.8l1.8,4.4"/>
	</g>
	<g id="LINE-4" transform="translate(1587.664 379.175)">
		<line id="Line_800" class="st1" x1="0" y1="0" x2="0.9" y2="1.2"/>
	</g>
	<g id="SPLINE-14" transform="translate(1587.664 370.23)">
		<path id="Path_715" class="st1" d="M9.9,0C9.3,0.2,8.7,0.4,8.2,0.7C7.7,0.9,7.3,1.1,6.8,1.3c-0.3,0.2-0.7,0.4-1,0.5
			C5.6,2,5.4,2.1,5.1,2.3L4.6,2.6C4.4,2.7,4.3,2.8,4.1,2.9S3.8,3.1,3.6,3.2C3.4,3.4,3.2,3.5,3.1,3.6C2.9,3.8,2.6,4,2.4,4.1
			S2,4.5,1.8,4.7C1.5,4.9,1.3,5.2,1,5.4C0.8,5.7,0.6,5.9,0.4,6.1L0.1,6.4C0,6.5,0,6.5,0,6.5"/>
	</g>
	<g id="SPLINE-15" transform="translate(1587.267 376.722)">
		<path id="Path_716" class="st1" d="M0.5,0C0.4,0.2,0.2,0.4,0.1,0.6C0,0.8,0,1.1,0,1.3C0,1.5,0,1.8,0.1,2c0.1,0.2,0.2,0.3,0.3,0.4"
			/>
	</g>
	<g id="SPLINE-16" transform="translate(1589.178 380.978)">
		<path id="Path_717" class="st1" d="M0,0c0.7,0.5,1.4,1,2.2,1.4c0.7,0.4,1.4,0.9,2.1,1.3L6.2,4c0.3,0.2,0.7,0.4,1,0.6"/>
	</g>
	<g id="SPLINE-17" transform="translate(1514.408 220.04)">
		<path id="Path_718" class="st1" d="M30.4,1.6c-0.7-0.2-1.5-0.4-2.2-0.5c-1-0.2-2.1-0.4-3.1-0.5c-0.9-0.1-1.9-0.3-2.8-0.3
			c-0.8-0.1-1.6-0.1-2.5-0.2c-0.7,0-1.4,0-2.1,0c-0.6,0-1.2,0-1.8,0l-1.7,0.1c-0.5,0-0.9,0.1-1.4,0.1c-0.4,0.1-0.9,0.1-1.3,0.2
			c-0.5,0.1-0.9,0.2-1.3,0.3C9.8,0.9,9.3,1,8.9,1.1C8.3,1.3,7.7,1.5,7.2,1.7c-0.5,0.2-1,0.4-1.4,0.6C5.3,2.5,5,2.7,4.6,2.9
			C4.4,3.1,4.1,3.2,3.8,3.4C3.6,3.6,3.4,3.7,3.1,3.9C2.9,4.1,2.7,4.3,2.4,4.5C2.2,4.8,1.9,5.1,1.7,5.4C1.4,5.8,1.1,6.2,0.9,6.6
			C0.5,7.2,0.3,7.8,0,8.4"/>
	</g>
	<g id="SPLINE-18" transform="translate(1574.823 240.78)">
		<path id="Path_719" class="st1" d="M0.5,7.1c0.1-0.4,0.2-0.9,0.3-1.3c0.1-0.3,0.1-0.7,0.1-1c0-0.3,0-0.5,0-0.8V3.5
			c0-0.1,0-0.3,0-0.4c0-0.2-0.1-0.5-0.1-0.7C0.7,2.2,0.6,1.8,0.5,1.5C0.4,1.2,0.3,0.8,0.2,0.4C0.1,0.3,0,0.1,0,0"/>
	</g>
	<g id="LINE-5" transform="translate(1514.413 236.652)">
		<line id="Line_801" class="st1" x1="0" y1="0" x2="0" y2="0.1"/>
	</g>
	<g id="LINE-6" transform="translate(1574.895 248.678)">
		<line id="Line_802" class="st1" x1="0" y1="0.4" x2="0.2" y2="0"/>
	</g>
	<g id="LINE-7" transform="translate(1571.289 252.321)">
		<line id="Line_803" class="st1" x1="0" y1="1.2" x2="1.3" y2="0"/>
	</g>
	<g id="SPLINE-19" transform="translate(1536.085 274.359)">
		<path id="Path_720" class="st1" d="M0,0c0.3,0,0.6,0.1,1,0.1c0.4,0,0.8,0.1,1.2,0.1l1.3,0c0.5,0,0.9,0,1.4-0.1
			C5.1,0.1,5.3,0,5.5,0"/>
	</g>
	<g id="SPLINE-20" transform="translate(1514.071 234.369)">
		<path id="Path_721" class="st1" d="M0,0c0.5,2.1,1,4.1,1.5,6.2c0.4,1.7,0.8,3.5,1.3,5.2c0.3,1.1,0.5,2.2,0.9,3.3"/>
	</g>
	<g id="SPLINE-21" transform="translate(1613.344 345.342)">
		<path id="Path_722" class="st1" d="M0.1,0.5c0-0.1,0-0.1,0-0.1C0,0.3,0,0.1,0,0"/>
	</g>
	<g id="LINE-8" transform="translate(1615.328 356.451)">
		<line id="Line_804" class="st1" x1="0.1" y1="0.6" x2="0" y2="0"/>
	</g>
	<g id="LINE-9" transform="translate(1613.633 360.852)">
		<line id="Line_805" class="st1" x1="0" y1="0" x2="0.1" y2="0"/>
	</g>
	<g id="SPLINE-22" transform="translate(1605.662 382.421)">
		<path id="Path_723" class="st1" d="M0,1.3C0.4,1.2,0.7,1.1,1,1c0.4-0.1,0.6-0.2,1-0.3C2.6,0.5,3.2,0.2,3.8,0"/>
	</g>
	<g id="SPLINE-23" transform="translate(1596.428 384.909)">
		<path id="Path_724" class="st1" d="M0,0.6c0.1,0,0.2,0.1,0.3,0.1c0.1,0,0.3,0,0.4,0c0.4,0,0.8,0,1.2-0.1c0.5-0.1,1-0.1,1.5-0.3
			S4.5,0.1,5.1,0"/>
	</g>
	<g id="LINE-10" transform="translate(1610.134 341.772)">
		<line id="Line_806" class="st1" x1="0.1" y1="0" x2="0" y2="0"/>
	</g>
	<g id="SPLINE-24" transform="translate(1547.555 242.294)">
		<path id="Path_725" class="st1" d="M3.6,4.1L3.6,4.1c0.1-0.2,0.1-0.4,0.1-0.6c0-0.2,0-0.4-0.1-0.5c0-0.2-0.1-0.4-0.2-0.5
			C3.2,2.2,3.1,2.1,3,1.9C2.9,1.8,2.8,1.6,2.6,1.5C2.5,1.4,2.3,1.2,2.2,1.1C2,1,1.8,0.9,1.7,0.8C1.5,0.7,1.4,0.6,1.2,0.5L0.8,0.3
			C0.5,0.2,0.3,0.1,0,0"/>
	</g>
	<g id="SPLINE-25" transform="translate(1542.326 241.97)">
		<path id="Path_726" class="st1" d="M5.2,0.4C4.9,0.3,4.7,0.3,4.4,0.2c-0.1,0-0.2,0-0.3-0.1c-0.2,0-0.4,0-0.5-0.1C3.4,0,3.2,0,3,0
			C2.8,0,2.6,0,2.5,0c-0.2,0-0.4,0-0.5,0.1c-0.2,0-0.3,0.1-0.5,0.1C1.2,0.3,1.1,0.4,0.9,0.5C0.8,0.5,0.7,0.6,0.5,0.8
			C0.4,0.9,0.3,1,0.2,1.2L0,1.6"/>
	</g>
	<g id="LINE-11" transform="translate(1550.657 246.37)">
		<line id="Line_807" class="st1" x1="0" y1="1.6" x2="0.5" y2="0"/>
	</g>
	<g id="LINE-12" transform="translate(1541.929 243.593)">
		<line id="Line_808" class="st1" x1="0.4" y1="0" x2="0" y2="1.4"/>
	</g>
	<g id="LINE-13" transform="translate(1597.438 352.664)">
		<line id="Line_809" class="st1" x1="0" y1="0" x2="0.6" y2="2.9"/>
	</g>
	<g id="SPLINE-26" transform="translate(1595.491 351.23)">
		<path id="Path_727" class="st1" d="M0,0c0.2,0,0.3,0,0.5,0c0.2,0,0.4,0.1,0.6,0.2c0.1,0.1,0.2,0.1,0.3,0.2
			c0.1,0.1,0.2,0.2,0.3,0.3l0.2,0.3c0.1,0.1,0.1,0.3,0.1,0.4"/>
	</g>
	<g id="SPLINE-27" transform="translate(1597.258 355.55)">
		<path id="Path_728" class="st1" d="M0.8,0c0,0.1,0,0.3,0,0.4c0,0.1,0,0.2,0,0.4c0,0.2-0.1,0.4-0.2,0.5C0.5,1.4,0.4,1.5,0.3,1.6
			C0.2,1.7,0.1,1.7,0,1.7"/>
	</g>
	<g id="SPLINE-28" transform="translate(1536.554 235.946)">
		<path id="Path_729" class="st1" d="M3.6,4.1L3.6,4.1c0.1-0.2,0.1-0.4,0.1-0.6c0-0.2,0-0.4-0.1-0.5c0-0.2-0.1-0.4-0.2-0.5
			C3.2,2.2,3.1,2.1,3,1.9C2.9,1.8,2.8,1.6,2.6,1.5C2.5,1.4,2.3,1.2,2.2,1.1C2,1,1.8,0.9,1.7,0.8C1.5,0.7,1.4,0.6,1.2,0.5L0.8,0.3
			C0.5,0.2,0.3,0.1,0,0"/>
	</g>
	<g id="SPLINE-29" transform="translate(1531.325 235.622)">
		<path id="Path_730" class="st1" d="M5.2,0.4C4.9,0.3,4.7,0.3,4.4,0.2c-0.1,0-0.2,0-0.3-0.1c-0.2,0-0.4,0-0.5-0.1C3.4,0,3.2,0,3,0
			C2.8,0,2.6,0,2.5,0c-0.2,0-0.4,0-0.5,0.1c-0.2,0-0.3,0.1-0.5,0.1C1.2,0.3,1.1,0.4,0.9,0.5C0.8,0.5,0.7,0.6,0.5,0.8
			C0.4,0.9,0.3,1,0.2,1.2L0,1.6"/>
	</g>
	<g id="LINE-14" transform="translate(1539.656 240.022)">
		<line id="Line_810" class="st1" x1="0" y1="1.4" x2="0.5" y2="0"/>
	</g>
	<g id="LINE-15" transform="translate(1530.783 237.245)">
		<line id="Line_811" class="st1" x1="0.6" y1="0" x2="0" y2="1.8"/>
	</g>
	<g id="SPLINE-30" transform="translate(1556.609 246.607)">
		<path id="Path_731" class="st1" d="M4.2,3.2c0-0.1,0-0.1,0.1-0.2c0-0.1,0-0.2,0-0.4c0-0.2-0.1-0.4-0.2-0.6
			C3.9,1.8,3.7,1.5,3.5,1.2C3.3,1.1,3.2,1,3.1,0.9C2.8,0.8,2.6,0.6,2.4,0.5C2,0.3,1.7,0.2,1.3,0.1C1.1,0,0.9,0,0.7,0
			C0.5,0,0.2,0,0,0"/>
	</g>
	<g id="LINE-16" transform="translate(1560.792 249.869)">
		<line id="Line_812" class="st1" x1="0" y1="0" x2="0" y2="0"/>
	</g>
	<g id="LINE-17" transform="translate(1555.13 247.488)">
		<line id="Line_813" class="st1" x1="0" y1="0" x2="0" y2="0.1"/>
	</g>
	<g id="SPLINE-31" transform="translate(1555.13 246.586)">
		<path id="Path_732" class="st1" d="M1.6,0C1.4,0,1.2,0.1,1,0.1c-0.2,0-0.3,0.1-0.5,0.2C0.4,0.4,0.3,0.5,0.2,0.6
			C0.1,0.7,0.1,0.8,0,0.9"/>
	</g>
	<g id="SPLINE-32" transform="translate(1520.756 254.414)">
		<path id="Path_733" class="st1" d="M0,0c0.2,0.3,0.4,0.5,0.7,0.8C0.9,1,1.1,1.2,1.4,1.5C1.6,1.8,1.8,2,2.1,2.3L2.7,3
			c0.2,0.3,0.4,0.5,0.6,0.7C3.5,4,3.7,4.2,3.9,4.4c0.3,0.4,0.6,0.8,0.9,1.1c0.3,0.3,0.5,0.7,0.7,1C5.7,7,6,7.4,6.2,7.8
			C6.5,8.3,6.8,8.7,7,9.2c0.3,0.5,0.5,1,0.7,1.6"/>
	</g>
	<g id="SPLINE-33" transform="translate(1526.852 270.933)">
		<path id="Path_734" class="st1" d="M0,0c0.3,0.1,0.6,0.2,1,0.3c0.6,0.1,1.1,0.2,1.7,0.3c0.6,0.1,1.2,0.1,1.7,0.1h0.6"/>
	</g>
	<g id="SPLINE-34" transform="translate(1522.524 256.361)">
		<path id="Path_735" class="st1" d="M0,0c0.1,0.5,0.3,1,0.4,1.5C0.7,2.3,0.9,3.2,1.1,4c0.1,0.7,0.3,1.3,0.4,2
			c0.1,0.5,0.2,1,0.3,1.5c0,0.3,0.1,0.5,0.1,0.8C2,8.4,2,8.6,2,8.8c0,0.3,0.1,0.5,0.1,0.7c0,0.3,0.1,0.6,0.1,1
			c0.1,0.4,0.1,0.9,0.1,1.3c0,0.1,0,0.3,0,0.5"/>
	</g>
	<g id="SPLINE-35" transform="translate(1525.049 268.588)">
		<path id="Path_736" class="st1" d="M0,0c0.1,0.4,0.2,0.7,0.3,1c0.1,0.3,0.3,0.6,0.6,0.8C1,2,1.3,2.2,1.5,2.3
			c0.1,0,0.2,0.1,0.3,0.1"/>
	</g>
	<g id="SPLINE-36" transform="translate(1528.475 265.126)">
		<path id="Path_737" class="st1" d="M0,0c0.4,0.9,0.8,1.8,1.2,2.6C1.5,3.3,1.8,4,2.2,4.7c0.3,0.5,0.6,1,0.9,1.4
			c0.3,0.3,0.5,0.6,0.8,0.9c0.1,0.1,0.3,0.3,0.4,0.4l0.3,0.3C4.8,7.9,4.9,8,5.1,8.1l0.6,0.4C6,8.7,6.3,8.9,6.6,9
			C7,9.1,7.3,9.2,7.7,9.3"/>
	</g>
	<g id="SPLINE-37" transform="translate(1517.943 249.616)">
		<path id="Path_738" class="st1" d="M0,0c0,0,0,0.1,0,0.1c0.1,0.4,0.3,0.7,0.4,1.1L1,2.3C1.2,2.7,1.4,3,1.7,3.4
			c0.3,0.4,0.5,0.7,0.8,1.1c0.1,0.1,0.2,0.2,0.3,0.4"/>
	</g>
	<g id="SPLINE-38" transform="translate(1578.827 217.912)">
		<path id="Path_739" class="st1" d="M0,16.6c1.3-0.8,2.6-1.5,3.9-2.3c1.2-0.7,2.5-1.4,3.7-2.1l3.1-1.7c0.9-0.5,1.7-0.9,2.6-1.4
			C14,8.7,14.7,8.3,15.4,8c0.3-0.1,0.6-0.3,0.9-0.5c0.3-0.1,0.5-0.3,0.8-0.4c0.2-0.1,0.4-0.2,0.6-0.3c0.3-0.1,0.5-0.3,0.7-0.4
			C18.7,6.2,19,6,19.4,5.8c0.5-0.3,0.9-0.5,1.4-0.8c0.6-0.3,1.2-0.6,1.8-1c0.8-0.4,1.5-0.8,2.2-1.2c0.9-0.5,1.8-0.9,2.7-1.4
			c1-0.5,1.9-1,3-1.5"/>
	</g>
	<g id="SPLINE-39" transform="translate(1555.599 221.591)">
		<path id="Path_740" class="st1" d="M0,7.8c0,0,0.1,0,0.1,0c0.2,0,0.5,0.1,0.7,0.1C1.1,8,1.3,8,1.5,8C1.8,8,2,8,2.2,8
			c0.2,0,0.5,0,0.7,0c0.2,0,0.5,0,0.7-0.1S4,7.8,4.2,7.8c0.2-0.1,0.4-0.1,0.6-0.2C5,7.5,5.2,7.4,5.4,7.3C5.5,7.2,5.7,7,5.8,6.9
			C6,6.7,6.1,6.6,6.2,6.4c0.1-0.2,0.2-0.4,0.3-0.5c0.1-0.2,0.1-0.4,0.1-0.6c0-0.2,0-0.4,0-0.6c0-0.2-0.1-0.4-0.2-0.6
			C6.2,3.6,6,3.2,5.7,2.8C5.5,2.6,5.3,2.4,5.2,2.3C5,2.1,4.8,1.9,4.6,1.8C4.4,1.6,4.2,1.5,4,1.3S3.5,1,3.3,0.9
			C3.1,0.8,2.9,0.7,2.7,0.6C2.5,0.5,2.3,0.5,2.1,0.4C1.8,0.2,1.5,0.1,1.1,0"/>
	</g>
	<g id="LINE-18" transform="translate(1552.244 228.191)">
		<line id="Line_814" class="st1" x1="0" y1="0" x2="0.6" y2="0.3"/>
	</g>
	<g id="LINE-19" transform="translate(1555.851 229.454)">
		<line id="Line_815" class="st1" x1="0" y1="0" x2="0.6" y2="0.1"/>
	</g>
	<g id="LINE-20" transform="translate(1586.437 193.674)">
		<line id="Line_816" class="st1" x1="0.8" y1="0" x2="0" y2="0.7"/>
	</g>
	<g id="SPLINE-40" transform="translate(1583.768 194.179)">
		<path id="Path_741" class="st1" d="M2.9,0c0,0-0.1,0.1-0.1,0.1C2.4,0.3,2.1,0.6,1.9,0.9C1.6,1.3,1.3,1.7,1,2.1
			c-0.3,0.5-0.5,1-0.7,1.6C0.1,4.3,0,4.9,0,5.6c0,0.3,0,0.7,0,1c0,0.4,0.1,0.7,0.2,1c0.1,0.4,0.3,0.7,0.4,1c0.2,0.3,0.4,0.7,0.6,1
			c0.2,0.3,0.5,0.7,0.8,0.9l0.8,0.8"/>
	</g>
	<g id="SPLINE-41" transform="translate(1589.467 190.428)">
		<path id="Path_742" class="st1" d="M5,0C4.4,0.2,3.7,0.4,3.1,0.6C2.1,1,1,1.4,0,1.9"/>
	</g>
	<g id="LINE-21" transform="translate(1557.438 229.598)">
		<line id="Line_817" class="st1" x1="0" y1="1.8" x2="0.5" y2="0"/>
	</g>
	<g id="LINE-22" transform="translate(1550.477 227.398)">
		<line id="Line_818" class="st1" x1="0.5" y1="0" x2="0" y2="1.6"/>
	</g>
	<g id="SPLINE-42" transform="translate(1574.376 234.504)">
		<path id="Path_743" class="st1" d="M0.4,6.3C0.3,6,0.2,5.7,0.1,5.4C0,5.1,0,4.8,0,4.5c0-0.3,0.1-0.6,0.3-0.8
			C0.4,3.5,0.5,3.2,0.7,3C0.9,2.8,1,2.5,1.2,2.3C1.5,2.1,1.7,1.8,2,1.6C2.4,1.3,2.7,1,3.1,0.8C3.5,0.5,4,0.3,4.4,0"/>
	</g>
	<g id="SPLINE-43" transform="translate(1563.462 210.734)">
		<path id="Path_744" class="st1" d="M28.8,0c-1,0.4-1.9,0.7-2.9,1.1c-1,0.4-2.1,0.8-3.1,1.1c-0.9,0.3-1.7,0.6-2.6,0.9
			c-0.8,0.3-1.6,0.5-2.3,0.8c-0.8,0.3-1.5,0.5-2.3,0.8c-0.5,0.2-1,0.4-1.6,0.5c-0.5,0.2-1,0.4-1.6,0.5c-0.6,0.2-1.2,0.4-1.8,0.6
			C9.9,6.6,9.1,6.9,8.4,7.1L5.8,8c-1,0.3-2,0.6-3,1C1.9,9.3,0.9,9.6,0,9.9"/>
	</g>
	<g id="SPLINE-44" transform="translate(1595.274 190.031)">
		<path id="Path_745" class="st1" d="M10.6,4.5C9.8,3.7,9.1,3.1,8.2,2.4C7.8,2,7.3,1.7,6.9,1.4c-0.5-0.3-1-0.6-1.6-0.8
			C4.7,0.5,4.1,0.3,3.5,0.2C2.9,0.1,2.3,0,1.8,0c-0.5,0-1,0-1.6,0.1c-0.1,0-0.2,0-0.2,0.1"/>
	</g>
	<g id="SPLINE-45" transform="translate(1558.051 220.581)">
		<path id="Path_746" class="st1" d="M5.5,0C4.5,0.3,3.6,0.6,2.6,0.9C1.8,1.1,1,1.3,0.1,1.4H0"/>
	</g>
	<g id="SPLINE-46" transform="translate(1544.742 221.627)">
		<path id="Path_747" class="st1" d="M4.7,0.7C4,0.6,3.4,0.6,2.7,0.5C1.8,0.4,0.9,0.2,0,0"/>
	</g>
	<g id="LINE-23" transform="translate(1609.088 217.984)">
		<line id="Line_819" class="st1" x1="0" y1="0" x2="2.6" y2="0"/>
	</g>
	<g id="LINE-24" transform="translate(1613.994 216.433)">
		<line id="Line_820" class="st1" x1="0" y1="0.1" x2="0" y2="0"/>
	</g>
	<g id="LINE-25" transform="translate(1592.569 209.039)">
		<line id="Line_821" class="st1" x1="0" y1="0" x2="0" y2="0.1"/>
	</g>
	<g id="LINE-26" transform="translate(1592.208 209.219)">
		<line id="Line_822" class="st1" x1="0.4" y1="0" x2="0" y2="1.6"/>
	</g>
	<g id="LINE-27" transform="translate(1601.153 384.874)">
		<line id="Line_823" class="st1" x1="0" y1="0.1" x2="0.4" y2="0"/>
	</g>
	<g id="LINE-28" transform="translate(1605.59 383.647)">
		<line id="Line_824" class="st1" x1="0" y1="0.1" x2="0.4" y2="0"/>
	</g>
	<g id="SPLINE-47" transform="translate(1637.222 347.29)">
		<path id="Path_748" class="st1" d="M0,5.3L0,5.3C0.8,3.6,1.5,1.8,2.2,0"/>
	</g>
	<g id="LINE-29" transform="translate(1608.728 197.425)">
		<line id="Line_825" class="st1" x1="0.6" y1="0.6" x2="0" y2="0"/>
	</g>
	<g id="SPLINE-48" transform="translate(1609.665 373.007)">
		<path id="Path_749" class="st1" d="M4.2,0C4.1,0.3,3.9,0.7,3.8,1S3.5,1.7,3.4,1.9S3.1,2.5,3,2.8C2.9,3.1,2.7,3.4,2.6,3.7
			C2.5,3.9,2.4,4.2,2.3,4.4C2.2,4.7,2,4.9,1.9,5.2C1.8,5.4,1.7,5.6,1.7,5.8C1.5,6,1.5,6.2,1.4,6.4C1.3,6.6,1.2,6.7,1.1,6.9
			C1,7.1,1,7.2,0.9,7.4L0.6,7.8C0.6,7.9,0.5,8.1,0.5,8.2c0,0.1-0.1,0.2-0.1,0.3c0,0.1-0.1,0.2-0.1,0.3L0.1,9C0,9,0,9.1,0,9.1"/>
	</g>
	<g id="LINE-30" transform="translate(1613.849 372.682)">
		<line id="Line_826" class="st1" x1="0" y1="0" x2="0" y2="0"/>
	</g>
	<g id="LINE-31" transform="translate(1612.876 371.384)">
		<line id="Line_827" class="st1" x1="0" y1="0" x2="1" y2="1.3"/>
	</g>
	<g id="SPLINE-49" transform="translate(1609.521 201.032)">
		<path id="Path_750" class="st1" d="M3.4,170.4c2.6-1,5.2-2.3,7.5-3.9c2.5-1.7,4.8-3.7,6.8-5.8c2.2-2.4,4.2-4.9,6-7.6
			c1.9-2.9,3.6-6,5-9.2c1.6-3.4,2.9-7,4-10.6c1.2-3.9,2.1-7.8,2.8-11.8c0.8-4.2,1.3-8.4,1.6-12.7c0.3-4.4,0.4-8.8,0.4-13.3
			s-0.4-9.1-0.9-13.7c-0.5-4.6-1.2-9.2-2.1-13.7c-0.9-4.6-2-9.1-3.3-13.5c-1.3-4.4-2.8-8.8-4.4-13s-3.5-8.3-5.4-12.2
			s-4.1-7.6-6.3-11.1c-2.2-3.4-4.6-6.7-7.1-9.8C5.4,5.4,2.8,2.6,0,0"/>
	</g>
	<g id="ARC" transform="translate(1612.587 370.987)">
		<path id="Path_751" class="st1" d="M0.3,0.4C0.2,0.2,0.1,0.1,0,0"/>
	</g>
	<g id="SPLINE-50" transform="translate(1586.762 205.793)">
		<path id="Path_752" class="st1" d="M0,0l0.1,0.1"/>
	</g>
	<g id="SPLINE-51" transform="translate(1612.479 371.023)">
		<path id="Path_753" class="st1" d="M0,0c0,0,0.1,0,0.1,0"/>
	</g>
	<g id="SPLINE-52" transform="translate(1586.87 205.901)">
		<path id="Path_754" class="st1" d="M0,0c1.3,1.3,2.6,2.5,3.9,3.9C4.3,4.3,4.6,4.7,4.9,5"/>
	</g>
	<g id="LINE-32" transform="translate(1600.648 222.421)">
		<line id="Line_828" class="st1" x1="0" y1="0" x2="1" y2="1.5"/>
	</g>
	<g id="SPLINE-53" transform="translate(1614.535 331.492)">
		<path id="Path_755" class="st1" d="M6.7,0C6.6,0.4,6.5,0.9,6.4,1.3C6,3.2,5.4,5.1,4.9,7C4.3,8.8,3.7,10.7,3,12.4
			c-0.6,1.7-1.3,3.5-2.1,5.1c-0.3,0.6-0.6,1.2-0.9,1.8"/>
	</g>
	<g id="SPLINE-54" transform="translate(1597.727 367.055)">
		<path id="Path_756" class="st1" d="M17.3,0c-0.3,0.1-0.5,0.3-0.9,0.5c-0.4,0.2-0.7,0.3-1.1,0.4c-0.4,0.1-0.8,0.2-1.2,0.3
			c-0.5,0.1-0.9,0.1-1.4,0.2l-1.3,0.1c-0.5,0-0.9,0.1-1.4,0.1c-0.5,0-1,0.1-1.5,0.1L7,1.8c-0.6,0-1.2,0.1-1.7,0.1
			C4.7,2,4.1,2.1,3.6,2.1C3,2.2,2.4,2.3,1.9,2.5c-0.5,0.1-1,0.3-1.5,0.4C0.3,3,0.1,3,0,3.1"/>
	</g>
	<g id="SPLINE-55" transform="translate(1615.004 363.99)">
		<path id="Path_757" class="st1" d="M1.7,0c0,0.1,0,0.2,0,0.3c0,0.3,0,0.5-0.1,0.8C1.5,1.4,1.4,1.6,1.2,1.9
			C0.9,2.2,0.7,2.5,0.4,2.7C0.2,2.8,0.1,2.9,0,3"/>
	</g>
	<g id="SPLINE-56" transform="translate(1595.887 209.436)">
		<path id="Path_758" class="st1" d="M0,0c2.5,0.9,5.1,1.7,7.7,2.4c2.6,0.7,5.2,1.4,7.9,2"/>
	</g>
	<g id="SPLINE-57" transform="translate(1592.641 208.723)">
		<path id="Path_759" class="st1" d="M0,0.3c0-0.1,0-0.1,0-0.1c0-0.1,0.2-0.1,0.3-0.1c0.2,0,0.4,0,0.5,0c0.2,0,0.4,0.1,0.6,0.1
			c0.3,0.1,0.5,0.1,0.8,0.3S3,0.6,3.2,0.7"/>
	</g>
	<g id="SPLINE-58" transform="translate(1611.469 213.836)">
		<path id="Path_760" class="st1" d="M0,0c0.4,0.1,0.8,0.2,1.2,0.3c0.3,0.1,0.5,0.2,0.7,0.4C2.1,0.8,2.3,1,2.4,1.2
			c0.1,0.2,0.2,0.3,0.2,0.5c0.1,0.2,0.1,0.4,0,0.6c0,0.1,0,0.1-0.1,0.2"/>
	</g>
	<g id="ARC-2" transform="translate(1613.885 372.646)">
		<path id="Path_761" class="st1" d="M0,0.4C0,0.2,0,0.1,0,0"/>
	</g>
	<g id="LINE-33" transform="translate(1605.842 194.503)">
		<line id="Line_829" class="st1" x1="0" y1="0" x2="0.1" y2="0.1"/>
	</g>
	<g id="ARC-3" transform="translate(1586.798 205.829)">
		<path id="Path_762" class="st1" d="M0,0C0,0,0,0.1,0,0"/>
	</g>
	<g id="SPLINE-59" transform="translate(1542.888 264.224)">
		<path id="Path_763" class="st1" d="M21.7,6.1c-0.6-0.5-1.2-1.1-1.8-1.6C19.3,4,18.7,3.5,18,3c-0.7-0.5-1.3-0.9-2-1.3
			c-0.7-0.4-1.4-0.7-2.2-1c-0.7-0.3-1.5-0.5-2.3-0.6c-0.4-0.1-0.8-0.1-1.2-0.1S9.7,0,9.3,0C8.6,0,7.9,0.1,7.2,0.2
			C6.5,0.4,5.9,0.6,5.3,0.8C4.2,1.3,3.2,2,2.4,2.8C1.7,3.6,1.1,4.4,0.7,5.4C0.3,6.2,0.1,7,0,7.9c0,0.4,0,0.8,0,1.2
			c0,0.3,0.1,0.7,0.3,1"/>
	</g>
	<g id="SPLINE-60" transform="translate(1543.227 274.323)">
		<path id="Path_764" class="st1" d="M0,0c0,0.1,0.1,0.3,0.1,0.4c0.1,0.1,0.1,0.2,0.2,0.3C0.4,0.8,0.5,0.9,0.6,1
			C0.7,1.1,0.8,1.3,1,1.3c0.1,0.1,0.3,0.1,0.4,0.2l0,0"/>
	</g>
	<g id="SPLINE-61" transform="translate(1538.646 254.414)">
		<path id="Path_765" class="st1" d="M2.1,19.5c-0.2-0.1-0.3-0.1-0.4-0.2C1.4,19.2,1.2,19,1,18.8c-0.2-0.2-0.4-0.5-0.5-0.8
			c-0.1-0.3-0.2-0.6-0.3-0.9c-0.1-0.3-0.1-0.7-0.1-1c0-0.4,0-0.8,0.1-1.1c0.1-0.2,0.1-0.4,0.2-0.7c0.1-0.3,0.2-0.5,0.4-0.8
			c0.2-0.3,0.3-0.6,0.5-0.9c0.3-0.5,0.7-0.9,1.1-1.4c0.4-0.5,0.9-0.9,1.4-1.4c0.3-0.3,0.7-0.5,1-0.8C5.2,8.9,5.6,8.6,6,8.4
			C6.3,8.2,6.6,8,7,7.8C7.5,7.5,8,7.3,8.5,7C9,6.8,9.5,6.6,10,6.4c0.5-0.2,0.9-0.3,1.4-0.5c0.5-0.1,1-0.3,1.6-0.5s1-0.3,1.6-0.4
			c0.6-0.1,1.1-0.3,1.7-0.4c0.6-0.1,1.2-0.3,1.8-0.4c0.6-0.1,1.3-0.3,1.9-0.4c0.7-0.1,1.3-0.3,2-0.4c0.7-0.1,1.4-0.3,2.1-0.5
			c0.7-0.2,1.3-0.4,2-0.6c0.7-0.2,1.4-0.4,2-0.7c0.4-0.1,0.8-0.3,1.1-0.5c0.4-0.2,0.8-0.4,1.1-0.5c0.4-0.2,0.8-0.4,1.1-0.6"/>
	</g>
	<g id="SPLINE-62" transform="translate(1584.49 341.627)">
		<path id="Path_766" class="st1" d="M0.1,2.6C0.1,2.6,0,2.6,0.1,2.6C0,2.5,0,2.5,0,2.5c0,0,0-0.1,0-0.1s0.1-0.1,0.1-0.2
			C0.2,2,0.3,2,0.3,1.9l0.3-0.3C0.8,1.5,1,1.3,1.2,1.1C1.4,1,1.5,0.9,1.6,0.8c0.2-0.1,0.3-0.2,0.5-0.3C2.3,0.4,2.6,0.2,2.9,0"/>
	</g>
	<g id="SPLINE-63" transform="translate(1587.375 326.334)">
		<path id="Path_767" class="st1" d="M0,15.3c0.5-0.3,1-0.6,1.5-0.9c0.6-0.3,1.1-0.7,1.7-1.2c0.6-0.5,1.2-0.9,1.7-1.5
			c0.6-0.6,1.1-1.2,1.5-1.9c0.5-0.7,0.8-1.5,1.1-2.3C7.8,6.7,7.9,5.9,8,5c0-0.4,0-0.9,0-1.3c0-0.4-0.1-0.9-0.1-1.3
			C7.8,2.1,7.6,1.7,7.5,1.2C7.4,0.8,7.3,0.4,7.2,0"/>
	</g>
	<g id="SPLINE-64" transform="translate(1564.616 270.355)">
		<path id="Path_768" class="st1" d="M29.9,56c-0.4-1.3-0.8-2.6-1.2-3.8c-0.4-1.3-0.8-2.6-1.2-3.8s-0.8-2.6-1.3-3.8
			c-0.4-1.3-0.9-2.5-1.4-3.8c-0.9-2.5-1.9-5-3.1-7.4c-1.1-2.5-2.2-4.9-3.5-7.3c-1.2-2.4-2.5-4.7-3.9-7c-1.4-2.3-2.8-4.6-4.3-6.8
			C8.6,10,7.1,7.9,5.4,5.8C3.7,3.8,1.9,1.8,0,0"/>
	</g>
	<g id="SPLINE-65" transform="translate(1598.123 352.592)">
		<path id="Path_769" class="st1" d="M0.6,2.9C0.4,1.9,0.2,1,0,0"/>
	</g>
	<g id="SPLINE-66" transform="translate(1593.182 350.284)">
		<path id="Path_770" class="st1" d="M4.9,2.3c0,0,0-0.1,0-0.1c0,0,0-0.1,0-0.1c0,0,0-0.1,0-0.1c0,0,0-0.1-0.1-0.1s0-0.1-0.1-0.1
			c0,0,0-0.1-0.1-0.1c0,0-0.1-0.1-0.1-0.1C4.4,1.2,4.3,1,4.2,0.9C4.1,0.8,3.9,0.7,3.8,0.5C3.6,0.4,3.4,0.3,3.1,0.2
			C3,0.1,2.9,0.1,2.7,0.1C2.5,0,2.3,0,2.1,0C2,0,1.8,0,1.6,0.1c-0.2,0-0.3,0.1-0.5,0.1C1,0.3,0.9,0.4,0.8,0.5
			C0.7,0.6,0.6,0.6,0.5,0.8C0.4,0.9,0.3,1,0.2,1.2c0,0.1-0.1,0.2-0.1,0.3L0,2l0,0.5c0,0.1,0,0.1,0,0.2s0,0.1,0,0.2"/>
	</g>
	<g id="SPLINE-67" transform="translate(1593.326 353.349)">
		<path id="Path_771" class="st1" d="M0,0c0.2,1,0.5,1.9,0.7,2.9"/>
	</g>
	<g id="SPLINE-68" transform="translate(1594.012 355.586)">
		<path id="Path_772" class="st1" d="M0,0.6c0,0,0,0.1,0,0.1s0,0.1,0,0.1c0,0,0,0.1,0,0.1c0,0,0,0.1,0.1,0.1s0,0.1,0.1,0.1
			s0,0.1,0.1,0.1c0,0,0,0.1,0.1,0.1c0.1,0.1,0.2,0.3,0.3,0.4c0.1,0.2,0.2,0.3,0.4,0.4c0.2,0.1,0.4,0.3,0.6,0.4L2,2.9
			C2.2,3,2.3,3,2.5,3C2.6,3,2.8,3,3,2.9c0.2,0,0.3-0.1,0.5-0.2c0.2-0.1,0.3-0.2,0.4-0.3C4,2.3,4.1,2.2,4.3,2.1l0.2-0.3
			c0.1-0.1,0.1-0.3,0.2-0.4c0-0.1,0.1-0.3,0.1-0.4c0-0.1,0-0.2,0-0.3V0.3c0-0.1,0-0.2,0-0.3"/>
	</g>
	<g id="LINE-34" transform="translate(1609.99 341.808)">
		<line id="Line_830" class="st1" x1="0.1" y1="0" x2="0" y2="0"/>
	</g>
	<g id="SPLINE-69" transform="translate(1569.99 254.414)">
		<path id="Path_773" class="st1" d="M0.1,0C0.1,0,0,0,0,0.1"/>
	</g>
	<g id="SPLINE-70" transform="translate(1570.098 253.512)">
		<path id="Path_774" class="st1" d="M0,0.9c0.2-0.1,0.4-0.3,0.6-0.5C0.8,0.3,1,0.2,1.2,0l0,0"/>
	</g>
	<g id="SPLINE-71" transform="translate(1584.332 341.158)">
		<path id="Path_775" class="st1" d="M0.3,2.7H0.2C0,2.7,0,2.6,0,2.5c0-0.1,0.1-0.3,0.2-0.4c0.2-0.2,0.3-0.4,0.5-0.5
			c0.3-0.2,0.5-0.5,0.9-0.7C1.9,0.6,2.4,0.3,2.8,0"/>
	</g>
	<g id="SPLINE-72" transform="translate(1543.624 274.576)">
		<path id="Path_776" class="st1" d="M0,0c0,0.1,0.1,0.3,0.1,0.4c0.1,0.1,0.1,0.2,0.2,0.3S0.5,0.9,0.6,1C0.7,1.1,0.8,1.3,1,1.3
			c0,0,0.1,0,0.1,0.1"/>
	</g>
	<g id="SPLINE-73" transform="translate(1543.299 264.75)">
		<path id="Path_777" class="st1" d="M0.3,9.8c0,0,0-0.1-0.1-0.1c0-0.1,0-0.1-0.1-0.2c0-0.1,0-0.1,0-0.2c0-0.1-0.1-0.2-0.1-0.4
			c0-0.1,0-0.2,0-0.3c0-0.3,0-0.5,0-0.8c0-0.2,0-0.5,0.1-0.7c0.1-0.5,0.2-1.1,0.4-1.6c0.2-0.5,0.5-1.1,0.8-1.6
			c0.3-0.5,0.7-0.9,1-1.3C2.7,2.3,3.1,2,3.6,1.6C4,1.3,4.5,1.1,4.9,0.9c0.5-0.2,0.9-0.4,1.4-0.5C6.9,0.2,7.4,0.1,8,0.1
			C8.5,0,9.1,0,9.7,0c0.6,0,1.1,0.1,1.7,0.2c0.6,0.1,1.2,0.3,1.7,0.5c0.4,0.1,0.7,0.3,1,0.4s0.7,0.3,1,0.5c0.4,0.2,0.7,0.4,1,0.6
			c0.4,0.2,0.7,0.5,1.1,0.7c0.3,0.2,0.6,0.4,0.9,0.6c0.3,0.3,0.6,0.5,0.9,0.8C19.5,4.6,19.7,4.8,20,5c0.3,0.3,0.6,0.6,1,0.9"/>
	</g>
	<g id="SPLINE-74" transform="translate(1564.219 270.716)">
		<path id="Path_778" class="st1" d="M0,0c0.2,0.1,0.3,0.3,0.5,0.5C0.7,0.6,0.8,0.8,1,1l0.5,0.5c0.2,0.2,0.4,0.4,0.5,0.6
			c0.2,0.2,0.4,0.4,0.5,0.6C2.8,2.9,3,3.1,3.2,3.3c0.2,0.2,0.4,0.4,0.6,0.6s0.4,0.4,0.6,0.6C4.7,5,5,5.4,5.4,5.8
			c0.4,0.5,0.8,1,1.2,1.5s0.8,1,1.2,1.5c0.7,1,1.4,1.9,2.1,3c1.2,1.7,2.3,3.4,3.4,5.2c0.7,1.2,1.4,2.3,2.1,3.5
			c0.8,1.4,1.6,2.7,2.3,4.1c0.9,1.6,1.7,3.2,2.5,4.9c1.6,3.2,3,6.6,4.3,10c0.6,1.7,1.3,3.4,1.8,5c0.4,1,0.7,2.1,1.1,3.2l0.5,1.6
			l0.4,1.4c0.3,0.9,0.6,1.8,0.9,2.8c0.3,0.8,0.5,1.6,0.8,2.3"/>
	</g>
	<g id="SPLINE-75" transform="translate(1587.195 326.514)">
		<path id="Path_779" class="st1" d="M6.9,0l0.2,0.6C7.1,0.9,7.2,1,7.2,1.3c0.1,0.4,0.2,0.7,0.3,1c0.1,0.5,0.2,1,0.2,1.6
			c0,0.4,0,0.8,0,1.2c0,0.4-0.1,0.8-0.2,1.2C7.3,6.9,7.1,7.6,6.8,8.2C6.6,8.6,6.3,9.1,6.1,9.5c-0.3,0.4-0.6,0.8-0.9,1.2
			c-0.4,0.4-0.8,0.9-1.2,1.2c-0.4,0.4-0.9,0.7-1.3,1c-0.2,0.1-0.4,0.3-0.6,0.5c-0.3,0.2-0.5,0.3-0.8,0.5C1.2,14,1.1,14.1,1,14.1
			c-0.1,0.1-0.3,0.2-0.4,0.3c-0.1,0.1-0.2,0.2-0.4,0.2c-0.1,0-0.2,0.1-0.3,0.1"/>
	</g>
	<g id="SPLINE-76" transform="translate(1612.767 371.384)">
		<path id="Path_780" class="st1" d="M0.1,0C0.1,0,0,0,0,0"/>
	</g>
	<g id="ARC-4" transform="translate(1564.219 270.356)">
		<path id="Path_781" class="st1" d="M0,0.4C0.2,0.3,0.3,0.2,0.4,0"/>
	</g>
	<g id="ARC-5" transform="translate(1594.048 326.334)">
		<path id="Path_782" class="st1" d="M0.5,0C0.3,0,0.2,0.1,0,0.1"/>
	</g>
	<g id="SPLINE-77" transform="translate(1612.479 371.059)">
		<path id="Path_783" class="st1" d="M0.3,0.4c0-0.1-0.1-0.2-0.1-0.3C0.1,0.1,0.1,0,0,0"/>
	</g>
	<g id="SPLINE-78" transform="translate(1613.849 372.682)">
		<path id="Path_784" class="st1" d="M0,0c0,0.1,0,0.1,0,0.2c0,0.1,0,0.1,0,0.2"/>
	</g>
	<g id="SPLINE-79" transform="translate(1613.813 373.007)">
		<path id="Path_785" class="st1" d="M0.1,0C0,0,0,0,0.1,0"/>
	</g>
	<g id="SPLINE-80" transform="translate(1541.898 244.999)">
		<path id="Path_786" class="st1" d="M8.1,3.7C8,3.8,7.8,4,7.6,4C7.4,4.1,7.1,4.2,6.9,4.3c-0.3,0-0.5,0.1-0.8,0.1
			c-0.3,0-0.6,0-0.8,0C5,4.3,4.7,4.2,4.4,4.2C4.1,4.1,3.9,4,3.5,3.9C3.2,3.8,2.9,3.7,2.7,3.6C2.4,3.4,2.1,3.3,1.9,3.1
			c-0.4-0.3-0.8-0.6-1.2-1C0.5,2,0.4,1.8,0.3,1.5C0.2,1.4,0.1,1.1,0,0.9c0-0.3,0-0.6,0-0.9"/>
	</g>
	<g id="SPLINE-81" transform="translate(1550.044 247.921)">
		<path id="Path_787" class="st1" d="M0.6,0L0.6,0c0,0.1,0,0.2-0.1,0.2c0,0.1-0.1,0.1-0.1,0.2C0.3,0.5,0.1,0.7,0,0.8"/>
	</g>
	<g id="SPLINE-82" transform="translate(1555.274 248.787)">
		<path id="Path_788" class="st1" d="M5.5,1.1L5.5,1.1c0,0.1-0.1,0.2-0.2,0.3C5.3,1.5,5.2,1.6,5,1.7C4.9,1.8,4.8,1.8,4.6,1.9
			C4.5,1.9,4.3,1.9,4.2,2C4,2,3.8,2,3.6,2C3.4,2,3.3,2,3.1,1.9c-0.2,0-0.4-0.1-0.6-0.2C2.2,1.7,2,1.6,1.8,1.5
			C1.6,1.4,1.4,1.3,1.3,1.2C1.1,1.1,0.9,0.9,0.7,0.8c0,0,0,0,0,0c0,0,0,0,0,0l0,0c-0.1,0-0.1-0.1-0.2-0.1C0.3,0.4,0.1,0.2,0,0"/>
	</g>
	<g id="SPLINE-83" transform="translate(1555.058 247.416)">
		<path id="Path_789" class="st1" d="M0.3,1.3C0.1,1.1,0,0.8,0,0.6C0,0.4,0.1,0.2,0.1,0"/>
	</g>
	<g id="SPLINE-84" transform="translate(1530.652 239.084)">
		<path id="Path_790" class="st1" d="M8.5,3.2C8.1,3.4,7.7,3.6,7.3,3.7C6.8,3.8,6.2,3.9,5.7,3.9c-0.2,0-0.3,0-0.5,0
			c-0.2,0-0.3,0-0.5-0.1c-0.3,0-0.6-0.1-0.9-0.2C3.6,3.5,3.3,3.4,3,3.4L2.3,3C2,2.9,1.8,2.8,1.6,2.6S1.1,2.3,1,2.2
			C0.8,2,0.6,1.8,0.5,1.7C0.4,1.5,0.2,1.3,0.2,1.1C0.1,1,0.1,0.8,0,0.6c0-0.2,0-0.4,0-0.5c0,0,0,0,0-0.1"/>
	</g>
	<g id="SPLINE-85" transform="translate(1539.115 241.465)">
		<path id="Path_791" class="st1" d="M0.5,0L0.5,0c0,0.1-0.1,0.2-0.1,0.3C0.3,0.5,0.2,0.6,0,0.8"/>
	</g>
	<g id="SPLINE-86" transform="translate(1537.42 230.284)">
		<path id="Path_792" class="st1" d="M0,0.3c0.1,0,0.1,0,0.2-0.1c0.1,0,0.1,0,0.2,0s0.1,0,0.2,0s0.1,0,0.2,0s0.1,0,0.2,0
			c0.1,0,0.1,0,0.2,0C1.4,0,1.6,0,1.7,0L3,0c0.4,0,0.7,0,1.1,0.1c0.4,0,0.9,0.1,1.3,0.2c0.5,0.1,0.9,0.2,1.3,0.3
			C7,0.7,7.3,0.8,7.6,0.9C7.8,0.9,8.1,1,8.4,1.2c0.1,0,0.3,0.1,0.4,0.1c0.1,0,0.3,0.1,0.4,0.1c0.1,0.1,0.2,0.1,0.4,0.1
			c0.1,0,0.2,0.1,0.3,0.1"/>
	</g>
	<g id="SPLINE-87" transform="translate(1539.187 237.461)">
		<path id="Path_793" class="st1" d="M10.6,6c-0.4-0.2-0.8-0.5-1.2-0.7C9.1,5.1,8.7,4.8,8.3,4.6C7.9,4.4,7.5,4.1,7.1,3.9
			S6.3,3.5,6,3.2L4.8,2.6L3.6,1.9L2.4,1.3L1.2,0.6C0.8,0.4,0.4,0.2,0,0"/>
	</g>
	<g id="SPLINE-88" transform="translate(1549.792 243.377)">
		<path id="Path_794" class="st1" d="M11.5,0.6c0,0,0,0.1-0.1,0.1l-0.1,0.1l-0.1,0.1L11.1,1L11,1.2c0,0-0.1,0.1-0.1,0.1
			c-0.1,0.1-0.3,0.2-0.4,0.3c-0.1,0.1-0.3,0.1-0.5,0.2S9.6,1.9,9.4,1.9C9.2,2,8.9,2,8.7,2.1c-0.5,0.1-1,0.1-1.4,0.1
			C6.9,2.1,6.4,2.1,6,2C5.6,2,5.2,1.9,4.7,1.8c-0.5-0.1-1-0.3-1.6-0.4L2.5,1.2C2.3,1.1,2.1,1,1.8,0.9C1.7,0.8,1.6,0.8,1.4,0.7
			C1.3,0.6,1.1,0.6,1,0.5C0.9,0.5,0.7,0.4,0.6,0.4S0.4,0.3,0.3,0.2C0.2,0.1,0.1,0.1,0,0"/>
	</g>
	<g id="SPLINE-89" transform="translate(1557.835 238.038)">
		<path id="Path_795" class="st1" d="M0,0c0.1,0,0.1,0.1,0.2,0.1s0.1,0.1,0.2,0.1s0.1,0.1,0.2,0.1s0.1,0.1,0.2,0.1
			c0.1,0,0.1,0.1,0.2,0.1C1,0.6,1,0.7,1.1,0.7C1.3,0.9,1.5,1,1.7,1.2C1.8,1.3,2,1.5,2.2,1.7c0.1,0.1,0.3,0.3,0.4,0.4l0.3,0.4
			C3,2.6,3.1,2.8,3.2,3c0.1,0.1,0.2,0.3,0.3,0.5C3.6,3.6,3.6,3.8,3.7,4c0.1,0.2,0.1,0.4,0.1,0.6v0.3c0,0.1,0,0.2,0,0.3
			c0,0.1,0,0.2-0.1,0.3c0,0.1,0,0.2-0.1,0.3S3.5,5.8,3.5,5.9"/>
	</g>
	<g id="SPLINE-90" transform="translate(1547.195 232.087)">
		<path id="Path_796" class="st1" d="M0,0c0.4,0.2,0.8,0.4,1.2,0.6S2,1,2.4,1.2l1.2,0.6l1.2,0.6L6,3.2c0.4,0.2,0.8,0.4,1.2,0.7
			c0.4,0.2,0.8,0.5,1.2,0.7S9.1,5,9.5,5.2s0.8,0.5,1.2,0.7"/>
	</g>
	<g id="SPLINE-91" transform="translate(1550.426 228.949)">
		<path id="Path_797" class="st1" d="M6.6,2.8C6.5,2.9,6.3,3,6.1,3c-0.2,0-0.3,0-0.5,0c-0.4,0-0.9,0-1.3-0.1C3.9,2.8,3.5,2.7,3,2.6
			C2.6,2.4,2.3,2.2,1.9,2.1c-0.3-0.2-0.7-0.4-1-0.6C0.6,1.3,0.4,1,0.2,0.8C0.2,0.7,0.1,0.5,0.1,0.4C0,0.3,0,0.2,0,0.1
			c0,0,0-0.1,0-0.1"/>
	</g>
	<g id="SPLINE-92" transform="translate(1557.041 231.365)">
		<path id="Path_798" class="st1" d="M0.4,0c0,0,0,0.1,0,0.1c0,0.1-0.1,0.1-0.1,0.1C0.2,0.3,0.1,0.4,0,0.4"/>
	</g>
	<g id="LINE-35" transform="translate(1545.139 221.916)">
		<line id="Line_831" class="st1" x1="0" y1="0" x2="0" y2="0"/>
	</g>
	<g id="SPLINE-93" transform="translate(1545.175 221.916)">
		<path id="Path_799" class="st1" d="M0,0c1,0.3,2.1,0.5,3.1,0.8C3.4,0.9,3.6,1,3.8,1"/>
	</g>
	<g id="SPLINE-94" transform="translate(1561.514 228.336)">
		<path id="Path_800" class="st1" d="M0,0c0.6,0.4,1.3,0.8,2,1.2c0.9,0.6,1.7,1.2,2.6,1.8c0.8,0.6,1.6,1.2,2.3,1.8
			C7.5,5.4,8.2,6,8.8,6.6c0.6,0.6,1.1,1.2,1.6,1.8c0.5,0.6,0.9,1.2,1.2,1.8c0.4,0.6,0.6,1.2,0.9,1.7"/>
	</g>
	<g id="SPLINE-95" transform="translate(1573.958 240.31)">
		<path id="Path_801" class="st1" d="M0,0c0,0.1,0.1,0.2,0.1,0.3"/>
	</g>
	<g id="SPLINE-96" transform="translate(1571.541 247.777)">
		<path id="Path_802" class="st1" d="M0,5c0.5-0.3,0.9-0.7,1.4-1c0.4-0.3,0.8-0.7,1.1-1.2C2.8,2.4,3,2,3.3,1.5
			c0.2-0.4,0.4-0.9,0.5-1.4c0-0.1,0-0.1,0-0.1"/>
	</g>
	<g id="SPLINE-97" transform="translate(1513.976 228.552)">
		<path id="Path_803" class="st1" d="M0.5,0C0.4,0.3,0.3,0.5,0.3,0.7C0.1,1.4,0,2,0,2.7c0,0.7,0.1,1.4,0.3,2.1
			C0.5,5.6,0.8,6.3,1.1,7c0.4,0.8,0.8,1.6,1.3,2.3c0.5,0.8,1.1,1.6,1.8,2.3c0.7,0.8,1.5,1.5,2.3,2.2c0.8,0.8,1.7,1.5,2.7,2.2
			c0.9,0.7,2,1.4,3,2.1c1.1,0.7,2.2,1.3,3.4,1.9c1.2,0.6,2.4,1.2,3.6,1.8c1.3,0.5,2.5,1.1,3.8,1.6s2.6,0.9,4,1.3s2.7,0.8,4,1.1
			c1.3,0.3,2.7,0.6,4,0.8c1.3,0.2,2.6,0.4,3.9,0.5s2.6,0.2,3.8,0.3c1.2,0,2.5,0,3.6-0.1c1.1-0.1,2.2-0.2,3.4-0.4
			c1-0.2,2.1-0.4,3-0.6c0.9-0.2,1.8-0.6,2.6-0.9c0.8-0.4,1.5-0.8,2.2-1.2"/>
	</g>
	<g id="LINE-36" transform="translate(1571.505 252.79)">
		<line id="Line_832" class="st1" x1="0" y1="0.1" x2="0" y2="0"/>
	</g>
	<g id="SPLINE-98" transform="translate(1513.895 228.66)">
		<path id="Path_804" class="st1" d="M57.6,24.2c-0.7,0.4-1.4,0.8-2.2,1.2c-0.9,0.4-1.7,0.7-2.6,0.9c-0.9,0.3-1.9,0.5-3,0.6
			c-1.1,0.2-2.2,0.3-3.4,0.4c-1.2,0.1-2.4,0.1-3.6,0.1c-1.2,0-2.5-0.1-3.8-0.3s-2.6-0.3-3.9-0.5c-1.3-0.2-2.7-0.5-4-0.8
			c-1.3-0.3-2.7-0.7-4-1.1s-2.7-0.9-4-1.3s-2.6-1-3.8-1.6s-2.5-1.2-3.6-1.8s-2.3-1.3-3.4-1.9c-1.1-0.7-2.1-1.4-3-2.1
			c-0.9-0.7-1.8-1.4-2.7-2.2c-0.8-0.8-1.6-1.5-2.3-2.2C3.6,10.9,3,10.1,2.4,9.3C1.9,8.6,1.5,7.8,1.1,7C0.8,6.3,0.5,5.6,0.3,4.8
			C0.1,4.1,0,3.4,0,2.7c0-0.7,0-1.3,0.3-2C0.3,0.5,0.4,0.2,0.6,0"/>
	</g>
	<g id="SPLINE-99" transform="translate(1571.541 247.885)">
		<path id="Path_805" class="st1" d="M3.8,0L3.8,0C3.7,0.7,3.4,1.4,3,1.9C2.7,2.5,2.2,3.1,1.8,3.6C1.2,4.1,0.6,4.6,0,5"/>
	</g>
	<g id="SPLINE-100" transform="translate(1520.468 253.98)">
		<path id="Path_806" class="st1" d="M8.8,11.8c-0.1-0.2-0.2-0.4-0.3-0.5c-0.1-0.2-0.2-0.5-0.3-0.7c-0.1-0.1-0.1-0.3-0.2-0.4
			C7.9,9.9,7.8,9.7,7.6,9.4C7.4,9,7.2,8.7,7,8.3C6.7,8,6.5,7.7,6.3,7.4C6.1,7,5.8,6.7,5.6,6.3l-0.8-1c-0.5-0.6-1-1.3-1.6-1.8l-1-1.1
			C2,2.1,1.7,1.8,1.5,1.6C1.3,1.4,1.1,1.2,1,1.1C0.9,1,0.8,0.8,0.6,0.7C0.5,0.6,0.4,0.5,0.3,0.3C0.2,0.2,0.1,0.1,0,0"/>
	</g>
	<g id="LINE-38" transform="translate(1536.085 274.359)">
		<line id="Line_834" class="st1" x1="0.1" y1="0" x2="0" y2="0"/>
	</g>
	<g id="SPLINE-101" transform="translate(1604.206 341.808)">
		<path id="Path_807" class="st1" d="M5.9,0c0,0-0.1,0-0.1,0s-0.1,0-0.1,0c0,0-0.1,0-0.1,0.1s-0.1,0-0.1,0.1s-0.1,0-0.1,0.1
			c0,0-0.1,0.1-0.1,0.1c0,0-0.1,0.1-0.1,0.1S4.7,0.5,4.7,0.6c0,0-0.1,0.1-0.1,0.1S4.5,0.8,4.4,0.8C4.3,0.9,4.3,0.9,4.2,1
			C4.2,1,4.1,1.1,4.1,1.1C3.9,1.3,3.7,1.4,3.6,1.6C3.4,1.8,3.2,2,3,2.2C2.9,2.4,2.7,2.7,2.5,3S2.1,3.5,2,3.8C1.6,4.4,1.2,5.1,1,5.7
			C0.7,6.4,0.4,7.1,0.3,7.8C0.1,8.4,0,9,0,9.6c0,0.6,0,1.1,0.1,1.7c0.1,0.5,0.3,1.1,0.5,1.6c0.3,0.6,0.6,1.1,0.9,1.6
			C2,15,2.5,15.5,3,16c0.5,0.5,1.1,1,1.7,1.4c0.3,0.2,0.5,0.4,0.8,0.5c0.3,0.1,0.5,0.3,0.8,0.4c0.2,0.1,0.5,0.2,0.7,0.3
			c0.2,0.1,0.5,0.2,0.7,0.2c0.1,0,0.3,0.1,0.4,0.1s0.3,0,0.4,0.1c0.1,0,0.2,0,0.4,0h0.3c0.1,0,0.2,0,0.3,0c0.1,0,0.2,0,0.3-0.1"/>
	</g>
	<g id="SPLINE-102" transform="translate(1613.885 357.029)">
		<path id="Path_808" class="st1" d="M0,3.8c0.2-0.1,0.5-0.2,0.7-0.3C0.8,3.4,0.9,3.3,1,3.2C1.1,3.1,1.1,3,1.2,2.8
			c0-0.1,0.1-0.2,0.1-0.3c0-0.1,0.1-0.2,0.1-0.3c0-0.1,0.1-0.2,0.1-0.4c0-0.1,0-0.1,0-0.2c0-0.1,0-0.1,0-0.2c0-0.1,0-0.2,0-0.3V0.7
			c0-0.2,0-0.4,0-0.6V0"/>
	</g>
	<g id="SPLINE-103" transform="translate(1610.387 341.808)">
		<path id="Path_809" class="st1" d="M3,3.6c0-0.1-0.1-0.2-0.1-0.3C2.8,3.1,2.7,2.8,2.6,2.6C2.6,2.3,2.5,2.1,2.4,1.9
			C2.3,1.7,2.2,1.5,2.1,1.3C2,1.2,1.9,1,1.8,0.9C1.7,0.8,1.6,0.7,1.5,0.5C1.4,0.4,1.3,0.4,1.2,0.3C0.9,0.1,0.7,0,0.4,0
			C0.3,0,0.1,0,0,0"/>
	</g>
	<g id="LINE-39" transform="translate(1610.062 341.808)">
		<line id="Line_835" class="st1" x1="0.1" y1="0" x2="0" y2="0"/>
	</g>
	<g id="SPLINE-104" transform="translate(1613.417 345.883)">
		<path id="Path_810" class="st1" d="M0,0c0,0.1,0.1,0.3,0.1,0.4c0,0.2,0.1,0.4,0.1,0.6c0,0.2,0.1,0.4,0.1,0.6
			c0.1,0.3,0.1,0.5,0.2,0.8c0,0.3,0.1,0.5,0.1,0.8c0,0.1,0,0.1,0,0.2"/>
	</g>
	<g id="SPLINE-105" transform="translate(1614.679 351.943)">
		<path id="Path_811" class="st1" d="M0,0c0,0.3,0.1,0.6,0.1,0.9s0.1,0.6,0.1,0.9c0,0.2,0.1,0.4,0.1,0.6c0,0.2,0.1,0.4,0.1,0.6
			c0,0.2,0,0.4,0.1,0.6s0,0.4,0.1,0.5v0"/>
	</g>
	<g id="LINE-40" transform="translate(1609.99 341.808)">
		<line id="Line_836" class="st1" x1="0" y1="0" x2="0.1" y2="0"/>
	</g>
	<g id="SPLINE-106" transform="translate(1606.419 346.532)">
		<path id="Path_812" class="st1" d="M0.2,6c0-0.2-0.1-0.3-0.1-0.5c0-0.2,0-0.3-0.1-0.5c0-0.2,0-0.4,0-0.5l0-0.5c0-0.2,0-0.3,0-0.5
			c0-0.2,0-0.3,0-0.5c0-0.2,0-0.3,0.1-0.5c0-0.1,0-0.1,0-0.2c0-0.1,0-0.2,0.1-0.2c0-0.1,0-0.1,0.1-0.2s0-0.1,0.1-0.2
			c0-0.1,0.1-0.2,0.1-0.4c0-0.1,0.1-0.2,0.2-0.3c0.1-0.1,0.1-0.2,0.2-0.3C1,0.6,1.1,0.5,1.2,0.4c0.1-0.1,0.2-0.1,0.3-0.2
			c0.1,0,0.2-0.1,0.3-0.1C1.8,0.1,1.8,0,1.9,0"/>
	</g>
	<g id="SPLINE-107" transform="translate(1606.636 352.484)">
		<path id="Path_813" class="st1" d="M3.7,4.5c-0.1,0-0.3,0-0.4,0C3,4.6,2.8,4.5,2.7,4.4C2.5,4.3,2.3,4.2,2.1,4
			C1.9,3.9,1.7,3.7,1.5,3.5C1.4,3.3,1.2,3,1,2.8C0.9,2.5,0.7,2.2,0.6,1.9C0.5,1.7,0.4,1.3,0.3,1S0.1,0.3,0,0"/>
	</g>
	<g id="LWPOLYLINE" transform="translate(1587.123 341.158)">
		<path id="Path_814" class="st1" d="M0.3,0.5L0.3,0.5l0.1-0.1V0.2L0.3,0.1L0.2,0L0.1,0L0,0"/>
	</g>
	<g id="SPLINE-108" transform="translate(1610.423 356.668)">
		<path id="Path_815" class="st1" d="M0.7,0L0.5,0.1C0.4,0.3,0.2,0.3,0,0.4"/>
	</g>
	<g id="LINE-41" transform="translate(1608.331 346.497)">
		<line id="Line_837" class="st1" x1="0" y1="0" x2="0.1" y2="0"/>
	</g>
	<g id="SPLINE-109" transform="translate(1608.62 346.46)">
		<path id="Path_816" class="st1" d="M0,0c0.1,0,0.2,0,0.3,0c0.1,0,0.3,0.1,0.4,0.1"/>
	</g>
	<g id="SPLINE-110" transform="translate(1594.733 352.989)">
		<path id="Path_817" class="st1" d="M0.7,2.9C0.5,1.9,0.3,1,0,0"/>
	</g>
	<g id="SPLINE-111" transform="translate(1555.31 248.751)">
		<path id="Path_818" class="st1" d="M0,0c0.3,0.4,0.7,0.8,1.1,1.1"/>
	</g>
	<g id="LINE-42" transform="translate(1526.852 270.933)">
		<line id="Line_838" class="st1" x1="0" y1="0" x2="0" y2="0"/>
	</g>
	<g id="SPLINE-112" transform="translate(1545.211 221.879)">
		<path id="Path_819" class="st1" d="M4,0.6C3.4,0.6,2.8,0.5,2.2,0.4C1.5,0.3,0.7,0.2,0,0"/>
	</g>
	<g id="LWPOLYLINE-2" transform="translate(1555.599 229.382)">
		<path id="Path_820" class="st1" d="M0.9,0.1L0.9,0.1L0,0"/>
	</g>
	<g id="ARC-6" transform="translate(1552.821 228.48)">
		<path id="Path_821" class="st1" d="M0,0c0.9,0.5,2,0.8,3,0.9"/>
	</g>
	<g id="SPLINE-113" transform="translate(1609.413 200.888)">
		<path id="Path_822" class="st1" d="M0,0l0.1,0.1"/>
	</g>
	<g id="LINE-43" transform="translate(1586.437 194.179)">
		<line id="Line_839" class="st1" x1="0.2" y1="0" x2="0" y2="0.2"/>
	</g>
	<g id="ARC-7" transform="translate(1586.69 205.721)">
		<path id="Path_823" class="st1" d="M0,0C0,0,0,0.1,0,0"/>
	</g>
	<g id="SPLINE-114" transform="translate(1589.034 192.411)">
		<path id="Path_824" class="st1" d="M0.1,0C0.1,0,0.1,0,0.1,0C0,0,0,0.1,0,0.1"/>
	</g>
	<g id="SPLINE-115" transform="translate(1594.48 190.067)">
		<path id="Path_825" class="st1" d="M11.5,4.5c-0.1-0.1-0.3-0.3-0.4-0.4c-0.1-0.1-0.3-0.3-0.4-0.4s-0.3-0.3-0.5-0.4
			C10,3.2,9.9,3.1,9.8,3C9.6,2.9,9.5,2.8,9.4,2.7L8.9,2.3C8.6,2.1,8.2,1.8,7.9,1.6C7.7,1.5,7.6,1.4,7.4,1.3C7.3,1.3,7.1,1.2,7,1.1
			C6.8,1,6.6,0.9,6.4,0.8c-0.1,0-0.2-0.1-0.3-0.1L5.8,0.6c-0.1,0-0.3-0.1-0.4-0.1L5,0.4c-0.1,0-0.3-0.1-0.4-0.1s-0.2,0-0.3-0.1
			c-0.1,0-0.2,0-0.3,0c-0.2,0-0.4-0.1-0.6-0.1C3.3,0,3.1,0,2.9,0C2.8,0,2.6,0,2.5,0C2,0,1.4,0,0.9,0.1c-0.2,0-0.5,0.1-0.7,0.1
			C0.2,0.3,0.1,0.3,0,0.3"/>
	</g>
	<g id="SPLINE-116" transform="translate(1595.851 209.58)">
		<path id="Path_826" class="st1" d="M15.6,4.4c-2.6-0.6-5.3-1.3-7.9-2S2.5,0.9,0,0"/>
	</g>
	<g id="LINE-44" transform="translate(1595.851 209.436)">
		<line id="Line_840" class="st1" x1="0" y1="0.1" x2="0" y2="0"/>
	</g>
	<g id="LINE-45" transform="translate(1611.433 213.836)">
		<line id="Line_841" class="st1" x1="0" y1="0.1" x2="0" y2="0"/>
	</g>
	<g id="SPLINE-117" transform="translate(1611.325 213.945)">
		<path id="Path_827" class="st1" d="M0.3,4.1h0.3C0.8,4.1,0.9,4,1,4c0.1,0,0.3-0.1,0.4-0.1c0.1,0,0.3-0.1,0.4-0.2
			C1.9,3.6,2,3.5,2.1,3.5c0.1-0.1,0.2-0.2,0.3-0.3C2.4,3.1,2.5,3,2.5,2.9c0.1-0.1,0.1-0.2,0.1-0.4c0-0.1,0-0.3,0-0.4
			c0-0.1,0-0.3,0-0.4c0-0.1-0.1-0.2-0.1-0.3S2.4,1.2,2.4,1.1C2.3,1,2.2,0.9,2.2,0.9C2.1,0.8,2,0.7,1.9,0.6C1.8,0.6,1.6,0.5,1.5,0.4
			C1.4,0.4,1.2,0.3,1.1,0.2C0.9,0.2,0.7,0.1,0.5,0.1L0,0"/>
	</g>
	<g id="SPLINE-118" transform="translate(1592.569 208.895)">
		<path id="Path_828" class="st1" d="M3.3,0.7C2.8,0.5,2.4,0.4,1.9,0.2C1.7,0.2,1.5,0.1,1.3,0.1C1.2,0,1,0,0.8,0L0.4,0
			C0.3,0,0.2,0,0.1,0.1C0.1,0.1,0,0.1,0,0.2l0,0.1"/>
	</g>
	<g id="SPLINE-119" transform="translate(1608.367 352.159)">
		<path id="Path_829" class="st1" d="M4.3,4.2c-0.2,0-0.3,0-0.5,0c-0.1,0-0.2,0-0.3,0L3.2,4.1C3,4.1,2.9,4,2.7,3.9
			C2.6,3.8,2.5,3.7,2.3,3.6C2.1,3.5,2,3.4,1.8,3.2C1.6,3.1,1.5,2.9,1.3,2.7C1.2,2.6,1.1,2.4,1,2.3C0.9,2.1,0.8,1.9,0.7,1.8
			C0.5,1.5,0.4,1.2,0.3,0.9C0.1,0.6,0.1,0.3,0,0"/>
	</g>
	<g id="SPLINE-120" transform="translate(1608.28 346.352)">
		<path id="Path_830" class="st1" d="M0.1,5.8C0.1,5.5,0,5.2,0,4.9c0-0.3,0-0.7,0-1c0-0.2,0.1-0.4,0.1-0.6c0-0.2,0.1-0.4,0.1-0.6
			c0.1-0.2,0.2-0.4,0.3-0.6c0.1-0.2,0.2-0.4,0.3-0.6C0.9,1.4,1,1.2,1.1,1.1c0.1-0.1,0.2-0.3,0.3-0.4C1.6,0.5,1.8,0.4,2,0.3
			C2.2,0.1,2.3,0.1,2.5,0l0.1,0"/>
	</g>
	<g id="LWPOLYLINE-3" transform="translate(1614.463 350.68)">
		<path id="Path_831" class="st1" d="M0,0L0,0"/>
	</g>
	<g id="SPLINE-121" transform="translate(1601.514 383.755)">
		<path id="Path_832" class="st1" d="M0,1.1C0.3,1,0.5,1,0.8,0.9c0.5-0.1,1-0.3,1.5-0.4s1-0.3,1.4-0.4C3.8,0.1,4,0.1,4.1,0"/>
	</g>
	<g id="SPLINE-122" transform="translate(1609.665 352.628)">
		<path id="Path_833" class="st1" d="M0,29.5c1.4-0.6,2.8-1.3,4.1-2c1.4-0.7,2.7-1.6,4-2.5c1.3-0.9,2.6-2,3.8-3
			c1.3-1.1,2.5-2.3,3.6-3.5c1.2-1.3,2.3-2.6,3.4-4c1.1-1.4,2.1-2.9,3.1-4.4s2-3.2,2.9-4.9s1.7-3.5,2.6-5.3"/>
	</g>
	<g id="LINE-46" transform="translate(1605.95 194.576)">
		<line id="Line_842" class="st1" x1="2.8" y1="2.8" x2="0" y2="0"/>
	</g>
	<g id="SPLINE-123" transform="translate(1597.546 369.066)">
		<path id="Path_834" class="st1" d="M0,1.2c0.9-0.3,1.8-0.6,2.7-0.8c1-0.2,2-0.3,3-0.4c1,0,2,0,3.1,0.1c1,0.1,2.1,0.3,3.1,0.6
			c1,0.3,2,0.7,3,1.2"/>
	</g>
	<g id="SPLINE-124" transform="translate(1601.658 223.935)">
		<path id="Path_835" class="st1" d="M0,0c1.1,1.8,2.2,3.5,3.3,5.4c1,1.8,2.1,3.8,3.1,5.7s1.9,3.9,2.8,6c0.9,2,1.8,4.1,2.6,6.2
			c0.8,2.1,1.6,4.2,2.3,6.4c0.7,2.2,1.4,4.3,2.1,6.6c0.6,2.2,1.2,4.4,1.8,6.7s1,4.5,1.5,6.8s0.9,4.5,1.2,6.9
			c0.4,2.3,0.6,4.6,0.9,6.9c0.3,2.3,0.5,4.6,0.6,6.9s0.3,4.5,0.3,6.8s0,4.5,0,6.7c-0.1,2.2-0.2,4.4-0.3,6.6
			c-0.2,2.2-0.4,4.3-0.6,6.4s-0.6,4.2-0.9,6.2c-0.3,1.6-0.6,3.2-1,4.7"/>
	</g>
	<g id="SPLINE-125" transform="translate(1609.377 382.168)">
		<path id="Path_836" class="st1" d="M0.3,0c0,0.1-0.1,0.2-0.2,0.2c0,0-0.1,0-0.1,0.1"/>
	</g>
	<g id="SPLINE-126" transform="translate(1587.664 371.492)">
		<path id="Path_837" class="st1" d="M0,7.7C0,7.7,0,7.7,0,7.7C0,7.7,0,7.7,0,7.7C0.1,7.8,0.2,7.9,0.3,8c0.2,0.1,0.3,0.3,0.5,0.4
			C1,8.6,1.3,8.7,1.5,8.7C1.7,8.8,1.8,8.9,2,8.9C2.2,8.9,2.4,9,2.6,9c0.2,0,0.5,0.1,0.7,0.1c0.1,0,0.3,0,0.4,0h0.5
			c0.2,0,0.4,0,0.6,0c0.3,0,0.5,0,0.7-0.1c0.3,0,0.6-0.1,0.9-0.1c0.3-0.1,0.6-0.1,0.9-0.2c0.3-0.1,0.5-0.1,0.8-0.2
			C8.4,8.4,8.7,8.3,9,8.2C9.2,8.1,9.4,8,9.7,7.9c0.2-0.1,0.4-0.2,0.6-0.3c0.2-0.1,0.4-0.2,0.6-0.3c0.3-0.1,0.5-0.2,0.8-0.4
			c0.2-0.1,0.5-0.2,0.7-0.4c0.2-0.1,0.5-0.2,0.7-0.4L13.7,6c0.3-0.2,0.6-0.4,0.9-0.5s0.6-0.4,0.9-0.5c0.3-0.2,0.6-0.3,0.8-0.5
			c0.5-0.3,1-0.6,1.5-0.9c0.5-0.3,0.9-0.5,1.3-0.8C19.6,2.5,20,2.2,20.4,2c0.1-0.1,0.3-0.1,0.4-0.2c0.1-0.1,0.2-0.1,0.4-0.2
			c0.1-0.1,0.2-0.1,0.4-0.2c0.1-0.1,0.3-0.1,0.4-0.2s0.3-0.1,0.4-0.2c0.2-0.1,0.4-0.1,0.5-0.2c0.2-0.1,0.3-0.1,0.5-0.2
			c0.1,0,0.2-0.1,0.4-0.1c0.1,0,0.3-0.1,0.4-0.1l0.3-0.1c0.1,0,0.2-0.1,0.3-0.1C24.8,0.1,24.9,0,25,0"/>
	</g>
	<g id="SPLINE-127" transform="translate(1596.464 382.168)">
		<path id="Path_838" class="st1" d="M0,3.4C0,3.4,0,3.4,0,3.4C0,3.4,0,3.4,0,3.4l0.4,0c0.1,0,0.2,0,0.3,0c0.1,0,0.2,0,0.3,0
			s0.2,0,0.3,0c0.2,0,0.4-0.1,0.7-0.1S2.6,3.1,2.9,3l0.5-0.1c0.2,0,0.4-0.1,0.6-0.1c0.2,0,0.4-0.1,0.6-0.1c0.1,0,0.3-0.1,0.4-0.1
			l0.4-0.1c0.1,0,0.3-0.1,0.5-0.1c0.2,0,0.3-0.1,0.5-0.1c0.1,0,0.3-0.1,0.4-0.1C7,2,7.1,2,7.3,1.9c0.2,0,0.3-0.1,0.5-0.1
			c0.1,0,0.2-0.1,0.3-0.1c0.3-0.1,0.5-0.1,0.8-0.2C9,1.4,9.2,1.4,9.4,1.3C9.7,1.2,10,1.1,10.3,1c0.1,0,0.3-0.1,0.5-0.1
			s0.3-0.1,0.4-0.1c0.2-0.1,0.4-0.1,0.5-0.2L12,0.4c0.2-0.1,0.4-0.1,0.6-0.2s0.4-0.1,0.6-0.2"/>
	</g>
	<g id="LINE-47" transform="translate(1539.115 237.425)">
		<line id="Line_843" class="st1" x1="0.1" y1="0" x2="0" y2="0"/>
	</g>
	<g id="SPLINE-128" transform="translate(1535.148 230.608)">
		<path id="Path_839" class="st1" d="M2.4,5.8L2.4,5.8C2.3,5.7,2.2,5.6,2.1,5.6C2,5.5,1.9,5.4,1.8,5.3C1.7,5.3,1.6,5.2,1.6,5.1
			C1.5,5,1.4,5,1.3,4.9C1.2,4.8,1.2,4.7,1.1,4.6S0.9,4.4,0.9,4.4C0.8,4.3,0.7,4.2,0.7,4.1C0.6,4,0.6,3.9,0.5,3.9
			C0.4,3.7,0.3,3.6,0.3,3.4C0.2,3.2,0.1,3.1,0.1,2.9C0,2.7,0,2.5,0,2.3c0-0.3,0-0.5,0.1-0.8c0.1-0.2,0.2-0.5,0.4-0.6
			C0.8,0.7,1,0.5,1.3,0.4c0.3-0.2,0.6-0.3,1-0.4"/>
	</g>
	<g id="SPLINE-129" transform="translate(1544.742 221.663)">
		<path id="Path_840" class="st1" d="M0.4,0.3C0.3,0.1,0.2,0,0.1,0L0,0"/>
	</g>
	<g id="SPLINE-130" transform="translate(1574.066 240.563)">
		<path id="Path_841" class="st1" d="M0,0c0.2,0,0.4,0,0.5,0.1c0.1,0,0.1,0,0.2,0.1c0,0,0,0,0,0.1"/>
	</g>
	<g id="LINE-48" transform="translate(1514.481 236.652)">
		<line id="Line_844" class="st1" x1="0" y1="0" x2="0" y2="0"/>
	</g>
	<g id="ARC-8" transform="translate(1517.871 249.328)">
		<path id="Path_842" class="st1" d="M0,0c0.5,1.7,1.4,3.3,2.7,4.6"/>
	</g>
	<g id="SPLINE-131" transform="translate(1529.233 265.775)">
		<path id="Path_843" class="st1" d="M6.9,8.6c-0.1,0-0.1,0-0.2,0C6.4,8.5,6.2,8.4,6,8.4C5.8,8.3,5.6,8.2,5.4,8.1
			C5.3,8,5.1,7.9,4.9,7.7C4.8,7.6,4.7,7.5,4.5,7.4C4.4,7.3,4.2,7.1,4.1,7C4,6.9,3.9,6.7,3.7,6.6C3.6,6.4,3.4,6.2,3.3,6.1
			C3.2,5.9,3.1,5.7,2.9,5.5S2.7,5.1,2.5,4.9S2.3,4.5,2.1,4.3S1.9,3.8,1.7,3.5C1.6,3.4,1.6,3.3,1.5,3.2S1.4,3,1.3,2.9
			S1.2,2.7,1.2,2.6C1.1,2.4,1,2.3,1,2.2C0.9,2.1,0.9,1.9,0.8,1.8c0-0.1-0.1-0.2-0.1-0.3c0-0.1-0.1-0.2-0.1-0.3
			c0-0.1-0.1-0.2-0.1-0.3C0.3,0.6,0.1,0.3,0,0"/>
	</g>
	<g id="LWPOLYLINE-4" transform="translate(1542.325 243.593)">
		<path id="Path_844" class="st1" d="M8.8,2.8l0,0.1L8.5,3.3L8,3.6L7.4,3.8L6.7,3.9H5.9L5.1,3.8L4.2,3.6L3.3,3.3L2.4,2.9L1.7,2.5
			L1,2L0.5,1.5L0.2,1L0,0.6l0-0.5L0,0"/>
	</g>
	<g id="SPLINE-132" transform="translate(1594.661 351.258)">
		<path id="Path_845" class="st1" d="M0.1,1.7L0.1,1.7L0.1,1.7C0,1.5,0,1.3,0,1.2C0,1,0,0.8,0.1,0.7c0-0.1,0.1-0.2,0.1-0.3
			c0-0.1,0.1-0.1,0.2-0.2c0.1-0.1,0.1-0.1,0.2-0.1C0.7,0,0.8,0,0.9,0"/>
	</g>
	<g id="ARC-9" transform="translate(1543.191 274.202)">
		<path id="Path_846" class="st1" d="M0.3,0C0.2,0,0.1,0,0,0.1"/>
	</g>
	<g id="SPLINE-133" transform="translate(1595.491 355.875)">
		<path id="Path_847" class="st1" d="M1.8,1.4c-0.1,0-0.2,0-0.3,0c-0.1,0-0.2,0-0.3,0c-0.1,0-0.1,0-0.2-0.1C0.9,1.2,0.8,1.2,0.7,1.1
			C0.6,1,0.5,0.9,0.4,0.8C0.4,0.8,0.3,0.7,0.3,0.6C0.2,0.4,0.1,0.2,0,0"/>
	</g>
	<g id="LWPOLYLINE-5" transform="translate(1531.324 237.245)">
		<path id="Path_848" class="st1" d="M8.8,2.8l0,0.1L8.5,3.3L8,3.6L7.4,3.8L6.7,3.9H5.9L5,3.8L4.1,3.6L3.2,3.3L2.4,2.9L1.7,2.5L1,2
			L0.5,1.5L0.2,1L0,0.5l0-0.5L0,0"/>
	</g>
	<g id="SPLINE-134" transform="translate(1556.681 246.586)">
		<path id="Path_849" class="st1" d="M0,0L0,0c0.1,0,0.1,0,0.1,0l0.1,0.1"/>
	</g>
	<g id="SPLINE-135" transform="translate(1556.464 249.869)">
		<path id="Path_850" class="st1" d="M0,0c0.3,0.2,0.7,0.4,1,0.5c0.3,0.1,0.6,0.2,0.9,0.3c0.3,0.1,0.6,0.1,0.9,0.1
			c0.3,0,0.5-0.1,0.8-0.1c0.2-0.1,0.4-0.2,0.5-0.4C4.2,0.3,4.3,0.1,4.3,0"/>
	</g>
	<g id="ARC-10" transform="translate(1520.504 253.944)">
		<path id="Path_851" class="st1" d="M0,0c0,0.2,0.1,0.3,0.2,0.5"/>
	</g>
	<g id="ARC-11" transform="translate(1528.475 265.126)">
		<path id="Path_852" class="st1" d="M0,0c0.1,0.3,0.4,0.6,0.8,0.6"/>
	</g>
	<g id="SPLINE-136" transform="translate(1526.383 261.844)">
		<path id="Path_853" class="st1" d="M0.5,9.1c0,0-0.1,0-0.1,0c0,0-0.1,0-0.1-0.1L0.2,8.9C0.2,8.8,0.1,8.7,0.1,8.6
			c0-0.1,0-0.2-0.1-0.3C0,8.1,0,8,0,7.8l0-1.2c0-0.5,0-1,0.1-1.7c0-0.5,0.1-1,0.1-1.6c0-0.5,0.1-1,0.1-1.6c0-0.4,0.1-0.9,0.1-1.3
			c0-0.2,0-0.3,0-0.5"/>
	</g>
	<g id="SPLINE-137" transform="translate(1586.654 192.123)">
		<path id="Path_854" class="st1" d="M22.8,8.8c-0.1-0.1-0.3-0.2-0.4-0.3S22.1,8.2,22,8.1c-0.1-0.1-0.3-0.3-0.5-0.4
			c-0.2-0.1-0.4-0.3-0.6-0.5c-0.3-0.2-0.5-0.4-0.8-0.6c-0.1-0.1-0.2-0.1-0.3-0.2s-0.2-0.1-0.3-0.2l-0.4-0.3
			c-0.2-0.1-0.3-0.3-0.5-0.4c-0.2-0.1-0.4-0.3-0.5-0.4s-0.4-0.3-0.5-0.4c-0.3-0.2-0.5-0.4-0.8-0.6s-0.6-0.4-0.9-0.6S15.3,3.2,15,3
			c-0.3-0.1-0.5-0.3-0.8-0.5c-0.2-0.1-0.4-0.2-0.6-0.3C13.4,2.1,13.2,2,13,1.9c-0.3-0.1-0.5-0.3-0.8-0.4c-0.2-0.1-0.4-0.1-0.5-0.2
			l-0.5-0.2c-0.4-0.1-0.7-0.3-1-0.4C9.9,0.6,9.6,0.6,9.4,0.5S8.9,0.4,8.7,0.3L8.3,0.2C8.1,0.2,8,0.1,7.8,0.1L7.1,0
			C6.8,0,6.5,0,6.3,0L5.6,0C5.3,0,5.1,0,4.9,0c-0.2,0-0.4,0-0.6,0.1L3.8,0.2c-0.1,0-0.3,0.1-0.5,0.1L2.9,0.4c-0.1,0-0.3,0.1-0.4,0.1
			C2.3,0.6,2.1,0.7,1.8,0.8C1.7,0.9,1.5,1,1.3,1.1C1.2,1.1,1.1,1.2,1,1.3c-0.1,0-0.2,0.1-0.3,0.1C0.6,1.5,0.4,1.6,0.3,1.7
			C0.2,1.8,0.1,1.9,0,1.9l0,0"/>
	</g>
	<g id="LINE-49" transform="translate(1607.682 346.316)">
		<line id="Line_845" class="st2" x1="3.2" y1="0" x2="0" y2="0.6"/>
	</g>
	<g id="LINE-50" transform="translate(1609.413 356.379)">
		<line id="Line_846" class="st2" x1="0" y1="0.6" x2="3.2" y2="0"/>
	</g>
	<g id="SPLINE-138" transform="translate(1610.892 346.3)">
		<path id="Path_855" class="st3" d="M3.6,4.4c-0.1-0.5-0.2-1-0.4-1.4C3.1,2.6,3,2.2,2.8,1.9C2.7,1.6,2.5,1.4,2.4,1.1
			C2.3,1,2.1,0.8,2,0.7C1.9,0.6,1.8,0.5,1.7,0.4C1.6,0.3,1.5,0.3,1.3,0.2C1.1,0.1,1,0,0.8,0C0.5,0,0.2,0,0,0"/>
	</g>
	<g id="SPLINE-139" transform="translate(1612.623 350.644)">
		<path id="Path_856" class="st2" d="M0,5.7c0.3-0.1,0.5-0.1,0.8-0.3c0.2-0.1,0.3-0.2,0.5-0.4C1.4,5,1.5,4.8,1.5,4.7
			c0.1-0.1,0.1-0.2,0.2-0.4c0.1-0.2,0.1-0.4,0.2-0.6C2,3.4,2,3.1,2,2.8c0-0.4,0-0.8,0-1.3C2,1.3,2,1.1,2,0.8c0-0.3-0.1-0.6-0.1-0.8"
			/>
	</g>
	<g id="SPLINE-140" transform="translate(1601.514 383.755)">
		<path id="Path_857" class="st2" d="M0,1.1C0.3,1,0.5,1,0.8,0.9c0.5-0.1,1-0.3,1.5-0.4C2.9,0.4,3.5,0.2,4.1,0"/>
	</g>
	<g id="SPLINE-141" transform="translate(1609.377 198.038)">
		<path id="Path_858" class="st3" d="M0,0c0.4,0.4,0.8,0.8,1.1,1.2c1.1,1.2,2.2,2.5,3.3,3.7s2.1,2.5,3.2,3.8s2.1,2.6,3,3.9
			c1,1.3,2,2.7,2.9,4c0.1,0.1,0.2,0.3,0.3,0.4c0.6,0.9,1.4,2.3,1.9,3.1"/>
	</g>
	<g id="LINE-51" transform="translate(1597.546 370.158)">
		<line id="Line_847" class="st2" x1="0.2" y1="0" x2="0" y2="0.1"/>
	</g>
	<g id="SPLINE-142" transform="translate(1609.413 352.881)">
		<path id="Path_859" class="st3" d="M0,29.6c0.6-0.3,1.3-0.5,1.9-0.8c0.6-0.3,1.1-0.5,1.7-0.8c0.5-0.3,1-0.5,1.4-0.8
			c0.4-0.3,0.8-0.5,1.2-0.7l1-0.6c0.3-0.2,0.5-0.4,0.8-0.6c0.4-0.3,0.9-0.6,1.3-0.9s0.9-0.7,1.3-1l1.3-1.1c0.4-0.4,0.8-0.7,1.2-1.1
			c0.4-0.4,0.7-0.7,1.1-1l1.2-1.2c0.5-0.5,0.9-1,1.3-1.5s0.9-1,1.3-1.6c0.6-0.7,1.2-1.5,1.7-2.2l1.6-2.3c0.5-0.8,1-1.6,1.6-2.4
			c0.5-0.8,1-1.7,1.5-2.5c0.5-0.9,1-1.8,1.4-2.7c0.5-0.9,1-1.9,1.4-2.9L27.7,0"/>
	</g>
	<g id="SPLINE-143" transform="translate(1605.914 194.54)">
		<path id="Path_860" class="st3" d="M3.4,3.4C2.8,2.8,2.3,2.2,1.7,1.7S0.6,0.5,0,0"/>
	</g>
	<g id="SPLINE-144" transform="translate(1584.526 344.044)">
		<path id="Path_861" class="st3" d="M0,0c0.5,1.2,0.9,2.3,1.4,3.4l2.9,7.1c1,2.5,2,4.9,3,7.4c1,2.6,2.1,5.1,3.1,7.6
			c0.2,0.5,0.4,0.9,0.6,1.4"/>
	</g>
	<g id="SPLINE-145" transform="translate(1541.532 274.395)">
		<path id="Path_862" class="st3" d="M0,0c0.7,0.3,1.2,0.6,1.9,0.9C2.2,1,2.8,1.3,3.1,1.5"/>
	</g>
	<path id="Path_863" class="st2" d="M1614.7,352.5c0.2,1.2,0.4,2.1,0.4,2.5"/>
	<path id="Path_864" class="st3" d="M1574.6,249.8l1.3,1.3c0.4,0.4,0.9,0.9,1.3,1.3c0.2,0.2,0.4,0.5,0.6,0.7
		c0.1,0.2,0.3,0.3,0.5,0.5c0.1,0.1,0.2,0.3,0.3,0.4c0.4,0.4,0.7,0.8,1.1,1.2c0.4,0.5,0.9,1,1.3,1.6c0.5,0.6,1,1.2,1.6,1.9
		c0.6,0.7,1.2,1.4,1.7,2.2c1.2,1.5,2.2,3,3.3,4.6c1,1.6,2.1,3.2,3.1,4.9s1.9,3.5,2.8,5.2c0.9,1.8,1.8,3.7,2.6,5.6
		c0.5,1.2,1,2.3,1.4,3.5c0.5,1.2,1,2.5,1.4,3.8c0.5,1.3,1,2.7,1.4,4c0.5,1.4,1,2.9,1.4,4.4c0.5,1.6,1,3.2,1.4,4.8
		c0.5,1.7,1,3.5,1.5,5.2c0.4,1.6,0.9,3.2,1.3,4.8c0.5,1.7,0.9,3.5,1.3,5.2c0.5,1.9,0.9,3.8,1.4,5.7c0.5,2.1,0.9,4.1,1.4,6.2
		c0.5,2.3,1,4.6,1.4,6.9c0.5,2.5,1,4.9,1.4,7.4c0.3,1.5,0.5,3,0.8,4.4c0.1,0.4,0.2,1.2,0.4,1.9"/>
	<g id="SPLINE-146" transform="translate(1615.184 354.973)">
		<path id="Path_865" class="st2" d="M1.6,9C1.3,7.4,1,5.8,0.7,4.1C0.5,2.7,0.3,1.4,0,0"/>
	</g>
	<g id="SPLINE-147" transform="translate(1544.778 275.982)">
		<path id="Path_866" class="st3" d="M0,0c0.3,0.1,0.6,0.3,0.9,0.5c0.6,0.3,1.2,0.6,1.8,1c0.5,0.3,1,0.6,1.5,0.9
			C4.6,2.7,5,3,5.4,3.3C5.9,3.6,6.3,4,6.8,4.4C7.1,4.7,7.5,5,7.9,5.3c0.3,0.3,0.5,0.5,0.8,0.8c0.3,0.3,0.5,0.5,0.8,0.8
			c0.3,0.3,0.6,0.6,0.8,0.9c0.3,0.4,0.6,0.7,1,1.1c0.4,0.4,0.8,0.9,1.1,1.4c0.6,0.7,1.1,1.5,1.7,2.3c0.6,0.9,1.2,1.8,1.8,2.7
			c0.5,0.9,1,1.7,1.6,2.6c0.5,0.8,0.9,1.6,1.3,2.4c0.4,0.7,0.8,1.4,1.1,2.1c0.3,0.6,0.6,1.2,0.9,1.8c0.2,0.4,0.4,0.9,0.6,1.3
			c0.2,0.3,0.3,0.7,0.5,1c0.1,0.3,0.3,0.5,0.4,0.8c0.2,0.4,0.4,0.7,0.5,1.1c0.3,0.5,0.5,1,0.7,1.6c0.3,0.7,0.6,1.3,0.9,2
			c0.4,0.8,0.8,1.7,1.1,2.5c0.4,0.9,0.8,1.8,1.2,2.6c0.4,1,0.9,2.1,1.3,3.1l1.5,3.6c0.6,1.4,1.2,2.7,1.7,4.1
			c0.6,1.6,1.3,3.1,1.9,4.6l2.2,5.2c0.8,1.9,1.6,3.9,2.4,5.8c0.6,1.5,1.2,3,1.8,4.4"/>
	</g>
	<g id="SPLINE-148" transform="translate(1587.664 370.23)">
		<path id="Path_867" class="st3" d="M9.9,0C9.3,0.2,8.7,0.4,8.2,0.7C7.7,0.9,7.3,1.1,6.8,1.3c-0.3,0.2-0.7,0.4-1,0.5
			C5.6,2,5.4,2.1,5.1,2.3L4.6,2.6C4.4,2.7,4.3,2.8,4.1,2.9S3.8,3.1,3.6,3.2C3.4,3.4,3.2,3.5,3.1,3.6C2.9,3.8,2.6,4,2.4,4.1
			S2,4.5,1.8,4.7C1.5,4.9,1.3,5.2,1,5.4C0.8,5.7,0.6,5.9,0.4,6.1L0.1,6.4C0,6.5,0,6.5,0,6.5"/>
	</g>
	<g id="SPLINE-149" transform="translate(1587.267 376.722)">
		<path id="Path_868" class="st3" d="M0.5,0C0.4,0.2,0.2,0.4,0.1,0.6C0,0.8,0,1.1,0,1.3C0,1.5,0,1.8,0.1,2c0.1,0.2,0.1,0.3,0.3,0.4
			c0.4,0.7,0.9,1.3,1.6,1.8"/>
	</g>
	<g id="SPLINE-150" transform="translate(1589.178 380.978)">
		<path id="Path_869" class="st3" d="M0,0c0.7,0.5,1.4,1,2.2,1.4c0.7,0.4,1.4,0.9,2.1,1.3L6.2,4c0.3,0.2,0.7,0.4,1,0.6"/>
	</g>
	<g id="SPLINE-151" transform="translate(1514.408 220.04)">
		<path id="Path_870" class="st3" d="M30.4,1.6c-0.7-0.2-1.5-0.4-2.2-0.5c-1-0.2-2.1-0.4-3.1-0.5c-0.9-0.1-1.9-0.3-2.8-0.3
			c-0.8-0.1-1.6-0.1-2.5-0.2c-0.7,0-1.4,0-2.1,0c-0.6,0-1.2,0-1.8,0l-1.7,0.1c-0.5,0-0.9,0.1-1.4,0.1c-0.4,0.1-0.9,0.1-1.3,0.2
			c-0.5,0.1-0.9,0.2-1.3,0.3C9.8,0.9,9.3,1,8.9,1.1C8.3,1.3,7.7,1.5,7.2,1.7c-0.5,0.2-1,0.4-1.4,0.6C5.3,2.5,5,2.7,4.6,2.9
			C4.4,3.1,4.1,3.2,3.8,3.4C3.6,3.6,3.4,3.7,3.1,3.9C2.9,4.1,2.7,4.3,2.4,4.5C2.2,4.8,1.9,5.1,1.7,5.4C1.4,5.8,1.1,6.2,0.9,6.6
			C0.5,7.2,0.3,7.8,0,8.4"/>
	</g>
	<g id="SPLINE-152" transform="translate(1574.571 240.78)">
		<path id="Path_871" class="st3" d="M0.2,0c0.1,0.1,0.1,0.3,0.2,0.4c0.1,0.4,0.3,0.7,0.4,1.1C0.8,1.8,0.9,2.2,1,2.5
			C1,2.7,1,2.9,1.1,3.1c0,0.1,0,0.3,0,0.4V4c0,0.3,0,0.5,0,0.8C1,5.1,1,5.4,1,5.8C0.9,6.2,0.8,6.6,0.7,7.1C0.6,7.8,0.3,8.4,0,9"/>
	</g>
	<g id="LINE-52" transform="translate(1513.867 228.993)">
		<path id="Path_872" class="st3" d="M0.5,0L0.5,0C0,1.6-0.1,3.3,0.2,5"/>
	</g>
	<g id="SPLINE-153" transform="translate(1536.085 274.359)">
		<path id="Path_873" class="st3" d="M0,0c0.3,0,0.6,0.1,1,0.1c0.4,0,0.8,0.1,1.2,0.1l1.3,0c0.5,0,0.9,0,1.4-0.1
			C5.1,0.1,5.3,0,5.5,0"/>
	</g>
	<g id="SPLINE-154" transform="translate(1514.071 234.369)">
		<path id="Path_874" class="st3" d="M0,0c0.5,2.1,1,4.1,1.5,6.2c0.4,1.7,0.8,3.5,1.3,5.2c0.3,1.1,0.5,2.2,0.9,3.3"/>
	</g>
	<g id="SPLINE-155" transform="translate(1605.662 382.421)">
		<path id="Path_875" class="st3" d="M0,1.3C0.4,1.2,0.7,1.1,1,1c0.4-0.1,0.6-0.2,1-0.3C2.6,0.5,3.2,0.2,3.8,0"/>
	</g>
	<g id="SPLINE-156" transform="translate(1596.428 384.909)">
		<path id="Path_876" class="st3" d="M0,0.6c0.1,0,0.2,0.1,0.3,0.1c0.1,0,0.3,0,0.4,0c0.4,0,0.8,0,1.2-0.1c0.5-0.1,1-0.1,1.5-0.3
			S4.5,0.1,5.1,0"/>
	</g>
	<g id="SPLINE-157" transform="translate(1547.555 242.294)">
		<path id="Path_877" class="st2" d="M3.6,4.1L3.6,4.1c0.1-0.2,0.1-0.4,0.1-0.6c0-0.2,0-0.4-0.1-0.5c0-0.2-0.1-0.4-0.2-0.5
			C3.2,2.2,3.1,2.1,3,1.9C2.9,1.8,2.8,1.6,2.6,1.5C2.5,1.4,2.3,1.2,2.2,1.1C2,1,1.8,0.9,1.7,0.8C1.5,0.7,1.4,0.6,1.2,0.5L0.8,0.3
			C0.5,0.2,0.3,0.1,0,0"/>
	</g>
	<g id="SPLINE-158" transform="translate(1542.326 241.97)">
		<path id="Path_878" class="st2" d="M5.2,0.4C4.9,0.3,4.7,0.3,4.4,0.2c-0.1,0-0.2,0-0.3-0.1c-0.2,0-0.4,0-0.5-0.1C3.4,0,3.2,0,3,0
			C2.8,0,2.6,0,2.5,0c-0.2,0-0.4,0-0.5,0.1c-0.2,0-0.3,0.1-0.5,0.1C1.2,0.3,1.1,0.4,0.9,0.5C0.8,0.5,0.7,0.6,0.5,0.8
			C0.4,0.9,0.3,1,0.2,1.2L0,1.6"/>
	</g>
	<g id="LINE-53" transform="translate(1550.657 246.37)">
		<line id="Line_848" class="st2" x1="0" y1="1.6" x2="0.5" y2="0"/>
	</g>
	<g id="LINE-54" transform="translate(1541.929 243.593)">
		<line id="Line_849" class="st2" x1="0.4" y1="0" x2="0" y2="1.4"/>
	</g>
	<g id="SPLINE-159" transform="translate(1536.554 235.946)">
		<path id="Path_879" class="st2" d="M3.6,4.1L3.6,4.1c0.1-0.2,0.1-0.4,0.1-0.6c0-0.2,0-0.4-0.1-0.5c0-0.2-0.1-0.4-0.2-0.5
			C3.2,2.2,3.1,2.1,3,1.9C2.9,1.8,2.8,1.6,2.6,1.5C2.5,1.4,2.3,1.2,2.2,1.1C2,1,1.8,0.9,1.7,0.8C1.5,0.7,1.4,0.6,1.2,0.5L0.8,0.3
			C0.5,0.2,0.3,0.1,0,0"/>
	</g>
	<g id="SPLINE-160" transform="translate(1531.325 235.622)">
		<path id="Path_880" class="st2" d="M5.2,0.4C4.9,0.3,4.7,0.3,4.4,0.2c-0.1,0-0.2,0-0.3-0.1c-0.2,0-0.4,0-0.5-0.1C3.4,0,3.2,0,3,0
			C2.8,0,2.6,0,2.5,0c-0.2,0-0.4,0-0.5,0.1c-0.2,0-0.3,0.1-0.5,0.1C1.2,0.3,1.1,0.4,0.9,0.5C0.8,0.5,0.7,0.6,0.5,0.8
			C0.4,0.9,0.3,1,0.2,1.2L0,1.6"/>
	</g>
	<g id="LINE-55" transform="translate(1539.656 240.022)">
		<line id="Line_850" class="st2" x1="0" y1="1.4" x2="0.5" y2="0"/>
	</g>
	<g id="LINE-56" transform="translate(1530.783 237.245)">
		<line id="Line_851" class="st2" x1="0.6" y1="0" x2="0" y2="1.8"/>
	</g>
	<g id="SPLINE-161" transform="translate(1556.609 246.607)">
		<path id="Path_881" class="st2" d="M4.2,3.2c0-0.1,0-0.1,0.1-0.2c0-0.1,0-0.2,0-0.4c0-0.2-0.1-0.4-0.2-0.6
			C3.9,1.8,3.7,1.5,3.5,1.2C3.3,1.1,3.2,1,3.1,0.9C2.8,0.8,2.6,0.6,2.4,0.5C2,0.3,1.7,0.2,1.3,0.1C1.1,0,0.9,0,0.7,0
			C0.5,0,0.2,0,0,0"/>
	</g>
	<g id="LINE-57" transform="translate(1560.792 249.869)">
		<line id="Line_852" class="st2" x1="0" y1="0" x2="0" y2="0"/>
	</g>
	<g id="LINE-58" transform="translate(1555.13 247.488)">
		<line id="Line_853" class="st2" x1="0" y1="0" x2="0" y2="0.1"/>
	</g>
	<g id="SPLINE-162" transform="translate(1555.13 246.586)">
		<path id="Path_882" class="st2" d="M1.6,0C1.4,0,1.2,0.1,1,0.1c-0.2,0-0.3,0.1-0.5,0.2C0.4,0.4,0.3,0.5,0.2,0.6
			C0.1,0.7,0.1,0.8,0,0.9"/>
	</g>
	<g id="SPLINE-163" transform="translate(1520.756 254.414)">
		<path id="Path_883" class="st3" d="M0,0c0.2,0.3,0.4,0.5,0.7,0.8C0.9,1,1.1,1.2,1.4,1.5C1.6,1.8,1.8,2,2.1,2.3L2.7,3
			c0.2,0.3,0.4,0.5,0.6,0.7C3.5,4,3.7,4.2,3.9,4.4c0.3,0.4,0.6,0.8,0.9,1.1c0.3,0.3,0.5,0.7,0.7,1C5.7,7,6,7.4,6.2,7.8
			C6.5,8.3,6.8,8.7,7,9.2c0.3,0.5,0.5,1,0.7,1.6"/>
	</g>
	<g id="SPLINE-164" transform="translate(1526.852 270.933)">
		<path id="Path_884" class="st3" d="M0,0c0.3,0.1,0.6,0.2,1,0.3c0.6,0.1,1.1,0.2,1.7,0.3c0.6,0.1,1.2,0.1,1.7,0.1h0.6"/>
	</g>
	<g id="SPLINE-165" transform="translate(1522.524 256.361)">
		<path id="Path_885" class="st3" d="M0,0c0.1,0.5,0.3,1,0.4,1.5C0.7,2.3,0.9,3.2,1.1,4c0.1,0.7,0.3,1.3,0.4,2
			c0.1,0.5,0.2,1,0.3,1.5c0,0.3,0.1,0.5,0.1,0.8C2,8.4,2,8.6,2,8.8c0,0.3,0.1,0.5,0.1,0.7c0,0.3,0.1,0.6,0.1,1
			c0.1,0.4,0.1,0.9,0.1,1.3c0,0.1,0,0.3,0,0.5"/>
	</g>
	<g id="SPLINE-166" transform="translate(1525.049 268.588)">
		<path id="Path_886" class="st3" d="M0,0c0.1,0.4,0.2,0.7,0.3,1c0.1,0.3,0.3,0.6,0.6,0.8C1,2,1.3,2.2,1.5,2.3
			c0.1,0,0.2,0.1,0.3,0.1"/>
	</g>
	<g id="SPLINE-167" transform="translate(1528.475 265.126)">
		<path id="Path_887" class="st3" d="M0,0c0.4,0.9,0.8,1.8,1.2,2.6C1.5,3.3,1.8,4,2.2,4.7c0.3,0.5,0.6,1,0.9,1.4
			c0.3,0.3,0.5,0.6,0.8,0.9c0.1,0.1,0.3,0.3,0.4,0.4l0.3,0.3C4.8,7.9,4.9,8,5.1,8.1l0.6,0.4C6,8.7,6.3,8.9,6.6,9
			C7,9.1,7.3,9.2,7.7,9.3"/>
	</g>
	<g id="SPLINE-168" transform="translate(1517.871 249.292)">
		<path id="Path_888" class="st3" d="M0,0c0,0,0.1,0.4,0.1,0.4c0.1,0.4,0.3,0.7,0.4,1.1L1,2.6C1.3,3,1.5,3.3,1.7,3.7
			C2,4.1,2.3,4.4,2.6,4.8C2.7,4.9,2.8,5,2.9,5.1"/>
	</g>
	<g id="SPLINE-169" transform="translate(1578.827 222.384)">
		<path id="Path_889" class="st3" d="M0,12.1c1.3-0.8,2.6-1.5,3.9-2.3c1.2-0.7,2.5-1.4,3.7-2.1L10.7,6c0.9-0.5,1.7-0.9,2.6-1.4
			c0.7-0.4,1.4-0.8,2.1-1.1c0.3-0.1,0.6-0.3,0.9-0.5c0.3-0.1,0.5-0.3,0.8-0.4c0.2-0.1,0.4-0.2,0.6-0.3c0.3-0.1,0.5-0.3,0.7-0.4
			c0.4-0.2,0.7-0.4,1.1-0.6c0.5-0.3,0.9-0.5,1.4-0.8c0.4-0.2,0.7-0.4,1-0.6"/>
	</g>
	<g id="SPLINE-170" transform="translate(1556.717 221.555)">
		<path id="Path_890" class="st3" d="M1.3,8c0.2,0,0.3,0,0.5,0C2,8,2.2,8,2.5,7.9s0.4-0.1,0.6-0.1c0.2-0.1,0.4-0.1,0.6-0.2
			c0.2-0.1,0.4-0.2,0.5-0.3C4.4,7.2,4.6,7,4.7,6.9C4.9,6.7,5,6.6,5.1,6.4c0.1-0.2,0.2-0.4,0.3-0.5c0.1-0.2,0.1-0.4,0.1-0.6
			c0-0.2,0-0.4,0-0.6c0-0.2-0.1-0.4-0.2-0.6C5.1,3.6,4.9,3.2,4.5,2.8C4.4,2.6,4.2,2.4,4,2.3C3.9,2.1,3.7,1.9,3.5,1.8
			C3.3,1.6,3.1,1.5,2.9,1.3S2.4,1,2.1,0.9C2,0.8,1.7,0.7,1.6,0.6C1.4,0.5,1.2,0.5,1,0.4C0.7,0.2,0.3,0.1,0,0"/>
	</g>
	<g id="SPLINE-171" transform="translate(1548.818 220.942)">
		<path id="Path_891" class="st3" d="M7.9,0.6c-0.3-0.1-0.7-0.2-1-0.3c-0.1,0-0.3-0.1-0.4-0.1C6.2,0.2,6,0.1,5.8,0.1
			C5.5,0.1,5.3,0,5.1,0C4.8,0,4.6,0,4.4,0C4.2,0,3.9,0,3.7,0c-0.2,0-0.5,0-0.7,0.1S2.6,0.2,2.4,0.3C2.2,0.3,2,0.4,1.8,0.5
			C1.6,0.5,1.4,0.6,1.2,0.8C1,0.9,0.9,1,0.8,1.2C0.6,1.3,0.5,1.5,0.4,1.6C0.3,1.8,0.2,2,0.1,2.2C0.1,2.4,0,2.6,0,2.8
			C0,3,0,3.2,0,3.4c0,0.2,0.1,0.4,0.2,0.6c0.2,0.4,0.4,0.9,0.7,1.2c0.2,0.2,0.3,0.4,0.5,0.5C1.6,6,2,6.2,2.2,6.4"/>
	</g>
	<g id="SPLINE-172" transform="translate(1583.768 194.179)">
		<path id="Path_892" class="st3" d="M2.9,0c0,0-0.1,0.1-0.1,0.1C2.4,0.3,2.1,0.6,1.9,0.9C1.6,1.3,1.3,1.7,1,2.1
			c-0.3,0.5-0.5,1-0.7,1.6C0.1,4.3,0,4.9,0,5.6c0,0.3,0,0.7,0,1c0,0.4,0.1,0.7,0.2,1c0.1,0.4,0.3,0.7,0.4,1c0.2,0.3,0.4,0.7,0.6,1
			c0.2,0.3,0.5,0.7,0.8,0.9l0.8,0.8"/>
	</g>
	<g id="SPLINE-173" transform="translate(1589.467 190.428)">
		<path id="Path_893" class="st3" d="M5,0C4.4,0.2,3.7,0.4,3.1,0.6C2.1,1,1,1.5,0,1.9"/>
	</g>
	<g id="LINE-59" transform="translate(1557.438 229.598)">
		<line id="Line_854" class="st2" x1="0" y1="1.8" x2="0.5" y2="0"/>
	</g>
	<g id="LINE-60" transform="translate(1550.477 227.398)">
		<line id="Line_855" class="st2" x1="0.5" y1="0" x2="0" y2="1.6"/>
	</g>
	<g id="SPLINE-174" transform="translate(1574.376 234.504)">
		<path id="Path_894" class="st3" d="M0.4,6.3C0.3,6,0.2,5.7,0.1,5.4C0,5.1,0,4.8,0,4.5c0-0.3,0.1-0.6,0.3-0.8
			C0.4,3.5,0.5,3.2,0.7,3C0.9,2.8,1,2.5,1.2,2.3C1.5,2.1,1.7,1.8,2,1.6C2.4,1.3,2.7,1,3.1,0.8C3.5,0.5,4,0.3,4.4,0"/>
	</g>
	<g id="SPLINE-175" transform="translate(1563.462 210.915)">
		<path id="Path_895" class="st3" d="M28.3,0c-1,0.4-1.4,0.5-2.4,0.9c-1,0.4-2.1,0.8-3.1,1.1c-0.9,0.3-1.7,0.6-2.6,0.9
			c-0.8,0.3-1.6,0.5-2.3,0.8c-0.8,0.3-1.5,0.5-2.3,0.8c-0.5,0.2-1,0.4-1.6,0.5c-0.5,0.2-1,0.4-1.6,0.5c-0.6,0.2-1.2,0.4-1.8,0.6
			C9.9,6.5,9.1,6.7,8.4,6.9L5.8,7.8c-1,0.3-2,0.6-3,1C1.9,9.1,0.9,9.4,0,9.7"/>
	</g>
	<g id="SPLINE-176" transform="translate(1558.051 220.581)">
		<path id="Path_896" class="st3" d="M5.5,0C4.5,0.3,3.6,0.6,2.6,0.9C1.8,1.1,1,1.3,0.1,1.4H0"/>
	</g>
	<g id="SPLINE-177" transform="translate(1544.742 221.627)">
		<path id="Path_897" class="st3" d="M4.7,0.7C4,0.6,3.4,0.6,2.7,0.5C1.8,0.4,0.9,0.2,0,0"/>
	</g>
	<g id="LINE-61" transform="translate(1601.153 384.874)">
		<line id="Line_856" class="st2" x1="0" y1="0.1" x2="0.4" y2="0"/>
	</g>
	<g id="LINE-62" transform="translate(1605.59 383.647)">
		<line id="Line_857" class="st2" x1="0" y1="0.1" x2="0.4" y2="0"/>
	</g>
	<g id="SPLINE-178" transform="translate(1625.067 218.272)">
		<path id="Path_898" class="st3" d="M0,0c1.2,1.8,2.3,3.6,3.4,5.6s2.1,3.9,3.1,5.8c1,2,2,4.1,2.9,6.2c0.9,2.1,1.8,4.3,2.7,6.5
			c0.9,2.2,1.7,4.4,2.4,6.6s1.5,4.5,2.1,6.8c0.6,2.3,1.3,4.6,1.8,6.9s1,4.7,1.5,7c0.4,2.3,0.8,4.6,1.2,6.9s0.6,4.6,0.9,6.9
			c0.3,2.2,0.4,4.4,0.6,6.7c0.1,2.2,0.2,4.4,0.3,6.6c0,2.2,0,4.4,0,6.5s-0.1,4.3-0.3,6.4c-0.1,2.2-0.4,4.3-0.6,6.5
			c-1.4,12.7-4.8,25.1-9.9,36.7"/>
	</g>
	<g id="SPLINE-179" transform="translate(1586.762 205.793)">
		<path id="Path_899" class="st2" d="M0,0l0.1,0.1"/>
	</g>
	<g id="SPLINE-180" transform="translate(1586.87 205.901)">
		<path id="Path_900" class="st3" d="M0,0c1.3,1.3,2.6,2.5,3.9,3.9C4.3,4.3,4.6,4.7,4.9,5"/>
	</g>
	<g id="LINE-63" transform="translate(1600.648 222.421)">
		<line id="Line_858" class="st3" x1="0" y1="0" x2="1" y2="1.5"/>
	</g>
	<g id="SPLINE-181" transform="translate(1614.535 331.492)">
		<path id="Path_901" class="st3" d="M6.7,0C6.6,0.4,6.5,0.9,6.4,1.3C6,3.2,5.4,5.1,4.9,7C4.3,8.8,3.7,10.7,3,12.4
			c-0.6,1.7-1.3,3.5-2.1,5.1c-0.3,0.6-0.6,1.2-0.9,1.8"/>
	</g>
	<g id="SPLINE-182" transform="translate(1597.727 367.055)">
		<path id="Path_902" class="st2" d="M17.3,0c-0.3,0.1-0.5,0.3-0.9,0.5c-0.4,0.2-0.7,0.3-1.1,0.4c-0.4,0.1-0.8,0.2-1.2,0.3
			c-0.5,0.1-0.9,0.1-1.4,0.2l-1.3,0.1c-0.5,0-0.9,0.1-1.4,0.1c-0.5,0-1,0.1-1.5,0.1L7,1.8c-0.6,0-1.2,0.1-1.7,0.1
			C4.7,2,4.1,2.1,3.6,2.1C3,2.2,2.4,2.3,1.9,2.5c-0.5,0.1-1,0.3-1.5,0.4C0.3,3,0.1,3,0,3.1"/>
	</g>
	<g id="SPLINE-183" transform="translate(1615.004 363.99)">
		<path id="Path_903" class="st2" d="M1.7,0c0,0.1,0,0.2,0,0.3c0,0.3,0,0.5-0.1,0.8C1.5,1.4,1.4,1.6,1.2,1.9
			C0.9,2.2,0.7,2.5,0.4,2.7C0.2,2.8,0.1,2.9,0,3"/>
	</g>
	<g id="ARC-12" transform="translate(1586.798 205.829)">
		<path id="Path_904" class="st2" d="M0,0C0,0,0,0.1,0,0"/>
	</g>
	<g id="SPLINE-184" transform="translate(1584.332 341.158)">
		<path id="Path_905" class="st2" d="M0.2,2.7C0,2.7,0,2.6,0,2.5c0-0.1,0.1-0.3,0.2-0.4c0.2-0.2,0.3-0.4,0.5-0.5
			c0.3-0.2,0.5-0.5,0.9-0.7C1.9,0.6,2.4,0.3,2.8,0"/>
	</g>
	<g id="SPLINE-185" transform="translate(1543.624 274.576)">
		<path id="Path_906" class="st2" d="M0,0c0,0.1,0.1,0.3,0.1,0.4c0.1,0.1,0.1,0.2,0.2,0.3S0.5,0.9,0.6,1c0.1,0.1,0.2,0.2,0.3,0.3
			c0,0,0.1,0.1,0.2,0.1"/>
	</g>
	<g id="SPLINE-186" transform="translate(1543.299 264.75)">
		<path id="Path_907" class="st2" d="M0.3,9.8c0,0,0-0.1-0.1-0.1c0-0.1,0-0.1-0.1-0.2c0-0.1,0-0.1,0-0.2c0-0.1-0.1-0.2-0.1-0.4
			c0-0.1,0-0.2,0-0.3c0-0.3,0-0.5,0-0.8c0-0.2,0-0.5,0.1-0.7c0.1-0.5,0.2-1.1,0.4-1.6c0.2-0.5,0.5-1.1,0.8-1.6
			c0.3-0.5,0.7-0.9,1-1.3C2.7,2.3,3.1,2,3.6,1.6C4,1.3,4.5,1.1,4.9,0.9c0.5-0.2,0.9-0.4,1.4-0.5C6.9,0.2,7.4,0.1,8,0.1
			C8.5,0,9.1,0,9.7,0c0.6,0,1.1,0.1,1.7,0.2c0.6,0.1,1.2,0.3,1.7,0.5c0.4,0.1,0.7,0.3,1,0.4s0.7,0.3,1,0.5c0.4,0.2,0.7,0.4,1,0.6
			c0.4,0.2,0.7,0.5,1.1,0.7c0.3,0.2,0.6,0.4,0.9,0.6c0.3,0.3,0.6,0.5,0.9,0.8C19.5,4.6,19.7,4.8,20,5c0.3,0.3,0.6,0.6,1,0.9"/>
	</g>
	<g id="SPLINE-187" transform="translate(1564.219 270.716)">
		<path id="Path_908" class="st2" d="M0,0c0.2,0.1,0.3,0.3,0.5,0.5C0.7,0.6,0.8,0.8,1,1l0.5,0.5c0.2,0.2,0.4,0.4,0.5,0.6
			c0.2,0.2,0.4,0.4,0.5,0.6C2.8,2.9,3,3.1,3.2,3.3c0.2,0.2,0.4,0.4,0.6,0.6s0.4,0.4,0.6,0.6C4.7,5,5,5.4,5.4,5.8
			c0.4,0.5,0.8,1,1.2,1.5s0.8,1,1.2,1.5c0.7,1,1.4,1.9,2.1,3c1.2,1.7,2.3,3.4,3.4,5.2c0.7,1.2,1.4,2.3,2.1,3.5
			c0.8,1.4,1.6,2.7,2.3,4.1c0.9,1.6,1.7,3.2,2.5,4.9c1.6,3.2,3,6.6,4.3,10c0.6,1.7,1.3,3.4,1.8,5c0.4,1,0.7,2.1,1.1,3.2l0.5,1.6
			l0.4,1.4c0.3,0.9,0.6,1.8,0.9,2.8c0.3,0.8,0.5,1.6,0.8,2.3"/>
	</g>
	<g id="SPLINE-188" transform="translate(1587.195 326.514)">
		<path id="Path_909" class="st2" d="M6.9,0l0.2,0.6C7.1,0.9,7.2,1,7.2,1.3c0.1,0.4,0.2,0.7,0.3,1c0.1,0.5,0.2,1,0.2,1.6
			c0,0.4,0,0.8,0,1.2c0,0.4-0.1,0.8-0.2,1.2C7.3,6.9,7.1,7.6,6.8,8.2C6.6,8.6,6.3,9.1,6.1,9.5c-0.3,0.4-0.6,0.8-0.9,1.2
			c-0.4,0.4-0.8,0.9-1.2,1.2c-0.4,0.4-0.9,0.7-1.3,1c-0.2,0.1-0.4,0.3-0.6,0.5c-0.3,0.2-0.5,0.3-0.8,0.5C1.2,14,1.1,14.1,1,14.1
			c-0.1,0.1-0.3,0.2-0.4,0.3c-0.1,0.1-0.2,0.2-0.4,0.2c-0.1,0-0.2,0.1-0.3,0.1"/>
	</g>
	<g id="SPLINE-189" transform="translate(1541.898 244.999)">
		<path id="Path_910" class="st2" d="M8.1,3.7C8,3.8,7.8,4,7.6,4C7.4,4.1,7.1,4.2,6.9,4.3c-0.3,0-0.5,0.1-0.8,0.1
			c-0.3,0-0.6,0-0.8,0C5,4.3,4.7,4.2,4.4,4.2C4.1,4.1,3.9,4,3.5,3.9C3.2,3.8,2.9,3.7,2.7,3.6C2.4,3.4,2.1,3.3,1.9,3.1
			c-0.4-0.3-0.8-0.6-1.2-1C0.5,2,0.4,1.8,0.3,1.5C0.2,1.4,0.1,1.1,0,0.9c0-0.3,0-0.6,0-0.9"/>
	</g>
	<g id="SPLINE-190" transform="translate(1550.044 247.921)">
		<path id="Path_911" class="st2" d="M0.6,0L0.6,0c0,0.1,0,0.2-0.1,0.2c0,0.1-0.1,0.1-0.1,0.2C0.3,0.5,0.1,0.7,0,0.8"/>
	</g>
	<g id="SPLINE-191" transform="translate(1555.274 248.787)">
		<path id="Path_912" class="st2" d="M5.5,1.1L5.5,1.1c0,0.1-0.1,0.2-0.2,0.3C5.3,1.5,5.2,1.6,5,1.7C4.9,1.8,4.8,1.8,4.6,1.9
			C4.5,1.9,4.3,1.9,4.2,2C4,2,3.8,2,3.6,2C3.4,2,3.3,2,3.1,1.9c-0.2,0-0.4-0.1-0.6-0.2C2.2,1.7,2,1.6,1.8,1.5
			C1.6,1.4,1.4,1.3,1.3,1.2C1.1,1.1,0.9,0.9,0.7,0.8c0,0,0,0,0,0c0,0,0,0,0,0l0,0c-0.1,0-0.1-0.1-0.2-0.1C0.3,0.4,0.1,0.2,0,0"/>
	</g>
	<g id="SPLINE-192" transform="translate(1555.058 247.416)">
		<path id="Path_913" class="st2" d="M0.3,1.3C0.1,1.1,0,0.8,0,0.6C0,0.4,0.1,0.2,0.1,0"/>
	</g>
	<g id="SPLINE-193" transform="translate(1530.652 239.084)">
		<path id="Path_914" class="st2" d="M8.5,3.2C8.1,3.4,7.7,3.6,7.3,3.7C6.8,3.8,6.2,3.9,5.7,3.9c-0.2,0-0.3,0-0.5,0
			c-0.2,0-0.3,0-0.5-0.1c-0.3,0-0.6-0.1-0.9-0.2C3.6,3.5,3.3,3.4,3,3.4L2.3,3C2,2.9,1.8,2.8,1.6,2.6S1.1,2.3,1,2.2
			C0.8,2,0.6,1.8,0.5,1.7C0.4,1.5,0.2,1.3,0.2,1.1C0.1,1,0.1,0.8,0,0.6c0-0.2,0-0.4,0-0.5c0,0,0,0,0-0.1"/>
	</g>
	<g id="SPLINE-194" transform="translate(1539.115 241.465)">
		<path id="Path_915" class="st2" d="M0.5,0L0.5,0c0,0.1-0.1,0.2-0.1,0.3C0.3,0.5,0.2,0.6,0,0.8"/>
	</g>
	<g id="SPLINE-195" transform="translate(1537.42 230.284)">
		<path id="Path_916" class="st2" d="M0,0.3c0.1,0,0.1,0,0.2-0.1c0.1,0,0.1,0,0.2,0s0.1,0,0.2,0s0.1,0,0.2,0s0.1,0,0.2,0
			c0.1,0,0.1,0,0.2,0C1.4,0,1.6,0,1.7,0L3,0c0.4,0,0.7,0,1.1,0.1c0.4,0,0.9,0.1,1.3,0.2c0.5,0.1,0.9,0.2,1.3,0.3
			C7,0.7,7.3,0.8,7.6,0.9C7.8,0.9,8.1,1,8.4,1.2c0.1,0,0.3,0.1,0.4,0.1c0.1,0,0.3,0.1,0.4,0.1c0.1,0.1,0.2,0.1,0.4,0.1
			c0.1,0,0.2,0.1,0.3,0.1"/>
	</g>
	<g id="SPLINE-196" transform="translate(1539.187 237.461)">
		<path id="Path_917" class="st2" d="M10.6,6c-0.4-0.2-0.8-0.5-1.2-0.7C9.1,5.1,8.7,4.8,8.3,4.6C7.9,4.4,7.5,4.1,7.1,3.9
			S6.3,3.5,6,3.2L4.8,2.6L3.6,1.9L2.4,1.3L1.2,0.6C0.8,0.4,0.4,0.2,0,0"/>
	</g>
	<g id="SPLINE-197" transform="translate(1549.792 243.377)">
		<path id="Path_918" class="st2" d="M11.5,0.6c0,0,0,0.1-0.1,0.1l-0.1,0.1l-0.1,0.1L11.1,1L11,1.2c0,0-0.1,0.1-0.1,0.1
			c-0.1,0.1-0.3,0.2-0.4,0.3c-0.1,0.1-0.3,0.1-0.5,0.2S9.6,1.9,9.4,1.9C9.2,2,8.9,2,8.7,2.1c-0.5,0.1-1,0.1-1.4,0.1
			C6.9,2.1,6.4,2.1,6,2C5.6,2,5.2,1.9,4.7,1.8c-0.5-0.1-1-0.3-1.6-0.4L2.5,1.2C2.3,1.1,2.1,1,1.8,0.9C1.7,0.8,1.6,0.8,1.4,0.7
			C1.3,0.6,1.1,0.6,1,0.5C0.9,0.5,0.7,0.4,0.6,0.4S0.4,0.3,0.3,0.2C0.2,0.1,0.1,0.1,0,0"/>
	</g>
	<g id="SPLINE-198" transform="translate(1557.835 238.038)">
		<path id="Path_919" class="st2" d="M0,0c0.1,0,0.1,0.1,0.2,0.1s0.1,0.1,0.2,0.1s0.1,0.1,0.2,0.1s0.1,0.1,0.2,0.1
			c0.1,0,0.1,0.1,0.2,0.1C1,0.6,1,0.7,1.1,0.7C1.3,0.9,1.5,1,1.7,1.2C1.8,1.3,2,1.5,2.2,1.7c0.1,0.1,0.3,0.3,0.4,0.4l0.3,0.4
			C3,2.6,3.1,2.8,3.2,3c0.1,0.1,0.2,0.3,0.3,0.5C3.6,3.6,3.6,3.8,3.7,4c0.1,0.2,0.1,0.4,0.1,0.6v0.3c0,0.1,0,0.2,0,0.3
			c0,0.1,0,0.2-0.1,0.3c0,0.1,0,0.2-0.1,0.3S3.5,5.8,3.5,5.9"/>
	</g>
	<g id="SPLINE-199" transform="translate(1547.195 232.087)">
		<path id="Path_920" class="st2" d="M0,0c0.4,0.2,0.8,0.4,1.2,0.6S2,1,2.4,1.2l1.2,0.6l1.2,0.6L6,3.2c0.4,0.2,0.8,0.4,1.2,0.7
			c0.4,0.2,0.8,0.5,1.2,0.7S9.1,5,9.5,5.2s0.8,0.5,1.2,0.7"/>
	</g>
	<g id="SPLINE-200" transform="translate(1550.426 228.949)">
		<path id="Path_921" class="st2" d="M6.6,2.8C6.5,2.9,6.3,3,6.1,3c-0.2,0-0.3,0-0.5,0c-0.4,0-0.9,0-1.3-0.1C3.9,2.8,3.5,2.7,3,2.6
			C2.6,2.4,2.3,2.2,1.9,2.1c-0.3-0.2-0.7-0.4-1-0.6C0.6,1.3,0.4,1,0.2,0.8C0.2,0.7,0.1,0.5,0.1,0.4C0,0.3,0,0.2,0,0.1
			c0,0,0-0.1,0-0.1"/>
	</g>
	<g id="SPLINE-201" transform="translate(1557.041 231.365)">
		<path id="Path_922" class="st2" d="M0.4,0c0,0,0,0.1,0,0.1c0,0.1-0.1,0.1-0.1,0.1C0.2,0.3,0.1,0.4,0,0.4"/>
	</g>
	<g id="LINE-64" transform="translate(1536.085 274.359)">
		<line id="Line_859" class="st2" x1="0.1" y1="0" x2="0" y2="0"/>
	</g>
	<g id="SPLINE-202" transform="translate(1606.419 346.893)">
		<path id="Path_923" class="st2" d="M0.2,5.6c0-0.2-0.1-0.3-0.1-0.5c0-0.2,0-0.3-0.1-0.5c0-0.2,0-0.4,0-0.5l0-0.5
			c0-0.2,0-0.3,0-0.5c0-0.2,0-0.3,0-0.5c0-0.2,0-0.3,0.1-0.5c0-0.1,0-0.1,0-0.2c0-0.1,0-0.2,0.1-0.2c0-0.1,0-0.1,0.1-0.2
			s0-0.1,0.1-0.2c0-0.1,0.1-0.2,0.1-0.4c0-0.1,0.1-0.2,0.2-0.3c0.1-0.1,0.1-0.2,0.2-0.3C1,0.3,1.1,0.1,1.2,0.1c0,0,0.1,0,0.1-0.1"/>
	</g>
	<g id="SPLINE-203" transform="translate(1606.636 352.52)">
		<path id="Path_924" class="st2" d="M2.8,4.4c0,0-0.1,0-0.1,0C2.5,4.3,2.3,4.2,2.1,4C1.9,3.9,1.7,3.7,1.6,3.5
			C1.4,3.3,1.2,3,1.1,2.8C0.9,2.5,0.7,2.2,0.6,1.9C0.5,1.7,0.4,1.3,0.3,1S0.1,0.3,0,0"/>
	</g>
	<g id="SPLINE-204" transform="translate(1555.31 248.751)">
		<path id="Path_925" class="st2" d="M0,0c0.3,0.4,0.7,0.8,1.1,1.1"/>
	</g>
	<g id="LINE-65" transform="translate(1526.852 270.933)">
		<line id="Line_860" class="st2" x1="0" y1="0" x2="0" y2="0"/>
	</g>
	<g id="LINE-66" transform="translate(1586.437 192.339)">
		<path id="Path_926" class="st3" d="M0,2l0.2-0.2C1.1,1.1,2,0.5,3.1,0"/>
	</g>
	<g id="ARC-13" transform="translate(1586.69 205.721)">
		<path id="Path_927" class="st2" d="M0,0C0,0,0,0.1,0,0"/>
	</g>
	<g id="SPLINE-205" transform="translate(1594.48 190.067)">
		<path id="Path_928" class="st3" d="M11.5,4.5c-0.1-0.1-0.3-0.3-0.4-0.4c-0.1-0.1-0.3-0.3-0.4-0.4s-0.3-0.3-0.5-0.4
			C10,3.2,9.9,3.1,9.8,3C9.6,2.9,9.5,2.8,9.4,2.7L8.9,2.3C8.6,2.1,8.2,1.8,7.9,1.6C7.7,1.5,7.6,1.4,7.4,1.3C7.3,1.3,7.1,1.2,7,1.1
			C6.8,1,6.6,0.9,6.4,0.8c-0.1,0-0.2-0.1-0.3-0.1L5.8,0.6c-0.1,0-0.3-0.1-0.4-0.1L5,0.4c-0.1,0-0.3-0.1-0.4-0.1s-0.2,0-0.3-0.1
			c-0.1,0-0.2,0-0.3,0c-0.2,0-0.4-0.1-0.6-0.1C3.3,0,3.1,0,2.9,0C2.8,0,2.6,0,2.5,0C2,0,1.4,0,0.9,0.1c-0.2,0-0.5,0.1-0.7,0.1
			C0.2,0.3,0.1,0.3,0,0.3"/>
	</g>
	<g id="SPLINE-206" transform="translate(1601.514 383.755)">
		<path id="Path_929" class="st3" d="M0,1.1C0.3,1,0.5,1,0.8,0.9c0.5-0.1,1-0.3,1.5-0.4s1-0.3,1.4-0.4C3.8,0.1,4,0.1,4.1,0"/>
	</g>
	<g id="SPLINE-207" transform="translate(1601.658 223.935)">
		<path id="Path_930" class="st3" d="M0,0c1.1,1.8,2.2,3.5,3.3,5.4c1,1.8,2.1,3.8,3.1,5.7s1.9,3.9,2.8,6c0.9,2,1.8,4.1,2.6,6.2
			c0.8,2.1,1.6,4.2,2.3,6.4c0.7,2.2,1.4,4.3,2.1,6.6c0.6,2.2,1.2,4.4,1.8,6.7s1,4.5,1.5,6.8s0.9,4.5,1.2,6.9
			c0.4,2.3,0.6,4.6,0.9,6.9c0.3,2.3,0.5,4.6,0.6,6.9s0.3,4.5,0.3,6.8s0,4.5,0,6.7c-0.1,2.2-0.2,4.4-0.3,6.6
			c-0.2,2.2-0.4,4.3-0.6,6.4s-0.6,4.2-0.9,6.2c-0.3,1.6-0.6,3.2-1,4.7"/>
	</g>
	<g id="LINE-67" transform="translate(1539.115 237.425)">
		<line id="Line_861" class="st2" x1="0.1" y1="0" x2="0" y2="0"/>
	</g>
	<g id="SPLINE-208" transform="translate(1535.148 230.608)">
		<path id="Path_931" class="st2" d="M2.4,5.8L2.4,5.8C2.3,5.7,2.2,5.6,2.1,5.6C2,5.5,1.9,5.4,1.8,5.3C1.7,5.3,1.6,5.2,1.6,5.1
			C1.5,5,1.4,5,1.3,4.9C1.2,4.8,1.2,4.7,1.1,4.6S0.9,4.4,0.9,4.4C0.8,4.3,0.7,4.2,0.7,4.1C0.6,4,0.6,3.9,0.5,3.9
			C0.4,3.7,0.3,3.6,0.3,3.4C0.2,3.2,0.1,3.1,0.1,2.9C0,2.7,0,2.5,0,2.3c0-0.3,0-0.5,0.1-0.8c0.1-0.2,0.2-0.5,0.4-0.6
			C0.8,0.7,1,0.5,1.3,0.4c0.3-0.2,0.6-0.3,1-0.4"/>
	</g>
	<g id="SPLINE-209" transform="translate(1556.464 249.869)">
		<path id="Path_933" class="st2" d="M0,0c0.3,0.2,0.7,0.4,1,0.5c0.3,0.1,0.6,0.2,0.9,0.3c0.3,0.1,0.6,0.1,0.9,0.1
			c0.3,0,0.5-0.1,0.8-0.1c0.2-0.1,0.4-0.2,0.5-0.4C4.2,0.3,4.3,0.1,4.3,0"/>
	</g>
	<g id="ARC-15" transform="translate(1528.475 265.126)">
		<path id="Path_934" class="st2" d="M0,0"/>
	</g>
</g>
</svg>
