<?xml version="1.0" encoding="utf-8"?>
<!-- Generator: Adobe Illustrator 23.0.1, SVG Export Plug-In . SVG Version: 6.00 Build 0)  -->
<svg version="1.1" id="Layer_1" xmlns="http://www.w3.org/2000/svg" xmlns:xlink="http://www.w3.org/1999/xlink" x="0px" y="0px"
	 viewBox="0 0 124.4 96.4" style="enable-background:new 0 0 124.4 96.4;" xml:space="preserve">
<style type="text/css">
	.st0{fill:none;stroke:#3A66C7;stroke-width:1.25;stroke-linecap:square;stroke-linejoin:round;stroke-miterlimit:10;}
	.st1{fill:none;stroke:#3A66C7;stroke-width:0.5;stroke-miterlimit:10;}
	.st2{fill:none;stroke:#3A66C7;stroke-width:1.25;stroke-miterlimit:10;}
	.st3{fill:#31B78F;stroke:#3A66C7;stroke-width:0.5;stroke-linecap:round;stroke-linejoin:round;}
	.st4{fill:none;stroke:#3A66C7;stroke-width:0.5;stroke-linecap:round;stroke-linejoin:round;}
	.st5{fill:none;stroke:#3A66C7;stroke-width:1.686;}
	.st6{fill:none;stroke:#3A66C7;stroke-width:0.5;stroke-linecap:round;stroke-linejoin:round;stroke-miterlimit:10;}
</style>
<path id="Path_690" class="st0" d="M17.7,76.5c5.5,11.5,27.7,20.6,54.5,18c42-4,51-23.6,50.8-37.2c0-1.7-0.5-3.4-1.2-4.9
	c0-0.3-0.1-0.7-0.1-1c1.3-5.2-0.7-9.5-5-11.8c-2.8-1.4-6-2-9.1-1.6c0,0,0,0-0.1-0.1c0,0-3.9-5.1-4.6-8.5c-0.7-3.5-2.7-15-2.7-15
	C99.2,9,96.1,3.4,88.8,2.7L72.9,1.5c-4.7,0-9,2.9-10.7,7.3c0,0-5.4,14.7-6.4,17.7c-1,2.9-2.6,7.2-12.7,11c-4.7,1.7-9.4,3.7-13.9,6
	l-6-7c-4-4.7-9.5-8.2-16.7-4.4l-2,1.6C-5.2,39.7,16.7,75.2,17.7,76.5L17.7,76.5z"/>
<path id="Path_691" class="st1" d="M5.6,33.1c1.3,0,2.6,0.6,3.5,1.5c4.3,4.2,0.4,6.3,2.1,14.6c0.9,2.6,2.1,5.1,3.6,7.5
	c2.4,3.4,10.4,15.2,10.4,15.2c3.2,4.4,7.9,7.5,13.3,8.8c9.1,2.3,36,6.3,45.4-2.6c5.7-5.5,10.2-12.1,13.3-19.4c0.9-2,1.7-4,2.3-6.2
	c0.7-2.5,1.8-8.5,10-10.6c8.2-2.1,11.7,0.9,12.5,5.3"/>
<path id="Path_692" class="st2" d="M121.5,51.4c0,0-1.7,13.6,1.1,7.8"/>
<path id="Path_693_2_" class="st1" d="M29,43.8c0,0,3,3.8,4.4,4.9c1.4,1.1,4.1,0.9,4.1,0.9"/>
<path id="Path_695" class="st3" d="M78.9,55.1c-0.3,0.2-1.2,0.5-1.9,0.9c-0.8,0.4-1.7,0.6-2.6,0.6C74,56.5,54.9,55,54.9,55
	c-0.5-0.1-0.9-0.1-1.1-0.4c-0.5-0.7-0.8-1.1-0.9-1.4l0-0.7c0.1-0.3,0.3-0.5,0.5-0.7L67,45.4c0.7-0.4,1.4-0.6,2.2-0.6l4.2,0.2
	c0.2,0,0.3,0.1,0.4,0.3l5.5,8.8l-0.1,0.6C79.2,54.7,79.1,55,78.9,55.1z"/>
<path id="Path_696" class="st3" d="M79.1,54c-0.1,0.1-0.1,0.3-0.3,0.3c-0.3,0.2-1.2,0.5-1.9,0.9c-0.8,0.4-1.7,0.6-2.6,0.6
	c-0.4,0-18.9-1.4-18.9-1.4c-1.4-0.2-1.3,0-2.2-1.6"/>
<path id="Path_697" class="st4" d="M74.4,52.3c-0.7,1.1-3.3,2-7.8,1.7c-5.2-0.4-7.9-1.3-7.6-2.2c0.8-2,7.5-4.6,10.1-4.4
	C74.1,47.7,74.8,51.5,74.4,52.3z"/>
<path id="Path_698" class="st4" d="M59.3,52.4c0.8-2,7-4.7,9.6-4.5c4.9,0.4,5.7,4.1,4.8,5.1"/>
<path id="Path_699" class="st2" d="M80,4.9c-0.3,0.4-0.8,0.6-1.3,0.4c-0.6-0.1-0.8-0.5-0.7-0.8c0.3-0.4,0.8-0.6,1.3-0.5
	C79.8,4.2,80.1,4.6,80,4.9z"/>
<path id="Path_700" class="st5" d="M73.5,59.9"/>
<g>
	<path id="Path_701" class="st6" d="M73.3,64.1c0,0,5.8,2,10.1-5.9l3.3-5.1c1.6-3.1,3.8-5.8,6.5-8.1c6.2-4.8,14.5-6.6,14.5-6.6"/>
</g>
</svg>
