<svg xmlns="http://www.w3.org/2000/svg" width="546.383" height="349.858" viewBox="0 0 546.383 349.858">
  <g id="Group_389" data-name="Group 389" transform="translate(-6844.617 -3014.019)">
    <text id="_pairingui_vivewand_pairingmode" data-name="#pairingui_vivewand_pairingmode" transform="translate(7126 3111)" fill="#fff" font-size="18" font-family="MyriadPro-Regular, Myriad Pro"><tspan x="0" y="0">#pairingui_vivewand_pairingmode</tspan></text>
    <g id="Group_375" data-name="Group 375">
      <g id="Group_361" data-name="Group 361" transform="translate(5806.177 2730.78)">
        <path id="Path_935" data-name="Path 935" d="M1179.739,432.419c-4.406,1.235-8.593,2.512-12.847,3.547-1.224.291-3.254.129-3.823-.6-.9-1.159-1.582-4.153-1.138-4.434,5.774-3.811,6.9-10.237,9.373-15.944,2.028-4.694.406-8.992-.525-13.432-1.9-8.817-2.982-17.914-6.026-26.357-3.9-10.921-12.933-17.267-23.8-20.8a90.094,90.094,0,0,0-31.791-4.046c-2.743.09-4.453.882-5.813,3.3s-3.325,4.535-4.919,6.862c-5.853,8.377-13.884,10.47-23.432,8.08-6.685-1.679-13.406-3.295-20.048-5.194a10.741,10.741,0,0,1-4.826-3.244c-3.2-3.961-6.016-8.238-9.089-12.5,3.141-7.617,6.33-15.248,9.744-23.569-2.166-.647-4.145-1.188-6.118-1.89-5.31-1.8-6.763-5.312-3.451-9.9,3.535-4.908,7.778-9.334,11.725-13.887,3.273-3.79,6.5-7.566,9.935-11.14a6.651,6.651,0,0,1,4.01-1.906c28.884-1.669,57.753-1.714,86.558,1.183,12.408,1.224,24.744,2.939,37.115,4.592a7.572,7.572,0,0,1,4.388,2.427c14.664,17.67,27.617,36.5,35.733,58.2,2.889,7.7,8.329,13.7,12.619,20.436a59.8,59.8,0,0,1,9.289,32.6,24.118,24.118,0,0,0,1.3,7.053q13.062,41.308,26.158,82.555l29.611,93.39c2.665,8.393,3.61,16.8,1.12,25.434-3.045,10.567-13.458,19.073-24.068,18.86-8.4-.154-14.126-5.5-19.306-11.3-6.628-7.439-10.435-16.557-14.7-25.441-5.974-12.376-11.949-24.751-17.777-37.167q-9.153-19.527-18.091-39.22c-6.558-14.457-13.247-28.826-19.527-43.413-5.85-13.612-11.23-27.407-16.838-41.086A14.107,14.107,0,0,0,1179.739,432.419ZM1052.868,323.138c-1.917,4.715-3.331,9.55-5.8,13.793-3.848,6.771-4.839,12.741,1.8,18.35,2.462,2.078,4.282,5.59,7.032,6.647,6.461,2.368,13.273,3.75,19.965,5.27,8.08,1.81,15.272.265,20.517-6.74,2.164-2.9,4.114-6.01,6.353-8.831.931-1.149,2.4-2.447,3.674-2.544,14.43-1.066,28.675.009,41.857,6.605,11.066,5.569,18.778,14.271,20.655,26.751,2.719,18.092,6.9,35.826,13.7,52.827,7.065,17.763,14.6,35.341,22.27,52.83,8.672,19.768,17.62,39.4,26.666,59.015,7.926,17.1,15.934,34.131,24.413,50.975,3.981,7.868,8.34,15.787,13.936,22.523,13.539,16.262,28.089,10.41,36.721-2.4,4.886-7.166,4.984-15.393,3.063-23.368-2.238-9.3-5.363-18.4-8.231-27.515-6.572-21.035-13.13-42.02-19.847-63.014-8.3-26.086-16.747-52.132-25.109-78.252-1.312-4.124-2.333-8.33-3.5-12.494-.4.06-.788.169-1.237.242-.465,1.7-.895,3.332-1.36,5.029-2.313,7.96-8.036,12.7-15.7,12.755-5.305.076-9.463-2.833-13.169-6.182-13.725-12.45-22.043-39.158-13.687-58.733,2.587-6.052,7.093-10.291,14.062-10.207,3.2.044,6.383,1.345,10.178,2.214-2.275-4.951-4.675-9.606-6.606-14.444-7.312-18.268-19.225-33.575-31.292-48.683a5.767,5.767,0,0,0-4.322-1.818c-41.1,4.306-81.945,1.492-122.546-6.039a5.341,5.341,0,0,0-4.236,1.657c-5.627,6.015-10.978,12.267-16.405,18.436a41,41,0,0,0-4.574,5.669c-1.574,2.583-1.906,5.13,1.839,6.378C1046.774,320.771,1049.538,321.877,1052.868,323.138Zm196.725,67.618c-4.067-13.954-9.691-23.033-17.406-28.758-9.359-6.935-19.589-3.182-22.912,7.882-2.721,9.119-2.456,18.08-.25,27.071,2.869,11.731,7.76,22.477,18.043,29.728,7.806,5.491,16.412,3.027,20.566-5.449C1252.855,410.786,1251.48,400.1,1249.594,390.756Zm-175.1-103.968c36.6,7.034,73.385,9.157,110.495,5.341C1148.384,285.828,1111.493,284.83,1074.49,286.788ZM1174.1,414.36c-3.536,6.58-6.759,12.6-10.085,18.807,2.681,2.487,8,.58,14.508-3.02Z" transform="translate(0 0)" fill="#5380f2" stroke="#5380f2" stroke-width="2"/>
        <path id="Path_936" data-name="Path 936" d="M1268.389,534.781c-1.874-6.317.661-9.012,6.161-7.837a13.259,13.259,0,0,1,10.237,8.2c4.723,11.263,9.749,22.494,13.9,33.969,1.137,3.128.135,7.378-.83,10.834-.387,1.414-3.533,3.236-4.933,2.9-2.311-.606-5.155-2.368-6.091-4.4-4.823-10.5-9.093-21.268-13.542-31.93C1271.6,542.341,1269.788,538.1,1268.389,534.781Zm1.387-1.016c.287.651.669,1.641,1.112,2.666,3.754,8.924,7.494,17.8,11.3,26.709,2.143,5.04,4.217,10.2,6.769,15.025a6.449,6.449,0,0,0,4.952,2.948c1.243-.035,3.093-2.382,3.475-4a13.385,13.385,0,0,0-.052-7.454c-4.24-11.034-8.757-21.937-13.42-32.8-1.8-4.2-4.762-7.492-9.572-8.443C1270.063,527.522,1268.43,529.337,1269.776,533.765Z" transform="translate(-70.574 -74.941)" fill="#5380f2" stroke="#5380f2" stroke-width="2"/>
        <path id="Path_937" data-name="Path 937" d="M1346.79,524.408c1.066,4.924-.193,9.193-3.294,10.428-3.343,1.3-7.777-1.477-9.508-6.162-.606-1.606-1.211-3.578-.8-5.1.62-2.263,1.687-5.539,3.319-6.048,2.007-.667,5.116.552,7.2,1.847C1345.174,520.317,1345.776,522.655,1346.79,524.408Zm-1.592,1.96c-1.5-5.742-4.8-8.735-7.69-7.873-2.685.857-3.68,4.947-2.2,9.286,1.28,3.82,4.926,6.768,7.329,5.468C1346.049,531.457,1345.554,528.2,1345.2,526.368Z" transform="translate(-90.75 -72.053)" fill="#5380f2" stroke="#5380f2" stroke-width="2"/>
        <path id="Path_938" data-name="Path 938" d="M1286.9,360.218c1.641,5.86-.258,8.585-4.386,9.324-3.035.537-7.007-2.268-8.852-6.242-1.742-3.8-1.282-8.676,1.132-10.5,2.747-2.127,5.643-1.111,7.733.759A16.5,16.5,0,0,1,1286.9,360.218Zm-1.612.4c-.955-3.6-2.889-6.4-6.706-7.157a4.339,4.339,0,0,0-3.614,1.639c-1.834,3.334-.392,6.43,1.6,9.265,1.715,2.392,3.741,4.592,6.96,3.22C1286.8,366.2,1285.99,363.294,1285.292,360.617Z" transform="translate(-72.07 -20.829)" fill="#5380f2" stroke="#5380f2" stroke-width="2"/>
      </g>
      <line id="Line_864" data-name="Line 864" x2="103" transform="translate(7015.5 3070.5)" fill="none" stroke="#fff" stroke-width="2"/>
      <line id="Line_865" data-name="Line 865" x2="63" transform="translate(7055.5 3184.5)" fill="none" stroke="#fff" stroke-width="2"/>
      <line id="Line_866" data-name="Line 866" y1="114" transform="translate(7118.5 3070.5)" fill="none" stroke="#fff" stroke-width="2"/>
    </g>
  </g>
</svg>
