<?xml version="1.0" encoding="utf-8"?>
<!-- Generator: Adobe Illustrator 23.0.1, SVG Export Plug-In . SVG Version: 6.00 Build 0)  -->
<svg version="1.1" id="Layer_1" xmlns="http://www.w3.org/2000/svg" xmlns:xlink="http://www.w3.org/1999/xlink" x="0px" y="0px"
	 viewBox="0 0 1224 792" style="enable-background:new 0 0 1224 792;" xml:space="preserve">
<style type="text/css">
	.st0{fill:none;stroke:#4466B0;stroke-width:1.25;stroke-linecap:round;stroke-linejoin:round;stroke-miterlimit:10;}
	.st1{fill:#31B890;stroke:#4466B0;stroke-width:0.5;stroke-linecap:round;stroke-linejoin:round;stroke-miterlimit:10;}
	.st2{fill:none;stroke:#4466B0;stroke-width:0.8;stroke-linecap:round;stroke-linejoin:round;stroke-miterlimit:10;}
	.st3{fill:none;stroke:#4466B0;stroke-width:0.5;stroke-linecap:round;stroke-linejoin:round;stroke-miterlimit:10;}
	.st4{fill:none;stroke:#4466B0;stroke-width:0.75;stroke-linecap:round;stroke-linejoin:round;stroke-miterlimit:10;}
	.st5{fill:none;stroke:#4466B0;stroke-width:0.75;stroke-miterlimit:2;}
	.st6{fill:#4466B0;}
</style>
<path class="st0" d="M690.1,291.8c0,0-19.2-24.5-30.6-33.4c-5.7-5.4-13.1-10-23.6-12.8l0,0c-1.1-0.3-2.2-0.5-3.3-0.8h-0.1
	c-1.1-0.2-2.2-0.5-3.4-0.7c-0.1,0-0.1,0-0.2,0c-1.1-0.2-2.3-0.4-3.4-0.5c-0.1,0-0.2,0-0.2,0c-1.1-0.2-2.3-0.3-3.5-0.4
	c-0.1,0-0.2,0-0.3,0c-1.2-0.1-2.3-0.2-3.5-0.3c-0.1,0-0.2,0-0.4,0c-1.2-0.1-2.3-0.1-3.5-0.1c-0.1,0-0.3,0-0.4,0c-0.6,0-1.2,0-1.8,0
	l0,0l0,0c-0.6,0-1.2,0-1.8,0c-0.1,0-0.3,0-0.4,0c-1.2,0-2.4,0.1-3.5,0.1c-0.1,0-0.2,0-0.4,0c-1.2,0.1-2.3,0.2-3.5,0.3
	c-0.1,0-0.2,0-0.3,0c-1.2,0.1-2.3,0.2-3.5,0.4c-0.1,0-0.2,0-0.2,0c-1.2,0.2-2.3,0.3-3.4,0.5c-0.1,0-0.1,0-0.2,0
	c-1.1,0.2-2.3,0.4-3.4,0.7h-0.1c-1.1,0.2-2.2,0.5-3.3,0.8l0,0c-10.5,2.8-17.7,7.6-23.6,12.8c-11.4,8.9-30.6,33.4-30.6,33.4
	c-3.9,5.2-5.5,9.1-5.3,14.4c0.1,3.3,0.7,7.6,4.1,10.1l6.6,4.2c4.7,2.9,7.3,3.4,11.1-1c4.1-4.6,9.7-9,9.7-9l0.2-0.2
	c2.5,1.9,5.6,4.3,7.3,5.7c6,5,8.2,17.7,9.1,25.6c3.5,58.4,6.9,127.4,10.4,183c0.2,2.5,0.6,4.9,1.3,7.2c2.8,9.2,9.9,16.4,22.2,17
	c0.5,0,1,0,1.4,0l0,0l0,0c0.5,0,1,0,1.4,0c12.3-0.5,19.4-7.7,22.2-17c0.7-2.3,1.2-4.7,1.3-7.2c3.5-55.6,6.9-124.5,10.4-183
	c0.8-7.9,3.1-20.6,9.1-25.6c1.7-1.4,4.8-3.9,7.3-5.7l0.2,0.2c0,0,5.6,4.3,9.7,9c3.8,4.4,6.4,3.9,11.1,1l6.6-4.2
	c3.4-2.5,4-6.9,4.1-10.1C695.6,300.9,694,297,690.1,291.8z"/>
<path class="st0" d="M659.8,258.8c2.2,2.8,3.4,5.7,3.4,8.9c0,13.7-22.8,24.7-51.3,24.7s-51.2-11.1-51.2-24.7c0-2.8,1-5.5,2.8-8.1"/>
<path class="st0" d="M655.8,266.6c0,7.9-6.7,21.6-43.8,21.6c-35,0-43.8-13.7-43.8-21.6c0-7.6,14.3-20,43.8-20
	C642.9,246.6,655.8,259.1,655.8,266.6z"/>
<path class="st1" d="M619.5,330.7c0,4.1-3.3,7.5-7.5,7.5l0,0c-4.1,0-7.5-3.3-7.5-7.5l0,0c0-4.1,3.3-7.5,7.5-7.5l0,0
	C616.1,323.2,619.5,326.5,619.5,330.7L619.5,330.7z"/>
<path class="st1" d="M619.5,427.1c0,4.1-3.3,7.5-7.5,7.5l0,0c-4.1,0-7.5-3.3-7.5-7.5l0,0c0-4.1,3.3-7.5,7.5-7.5l0,0
	C616.1,419.6,619.5,423,619.5,427.1L619.5,427.1z"/>
<path class="st0" d="M641.7,372c0,16.4-13.3,29.8-29.8,29.8l0,0c-16.4,0-29.8-13.3-29.8-29.8l0,0c0-16.4,13.3-29.8,29.8-29.8l0,0
	C628.4,342.2,641.7,355.5,641.7,372L641.7,372z"/>
<path class="st2" d="M643.2,384.8c0,17.3-14,31.2-31.2,31.2l0,0c-17.3,0-31.2-14-31.2-31.2v-13.4c0-17.3,14-31.2,31.2-31.2l0,0
	c17.3,0,31.2,14,31.2,31.2V384.8z"/>
<path class="st3" d="M613.2,439.1c0,0.7-0.5,1.2-1.2,1.2s-1.2-0.5-1.2-1.2s0.5-1.2,1.2-1.2S613.2,438.4,613.2,439.1z"/>
<path class="st0" d="M534.2,316.1c1,0.1,2.5-0.1,4.5-1.8l8.8-8.2c2.4-2,3.9-2,6.9-0.1l6.7,4.8"/>
<path class="st0" d="M690,315.9c-1,0.1-2.5-0.1-4.5-1.8l-8.8-8.2c-2.4-2-3.9-2-6.9-0.1l-6.7,4.8"/>
<path class="st4" d="M584.3,283.5c0-7.2,12.5-13,27.9-13s28,5.8,28,13"/>
<path class="st3" d="M586.4,284.4c1.6-5.7,12.6-10.1,25.9-10.1c13.4,0,24.5,4.5,25.9,10.2"/>
<g>
	<polyline class="st5" points="588.9,285.3 588.9,285.2 589.3,284.7 589.7,284.2 590.2,283.6 590.7,283.1 591.2,282.7 591.4,282.6 	
		"/>
	<polyline class="st5" points="632.9,282.6 633.1,282.8 633.7,283.3 634.3,283.9 634.8,284.4 635.2,285 635.4,285.3 	"/>
	<polyline class="st5" points="670.5,311.7 670.7,311.4 670.9,311.2 671.1,311 671.4,310.7 671.6,310.5 671.9,310.4 672.2,310.2 
		672.4,310 672.7,309.9 	"/>
	<polyline class="st5" points="551.5,309.9 551.8,310 552.1,310.2 552.4,310.4 552.6,310.5 552.9,310.8 553.1,311 553.3,311.2 
		553.5,311.4 553.7,311.7 	"/>
	<polyline class="st5" points="549.8,309.3 550.1,309.4 550.4,309.4 550.7,309.5 551,309.6 551.3,309.7 551.5,309.9 	"/>
	<polyline class="st5" points="546.8,318.9 546.4,318.8 546,318.6 545.5,318.5 545.1,318.3 544.7,318.1 544.4,317.9 	"/>
	<polyline class="st5" points="631.2,281.5 631.9,281.9 632.5,282.3 632.9,282.6 	"/>
	<polyline class="st5" points="672.7,309.9 673,309.7 673.3,309.6 673.5,309.5 673.8,309.4 674.1,309.4 674.4,309.3 	"/>
	<polyline class="st5" points="544.4,317.9 543.9,317.5 543.4,317.1 543,316.7 542.7,316.3 542.4,315.8 542.2,315.3 542,314.8 
		541.9,314.3 541.8,313.8 541.9,313.3 542,312.9 542.1,312.4 542.4,311.9 542.6,311.5 543,311.1 543.4,310.7 543.9,310.3 544.3,310 
		544.9,309.8 545.4,309.6 546,309.4 546.6,309.2 547.3,309.2 547.9,309.1 548.5,309.1 549.2,309.2 549.8,309.3 	"/>
	<polyline class="st5" points="553.7,311.7 553.8,311.8 553.9,311.9 553.9,312 554,312.1 554.1,312.2 554.1,312.3 	"/>
	<polyline class="st5" points="670.1,312.3 670.2,312.2 670.3,312.1 670.3,312 670.4,311.9 670.5,311.8 670.5,311.7 	"/>
	<polyline class="st5" points="627,287.2 626.7,287 626.4,286.7 	"/>
	<polyline class="st5" points="626.4,286.7 626.1,286.3 625.8,285.9 	"/>
	<polyline class="st5" points="625.8,285.9 625.5,285.5 625.3,285.1 625.1,284.7 625,284.3 624.9,283.8 624.9,283.4 625,283 
		625.1,282.6 625.3,282.3 625.6,282 625.9,281.7 626.2,281.5 626.6,281.2 627.1,281.1 627.6,280.9 628.1,280.9 628.7,280.8 
		629.3,280.9 629.9,281 630.5,281.2 631.2,281.5 	"/>
	<polyline class="st5" points="593.1,281.5 593.5,281.3 593.9,281.1 594.4,281 594.8,280.9 595.3,280.9 595.7,280.8 596.1,280.9 
		596.5,280.9 596.9,281 597.3,281.1 597.6,281.2 597.9,281.4 598.2,281.6 598.5,281.8 598.7,282 598.9,282.3 599.1,282.5 
		599.2,282.8 599.3,283.2 599.4,283.5 599.4,283.8 599.3,284.2 599.2,284.6 599,285 598.8,285.4 598.6,285.7 	"/>
	<polyline class="st5" points="598.6,285.7 598.3,286.1 598,286.4 597.7,286.8 597.4,287.1 597.3,287.2 	"/>
	<polyline class="st5" points="554.1,312.3 554.2,312.5 554.3,312.8 554.3,313 554.3,313.2 554.3,313.4 554.3,313.6 554.3,313.8 
		554.2,314 554.2,314.2 554.1,314.4 554,314.6 553.9,314.8 553.7,314.9 553.6,315.1 553.5,315.3 553.3,315.6 553.1,315.8 552.9,316 
		552.7,316.2 552.4,316.5 552.2,316.7 551.9,316.9 551.6,317.2 551.3,317.4 551,317.7 550.7,317.9 550.3,318.1 550,318.3 
		549.6,318.5 549.2,318.6 548.9,318.8 548.5,318.9 548,319 547.6,319 547.2,318.9 546.8,318.9 	"/>
	<polyline class="st5" points="679.9,317.9 679.5,318.1 679.1,318.3 678.7,318.5 678.3,318.6 677.9,318.8 677.5,318.9 	"/>
	<polyline class="st5" points="674.4,309.3 675.1,309.2 675.7,309.1 676.4,309.1 677,309.2 677.6,309.2 678.3,309.4 678.8,309.6 
		679.4,309.8 679.9,310 680.4,310.3 680.9,310.7 681.3,311.1 681.6,311.5 681.9,311.9 682.1,312.4 682.3,312.9 682.4,313.3 
		682.4,313.8 682.4,314.3 682.3,314.8 682.1,315.3 681.9,315.8 681.6,316.3 681.2,316.7 680.8,317.1 680.4,317.5 679.9,317.9 	"/>
	<polyline class="st5" points="677.5,318.9 677.1,318.9 676.6,319 676.2,319 675.8,318.9 675.4,318.8 675,318.7 674.7,318.5 
		674.3,318.3 673.9,318.1 673.6,317.9 673.3,317.7 673,317.5 672.7,317.2 672.4,317 672.1,316.7 671.8,316.5 671.6,316.2 671.4,316 
		671.2,315.8 671,315.6 670.8,315.3 670.6,315.1 670.5,314.9 670.4,314.7 670.3,314.6 670.2,314.4 670.1,314.2 670,314 670,313.8 
		669.9,313.6 669.9,313.4 669.9,313.2 669.9,313 670,312.8 670.1,312.5 670.1,312.3 	"/>
	<polyline class="st5" points="591.4,282.6 591.8,282.2 592.4,281.9 593.1,281.5 	"/>
	<polyline class="st5" points="687.3,298.4 686.9,297.8 686.4,297.1 686,296.5 685.7,296 	"/>
	<polyline class="st5" points="538.6,296 538.2,296.5 537.8,297.1 537.4,297.8 536.9,298.4 	"/>
	<polyline class="st5" points="665.3,299.9 665.3,299.9 665.3,299.9 665.3,299.9 665.3,299.9 665.4,299.9 665.4,299.9 	"/>
	<polyline class="st5" points="656.7,302.8 656.6,302.2 656.5,301.5 656.4,300.8 656.5,300.2 656.5,299.6 656.7,299.1 656.9,298.6 
		657.1,298.1 657.3,297.7 657.7,297.3 658,297 658.4,296.7 658.8,296.5 659.2,296.3 659.6,296.2 660.1,296.2 660.6,296.2 
		661.1,296.3 661.6,296.5 662.1,296.7 662.6,297 663.1,297.4 663.6,297.8 664,298.3 664.5,298.8 664.9,299.3 665.3,299.9 	"/>
	<polyline class="st5" points="655.5,269 655.3,269.4 655,269.8 654.8,270.2 654.6,270.6 654.3,271 654,271.4 653.8,271.7 
		653.5,272.1 653.2,272.4 652.9,272.8 652.7,273.1 652.4,273.3 	"/>
	<polyline class="st5" points="651.5,265.6 651.8,265.3 652.1,265.1 652.4,264.8 652.7,264.6 653,264.4 653.3,264.3 653.6,264.1 
		653.9,264 654.1,263.9 654.4,263.9 654.6,263.8 654.9,263.8 	"/>
	<polyline class="st5" points="652.4,273.3 652,273.7 651.7,274 651.4,274.3 651,274.6 650.7,274.8 650.4,275 650.1,275.1 
		649.9,275.2 649.6,275.2 649.4,275.2 649.2,275.2 649,275.1 648.8,274.9 648.6,274.7 648.5,274.5 648.4,274.1 648.3,273.7 
		648.3,273.3 648.3,272.8 648.4,272.3 648.4,271.8 648.5,271.3 648.7,270.7 648.9,270.1 649,269.6 649.3,269 649.5,268.5 
		649.8,267.9 650.1,267.4 650.4,266.9 650.7,266.5 651.1,266 651.5,265.6 	"/>
	<polyline class="st5" points="661.1,275.2 661,274.9 660.9,274.7 660.9,274.4 660.8,274.2 660.8,273.9 660.7,273.7 660.7,273.5 
		660.7,273.2 660.7,273 660.7,272.8 660.8,272.5 660.8,272.3 660.9,272.1 660.9,271.9 661,271.7 661.1,271.5 661.2,271.3 
		661.3,271.2 661.4,271 661.6,270.9 661.7,270.7 661.9,270.6 662,270.5 662.2,270.5 662.3,270.4 662.5,270.4 662.6,270.4 
		662.8,270.4 663,270.4 663.1,270.5 	"/>
	<polyline class="st5" points="654.9,263.8 655,263.8 655.1,263.9 655.2,263.9 655.3,263.9 655.4,264 655.5,264 655.6,264.1 
		655.7,264.2 655.8,264.3 655.8,264.4 655.9,264.5 656,264.6 656.1,264.7 656.1,264.8 656.2,264.9 656.2,265 656.3,265.2 
		656.3,265.3 656.3,265.4 656.4,265.6 656.4,265.7 656.4,265.9 656.4,266 656.4,266.1 656.4,266.3 656.4,266.4 656.4,266.6 
		656.3,266.7 656.3,266.9 656.3,267 656.2,267.1 656.2,267.3 656.2,267.4 656.1,267.6 656.1,267.7 656,267.8 656,268 655.9,268.1 
		655.9,268.3 655.8,268.4 655.8,268.5 655.7,268.6 655.6,268.8 655.6,268.9 655.5,269 	"/>
	<polyline class="st5" points="688.3,299.5 687.8,299 687.3,298.4 	"/>
	<polyline class="st5" points="657.7,305.1 657.5,304.8 657.3,304.4 657.1,304 657,303.6 656.8,303.2 656.7,302.8 	"/>
	<polyline class="st5" points="665.7,305.4 665.5,305.8 665.3,306.1 665,306.4 664.8,306.7 664.5,307 664.2,307.2 663.8,307.4 
		663.5,307.6 663.2,307.8 	"/>
	<polyline class="st5" points="663.2,307.8 662.8,307.9 662.5,308 662.1,308 661.8,308 661.4,308 661.1,307.9 660.7,307.8 
		660.3,307.6 659.9,307.4 659.5,307.2 659.1,306.9 658.8,306.5 658.4,306.1 658,305.6 657.7,305.1 	"/>
	<polyline class="st5" points="688.4,292.8 688.8,293.4 689.3,294 689.7,294.5 690.1,295.2 690.5,295.8 690.9,296.4 691.2,297 
		691.5,297.6 691.8,298.2 692,298.7 692.2,299.2 692.3,299.7 692.4,300.1 692.5,300.4 692.5,300.7 692.5,301 692.4,301.2 
		692.3,301.4 692.2,301.5 692.1,301.6 692,301.7 691.8,301.7 691.6,301.7 691.4,301.7 	"/>
	<polyline class="st5" points="691.4,301.7 691.2,301.7 691,301.6 690.8,301.5 690.5,301.4 690.3,301.2 690,301 689.7,300.8 
		689.5,300.6 689.2,300.4 688.9,300.1 688.6,299.8 688.3,299.5 	"/>
	<polyline class="st5" points="665.4,300.2 665.7,300.8 665.9,301.3 666.1,301.9 666.2,302.5 666.3,303.1 666.3,303.7 666.2,304.3 
		666,304.9 665.7,305.4 	"/>
	<polyline class="st5" points="665.3,299.9 665.3,300 665.3,300 665.3,300.1 665.4,300.1 665.4,300.2 665.4,300.2 	"/>
	<polyline class="st5" points="663.7,279.8 663.3,279.3 663,278.8 662.6,278.3 662.3,277.8 662,277.2 661.7,276.7 661.5,276.2 
		661.3,275.7 661.1,275.2 	"/>
	<polyline class="st5" points="666.5,273.3 666.8,273.7 667,274 667.3,274.4 667.6,274.7 667.9,275.1 668.1,275.5 668.4,275.9 
		668.6,276.2 668.8,276.6 669,277 669.2,277.4 669.4,277.8 669.6,278.2 669.8,278.6 669.9,279 670,279.4 670.1,279.8 670.2,280.2 
		670.3,280.6 670.3,281 670.3,281.3 670.3,281.7 670.2,282 670.1,282.3 669.9,282.5 669.7,282.7 669.4,282.9 669,283 668.7,283 
		668.2,283 667.8,282.9 667.3,282.7 666.8,282.5 666.3,282.1 665.8,281.8 665.2,281.3 664.7,280.9 664.2,280.4 663.7,279.8 	"/>
	<polyline class="st5" points="535.9,292.8 536.1,292.5 536.4,292.2 536.7,291.9 537,291.6 537.2,291.3 537.5,291 537.8,290.8 
		538,290.5 538.3,290.3 538.5,290.1 538.7,290 539,289.8 539.2,289.7 539.4,289.6 539.6,289.5 539.7,289.5 539.9,289.4 540.1,289.4 
		540.2,289.5 540.3,289.6 540.4,289.7 540.5,289.8 540.6,290 540.6,290.2 540.6,290.4 540.6,290.7 540.6,291.1 540.5,291.4 
		540.4,291.8 540.3,292.3 540.1,292.8 539.9,293.3 539.6,293.9 539.3,294.5 539,295.2 538.6,295.8 538.6,296 	"/>
	<polyline class="st5" points="535.9,299.5 535.6,299.8 535.4,300.1 535.1,300.4 534.8,300.6 534.5,300.8 534.3,301 534,301.2 
		533.7,301.4 533.5,301.5 533.3,301.6 533,301.7 532.8,301.7 532.6,301.7 532.5,301.7 532.3,301.7 532.2,301.6 532,301.5 
		531.9,301.4 531.8,301.2 531.8,301 531.8,300.7 	"/>
	<polyline class="st5" points="531.8,300.7 531.8,300.4 531.8,300.1 531.9,299.7 532,299.2 532.2,298.7 532.5,298.2 532.7,297.6 
		533,297 533.4,296.4 533.7,295.8 534.1,295.2 534.5,294.5 535,294 535.4,293.4 535.9,292.8 	"/>
	<polyline class="st5" points="663.1,270.5 663.3,270.6 663.5,270.7 663.8,270.9 664,271 664.2,271.2 664.4,271.3 664.7,271.5 
		664.9,271.7 665.1,271.9 665.3,272.1 665.6,272.3 665.8,272.6 666,272.8 666.3,273.1 666.5,273.3 	"/>
	<polyline class="st5" points="536.9,298.4 536.4,299 535.9,299.5 	"/>
	<polyline class="st5" points="557.8,273.3 558,273.1 558.2,272.8 558.5,272.6 558.7,272.3 558.9,272.1 559.1,271.9 559.4,271.7 
		559.6,271.5 559.8,271.3 560.1,271.2 560.3,271 560.5,270.9 560.7,270.7 560.9,270.6 561.1,270.5 	"/>
	<polyline class="st5" points="560.5,279.8 560,280.4 559.5,280.9 559,281.3 558.5,281.8 558,282.1 557.5,282.5 557,282.7 
		556.5,282.9 556,283 555.6,283 555.2,283 554.9,282.9 554.6,282.7 554.4,282.5 554.2,282.3 554.1,282 554,281.7 553.9,281.3 
		553.9,281 554,280.6 554,280.2 554.1,279.8 554.2,279.4 554.3,279 554.5,278.6 554.6,278.2 554.8,277.8 555,277.4 555.2,277 
		555.4,276.6 555.7,276.2 555.9,275.9 556.1,275.5 556.4,275.1 556.7,274.7 556.9,274.4 557.2,274 557.5,273.7 557.8,273.3 	"/>
	<polyline class="st5" points="563.2,275.2 563,275.7 562.8,276.2 562.5,276.7 562.2,277.2 561.9,277.8 561.6,278.3 561.3,278.8 
		560.9,279.3 560.5,279.8 	"/>
	<polyline class="st5" points="559,299.9 559.4,299.3 559.8,298.8 560.2,298.3 560.7,297.8 561.2,297.4 561.7,297 562.2,296.7 
		562.7,296.5 563.2,296.3 563.7,296.2 564.2,296.2 564.6,296.2 565.1,296.3 565.5,296.5 565.9,296.7 566.3,297 566.6,297.3 
		566.9,297.7 567.2,298.1 567.4,298.6 567.6,299.1 567.7,299.6 567.8,300.2 567.8,300.8 567.8,301.5 567.7,302.2 567.6,302.8 	"/>
	<polyline class="st5" points="559,299.9 559,299.9 559,299.9 558.9,299.9 558.9,299.9 558.9,299.9 558.9,299.9 	"/>
	<polyline class="st5" points="569.4,263.8 569.6,263.8 569.9,263.9 570.1,263.9 570.4,264 570.7,264.1 571,264.3 571.3,264.4 
		571.6,264.6 571.9,264.8 572.2,265.1 572.5,265.3 572.8,265.6 	"/>
	<polyline class="st5" points="685.7,296 685.6,295.8 685.2,295.2 684.9,294.5 684.6,293.9 684.4,293.3 684.2,292.8 684,292.3 
		683.9,291.8 683.8,291.4 683.7,291.1 683.6,290.7 683.6,290.5 683.6,290.2 683.7,290 683.7,289.8 683.8,289.7 683.9,289.6 
		684,289.5 684.2,289.4 684.3,289.4 684.5,289.5 684.7,289.5 684.9,289.6 685.1,289.7 685.3,289.8 685.5,290 685.8,290.1 686,290.3 
		686.3,290.5 686.5,290.8 686.8,291 687,291.3 687.3,291.6 687.6,291.9 687.8,292.2 688.1,292.5 688.4,292.8 	"/>
	<polyline class="st5" points="571.9,273.3 571.6,273.1 571.3,272.8 571.1,272.4 570.8,272.1 570.5,271.8 570.2,271.4 570,271 
		569.7,270.6 569.5,270.2 569.2,269.8 569,269.4 568.7,269 	"/>
	<polyline class="st5" points="572.8,265.6 573.2,266 573.5,266.5 573.9,266.9 574.2,267.4 574.5,267.9 574.7,268.5 575,269 
		575.2,269.6 575.4,270.1 575.6,270.7 575.7,271.3 575.8,271.8 575.9,272.3 575.9,272.8 575.9,273.3 575.9,273.7 575.8,274.1 
		575.8,274.5 575.6,274.7 575.5,274.9 575.3,275.1 575.1,275.2 574.9,275.2 574.6,275.2 574.4,275.2 574.1,275.1 573.8,275 
		573.5,274.8 573.2,274.6 572.9,274.3 572.6,274 572.2,273.7 571.9,273.3 	"/>
	<polyline class="st5" points="568.7,269 568.7,268.9 568.6,268.7 568.5,268.6 568.5,268.5 568.4,268.3 568.4,268.2 568.3,268 
		568.2,267.9 568.2,267.8 568.1,267.6 568.1,267.5 568.1,267.3 568,267.2 568,267 568,266.9 567.9,266.7 567.9,266.5 567.9,266.4 
		567.9,266.2 567.9,266.1 567.9,265.9 567.9,265.8 567.9,265.6 567.9,265.5 567.9,265.3 568,265.2 568,265.1 568.1,264.9 
		568.1,264.8 568.2,264.7 568.3,264.5 568.4,264.4 568.4,264.3 568.5,264.2 568.6,264.1 568.7,264.1 568.8,264 568.9,263.9 
		569.1,263.9 569.2,263.9 569.3,263.8 569.4,263.8 	"/>
	<polyline class="st5" points="561.1,270.5 561.3,270.4 561.5,270.4 561.6,270.4 561.8,270.4 561.9,270.4 562.1,270.5 562.3,270.6 
		562.4,270.6 562.6,270.8 562.7,270.9 562.8,271 562.9,271.2 563.1,271.3 563.2,271.5 563.2,271.7 563.3,271.9 563.4,272.1 
		563.5,272.3 563.5,272.5 563.5,272.8 563.5,273 563.5,273.2 563.5,273.5 563.5,273.7 563.5,274 563.4,274.2 563.4,274.4 
		563.3,274.7 563.2,274.9 563.2,275.2 	"/>
	<polyline class="st5" points="566.6,305.1 566.3,305.6 565.9,306.1 565.5,306.5 565.1,306.9 564.7,307.2 564.3,307.4 564,307.6 
		563.6,307.8 563.2,307.9 562.8,308 562.5,308 562.1,308 561.8,308 561.4,307.9 561.1,307.8 	"/>
	<polyline class="st5" points="561.1,307.8 560.7,307.6 560.4,307.4 560.1,307.2 559.8,307 559.5,306.7 559.2,306.4 559,306.1 
		558.8,305.8 558.5,305.4 	"/>
	<polyline class="st5" points="567.6,302.8 567.4,303.2 567.3,303.6 567.1,304 567,304.4 566.8,304.8 566.6,305.1 	"/>
	<polyline class="st5" points="558.8,300.2 558.9,300.2 558.9,300.1 558.9,300.1 558.9,300 559,300 559,299.9 	"/>
	<polyline class="st5" points="558.5,305.4 558.3,304.9 558.1,304.3 558,303.7 558,303.1 558,302.5 558.1,301.9 558.3,301.3 
		558.6,300.8 558.8,300.2 	"/>
	<polyline class="st5" points="678.7,315.6 678.5,315.7 678.2,315.8 678,315.8 677.8,315.9 677.6,316 677.3,316 677.1,316 
		676.8,316 676.6,316.1 676.3,316.1 676.1,316 675.8,316 675.6,316 675.4,315.9 675.1,315.9 674.9,315.8 674.7,315.7 674.5,315.6 
		674.3,315.5 674.1,315.4 673.9,315.3 673.7,315.2 673.5,315 673.3,314.9 673.2,314.7 673.1,314.6 672.9,314.4 672.8,314.3 
		672.7,314.1 672.7,313.9 672.6,313.7 672.5,313.6 672.5,313.4 672.5,313.2 672.5,313 672.5,312.8 672.5,312.6 672.5,312.5 
		672.6,312.3 672.7,312.1 672.7,311.9 672.8,311.8 672.9,311.6 673.1,311.4 673.2,311.3 673.4,311.1 673.5,311 673.7,310.9 
		673.9,310.8 674.1,310.6 674.3,310.5 	"/>
	<polyline class="st5" points="674.3,310.5 674.5,310.4 674.7,310.4 674.9,310.3 675.1,310.2 675.4,310.2 675.6,310.1 675.9,310.1 
		676.1,310.1 676.4,310.1 676.6,310.1 676.8,310.1 677.1,310.1 677.3,310.2 677.6,310.2 677.8,310.3 678,310.3 678.3,310.4 
		678.5,310.5 678.7,310.6 678.9,310.7 679.1,310.8 679.3,311 679.4,311.1 679.6,311.2 679.7,311.4 679.9,311.5 680,311.7 
		680.1,311.9 680.2,312 680.3,312.2 680.4,312.4 680.4,312.6 680.4,312.8 680.5,312.9 680.5,313.1 680.5,313.3 680.4,313.5 
		680.4,313.7 680.3,313.8 680.3,314 680.2,314.2 680.1,314.4 680,314.5 679.9,314.7 679.7,314.8 679.6,315 679.4,315.1 679.2,315.3 
		679.1,315.4 678.9,315.5 678.7,315.6 	"/>
	<polyline class="st5" points="631.4,286.3 631.3,286.2 631.2,286 631,285.8 630.9,285.6 630.8,285.4 630.6,285.2 630.5,285 
		630.4,284.8 630.3,284.6 630.3,284.4 630.2,284.2 630.1,284.1 630.1,283.9 630,283.7 630,283.5 630,283.4 630,283.2 630,283.1 
		630,282.9 630,282.8 630.1,282.7 630.1,282.5 630.2,282.4 630.3,282.3 630.4,282.3 630.5,282.2 630.6,282.1 630.7,282.1 630.8,282 
		630.9,282 631.1,282 631.2,282 631.4,282 631.5,282.1 631.7,282.1 631.9,282.1 632,282.2 632.2,282.3 632.4,282.4 	"/>
	<polyline class="st5" points="591.9,282.4 591.7,282.5 591.5,282.6 591.3,282.7 591.1,282.8 591.1,282.8 	"/>
	<polyline class="st5" points="592.8,286.3 592.9,286.2 593.1,286 593.2,285.8 593.4,285.6 593.5,285.4 593.6,285.2 593.7,285 
		593.8,284.8 593.9,284.6 594,284.4 594.1,284.2 594.1,284.1 594.2,283.9 594.2,283.7 594.2,283.5 594.3,283.4 594.3,283.2 
		594.3,283.1 594.2,282.9 594.2,282.8 594.2,282.7 594.1,282.5 594.1,282.4 594,282.3 593.9,282.3 593.8,282.2 593.7,282.1 
		593.6,282.1 593.5,282 593.3,282 593.2,282 593,282 592.9,282 592.7,282 592.6,282.1 592.4,282.1 592.2,282.2 592,282.3 
		591.9,282.4 	"/>
	<polyline class="st5" points="545.6,315.6 545.8,315.7 546,315.8 546.2,315.8 546.5,315.9 546.7,316 546.9,316 547.2,316 
		547.4,316 547.7,316.1 547.9,316.1 548.2,316 548.4,316 548.6,316 548.9,315.9 549.1,315.9 549.4,315.8 549.6,315.7 549.8,315.6 
		550,315.5 550.2,315.4 550.4,315.3 550.6,315.2 550.7,315 550.9,314.9 551.1,314.7 551.2,314.6 551.3,314.4 551.4,314.3 
		551.5,314.1 551.6,313.9 551.7,313.7 551.7,313.6 551.8,313.4 551.8,313.2 551.8,313 551.8,312.8 551.8,312.6 551.7,312.5 
		551.7,312.3 551.6,312.1 551.5,311.9 551.4,311.8 551.3,311.6 551.2,311.4 551,311.3 550.9,311.1 550.7,311 550.6,310.9 
		550.4,310.8 550.2,310.6 550,310.5 	"/>
	<polyline class="st5" points="550,310.5 549.8,310.4 549.6,310.4 549.3,310.3 549.1,310.2 548.9,310.2 548.6,310.1 548.4,310.1 
		548.1,310.1 547.9,310.1 547.7,310.1 547.4,310.1 547.2,310.1 546.9,310.2 546.7,310.2 546.4,310.3 546.2,310.3 546,310.4 
		545.8,310.5 545.6,310.6 545.4,310.7 545.2,310.8 545,311 544.8,311.1 544.7,311.2 544.5,311.4 544.4,311.5 544.3,311.7 
		544.1,311.9 544.1,312 544,312.2 543.9,312.4 543.9,312.6 543.8,312.8 543.8,312.9 543.8,313.1 543.8,313.3 543.8,313.5 
		543.9,313.7 543.9,313.8 544,314 544.1,314.2 544.2,314.4 544.3,314.5 544.4,314.7 544.5,314.8 544.7,315 544.8,315.1 545,315.3 
		545.2,315.4 545.4,315.5 545.6,315.6 	"/>
	<polyline class="st5" points="685.5,295.4 685.4,295.2 685.3,294.9 685.2,294.7 685.1,294.5 685,294.3 685,294 685,293.8 
		684.9,293.7 684.9,293.5 684.9,293.3 685,293.2 685,293.1 685,293 685.1,292.9 685.2,292.8 685.3,292.7 685.4,292.7 685.5,292.7 
		685.6,292.7 685.7,292.7 685.9,292.7 686,292.8 686.2,292.8 686.3,292.9 686.5,293 686.7,293.1 686.9,293.3 687.1,293.4 
		687.2,293.6 687.4,293.8 687.6,293.9 687.8,294.2 	"/>
	<polyline class="st5" points="538.8,295.4 538.9,295.2 539,294.9 539.1,294.7 539.2,294.5 539.2,294.3 539.3,294 539.3,293.8 
		539.3,293.7 539.3,293.5 539.3,293.3 539.3,293.2 539.3,293.1 539.2,293 539.2,292.9 539.1,292.8 539,292.7 538.9,292.7 
		538.8,292.7 538.7,292.7 538.5,292.7 538.4,292.7 538.2,292.8 538.1,292.8 537.9,292.9 537.7,293 537.6,293.1 537.4,293.3 
		537.2,293.4 537,293.6 536.8,293.8 536.6,293.9 536.4,294.2 	"/>
	<polyline class="st5" points="663.3,301.5 663.2,301.3 663,301.1 662.9,301 662.8,300.8 662.6,300.6 662.5,300.5 662.3,300.3 
		662.2,300.2 662,300 661.8,299.9 661.7,299.8 661.5,299.7 661.3,299.6 661.2,299.5 661,299.5 660.8,299.4 660.6,299.4 660.4,299.3 
		660.3,299.3 660.1,299.3 659.9,299.3 659.7,299.3 659.6,299.3 659.4,299.4 659.3,299.4 659.1,299.5 659,299.5 658.8,299.6 
		658.7,299.7 658.5,299.8 658.4,299.9 658.3,300 658.2,300.1 658.1,300.3 658,300.4 657.9,300.6 657.8,300.7 657.8,300.9 
		657.7,301.1 657.7,301.2 657.6,301.4 657.6,301.6 657.6,301.8 657.5,302 657.5,302.2 657.6,302.4 657.6,302.6 657.6,302.8 
		657.6,303 657.7,303.2 657.7,303.5 657.8,303.7 657.9,303.9 658,304.1 658.1,304.3 658.2,304.5 658.3,304.7 	"/>
	<polyline class="st5" points="658.3,304.7 658.4,304.9 658.5,305 658.6,305.2 658.8,305.4 658.9,305.5 659.1,305.7 659.2,305.8 
		659.4,306 659.5,306.1 659.7,306.2 659.9,306.3 660,306.4 660.2,306.5 660.4,306.6 660.6,306.7 660.7,306.8 660.9,306.8 
		661.1,306.8 661.3,306.9 661.5,306.9 661.6,306.9 661.8,306.9 662,306.8 662.1,306.8 	"/>
	<polyline class="st5" points="662.1,306.8 662.3,306.8 662.4,306.7 662.6,306.6 662.7,306.6 662.9,306.5 663,306.4 663.1,306.3 
		663.2,306.2 663.4,306 663.5,305.9 663.6,305.8 663.6,305.6 663.7,305.4 663.8,305.3 663.8,305.1 663.9,304.9 663.9,304.7 
		664,304.5 664,304.3 664,304.2 664,303.9 664,303.7 664,303.5 663.9,303.3 663.9,303.1 663.9,302.9 663.8,302.7 663.7,302.5 
		663.7,302.3 663.6,302.1 663.5,301.9 663.4,301.7 663.3,301.5 	"/>
	<polyline class="st5" points="665.4,274.7 665.6,275 665.8,275.2 666,275.5 666.1,275.7 666.3,276 666.5,276.3 666.6,276.5 
		666.7,276.8 666.9,277.1 667,277.3 667.1,277.6 667.2,277.9 667.2,278.1 667.3,278.4 667.3,278.6 667.4,278.9 667.4,279.1 
		667.4,279.3 667.4,279.5 667.4,279.7 667.3,279.9 667.3,280.1 667.2,280.2 667.1,280.4 667,280.5 666.9,280.6 666.8,280.6 
		666.7,280.7 666.6,280.8 666.4,280.8 666.2,280.8 666.1,280.8 665.9,280.7 665.7,280.7 665.5,280.6 665.4,280.5 665.2,280.4 
		665,280.3 664.8,280.2 664.6,280 664.4,279.8 664.2,279.6 664,279.5 663.8,279.2 663.6,279 	"/>
	<polyline class="st5" points="663.6,279 663.4,278.8 663.2,278.5 663,278.3 662.9,278 662.7,277.8 662.5,277.5 662.4,277.2 
		662.3,277 662.1,276.7 662,276.4 661.9,276.1 661.8,275.9 661.8,275.6 661.7,275.4 661.7,275.1 661.6,274.9 661.6,274.6 
		661.6,274.4 661.6,274.2 661.6,274 661.7,273.8 661.7,273.7 661.8,273.5 661.9,273.4 662,273.3 662.1,273.2 662.2,273.1 662.3,273 
		662.4,273 662.6,273 662.8,273 662.9,273 663.1,273 663.3,273.1 663.5,273.1 663.6,273.2 663.8,273.3 664,273.5 664.2,273.6 
		664.4,273.7 664.6,273.9 664.8,274.1 665,274.3 665.2,274.5 665.4,274.7 	"/>
	<polyline class="st5" points="687.8,294.2 688,294.4 688.2,294.6 688.4,294.8 688.6,295.1 688.8,295.3 688.9,295.6 689.1,295.8 
		689.3,296.1 689.4,296.3 689.6,296.6 689.7,296.9 689.9,297.1 690,297.4 690.1,297.6 690.2,297.9 690.3,298.1 690.3,298.3 
		690.4,298.6 690.4,298.8 690.5,299 690.5,299.1 690.5,299.3 690.5,299.5 690.5,299.6 690.4,299.7 690.4,299.9 690.3,300 690.3,300 
		690.2,300.1 690.1,300.1 690,300.1 689.8,300.2 689.7,300.1 689.6,300.1 689.4,300.1 689.3,300 689.1,299.9 688.9,299.8 
		688.8,299.7 688.6,299.5 688.4,299.4 688.2,299.2 688,299.1 687.8,298.9 687.6,298.7 	"/>
	<polyline class="st5" points="653.2,271.9 653,272.1 652.8,272.3 652.6,272.5 652.4,272.6 652.2,272.8 652,272.9 651.8,273 
		651.6,273.1 651.4,273.2 651.3,273.3 651.1,273.4 650.9,273.4 650.8,273.4 650.6,273.4 650.5,273.4 650.4,273.3 650.3,273.3 
		650.2,273.2 650.1,273.1 650,273 650,272.9 649.9,272.7 649.9,272.6 649.9,272.4 649.9,272.2 649.9,272 649.9,271.8 650,271.6 
		650,271.4 650.1,271.1 650.2,270.9 650.3,270.6 650.4,270.4 650.5,270.1 650.6,269.9 650.8,269.6 650.9,269.3 651.1,269.1 
		651.3,268.8 651.4,268.6 651.6,268.3 651.8,268.1 652,267.9 652.2,267.6 652.4,267.4 	"/>
	<polyline class="st5" points="652.4,267.4 652.6,267.2 652.8,267 653,266.8 653.2,266.7 653.4,266.5 653.6,266.4 653.8,266.3 
		654,266.2 654.2,266.1 654.4,266 654.5,265.9 654.7,265.9 654.8,265.9 655,265.9 655.1,265.9 655.2,266 655.3,266 655.4,266.1 
		655.5,266.2 655.6,266.3 655.7,266.4 655.7,266.6 655.7,266.7 655.7,266.9 655.7,267.1 655.7,267.3 655.7,267.5 655.7,267.7 
		655.6,267.9 655.5,268.2 655.4,268.4 655.4,268.7 655.2,268.9 655.1,269.2 655,269.4 654.9,269.7 654.7,270 654.5,270.2 
		654.4,270.5 654.2,270.7 654,271 653.8,271.2 653.6,271.4 653.4,271.7 653.2,271.9 	"/>
	<polyline class="st5" points="571,271.9 571.2,272.1 571.4,272.3 571.6,272.5 571.8,272.6 572,272.8 572.2,272.9 572.4,273 
		572.6,273.1 572.8,273.2 573,273.3 573.2,273.4 573.3,273.4 573.5,273.4 573.6,273.4 573.7,273.4 573.9,273.3 574,273.3 
		574.1,273.2 574.1,273.1 574.2,273 574.3,272.9 574.3,272.7 574.3,272.6 574.4,272.4 574.4,272.2 574.3,272 574.3,271.8 
		574.3,271.6 574.2,271.4 574.2,271.1 574.1,270.9 574,270.6 573.9,270.4 573.7,270.1 573.6,269.9 573.5,269.6 573.3,269.3 
		573.2,269.1 573,268.8 572.8,268.6 572.6,268.3 572.4,268.1 572.3,267.9 572.1,267.6 571.9,267.4 	"/>
	<polyline class="st5" points="571.9,267.4 571.6,267.2 571.4,267 571.2,266.8 571,266.7 570.8,266.5 570.6,266.4 570.4,266.3 
		570.3,266.2 570.1,266.1 569.9,266 569.7,265.9 569.6,265.9 569.4,265.9 569.3,265.9 569.1,265.9 569,266 568.9,266 568.8,266.1 
		568.7,266.2 568.7,266.3 568.6,266.4 568.6,266.6 568.5,266.7 568.5,266.9 568.5,267.1 568.5,267.3 568.6,267.5 568.6,267.7 
		568.7,267.9 568.7,268.2 568.8,268.4 568.9,268.7 569,268.9 569.1,269.2 569.3,269.4 569.4,269.7 569.6,270 569.7,270.2 
		569.9,270.5 570.1,270.7 570.2,271 570.4,271.2 570.6,271.4 570.8,271.7 571,271.9 	"/>
	<polyline class="st5" points="561,301.5 561.1,301.3 561.2,301.1 561.3,301 561.5,300.8 561.6,300.6 561.8,300.5 561.9,300.3 
		562.1,300.2 562.2,300 562.4,299.9 562.6,299.8 562.7,299.7 562.9,299.6 563.1,299.5 563.3,299.5 563.5,299.4 563.6,299.4 
		563.8,299.3 564,299.3 564.2,299.3 564.3,299.3 564.5,299.3 564.7,299.3 564.8,299.4 565,299.4 565.2,299.5 565.3,299.5 
		565.4,299.6 565.6,299.7 565.7,299.8 565.8,299.9 566,300 566.1,300.1 566.2,300.3 566.3,300.4 566.3,300.6 566.4,300.7 
		566.5,300.9 566.6,301.1 566.6,301.2 566.6,301.4 566.7,301.6 566.7,301.8 566.7,302 566.7,302.2 566.7,302.4 566.7,302.6 
		566.7,302.8 566.6,303 566.6,303.2 566.5,303.5 566.4,303.7 566.4,303.9 566.3,304.1 566.2,304.3 566.1,304.5 566,304.7 	"/>
	<polyline class="st5" points="566,304.7 565.9,304.9 565.7,305 565.6,305.2 565.5,305.4 565.3,305.5 565.2,305.7 565,305.8 
		564.9,306 564.7,306.1 564.6,306.2 564.4,306.3 564.2,306.4 564,306.5 563.9,306.6 563.7,306.7 563.5,306.8 563.3,306.8 
		563.1,306.8 563,306.9 562.8,306.9 562.6,306.9 562.5,306.9 562.3,306.8 562.1,306.8 	"/>
	<polyline class="st5" points="562.1,306.8 562,306.8 561.8,306.7 561.7,306.6 561.5,306.6 561.4,306.5 561.2,306.4 561.1,306.3 
		561,306.2 560.9,306 560.8,305.9 560.7,305.8 560.6,305.6 560.5,305.4 560.5,305.3 560.4,305.1 560.4,304.9 560.3,304.7 
		560.3,304.5 560.3,304.3 560.3,304.2 560.3,303.9 560.3,303.7 560.3,303.5 560.3,303.3 560.3,303.1 560.4,302.9 560.4,302.7 
		560.5,302.5 560.6,302.3 560.7,302.1 560.8,301.9 560.9,301.7 561,301.5 	"/>
	<polyline class="st5" points="558.8,274.7 558.6,275 558.5,275.2 558.3,275.5 558.1,275.7 557.9,276 557.8,276.3 557.6,276.5 
		557.5,276.8 557.4,277.1 557.3,277.3 557.2,277.6 557.1,277.9 557,278.1 557,278.4 556.9,278.6 556.9,278.9 556.9,279.1 
		556.9,279.3 556.9,279.5 556.9,279.7 556.9,279.9 557,280.1 557.1,280.2 557.1,280.4 557.2,280.5 557.3,280.6 557.4,280.6 
		557.6,280.7 557.7,280.8 557.8,280.8 558,280.8 558.2,280.8 558.3,280.7 558.5,280.7 558.7,280.6 558.9,280.5 559.1,280.4 
		559.3,280.3 559.5,280.2 559.7,280 559.9,279.8 560.1,279.6 560.3,279.5 560.5,279.2 560.7,279 	"/>
	<polyline class="st5" points="560.7,279 560.9,278.8 561.1,278.5 561.2,278.3 561.4,278 561.6,277.8 561.7,277.5 561.9,277.2 
		562,277 562.1,276.7 562.2,276.4 562.3,276.1 562.4,275.9 562.5,275.6 562.5,275.4 562.6,275.1 562.6,274.9 562.6,274.6 
		562.6,274.4 562.6,274.2 562.6,274 562.6,273.8 562.5,273.7 562.5,273.5 562.4,273.4 562.3,273.3 562.2,273.2 562.1,273.1 
		561.9,273 561.8,273 561.7,273 561.5,273 561.3,273 561.2,273 561,273.1 560.8,273.1 560.6,273.2 560.4,273.3 560.2,273.5 
		560,273.6 559.8,273.7 559.6,273.9 559.4,274.1 559.2,274.3 559,274.5 558.8,274.7 	"/>
	<polyline class="st5" points="536.4,294.2 536.2,294.4 536,294.6 535.9,294.8 535.7,295.1 535.5,295.3 535.3,295.6 535.1,295.8 
		535,296.1 534.8,296.3 534.7,296.6 534.5,296.9 534.4,297.1 534.3,297.4 534.2,297.6 534.1,297.9 534,298.1 533.9,298.3 
		533.9,298.6 533.8,298.8 533.8,299 533.8,299.1 533.8,299.3 533.8,299.5 533.8,299.6 533.8,299.7 533.9,299.9 533.9,300 534,300 
		534.1,300.1 534.2,300.1 534.3,300.1 534.4,300.2 534.5,300.1 534.7,300.1 534.8,300.1 535,300 535.2,299.9 535.3,299.8 
		535.5,299.7 535.7,299.5 535.9,299.4 536.1,299.2 536.3,299.1 536.4,298.9 536.6,298.7 	"/>
</g>
<path class="st6" d="M610,329.7h4.2c0.2,0,0.3-0.1,0.3-0.3c0-0.2-0.1-0.3-0.3-0.3H610c-0.2,0-0.3,0.1-0.3,0.3S609.9,329.7,610,329.7
	"/>
<path class="st6" d="M614.2,330.4H610c-0.2,0-0.3,0.1-0.3,0.3c0,0.2,0.1,0.3,0.3,0.3h4.2c0.2,0,0.3-0.1,0.3-0.3
	S614.4,330.4,614.2,330.4"/>
<path class="st6" d="M614.2,331.7H610c-0.2,0-0.3,0.1-0.3,0.3c0,0.2,0.1,0.3,0.3,0.3h4.2c0.2,0,0.3-0.1,0.3-0.3
	C614.5,331.8,614.4,331.7,614.2,331.7"/>
<path d="M614.6,427.7l-0.5-0.3l-0.5-0.3l0.5-0.3l0.5-0.3c0.2-0.1,0.2-0.3,0-0.4l-0.5-0.3l-1.9-1.3c0,0-0.1-0.1-0.2-0.1
	c-0.1-0.1-0.3-0.1-0.4,0l-0.2,0.1l-1.9,1.3l-0.5,0.3c-0.2,0.1-0.2,0.3,0,0.4l0.5,0.3l0.5,0.3l-0.5,0.3l-0.5,0.3
	c-0.2,0.1-0.2,0.3,0,0.4l0.5,0.3l1.9,1.3c0,0,0.1,0.1,0.2,0.1c0.1,0.1,0.3,0.1,0.4,0l0.2-0.1l1.9-1.3l0.5-0.3
	C614.8,428,614.8,427.8,614.6,427.7 M611.8,424.9l1.9,1.3l-1.9,1.3l-1.9-1.3L611.8,424.9z M611.8,429.2l-1.9-1.3l0.7-0.5l0.8,0.5
	c0,0,0.1,0.1,0.2,0.1c0.1,0.1,0.3,0.1,0.4,0l0.2-0.1l0.8-0.5l0.7,0.5L611.8,429.2z"/>
<g id="Layer_7">
	<path class="st6" d="M614.1,469.1c-0.7,0.2-1.5,0.3-2.3,0.3s-1.5-0.1-2.3-0.3c-0.8-0.3-1.4-1.1-1.2-2c0.3-1.6,1.1-2.9,2.3-4
		c0.7-0.6,1.7-0.6,2.3,0c1.1,1,1.9,2.4,2.3,4C615.5,467.9,614.9,468.8,614.1,469.1 M618.1,468.3l-4.8-8.2c-0.1-0.3-0.4-0.4-0.7-0.4
		H611c-0.3,0-0.6,0.2-0.7,0.4l-4.8,8.2c-0.1,0.3-0.1,0.6,0,0.8l0.8,1.4c0.1,0.3,0.4,0.4,0.7,0.4h9.5c0.3,0,0.6-0.2,0.7-0.4l0.8-1.4
		C618.3,468.8,618.3,468.5,618.1,468.3"/>
	<path class="st6" d="M618.4,478.7l-2.9,5.6c0,0.1-0.1,0.1-0.2,0.1h-0.9c-0.1,0-0.2-0.1-0.2-0.1l-2.9-5.6c0-0.1,0-0.2,0-0.3l0.3-0.5
		c0.1-0.1,0.2-0.2,0.3-0.2h0.3c0.1,0,0.1,0,0.2,0.1l2.4,4.8c0.1,0.1,0.2,0.1,0.2,0l2.4-4.8c0-0.1,0.1-0.1,0.2-0.1h0.3
		c0.1,0,0.2,0.1,0.3,0.2l0.3,0.5C618.5,478.5,618.5,478.6,618.4,478.7"/>
	<path class="st6" d="M604.2,478.7l-2.9,5.6c0,0.1-0.1,0.1-0.2,0.1h-0.9c-0.1,0-0.2-0.1-0.2-0.1l-2.9-5.6c-0.1-0.1,0-0.2,0-0.3
		l0.3-0.5c0.1-0.1,0.2-0.2,0.3-0.2h0.3c0.1,0,0.1,0,0.2,0.1l2.4,4.8c0,0.1,0.2,0.1,0.2,0l2.4-4.8c0-0.1,0.1-0.1,0.2-0.1h0.3
		c0.1,0,0.2,0.1,0.3,0.2l0.3,0.5C604.3,478.5,604.3,478.6,604.2,478.7"/>
	<path class="st6" d="M608.3,477.8c0,0-0.1-0.1-0.2-0.1h-0.4c-0.1,0-0.2,0.1-0.3,0.2l-0.3,0.5c0,0,0,0.1,0,0.2v5.7
		c0,0.2,0.1,0.3,0.3,0.3h0.8c0.1,0,0.3-0.1,0.3-0.3V478C608.4,477.9,608.4,477.9,608.3,477.8"/>
	<path class="st6" d="M621.6,477.9c0.1-0.1,0.2-0.2,0.3-0.2h4.1c0.1,0,0.2,0.1,0.3,0.2l0.3,0.5c0,0.1,0.1,0.2,0.1,0.2v0.1
		c0,0.1-0.1,0.2-0.2,0.2h-3.7c-0.1,0-0.1,0.1-0.1,0.1v1.3c0,0.1,0.1,0.1,0.1,0.1h2.5c0.1,0,0.2,0.1,0.2,0.2v0.7
		c0,0.1-0.1,0.2-0.2,0.2h-2.5c-0.1,0-0.1,0.1-0.1,0.1v1.3c0,0.1,0.1,0.1,0.1,0.1h3.7c0.1,0,0.2,0.1,0.2,0.2v0.1c0,0.1,0,0.2-0.1,0.2
		l-0.3,0.5c-0.1,0.1-0.2,0.2-0.3,0.2h-4.1c-0.1,0-0.2-0.1-0.3-0.2l-0.3-0.5c0-0.1-0.1-0.2-0.1-0.2v-5c0-0.1,0-0.2,0.1-0.2
		L621.6,477.9z"/>
</g>
</svg>
