<svg xmlns="http://www.w3.org/2000/svg" width="278.701" height="293.941" viewBox="0 0 278.701 293.941">
  <g id="Group_374" data-name="Group 374" transform="translate(-6855.293 -4540.5)">
    <g id="Group_365" data-name="Group 365" transform="translate(4886.505 4257.812)">
      <path id="Path_690" data-name="Path 690" d="M2006.772,533.112c12.526,26.163,62.985,46.813,123.841,40.957,95.535-9.179,115.917-53.6,115.363-84.453a28.1,28.1,0,0,0-2.707-11.25,21.61,21.61,0,0,0-.278-2.231c2.989-11.759-1.64-21.514-11.461-26.792a34.775,34.775,0,0,0-20.6-3.552c-.085-.05-.085-.05-.12-.185,0,0-8.827-11.568-10.373-19.374-1.581-7.94-6.245-34.009-6.245-34.009-2.05-12.351-9.057-25.244-25.78-26.831l-36.05-2.657c-10.854-.27-21.208,7.674-24.426,16.542-.05.085-12.32,33.393-14.5,40.129-2.261,6.684-5.933,16.315-28.761,24.975A317.335,317.335,0,0,0,2033.041,458l-13.726-15.864c-9.027-10.656-21.664-18.527-37.933-10.09l-4.6,3.683c-7.942,6.4-8.012,16.338-3.333,26.01-.3-.066,31.153,68.468,33.327,71.369" transform="translate(0)" fill="none" stroke="#5380f2" stroke-miterlimit="10" stroke-width="3"/>
      <path id="Path_691" data-name="Path 691" d="M1979.424,435.633a10.894,10.894,0,0,1,8.007,3.507c9.683,9.555.975,14.349,4.754,33.237a72.939,72.939,0,0,0,8.253,16.963c5.35,7.776,23.624,34.5,23.624,34.5s9.514,14.846,30.172,20.038,81.916,14.261,103.169-6.008a134.618,134.618,0,0,0,30.339-44,104.98,104.98,0,0,0,5.23-13.98c1.521-5.633,4.165-19.318,22.644-24.144,18.613-4.861,26.5,2.13,28.336,11.946" transform="translate(-0.13 -1.041)" fill="none" stroke="#5380f2" stroke-miterlimit="10" stroke-width="1"/>
      <path id="Path_692" data-name="Path 692" d="M2246.788,477.813s-3.789,31.016,2.491,17.776" transform="translate(-3.932 -1.643)" fill="none" stroke="#5380f2" stroke-miterlimit="10" stroke-width="3"/>
      <path id="Path_693" data-name="Path 693" d="M2043.456,469.978a38.47,38.47,0,0,1-10.243-10.347l.285-.863c.035.135,9.31,14.61,19.314,13.225,0,0-1.768,2.389-9.356-2.016" transform="translate(-0.898 -1.371)" fill="none" stroke="#5380f2" stroke-miterlimit="10" stroke-width="1"/>
      <path id="Path_694" data-name="Path 694" d="M2213.008,447.219s-18.87,4.134-32.849,15.083c-3.423,2.665-8.715,7.889-14.7,18.321-2.487,4.37-5.229,8.588-8.09,12.62" transform="translate(-2.671 -1.207)" fill="none" stroke="#5380f2" stroke-miterlimit="10" stroke-width="1"/>
      <path id="Path_695" data-name="Path 695" d="M2147.7,485.882c-.692.39-2.65,1.175-4.3,2.025a13.038,13.038,0,0,1-5.845,1.338c-1.015-.031-44.572-3.375-44.572-3.375-1.049-.166-2.148-.246-2.589-.854-1.121-1.585-1.8-2.564-2.073-3.071l.029-1.589a4.25,4.25,0,0,1,1.128-1.508l31.159-14.942a11.455,11.455,0,0,1,4.916-1.317l9.468.477a1.576,1.576,0,0,1,1.016.605l12.455,19.925-.147,1.4C2148.241,485.171,2148.022,485.729,2147.7,485.882Z" transform="translate(-1.685 -1.426)" fill="none" stroke="#5380f2" stroke-linecap="round" stroke-linejoin="round" stroke-width="1"/>
      <path id="Path_696" data-name="Path 696" d="M2148.04,483.7a1.925,1.925,0,0,1-.59.8c-.692.391-2.65,1.175-4.3,2.026a13.035,13.035,0,0,1-5.844,1.337c-1.014-.031-42.306-2.942-42.306-2.942-2.723-.245-3.283-1.038-5-3.551" transform="translate(-1.709 -1.694)" fill="none" stroke="#5380f2" stroke-linecap="round" stroke-linejoin="round" stroke-width="0.5"/>
      <path id="Path_697" data-name="Path 697" d="M2137.489,479.761c-1.514,2.54-7.492,4.487-17.738,3.775-11.735-.91-17.946-3-17.174-5.068,1.709-4.6,17.125-10.451,23.06-10.013C2136.846,469.282,2138.548,477.983,2137.489,479.761Z" transform="translate(-1.888 -1.509)" fill="none" stroke="#5380f2" stroke-linecap="round" stroke-linejoin="round" stroke-width="1"/>
      <path id="Path_698" data-name="Path 698" d="M2103.268,480.042c1.709-4.6,15.856-10.633,21.792-10.2,11.21.826,13.013,9.357,10.822,11.495" transform="translate(-1.899 -1.529)" fill="none" stroke="#5380f2" stroke-linecap="round" stroke-linejoin="round" stroke-width="0.5"/>
      <path id="Path_699" data-name="Path 699" d="M2150.874,370.63c-.37.812-1.636,1.206-2.9,1.023s-1.914-1.025-1.6-1.753c.37-.813,1.636-1.206,2.905-1.024S2151.242,369.817,2150.874,370.63Z" transform="translate(-2.513 -0.087)" fill="none" stroke="#5380f2" stroke-miterlimit="10" stroke-width="3"/>
      <path id="Path_700" data-name="Path 700" d="M2136.13,497.321" transform="translate(-2.368 -1.922)" fill="none" stroke="#5380f2" stroke-width="1.686"/>
      <path id="Path_701" data-name="Path 701" d="M2134.5,506.293s13.083,4.493,23.069-13.394" transform="translate(-2.345 -1.859)" fill="none" stroke="#5380f2" stroke-miterlimit="10" stroke-width="1"/>
    </g>
    <line id="Line_881" data-name="Line 881" y1="192" transform="translate(7006 4540.5)" fill="none" stroke="#fff" stroke-width="2"/>
  </g>
</svg>
