<svg width="64" height="64" viewBox="0 0 64 64" fill="none" xmlns="http://www.w3.org/2000/svg">
<path d="M8.3022 14.4174C9.75997 14.8974 10.6666 16.3907 10.6666 17.9374V31.9996C10.6666 33.3863 11.0578 33.7774 11.5555 33.7774H13.3333C13.8311 33.7774 14.2222 33.3863 14.2222 32.8885V9.06628C14.2222 7.51961 15.1289 6.0085 16.5866 5.5285C19.04 4.7285 21.3333 6.55961 21.3333 8.8885V32.8885C21.3333 33.3863 21.7244 33.7774 22.2222 33.7774H24C24.4977 33.7774 24.8889 33.3863 24.8889 32.8885V5.51073C24.8889 3.96406 25.7955 2.45295 27.2533 1.97295C29.7066 1.17295 32 3.00406 32 5.33295V32.8885C32 33.3863 32.3911 33.7774 32.8889 33.7774H34.6666C35.1644 33.7774 35.5555 33.3863 35.5555 32.8885V12.6218C35.5555 11.0752 36.4622 9.56406 37.92 9.08406C40.3733 8.28406 42.6666 10.1152 42.6666 12.4441V42.7196C42.6666 43.0929 43.0933 43.2885 43.3778 43.0574C46.1511 40.8885 49.3155 38.8085 52.8889 36.8352C59.6089 33.1018 62.2578 40.3907 59.1822 43.1285C55.84 46.0796 52.3022 48.8352 49.4755 52.0174C48.2311 53.4218 47.04 54.8618 45.9378 56.3552C43.2178 59.9996 38.9866 62.2218 34.4355 62.2218H7.12886C5.17331 62.2218 3.57331 60.6218 3.57331 58.6663V17.7774C3.57331 15.4307 5.86664 13.5996 8.31997 14.4174H8.3022Z" fill="url(#paint0_linear_4419_27480)"/>
<path d="M8.14582 14.8923L8.14672 14.8867C6.0346 14.1933 4.07331 15.7644 4.07331 17.7774V58.6663C4.07331 60.3457 5.44945 61.7218 7.12886 61.7218H34.4355C38.8211 61.7218 42.9062 59.5805 45.5364 56.057C46.6492 54.5494 47.8499 53.0981 49.1013 51.6858L49.1017 51.6853C51.2194 49.3012 53.7407 47.1461 56.2531 44.9986C57.1257 44.2527 57.9972 43.5078 58.8503 42.7545C60.1687 41.5803 60.2985 39.3601 59.2912 37.8301C58.8009 37.0854 58.0505 36.5261 57.0532 36.351C56.0503 36.1749 54.7413 36.378 53.1317 37.2722L53.1306 37.2729C49.5792 39.2341 46.4383 41.2989 43.6887 43.4489C43.0846 43.9343 42.1666 43.5212 42.1666 42.7196V12.4441C42.1666 10.4467 40.1975 8.86789 38.0759 9.55914C36.8622 9.95903 36.0555 11.2474 36.0555 12.6218V32.8885C36.0555 33.6624 35.4406 34.2774 34.6666 34.2774H32.8889C32.1149 34.2774 31.5 33.6624 31.5 32.8885V5.33295C31.5 3.33558 29.5308 1.75673 27.4091 2.44806C26.1955 2.848 25.3889 4.13634 25.3889 5.51073V32.8885C25.3889 33.6624 24.7739 34.2774 24 34.2774H22.2222C21.4483 34.2774 20.8333 33.6624 20.8333 32.8885V8.8885C20.8333 6.89113 18.8641 5.31228 16.7424 6.00362C15.5288 6.40357 14.7222 7.6919 14.7222 9.06628V32.8885C14.7222 33.6624 14.1072 34.2774 13.3333 34.2774H11.5555C11.3648 34.2774 11.161 34.2395 10.9667 34.1333C10.771 34.0263 10.6134 33.8653 10.4938 33.6626C10.2652 33.2752 10.1666 32.7216 10.1666 31.9996V17.9374C10.1666 16.5656 9.36211 15.2928 8.14582 14.8923Z" stroke="black" stroke-opacity="0.2"/>
<defs>
<linearGradient id="paint0_linear_4419_27480" x1="60.4556" y1="1.78223" x2="0.126989" y2="58.56" gradientUnits="userSpaceOnUse">
<stop stop-color="#30CB6A"/>
<stop offset="1" stop-color="#365EFE"/>
</linearGradient>
</defs>
</svg>
