<svg width="64" height="64" viewBox="0 0 64 64" fill="none" xmlns="http://www.w3.org/2000/svg">
<path d="M55.6978 14.4174C54.24 14.8974 53.3334 16.3907 53.3334 17.9374V31.9996C53.3334 33.3863 52.9422 33.7774 52.4445 33.7774H50.6667C50.1689 33.7774 49.7778 33.3863 49.7778 32.8885V9.06628C49.7778 7.51961 48.8711 6.0085 47.4134 5.5285C44.96 4.7285 42.6667 6.55961 42.6667 8.8885V32.8885C42.6667 33.3863 42.2756 33.7774 41.7778 33.7774H40C39.5023 33.7774 39.1111 33.3863 39.1111 32.8885V5.51073C39.1111 3.96406 38.2045 2.45295 36.7467 1.97295C34.2934 1.17295 32 3.00406 32 5.33295V32.8885C32 33.3863 31.6089 33.7774 31.1111 33.7774H29.3334C28.8356 33.7774 28.4445 33.3863 28.4445 32.8885V12.6218C28.4445 11.0752 27.5378 9.56406 26.08 9.08406C23.6267 8.28406 21.3334 10.1152 21.3334 12.4441V42.7196C21.3334 43.0929 20.9067 43.2885 20.6222 43.0574C17.8489 40.8885 14.6845 38.8085 11.1111 36.8352C4.39114 33.1018 1.74225 40.3907 4.8178 43.1285C8.16003 46.0796 11.6978 48.8352 14.5245 52.0174C15.7689 53.4218 16.96 54.8618 18.0622 56.3552C20.7822 59.9996 25.0134 62.2218 29.5645 62.2218H56.8711C58.8267 62.2218 60.4267 60.6218 60.4267 58.6663V17.7774C60.4267 15.4307 58.1334 13.5996 55.68 14.4174H55.6978Z" fill="url(#paint0_linear_4419_27482)"/>
<path d="M55.8542 14.8923L55.8533 14.8867C57.9654 14.1933 59.9267 15.7644 59.9267 17.7774V58.6663C59.9267 60.3457 58.5506 61.7218 56.8711 61.7218H29.5645C25.1789 61.7218 21.0938 59.5805 18.4636 56.057C17.3508 54.5494 16.1501 53.0981 14.8987 51.6858L14.8983 51.6853C12.7806 49.3012 10.2593 47.1461 7.74692 44.9986C6.87433 44.2527 6.00281 43.5078 5.14967 42.7545C3.83125 41.5803 3.70148 39.3601 4.70875 37.8301C5.19909 37.0854 5.94945 36.5261 6.94678 36.351C7.94969 36.1749 9.25873 36.378 10.8683 37.2722L10.8694 37.2729C14.4208 39.2341 17.5617 41.2989 20.3113 43.4489C20.9154 43.9343 21.8334 43.5212 21.8334 42.7196V12.4441C21.8334 10.4467 23.8025 8.86789 25.9241 9.55914C27.1378 9.95903 27.9445 11.2474 27.9445 12.6218V32.8885C27.9445 33.6624 28.5594 34.2774 29.3334 34.2774H31.1111C31.8851 34.2774 32.5 33.6624 32.5 32.8885V5.33295C32.5 3.33558 34.4692 1.75673 36.5909 2.44806C37.8045 2.848 38.6111 4.13634 38.6111 5.51073V32.8885C38.6111 33.6624 39.2261 34.2774 40 34.2774H41.7778C42.5517 34.2774 43.1667 33.6624 43.1667 32.8885V8.8885C43.1667 6.89113 45.1359 5.31228 47.2576 6.00362C48.4712 6.40357 49.2778 7.6919 49.2778 9.06628V32.8885C49.2778 33.6624 49.8928 34.2774 50.6667 34.2774H52.4445C52.6352 34.2774 52.839 34.2395 53.0333 34.1333C53.229 34.0263 53.3866 33.8653 53.5062 33.6626C53.7348 33.2752 53.8334 32.7216 53.8334 31.9996V17.9374C53.8334 16.5656 54.6379 15.2928 55.8542 14.8923Z" stroke="black" stroke-opacity="0.2"/>
<defs>
<linearGradient id="paint0_linear_4419_27482" x1="3.54443" y1="1.78223" x2="63.873" y2="58.56" gradientUnits="userSpaceOnUse">
<stop stop-color="#30CB6A"/>
<stop offset="1" stop-color="#365EFE"/>
</linearGradient>
</defs>
</svg>
