<?xml version="1.0" encoding="UTF-8"?>
<svg xmlns="http://www.w3.org/2000/svg" version="1.1" viewBox="0 0 362.3 545.1">
  <defs>
    <style>
      .cls-1 {
        stroke-width: .4px;
      }

      .cls-1, .cls-2, .cls-3, .cls-4, .cls-5, .cls-6, .cls-7 {
        fill: none;
        stroke: #fff;
      }

      .cls-1, .cls-3, .cls-4, .cls-5, .cls-7 {
        stroke-linecap: round;
        stroke-linejoin: round;
      }

      .cls-2, .cls-3 {
        stroke-width: .4px;
      }

      .cls-2, .cls-6 {
        stroke-miterlimit: 10;
      }

      .cls-4 {
        stroke-width: .4px;
      }

      .cls-5, .cls-6 {
        stroke-width: 1.5px;
      }

      .cls-7 {
        stroke-width: 1.5px;
      }
    </style>
  </defs>
  <!-- Generator: Adobe Illustrator 28.7.5, SVG Export Plug-In . SVG Version: 1.2.0 Build 176)  -->
  <g>
    <g id="Layer_1">
      <g id="Layer_1-2" data-name="Layer_1">
        <g>
          <path class="cls-3" d="M94.4,184.2"/>
          <path class="cls-5" d="M189.2,287c-.2,0-.4.1-.7.1-1.8-.1-6.5-.4-10-.1-5.2.3-11.2,2.6-14.7,6.5-2.4,2.6-3.6,5.9-4.5,9.3-.4,1.6-.7,3.2-.9,4.8s-.3,3.2-.2,4.8.1,3.2.4,4.8.5,3.2.9,4.7.8,3.1,1.4,4.6,1.1,3.1,1.8,4.5c.5.9,1.1,1.9,1.2,2.9.1,1.2-.3,2.3-.7,3.4l-1.1,3.3-1.3,3.8c0,.2-.2.3-.3.3-.5,0-1.6.2-3.8.6-3,.5-4.4,3.8-6.2,7.9s-38.2,110.7-41.8,119.9c-4.7,11.9-9.1,24-16.2,34.7-2.4,3.5-5,6.9-7.8,10.1-7.1,8.1-16.2,14.4-26.8,16.8-6.3,1.4-12.8,1.6-19.1,0-11.3-2.8-22.3-9.5-29.2-19s-1.5-2.1-2.1-3.2c-2.8-4.9-3.6-10-3.3-15.6.7-13.2,4.3-26.1,8.5-38.6,1.6-4.9,3.4-9.8,5-14.7,13.2-38.5,27.8-76.5,42.8-114.3,5.5-13.8,11.1-27.5,16.7-41.2s10.4-25.7,13.2-39.7c2.3-11.7,3.7-23.6,4.3-35.5.4-8.2.5-16.4.2-24.7,0-2-.2-4-.3-6"/>
          <path class="cls-3" d="M276.4,229.2c-8.4,9-20,18.4-29.1,22.4-11.1,4.9-20.7,5.5-31.3,11.2-10.5,5.7-18.8,14.5-26.2,23.9s-.3.3-.5.4"/>
          <g>
            <path class="cls-6" d="M183.3,286.9l7.8,4.2c.6.3.8,1.1.5,1.7-3.3,5.3-11.1,21.1-14.9,38.8-.2.5-.9.6-1.2.6-2.6,0-5.1-.3-7.7-.6s-3.4-.4-5.1-.6"/>
            <path class="cls-2" d="M191.6,291.6c-2.2-.3-4.4.5-6.3,1.4s-2.7,1.5-3.9,2.4c-2.3,2-4,4.6-5.1,7.5s-1.8,6.7-2,10.2.1,8,.8,12c.4,2.3.8,4.5,1.4,6.7"/>
            <path class="cls-2" d="M190.5,290.8c-3.9-.5-7.6,1.4-10.4,3.9-2.4,2.1-4.1,4.7-5.3,7.6-1.3,3.2-1.9,6.7-2,10.1s.2,8,.8,11.9c.4,2.6,1,5.4,1.7,7.9"/>
          </g>
          <path class="cls-6" d="M187.7,289.3l4.8-3.3c4.8-3.3,24.3-13.4,29.6-15.8,5.3-2.3,20.3-9.3,28.5-15.5,18.8-14.2,28.8-28.6,28.8-28.6"/>
          <path class="cls-6" d="M6,509.6c3.8,10.8,10.8,20.7,21.2,25.9,10.6,5.3,23.8,6.4,35.2,3.6,7.3-1.8,13.6-5.7,19.3-10.6,3.6-3.1,6.6-6.8,9.5-10.5,14.9-19.5,22.2-43.6,31-66.1,2.8-7.3,5.6-14.5,8.2-21.8,8.6-23.4,16.6-47.1,25-70.6s2.9-8.9,4.8-13c.8-1.9-1.1-1.7-1.1-1.7"/>
          <path class="cls-5" d="M274.4,208.4c-5.7,27.7-49.2,42.7-95,33.2-45.8-9.4-78.3-39.5-72.6-67.2,5.7-27.7,50.2-42.7,96-33.2,45.8,9.4,77.3,39.5,71.6,67.2Z"/>
          <path class="cls-5" d="M113.6,149.4c-5-5.2-9.8-10.6-14.6-16-7.7-8.8-17-18.9-17.6-31.3s0-1.1,0-1.7c0-5.2,1-10.3,3.9-14.6s7.8-8.2,12.8-10.5c2.4-1.1,4.9-2,7.4-2.8,23.7-7.5,50.3-5.5,57.3-4.6s51.6,5.9,105.9,37.3c14.2,8.2,27.6,18.2,38.4,30.6,11.6,13.3,21.9,30.8,19.1,49.1-.8,5-3.2,10-6.3,14-4.2,5.4-10,9.4-16.2,12.3s-12.8,4.8-19.4,6.7c3.8-1.1,7.7-1.6,11.5-2.8s7.7-2.6,11.4-4.2c14.9-6.4,29.8-16.3,38.5-30.3,20.6-33.1,9.9-71.5-12.1-100.6-11.9-15.7-26.8-29.2-43.4-39.8C254.2,17.3,208.5,4.3,165.9,4.5c-3.2,0-6.4,0-9.5.3-17.1,1.2-34.2,5.6-49.1,14.3-7.1,4.1-14.3,9.3-19.6,15.6-5.7,6.7-10,14.5-12.9,22.7-2.9,8.2-2.8,9.5-3.5,14.4-1.7,12.1.5,24.4,6,35.3,9,17.8,36.2,42.3,36.2,42.3,0,0-1.5,1.1-5.3,4.2s-13.5,12.8-13.9,28.4,1.2,12.1,3.8,17.6c7.4,15.1,20.9,25.8,35,34.3,15.6,9.3,34.1,14.9,51.9,17.7,19.7,3.1,40.2,3,59.3-3.3,19.1-6.3,1.1-.4,1.7-.6,12.2-4.3,24.6-11.6,33.1-21.6s.2-.2.3-.3c5.2-6.3,7.8-15.9,7.2-23-.7-8.2-3.2-16.1-7.6-23.1-4.7-7.6-12.1-15-19.4-20.2s-1.3-.4-1.8,0l-4.8,3.6-.3-.2,4-3.1c.5-.4.5-1.3,0-1.6-4.1-2.6-17.8-11.2-28.6-16-12.8-5.7-93.2-42-107.8-72.3"/>
          <path class="cls-3" d="M128.7,148.7l-.6-1c-.3-.5-.8-.7-1.3-.6l-13.3,2.3"/>
          <path class="cls-3" d="M126.1,147.1c-.8,0-1.6-.5-2.3-.8-5.4-2.6-9.8-7.1-14-11.1s-8.5-8.6-12.1-13.5-4.1-5.9-5.6-9.2c-3.8-8-5.3-18.2-.5-26.1s4.8-5.8,7.9-7.8c5.2-3.4,11.1-5.8,17-7.6s.8-.2,1.1-.4c12.2-3.7,18.4-3.4,18.4-3.4"/>
          <path class="cls-3" d="M123.8,147.6c-3.2-1.5-6.2-3.7-8.8-6-4.9-4.3-9.5-8.9-13.8-13.8-7.7-8.7-15.3-19.9-13.9-32.1,0-.6.2-1.2.3-1.8,1.5-7.6,6.7-13.2,13.3-17,6.8-3.9,14.5-6.7,22.2-8.4"/>
          <path class="cls-2" d="M184.5,287.6h3.5c.5.1.6.6.4.9l-1,.6"/>
          <path class="cls-6" d="M194.1,284.9c2.8.7,6.1,1.2,9,1.1,7.9,0,13.2-6.5,17.1-12.6,2-3.1,3.7-4.1,3.7-4.1"/>
          <path class="cls-2" d="M286.4,207.6s36.4-7.9,34.1-35.6-23.6-46.1-33-54.2"/>
          <path class="cls-6" d="M262.2,161.3s30.4.9,52.6-10.5"/>
          <path class="cls-2" d="M266.4,164.9s31.9,0,49.2-12.2"/>
          <g>
            <ellipse class="cls-1" cx="200.1" cy="213.6" rx="8.7" ry="15.1" transform="translate(-49.4 366.6) rotate(-78.4)"/>
            <path class="cls-3" d="M185.5,210.2c-.9,1.7-1.1,4-1.1,4,0,.9-.3,1.7-.2,2.6,0,1.4.7,2.7,1.6,3.8,3.1,3.7,9.5,6.2,14.8,6.5,4.6.2,9.4-.4,12.6-4,.6-.7,1.1-1.6,1.2-2.6l.6-3.5"/>
            <path class="cls-3" d="M184.6,212.7c-.2,2.1,1.1,3.9,2.5,5.3s3.3,2.7,5.2,3.7,2.4,1,3.6,1.4c2.6.8,5.3,1.1,8,1.1s6.2-.6,8.5-2.6,1.6-1.6,2.1-2.6"/>
          </g>
          <g>
            <path class="cls-3" d="M243.7,202.5c-.9,4.5-8.2,6.9-16.3,5.2-8-1.7-13.8-6.7-12.9-11.2s9.3-6.8,17.4-5.1,12.7,6.6,11.7,11.1h.1Z"/>
            <path class="cls-3" d="M214.6,196.3c-.4,1-.7,2.1-1,3.2-.4,1.9-.6,3.4.6,5.4,2.3,3.8,6.7,6.2,10.9,7.3s1.7.4,2.5.6c2.4.4,4.8.4,7.2-.1s4.3-1.1,6-2.5,1-.9,1.4-1.5.4-.6.5-.9c1.2-3.4,1.1-5.3,1.1-5.3"/>
            <path class="cls-3" d="M213.8,199s.3,7.1,12.9,10.1c11.1,2.7,16-2.3,16.7-4"/>
          </g>
          <g>
            <ellipse class="cls-7" cx="151.5" cy="204.1" rx="5.9" ry="10.1" transform="translate(-76 317.5) rotate(-79.9)"/>
            <ellipse class="cls-4" cx="151.3" cy="205.6" rx="8.1" ry="13.5" transform="translate(-77.6 318.6) rotate(-79.9)"/>
            <path class="cls-3" d="M141.7,202.1s-1.3,2.2-1.1,4.8,1.1,3.4,1.1,3.4"/>
            <path class="cls-3" d="M161.6,205.3s.6,3.1,0,4.8-2.6,3.5-4.3,3.7"/>
            <path class="cls-3" d="M140.8,204.7c0,2,3.1,5.3,9.2,6.6,6.1,1.3,10.2-1,11.2-2.2s.6-1.7.6-1.7"/>
          </g>
          <path class="cls-2" d="M262.3,161.4s28.4,23.5,14,51.9-50.4,31.1-67.1,31.1"/>
          <ellipse class="cls-4" cx="191.5" cy="149.9" rx="1.6" ry="2.8" transform="translate(10.3 312.1) rotate(-79.9)"/>
          <path class="cls-2" d="M84.6,517.9s1.9.9,3.5,4.2"/>
          <path class="cls-2" d="M165.7,331.4"/>
          <path class="cls-2" d="M164.4,331.3v1c0,.5-.5.6-.7.4l-.8-1.5"/>
          <g>
            <path class="cls-3" d="M187.2,171.8c-.4.4-.8.7-1.3,1-4.3,2.8-21.7,3.1-29.5-6.4"/>
            <ellipse class="cls-4" cx="173.4" cy="156.8" rx="5.4" ry="12" transform="translate(-11.4 300) rotate(-79.9)"/>
            <path class="cls-6" d="M189.8,167.8c4.5,3.4,6.2,7.2,5.5,11.2s-.5,1.8-.9,2.6"/>
            <path class="cls-5" d="M194.4,181.6c-3.4,5.9-14.4,9.6-26.5,7.4s-23.8-11.3-22.5-18.9,3.5-6.8,9.1-8.4"/>
            <path class="cls-3" d="M190.7,165.1c7.3,5.1,12.2,11.8,11,18.5-1.9,10.4-17.8,16.1-35,13s-29.4-14.5-27.5-24.8c1.1-6.3,6.1-10.8,14.7-12.8"/>
            <path class="cls-3" d="M188,170.9c3.1,2.7,4.1,5.5,3.6,8.7s-.4,1.5-.8,2.2"/>
            <path class="cls-3" d="M190.7,181.8c-2.9,5.1-12.1,7.6-22.4,5.8-11.6-2.1-20.1-9-18.9-15.5.6-3.1,3.2-5.7,6-6.6"/>
            <path class="cls-5" d="M175.7,149.5c-16.3-2.5-19.9,4.4-21,8.1-.9,3.2.4,7.3.8,8.4,0,.2.2.4.3.5.2.3.4.5.6.8h0s1.3,8.2,1.5,8.5c.7,1.6,9.8,11.4,23.6,5.1.6-.3,1.5-1.2,1.9-1.8,1.8-2.4,3.9-6.5,4-6.5,3.3-3.1,3.8-8,3.9-8.4,1.2-8.6-8.5-13.5-15.4-14.6h-.2Z"/>
          </g>
          <path class="cls-5" d="M202,204.8c-7.9-1.6-15,.6-16.4,4.9h0c-.4.8-.7,1.8-.9,2.5h0c-.2.8-.2,1.5-.2,1.5,0,.9-.3,1.7-.2,2.6,0,1.4.7,2.7,1.6,3.8,3.1,3.7,9.5,6.2,14.8,6.5,4.6.2,9.4-.4,12.6-4,.6-.7,1.1-1.6,1.2-2.6l.2-1.3h0l.3-2.2c1-4.7-4.9-9.9-13-11.6h0Z"/>
          <path class="cls-5" d="M231.5,191.1c-7.9-1.6-16.2.5-17.3,4.9h0c-.3.9-.6,1.7-.8,2.6h0c0,.2,0,.3-.1.5-.4,1.9-.6,3.4.6,5.4,2.3,3.8,6.7,6.2,10.9,7.3.8.2,1.7.4,2.5.6,2.4.4,4.8.4,7.2-.1,2.1-.4,4.3-1.1,6-2.5.5-.4,1-.9,1.4-1.5s.4-.6.5-.9c1.2-3.4,1.1-5.3,1.1-5.3.9-4.5-3.7-9.4-11.7-11.1h-.3Z"/>
        </g>
      </g>
    </g>
  </g>
</svg>