<svg xmlns="http://www.w3.org/2000/svg" viewBox="0 0 511.19 512.08"><defs><style>.a{fill:#fff;}</style></defs><title>steam_logo</title><path class="a" d="M255.68,0C121.19,0,11,103.71.53,235.5l137.22,56.74a72.05,72.05,0,0,1,40.79-12.6c1.36,0,2.71,0,4,.11l61-88.46c0-.41,0-.82,0-1.24a96.56,96.56,0,1,1,96.56,96.56c-.73,0-1.46,0-2.19,0l-87,62.11c0,1.14.09,2.28.09,3.43a72.48,72.48,0,0,1-143.54,14.28L9.34,325.82C39.73,433.29,138.47,512.08,255.68,512.08c141.41,0,256-114.64,256-256S397.09,0,255.68,0Z" transform="translate(-0.53 0)"/><path class="a" d="M161,388.5l-31.45-13a54.38,54.38,0,1,0,29.76-74.37l32.49,13.43A40,40,0,0,1,161,388.5Z" transform="translate(-0.53 0)"/><path class="a" d="M404.5,190.05a64.34,64.34,0,1,0-64.34,64.33A64.42,64.42,0,0,0,404.5,190.05Zm-112.56-.12a48.34,48.34,0,1,1,48.33,48.33A48.33,48.33,0,0,1,291.94,189.93Z" transform="translate(-0.53 0)"/></svg>