<?xml version="1.0" encoding="utf-8"?>
<!-- Generator: Adobe Illustrator 16.0.0, SVG Export Plug-In . SVG Version: 6.00 Build 0)  -->
<!DOCTYPE svg PUBLIC "-//W3C//DTD SVG 1.1//EN" "http://www.w3.org/Graphics/SVG/1.1/DTD/svg11.dtd">
<svg version="1.1" id="Layer_1" xmlns="http://www.w3.org/2000/svg" xmlns:xlink="http://www.w3.org/1999/xlink" x="0px" y="0px"
	 width="612px" height="792px" viewBox="0 0 612 792" enable-background="new 0 0 612 792" xml:space="preserve">
<path fill-rule="evenodd" clip-rule="evenodd" fill="#FFFFFF" d="M296.111,358.777c-5.657,0-11.041,0.146-16.408-0.092
	c-1.532-0.068-3.876-0.9-4.319-1.998c-0.677-1.676-0.521-5.427,0.14-5.64c8.135-2.627,11.559-9.847,16.391-15.772
	c3.975-4.874,3.475-10.548,3.824-16.112c0.695-11.076,2.398-22.24,1.617-33.221c-1.015-14.251-9.591-24.726-21.273-32.548
	c-11.107-7.438-23.328-12.263-36.314-15.357c-3.252-0.775-5.57-0.44-7.992,1.966c-2.439,2.425-5.433,4.285-8.111,6.479
	c-9.73,7.97-19.924,7.774-30.438,1.768c-7.37-4.21-14.793-8.341-21.997-12.822c-1.941-1.208-3.721-3.33-4.619-5.439
	c-2.463-5.777-4.418-11.77-6.631-17.832c6.247-7.96,12.55-15.994,19.361-24.675c-2.344-1.492-4.547-2.798-6.648-4.251
	c-5.663-3.916-6.245-8.515-0.807-12.847c5.814-4.633,12.283-8.451,18.505-12.567c5.11-3.381,10.196-6.814,15.47-9.928
	c1.488-0.879,3.725-1.309,5.398-0.943c34.768,7.598,68.988,17.121,102.158,30.108c14.276,5.59,28.36,11.676,42.439,17.75
	c1.779,0.768,3.591,2.574,4.384,4.347c11.535,25.817,20.634,52.381,23.025,80.782c0.85,10.092,5.3,18.973,8.176,28.398
	c4.208,13.79,4.012,27.735,0.189,41.674c-0.766,2.792-0.93,5.846-0.835,8.762c1.148,35.499,2.405,70.993,3.616,106.489
	c1.37,40.15,2.717,80.303,4.086,120.451c0.369,10.811-1.275,21.094-7.094,30.512c-7.096,11.484-22.305,18.105-34.792,14.371
	c-9.907-2.965-14.911-11.203-19.126-19.805c-5.397-11.012-6.87-23.105-8.973-34.998c-2.942-16.645-5.934-33.279-8.72-49.949
	c-2.919-17.473-5.68-34.973-8.4-52.477c-2.998-19.283-6.129-38.553-8.723-57.893c-2.422-18.053-4.215-36.189-6.285-54.289
	C296.295,360.395,296.206,359.609,296.111,358.777z M182.043,187.169c-3.838,4.929-7.131,10.19-11.426,14.44
	c-6.807,6.736-9.953,13.515-3.979,22.357c2.236,3.31,3.197,8.056,6.152,10.189c6.844,4.94,14.463,8.846,21.926,12.874
	c8.996,4.855,17.994,5.355,26.532-1.198c3.536-2.714,6.841-5.74,10.458-8.333c1.459-1.045,3.641-2.127,5.213-1.809
	c17.473,3.548,33.985,9.519,47.418,21.734c11.275,10.253,17.504,23.117,15.578,38.573c-2.785,22.365-3.684,44.743-1.301,67.117
	c2.491,23.383,5.557,46.713,8.844,70c3.711,26.289,7.766,52.535,12.012,78.744c3.707,22.883,7.539,45.756,12.013,68.498
	c2.093,10.639,4.643,21.488,9.055,31.312c10.67,23.758,29.795,21.652,44.315,9.359c8.142-6.893,11.024-16.568,11.392-26.668
	c0.427-11.762-0.238-23.568-0.59-35.352c-0.807-27.078-1.637-54.156-2.594-81.229c-1.191-33.674-2.548-67.342-3.765-101.015
	c-0.192-5.318-0.026-10.649-0.026-15.974c-0.506-0.041-1.011-0.083-1.516-0.124c-1.092,1.83-2.154,3.677-3.279,5.485
	c-5.369,8.634-13.71,12.387-22.809,9.929c-6.297-1.701-10.27-6.467-13.562-11.708c-12.145-19.318-13.146-53.72,3.295-74.111
	c5.077-6.296,11.801-9.866,20.066-7.433c3.776,1.112,7.11,3.729,11.303,6.023c-1.055-6.63-2.336-12.927-3.018-19.287
	c-2.578-24.063-11.606-46.128-20.943-68.086c-0.674-1.585-2.838-3.283-4.541-3.575c-50.251-8.613-97.713-25.476-143.347-47.897
	c-1.457-0.716-4.121-0.354-5.582,0.544c-8.604,5.291-17.031,10.871-25.488,16.399c-2.494,1.63-5.121,3.162-7.279,5.177
	c-2.711,2.532-3.976,5.437,0.07,8.193C175.641,182.364,178.516,184.59,182.043,187.169z M392.691,332.6
	c-0.179-17.864-3.86-30.487-11.091-39.819c-8.765-11.313-22.122-10.289-29.758,1.735c-6.275,9.88-8.885,20.619-9.262,31.995
	c-0.492,14.877,1.715,29.209,11.531,41.188c7.438,9.075,18.42,9.057,26.196,0.376C389.856,357.416,391.802,344.263,392.691,332.6z
	 M219.713,151.309c41.02,20.468,83.918,35.224,129.135,42.99C307.568,174.688,264.218,161.254,219.713,151.309z M295.383,335.476
	c-6.363,6.623-12.169,12.664-18.207,18.947c2.357,3.858,9.275,3.366,18.207,1.218C295.383,349.028,295.383,342.493,295.383,335.476z
	"/>
<path fill-rule="evenodd" clip-rule="evenodd" fill="#FFFFFF" d="M308.416,397.266c-0.133-8.113,3.783-10.427,9.926-7.242
	c5.417,2.808,8.652,7.098,9.409,13.121c1.88,14.939,4.102,29.859,5.216,44.857c0.306,4.113-2.313,8.777-4.6,12.582
	c-0.921,1.531-5.271,2.676-6.791,1.797c-2.528-1.463-5.324-4.494-5.753-7.219c-2.208-14.045-3.692-28.203-5.439-42.32
	C309.692,407.256,308.974,401.674,308.416,397.266z M310.369,396.527c0.102,0.869,0.243,2.184,0.41,3.498
	c1.496,11.794,2.961,23.593,4.511,35.382c0.882,6.705,1.581,13.463,3.05,20.045c0.464,2.076,2.916,4.652,4.91,5.135
	c1.511,0.367,4.474-1.814,5.474-3.6c1.465-2.613,2.663-5.973,2.39-8.863c-1.366-14.461-3.122-28.893-5.017-43.297
	c-0.734-5.586-3.151-10.48-8.541-13.205C312.805,389.22,310.244,390.839,310.369,396.527z"/>
<path fill-rule="evenodd" clip-rule="evenodd" fill="#FFFFFF" d="M379.847,407.701c-0.398,6.199-3.301,10.844-7.378,11.244
	c-4.403,0.434-8.716-4.301-9.216-10.469c-0.17-2.094-0.264-4.613,0.721-6.283c1.455-2.469,3.838-5.987,5.945-6.072
	c2.627-0.106,5.865,2.376,7.904,4.599C379.291,402.32,379.228,405.324,379.847,407.701z M377.327,409.51
	c0.145-7.326-2.807-11.952-6.484-11.851c-3.469,0.097-5.999,4.644-5.699,10.247c0.266,4.957,3.611,9.639,6.888,8.922
	C376.623,415.824,377.147,411.805,377.327,409.51z"/>
<path fill-rule="evenodd" clip-rule="evenodd" fill="#FFFFFF" d="M368.566,260.194c0,7.5-3.151,10.096-8.312,9.561
	c-3.777-0.392-7.541-5.021-8.404-10.337c-0.827-5.096,1.342-10.684,4.812-12.061c3.979-1.578,7.023,0.574,8.92,3.472
	C367.392,253.59,368.149,256.694,368.566,260.194z M366.47,260.112c0.083-4.553-1.323-8.547-5.555-10.707
	c-1.219-0.622-3.883-0.211-4.826,0.757c-3.275,3.359-2.619,7.496-1.183,11.536c1.214,3.416,2.89,6.683,7.155,6.13
	C366.458,267.259,366.449,263.571,366.47,260.112z"/>
</svg>
